<?xml version="1.0" standalone="no"?>
<!DOCTYPE svg PUBLIC "-//W3C//DTD SVG 1.1//EN" "http://www.w3.org/Graphics/SVG/1.1/DTD/svg11.dtd" >
<svg xmlns="http://www.w3.org/2000/svg">
<metadata></metadata>
<defs>
<font id="ClarendonTExtBolRegular" horiz-adv-x="1024" >
<font-face units-per-em="2048" ascent="1547" descent="-501" />
<missing-glyph horiz-adv-x="512" />
<glyph horiz-adv-x="0" />
<glyph horiz-adv-x="2048" />
<glyph unicode=" "  horiz-adv-x="512" />
<glyph unicode="&#x09;" horiz-adv-x="512" />
<glyph unicode="&#xa0;" horiz-adv-x="512" />
<glyph unicode="!" horiz-adv-x="636" d="M123 1142q0 115 55.5 179.5t142.5 64.5t139.5 -62.5t52.5 -161t-12 -158.5l-40 -193q-41 -202 -61 -397h-191l-4 42q-21 215 -51.5 415t-30.5 271zM137 152.5q0 69.5 51.5 116t120.5 46.5t115.5 -51.5t46.5 -120.5t-51.5 -115.5t-120.5 -46.5t-115.5 51t-46.5 120.5z" />
<glyph unicode="&#x22;" horiz-adv-x="772" d="M84 1365h237l-49 -549h-139zM452 1365h236l-49 -549h-139z" />
<glyph unicode="#" horiz-adv-x="1229" d="M112 433l28 177h208l28 174h-207l28 176h207l64 405h177l-64 -405h176l64 405h180l-64 -405h205l-28 -176h-205l-27 -174h208l-28 -177h-208l-69 -433h-180l69 433h-177l-68 -433h-177l68 433h-208zM525 610h177l27 174h-176z" />
<glyph unicode="$" horiz-adv-x="1283" d="M74 317q0 69 51 114.5t119 45.5t111 -40t43 -100.5t-58 -93.5q-30 -17 -80 -18q134 -103 389 -103q140 0 195 30q107 58 107 145t-93 120q-60 21 -218.5 41.5t-233.5 39.5q-163 43 -245 126t-82 238q0 90 43 170.5t133 140t217 79.5q48 8 112 15v112h151v-112 q159 -10 231 -35q134 -47 191 -145q33 -56 33 -128.5t-47.5 -120t-120 -47.5t-111.5 39.5t-39 94.5t30.5 82.5t60.5 27.5t66 -10q-104 98 -345 98q-216 0 -276 -107q-21 -37 -21 -74q0 -89 129 -120q47 -11 265 -42t334 -111q134 -92 134 -286q0 -208 -177 -321 q-112 -71 -244 -85q-35 -4 -93 -6v-207h-151v207q-122 12 -192 30q-203 53 -287 194q-31 53 -31 122z" />
<glyph unicode="%" horiz-adv-x="1806" d="M76 948q0 155 118 245q82 62 222.5 62t230.5 -89t90 -222q0 -80 -34.5 -150t-100.5 -116t-206.5 -46t-230 80.5t-89.5 235.5zM252 83l1013 1157l94 -83l-1017 -1157zM307 921q0 -185 99.5 -185t99.5 202q0 77 -10 122q-18 83 -88 83q-101 0 -101 -222zM868 301.5 q0 154.5 118 244.5q82 62 222 62t230.5 -89t90.5 -222q0 -79 -34.5 -149t-100.5 -116t-206.5 -46t-230 80.5t-89.5 235zM1100 274q0 -186 99.5 -186t99.5 202q0 77 -10 123q-18 83 -88 83q-101 0 -101 -222z" />
<glyph unicode="&#x26;" horiz-adv-x="1624" d="M45 390.5q0 180.5 134 300.5q55 50 180 103q-60 124 -60 208q0 169 132 269q94 71 229 71t224 -104q72 -83 72 -193t-96 -215q-31 -35 -105 -94q79 -140 237 -324q57 77 81.5 113.5t24.5 63.5q0 45 -76 45h-89v180h569v-180h-66q-71 0 -96 -16.5t-56 -66.5l-71 -117 q-27 -45 -107 -154q93 -103 174 -103q122 0 122 202q0 36 -4 98h180q1 -62 1 -93q0 -150 -43.5 -236t-127.5 -126.5t-181 -40.5q-181 0 -330 107q-162 -107 -366 -107t-333 105q-153 124 -153 304.5zM350 425q0 -116 80 -188.5t168 -72.5t169 52q-112 126 -151 180 q-65 92 -158 238q-43 -43 -61 -68q-47 -62 -47 -141zM579 1062q0 -43 22.5 -82.5t54.5 -91.5q73 48 95.5 89t22.5 80.5t-26 70.5t-72 31t-71.5 -27t-25.5 -70z" />
<glyph unicode="'" horiz-adv-x="405" d="M84 1365h237l-49 -549h-139z" />
<glyph unicode="(" horiz-adv-x="857" d="M72 470q0 416 186 648q210 263 566 273v-191q-125 -3 -209 -87t-113 -245.5t-29 -436.5t43 -411q78 -244 286 -257v-190q-236 11 -402.5 130t-247 297t-80.5 470z" />
<glyph unicode=")" horiz-adv-x="859" d="M33 -236q126 2 210 86.5t113 246t29 436t-43 411.5q-78 244 -286 257v190q236 -11 402.5 -130t247 -297t80.5 -471q0 -415 -186 -647q-210 -263 -567 -273v191z" />
<glyph unicode="*" d="M129 1096.5q0 50.5 43 97t102 46.5t92 -70q16 -35 26.5 -51t31.5 -16q31 0 31 32q0 22 -40 62q-41 40 -41 88.5t45 81t109.5 32.5t99.5 -30.5t35 -80.5t-35 -87t-42.5 -46.5t-7.5 -24.5q0 -29 31 -29q21 0 29.5 12.5t26.5 49.5q33 70 96.5 70t96.5 -56t33 -126t-64 -97 q-21 -9 -45 -9t-40 9l-42 23q-12 6 -27 6t-25 -9.5t-10 -23.5q0 -31 51 -38.5t71 -13t39 -32.5t19 -59q0 -63 -50 -110.5t-111 -47.5t-91 47q-21 31 -20 40l6 101q0 7 -12.5 16.5t-23.5 9.5t-22 -12.5t-11 -26.5l7 -73q0 -37 -27.5 -70.5t-90.5 -33.5t-111 46t-48 102t42 88 q16 12 73 25.5t57 44.5q0 20 -21 29q-6 3 -15.5 3t-48 -18.5t-63.5 -18.5q-60 0 -93 67q-15 31 -15 81.5z" />
<glyph unicode="+" d="M14 576v242h374v356h248v-356h375v-242h-375v-356h-248v356h-374z" />
<glyph unicode="," horiz-adv-x="506" d="M63 141.5q0 75.5 57 121.5t138.5 46t138.5 -63t57 -152t-40.5 -167t-109.5 -127q-90 -65 -219 -73v117q160 31 185 156q-41 -19 -85.5 -19t-83 42.5t-38.5 118z" />
<glyph unicode="-" horiz-adv-x="532" d="M0 369v244h532v-244h-532z" />
<glyph unicode="." horiz-adv-x="490" d="M79 152.5q0 68.5 51 115t120 46.5t115.5 -51.5t46.5 -120t-51.5 -115t-120 -46.5t-115 51.5t-46.5 120z" />
<glyph unicode="/" horiz-adv-x="801" d="M-42 -422l544 1787h214l-540 -1787h-218z" />
<glyph unicode="0" horiz-adv-x="1283" d="M37 617q0 224 99 383q168 267 522 267q217 0 372 -135q103 -90 159 -225.5t56 -295.5q0 -291 -178 -466t-416.5 -175t-402.5 139q-93 80 -152 210t-59 298zM431 580q0 -441 206 -441q96 0 155.5 95.5t59.5 386.5t-66 400q-46 77 -140 77q-116 0 -165.5 -130.5 t-49.5 -387.5z" />
<glyph unicode="1" horiz-adv-x="1283" d="M306 0v187h102q73 2 87 22.5t15.5 49.5t3.5 120v521h-208v179q246 7 290 159h288v-859q2 -110 7 -142.5t27.5 -41t71.5 -8.5h80v-187h-764z" />
<glyph unicode="2" horiz-adv-x="1283" d="M77 0q2 145 24 215q39 130 159 233q83 70 239.5 154t196.5 128q59 62 59 153t-60.5 142t-169.5 51t-178 -57q-47 -38 -68 -96q55 34 97 34q74 0 105 -58q16 -31 16 -83t-27 -93q-58 -86 -158.5 -86t-156.5 67.5t-56 167.5q0 166 137 277q68 55 173.5 86.5t230 31.5 t241.5 -41.5t185 -114.5q97 -102 97 -242q0 -172 -134 -285q-90 -76 -266 -122.5t-227 -63.5q-120 -39 -175 -105q-21 -22 -38 -47q109 73 212.5 73t212 -25.5t148.5 -25.5q92 0 112 90q5 24 7 78h182q-1 -197 -38 -286.5t-121.5 -134.5t-173.5 -45t-152.5 18.5t-173 63.5 t-164 45t-74.5 -23t-21 -74h-202z" />
<glyph unicode="3" horiz-adv-x="1283" d="M84 307q0 117 73 179q53 45 138 45t129 -54.5t44 -130.5t-66 -118q-30 -19 -53 -19t-43 2q70 -72 205.5 -72t207.5 63.5t72 156t-62.5 149t-183.5 59.5q-17 1 -51 1v170h40q68 0 117 22q101 45 101 159q0 76 -60 127.5t-166 51.5t-165 -36q-26 -16 -55 -52q38 9 56 9 q51 0 84.5 -36.5t33.5 -101.5t-53 -112.5t-129 -47.5t-129 59t-53 136q0 159 140 255t409.5 96t401.5 -121q93 -87 93 -209t-96 -193q-60 -45 -173 -77q117 -25 188 -74q129 -90 129 -239q0 -181 -176 -292q-146 -93 -373 -93q-134 0 -257.5 35.5t-201.5 95.5 q-116 90 -116 207z" />
<glyph unicode="4" horiz-adv-x="1283" d="M58 355v188l640 695h325v-695h205v-188h-205q1 -46 2 -61q1 -74 21.5 -90t82.5 -17h99v-187h-790v187h110q73 2 87 22.5t16 62t3 83.5h-596zM306 543h348v366z" />
<glyph unicode="5" horiz-adv-x="1283" d="M126 345q0 92 55.5 141t139.5 49t132 -51.5t48 -113.5q0 -134 -151 -150q70 -63 179.5 -63t180.5 78.5t71 208.5t-62 195t-165.5 65t-167.5 -83h-183l40 634q198 -47 435.5 -47t463.5 30q1 -12 1 -18q0 -57 -49.5 -109t-164 -98.5t-318.5 -46.5q-93 0 -200 19l-9 -184 q62 41 113.5 63t165.5 22q235 0 376.5 -135t141.5 -314q0 -102 -47.5 -195.5t-124.5 -152.5q-155 -119 -397 -119q-120 0 -224 35.5t-171 100.5q-109 104 -109 239z" />
<glyph unicode="6" horiz-adv-x="1283" d="M97 614q0 475 367 608q125 46 267 46q210 0 317 -84.5t107 -175.5t-54.5 -145.5t-129 -54.5t-123 42.5t-48.5 111.5q0 107 106 126q-61 29 -125 29q-201 0 -270 -193q-27 -76 -34 -274q54 55 119 86t176 31q172 0 293 -91q150 -114 150 -296t-140 -298 q-64 -53 -165.5 -83t-213.5 -30q-433 0 -556 358q-43 127 -43 287zM500 357q0 -109 50.5 -163.5t121.5 -54.5q100 0 146 79q35 59 35 170.5t-53 160.5t-130.5 49t-123.5 -66t-46 -175z" />
<glyph unicode="7" horiz-adv-x="1283" d="M163 647v571l193 2v-140q103 164 278 164q67 0 107.5 -13t133.5 -46.5t135.5 -33.5t60.5 37q9 16 16 50h166q-6 -97 -44 -194.5t-94 -183.5l-124 -192q-108 -170 -141 -380q-13 -82 -24 -288h-382q11 225 42.5 342t100.5 209t169.5 189t127.5 126t93 113 q-102 -53 -162 -53t-155.5 17t-136.5 17q-94 0 -130.5 -58t-36.5 -162v-93h-193z" />
<glyph unicode="8" horiz-adv-x="1283" d="M57 321q0 141 121 221q48 32 154 61q-111 63 -161.5 134.5t-50.5 164.5q0 164 163 271q66 43 172 68.5t229 25.5t231 -34t168 -95q82 -82 82 -191.5t-96 -178.5q-41 -30 -138 -59q161 -60 227.5 -138.5t66.5 -195.5q0 -190 -160 -302q-67 -47 -182.5 -75t-244.5 -28 q-281 0 -431 105t-150 246zM319 343q0 -105 114 -164q93 -48 211.5 -48t188 44t69.5 103.5t-42.5 93.5t-141.5 68l-255 88q-65 -45 -89 -68q-55 -52 -55 -117zM442 973q0 -56 38.5 -80.5t127.5 -56.5l175 -62q131 72 131 171q0 69 -66 111t-175.5 42t-170 -34.5t-60.5 -90.5 z" />
<glyph unicode="9" horiz-adv-x="1283" d="M94 874.5q0 186.5 172 303.5q131 89 344 89q291 0 444.5 -166.5t153.5 -493t-196 -494.5q-165 -143 -432 -143q-237 0 -351 103q-81 72 -81 171.5t69 152.5q47 37 123.5 37t118.5 -46t42 -104t-26 -84.5t-76 -39.5q60 -34 123 -34q118 0 197.5 77.5t99.5 246.5 q6 54 8 147q-52 -64 -120 -92.5t-167 -28.5q-183 0 -314.5 106t-131.5 292.5zM454 854.5q0 -116.5 67 -172.5q44 -37 105 -37q182 0 182 230.5t-172 230.5q-89 0 -135.5 -67.5t-46.5 -184z" />
<glyph unicode=":" horiz-adv-x="490" d="M79 152.5q0 68.5 51 115t120 46.5t115.5 -51.5t46.5 -120t-51.5 -115t-120 -46.5t-115 51.5t-46.5 120zM79 766.5q0 68.5 51 115t120 46.5t115.5 -51.5t46.5 -120t-51.5 -115t-120 -46.5t-115 51.5t-46.5 120z" />
<glyph unicode=";" horiz-adv-x="506" d="M63 141.5q0 75.5 57 121.5t138.5 46t138.5 -63t57 -152t-40.5 -167t-109.5 -127q-90 -65 -219 -73v117q160 31 185 156q-41 -19 -85.5 -19t-83 42.5t-38.5 118zM66 766.5q0 68.5 51 115t120 46.5t115.5 -51.5t46.5 -120t-51.5 -115t-120 -46.5t-115 51.5t-46.5 120z" />
<glyph unicode="&#x3c;" d="M54 600v197l913 461v-223l-653 -339l653 -331v-222z" />
<glyph unicode="=" d="M14 406v228h997v-228h-997zM14 759v228h997v-228h-997z" />
<glyph unicode="&#x3e;" d="M59 143v222l645 331l-645 339v223l902 -461v-197z" />
<glyph unicode="?" horiz-adv-x="1074" d="M54 983q0 160 126 277q62 58 159.5 91t214.5 33t223 -41.5t176 -127t70 -211t-61.5 -202.5t-172 -154t-134.5 -105q-63 -71 -66 -153h-199q2 103 24.5 164.5t94.5 157t107 157t35 131t-60 130.5q-62 61 -157 61q-156 0 -215 -164q56 25 96 25q76 0 113.5 -50.5t37.5 -118 t-53 -118t-144.5 -50.5t-153 79.5t-61.5 188.5zM324 152.5q0 69.5 51.5 116t120.5 46.5t115.5 -51.5t46.5 -120.5t-51.5 -115.5t-120.5 -46.5t-115.5 51t-46.5 120.5z" />
<glyph unicode="@" horiz-adv-x="1502" d="M68 670q0 205 106.5 379t270.5 256.5t343 82.5q264 0 443 -153q103 -89 153 -207.5t50 -240.5q0 -185 -97 -323q-64 -91 -148 -128q-48 -21 -105.5 -21t-109.5 50q-26 24 -36 62q-32 -48 -75 -75q-86 -55 -193 -55t-190.5 91.5t-83.5 245t110 274t248 120.5q82 0 148 -47 q33 -23 51 -53l16 78h179l-76 -389q-13 -69 -13 -90q0 -64 48 -64t94 67q76 111 76 258q0 198 -136 318.5t-357.5 120.5t-381 -162t-159.5 -397q0 -110 40 -212.5t112 -174.5q143 -143 365 -143q176 0 321 102l95 -133q-171 -130 -407 -130q-292 0 -485 182 q-105 99 -160.5 235t-55.5 276zM600 633q0 -65 33.5 -109t107.5 -44t120.5 72.5t46.5 137t-33 108t-107 43.5t-121 -71.5t-47 -136.5z" />
<glyph unicode="A" horiz-adv-x="1506" d="M-38 0v187h66q53 0 84 21q35 28 70 131l349 1026h472l319 -1026q41 -118 64 -131q21 -19 91 -21h68v-187h-779v187h81q53 0 75.5 7t22.5 32t-27 113l-35 105h-419l-35 -105q-27 -87 -27 -102q0 -50 95 -50h89v-187h-624zM520 620h308l-150 460z" />
<glyph unicode="B" horiz-adv-x="1574" d="M68 0v187h115q73 1 87 22t15.5 49.5t3.5 120.5v608q-2 111 -6.5 142.5t-31.5 40.5q-19 8 -68 9h-115v186h984q144 0 234 -50q156 -86 156 -259.5t-128 -265.5q-60 -43 -171 -75q153 -22 230 -71q147 -92 147 -269q0 -101 -44.5 -181.5t-128.5 -128t-184.5 -56.5 t-256.5 -9h-838zM688 186h126q105 0 146 14q67 22 97 82.5t30 121t-25 111.5q-49 98 -169 102q-34 2 -88 2h-117v-433zM688 799h117q110 0 162 30q75 43 75 150t-54 154q-36 31 -80 38.5t-100 7.5h-120v-380z" />
<glyph unicode="C" horiz-adv-x="1451" d="M67 673q0 383 245 577q184 145 451 145q168 0 262 -54q45 -26 102 -88l30 112h208v-530h-208q-4 157 -62 245q-80 120 -251 120t-258 -164q-69 -129 -69 -348t65 -345q92 -178 280 -178t262 184q27 67 33 200h208q0 -153 -47 -262q-137 -317 -556 -317q-140 0 -242.5 29 t-191.5 94q-119 86 -179 210q-82 169 -82 370z" />
<glyph unicode="D" horiz-adv-x="1708" d="M68 0v187h115q73 2 87 22.5t15.5 49t3.5 120.5v608q-2 110 -6.5 142t-31.5 41q-19 8 -68 9h-115v186h847q184 0 289 -32q201 -62 318.5 -226.5t117.5 -420t-132 -433t-380 -230.5q-112 -23 -266 -23h-794zM688 186h135q110 0 176 29q112 50 160 189q30 88 30 292.5 t-38 300.5q-51 132 -164 166q-54 16 -167 16h-132v-993z" />
<glyph unicode="E" horiz-adv-x="1577" d="M68 0v187h115q73 1 87 22t15.5 49.5t3.5 120.5v608q-2 111 -6.5 142.5t-31.5 40.5q-19 8 -68 9h-115v186h1406v-527h-214v5q0 157 -62 248q-34 51 -85 69.5t-154 18.5h-271v-387h70q107 1 143 85q13 35 13 129h181v-614h-181v42q0 101 -41.5 139t-119.5 38h-65v-425h226 q133 0 180 12.5t88 58t57 108.5t21 195h214v-560h-1406z" />
<glyph unicode="F" horiz-adv-x="1464" d="M68 0v187h115q73 2 87 22.5t15.5 49t3.5 120.5v608q-2 110 -6.5 142t-31.5 41q-19 8 -68 9h-115v186h1401v-532h-213v26q0 267 -160 310q-40 10 -121 10h-287v-388h76q158 0 158 191v22h180v-622h-180q0 70 -3 101q-8 72 -69 109q-28 16 -85 16h-77v-229q2 -112 6.5 -143 t28 -40t71.5 -9h115v-187h-841z" />
<glyph unicode="G" horiz-adv-x="1612" d="M68 658q0 305 153 498q191 239 541 239q184 0 286 -60q37 -23 79 -78l32 108h213v-520h-213q-8 92 -22 141t-44 95q-78 119 -239.5 119t-248.5 -135.5t-87 -367t59 -344.5q98 -188 271 -188t173 154v20q-2 110 -6.5 142t-27.5 41t-73 9h-86v186h746v-186h-61 q-74 -2 -88 -22.5t-15.5 -49.5t-3.5 -120v-339h-181l-40 113q-119 -143 -400 -143t-461 137q-125 95 -190.5 245.5t-65.5 305.5z" />
<glyph unicode="H" horiz-adv-x="1828" d="M68 0v187h115q73 1 87 22t15.5 49.5t3.5 120.5v608q-2 110 -6.5 142t-31.5 41q-19 8 -68 9h-115v186h796v-186h-70q-73 -2 -87 -22.5t-15.5 -49.5t-3.5 -120v-186h451v186q-2 110 -6.5 142t-31.5 41q-19 8 -68 9h-70v186h796v-186h-115q-73 -2 -87 -22.5t-15.5 -49.5 t-3.5 -120v-608q2 -111 7 -142.5t27.5 -40.5t71.5 -9h115v-187h-796v187h70q73 1 87 22t15.5 49.5t3.5 120.5v236h-451v-236q2 -111 6.5 -142.5t27.5 -40.5t72 -9h70v-187h-796z" />
<glyph unicode="I" horiz-adv-x="971" d="M67 0v187h115q73 2 87 22.5t15.5 49t3.5 120.5v608q-2 110 -6.5 142t-31.5 41q-19 8 -68 9h-115v186h834v-186h-115q-73 -2 -87 -22.5t-15.5 -49.5t-3.5 -120v-608q2 -112 6.5 -143t28 -40t71.5 -9h115v-187h-834z" />
<glyph unicode="J" horiz-adv-x="1255" d="M-14 361q0 107 68.5 172t154.5 65t139 -56t53 -135t-49.5 -121t-96.5 -42t-96 27q31 -55 77 -80.5t129 -25.5q160 0 204 100q24 57 24 204v518q-2 110 -6.5 142t-31.5 41q-19 8 -68 9h-115v186h850v-186h-124q-73 -2 -87 -22.5t-15.5 -49.5t-3.5 -120v-570 q0 -123 -25 -194q-46 -130 -183 -200q-103 -53 -299 -53t-337 85q-73 45 -117.5 122t-44.5 184z" />
<glyph unicode="K" horiz-adv-x="1742" d="M68 0v187h115q73 1 87 22t15.5 49.5t3.5 120.5v608q-2 110 -6.5 142t-31.5 41q-19 8 -68 9h-115v186h796v-186h-70q-73 -2 -87 -22.5t-15.5 -49.5t-3.5 -120v-259l411 364q44 39 44 59q0 27 -52 27h-124v187h738v-188h-71q-70 0 -111.5 -23.5t-129.5 -100.5l-216 -188 l337 -559q44 -73 64.5 -92.5t37.5 -23t63 -3.5h70v-187h-783v187h78q48 0 59 10.5t11 26.5t-29 63l-201 325l-196 -181v-52q2 -111 6.5 -142.5t27.5 -40.5t72 -9h71v-187h-797z" />
<glyph unicode="L" horiz-adv-x="1381" d="M68 0v187h115q73 2 87 22.5t15.5 49t3.5 120.5v608q-2 110 -6.5 142t-31.5 41q-19 8 -68 9h-115v186h841v-186h-115q-73 -2 -87 -22.5t-15.5 -49.5t-3.5 -120v-801h244q93 1 135 26q66 37 95.5 117.5t33.5 228.5h206v-558h-1334z" />
<glyph unicode="M" horiz-adv-x="2161" d="M68 0v187h115q73 1 87 22t15.5 49.5t3.5 120.5v608q-2 110 -6.5 142t-31.5 41q-19 8 -68 9h-115v186h796l216 -828l217 828h796v-186h-115q-73 -2 -87 -22.5t-15.5 -49.5t-3.5 -120v-608q2 -111 6.5 -142.5t27.5 -40.5t72 -9h115v-187h-796v187h70q73 1 87 22t15.5 49.5 t3.5 120.5v766l-314 -1145h-320l-318 1145v-766q2 -111 6.5 -142.5t27.5 -40.5t72 -9h70v-187h-629z" />
<glyph unicode="N" horiz-adv-x="1768" d="M68 0v187h115q73 1 87 22t15.5 49.5t3.5 120.5v608q-2 110 -6.5 142t-31.5 41q-19 8 -68 9h-115v186h686l520 -944v566q-2 110 -6.5 142t-31.5 41q-19 8 -68 9h-126v186h685v-186h-115q-73 -2 -87 -22.5t-15.5 -49.5t-3.5 -120v-987h-442l-543 995v-616 q2 -111 6.5 -142.5t27.5 -40.5t72 -9h127v-187h-686z" />
<glyph unicode="O" horiz-adv-x="1607" d="M68 679q0 180 64.5 329t183.5 242q185 145 480 145q517 0 675 -373q67 -157 67 -335t-59.5 -321t-170.5 -235q-194 -161 -498 -161t-502 155q-112 87 -176 230.5t-64 323.5zM519 670.5q0 -266.5 60 -381.5q72 -137 233.5 -137t227.5 162q47 117 47 374t-59 373 q-69 139 -222 139t-220 -131.5t-67 -398z" />
<glyph unicode="P" horiz-adv-x="1476" d="M68 0v187h115q73 1 87 22t15.5 49.5t3.5 120.5v608q-2 110 -6.5 142t-31.5 41q-19 8 -68 9h-115v186h905q151 0 215 -13q165 -36 246 -146q64 -87 64 -212q0 -219 -171 -326q-88 -55 -171.5 -63.5t-197.5 -8.5h-270v-217q2 -111 6.5 -142.5t27.5 -40.5t72 -9h115v-187 h-841zM688 782h146q134 0 193.5 49.5t59.5 159.5t-79 155q-58 33 -179 33h-141v-397z" />
<glyph unicode="Q" horiz-adv-x="1712" d="M68 668q0 395 268 591q186 136 489 136t485 -158q120 -104 173.5 -258t53.5 -303q0 -245 -124 -439q53 -39 104 -39t74 57q9 23 9 49t-4 58h117q3 -74 3 -109q0 -166 -55 -250.5t-183 -84.5q-95 0 -184 54q-37 23 -99 78q-80 -30 -169 -55t-240 -25q-277 0 -454 128 q-113 81 -175 199q-89 172 -89 371zM518 683q0 -146 29 -311q9 85 30.5 136.5t79 90.5t135.5 39q141 0 285 -125q10 110 10 191q0 275 -72.5 392t-208.5 117q-288 0 -288 -530zM625 299.5q0 -59.5 49 -103.5t124 -44t139 42q18 11 56 43q-81 82 -144.5 130t-112.5 48 t-80 -28t-31 -87.5z" />
<glyph unicode="R" horiz-adv-x="1652" d="M68 0v187h115q73 2 87 22.5t15.5 49t3.5 120.5v608q-2 110 -6.5 142t-31.5 41q-19 8 -68 9h-115v186h914q167 0 227 -13q145 -33 219 -139q55 -78 55 -187.5t-68 -186.5t-162 -104q-35 -10 -107 -21q131 -18 183 -59t66 -95t14 -126v-142q0 -64 11.5 -91.5t47 -27.5 t45.5 30t12 179h131q5 -68 5 -106q0 -139 -80.5 -222.5t-232.5 -83.5q-197 0 -277 121q-65 99 -65 273l2 146q0 78 -55 100q-24 10 -95 10h-170v-241q2 -111 6.5 -142.5t27.5 -40.5t72 -9h115v-187h-841zM688 796q122 -1 152 -1q126 0 169 30q67 47 67 165t-69 160 q-47 29 -152 29h-167v-383z" />
<glyph unicode="S" horiz-adv-x="1414" d="M82 0v528h207q17 -93 48 -147t98 -106q141 -110 329 -110q120 0 170.5 46.5t50.5 103.5q0 81 -80 127q-47 26 -201 55q-291 55 -433 133q-188 103 -188 320.5t154 331t413 113.5q178 0 304 -55q57 -25 128 -84l38 109h183v-509h-201q-19 152 -121 241.5t-280 89.5 q-99 0 -174 -36t-75 -108.5t75 -108.5q49 -23 237 -58t276 -68q319 -119 319 -405q0 -205 -150 -322q-142 -111 -401 -111q-197 0 -338 53q-65 24 -159 81l-39 -104h-190z" />
<glyph unicode="T" horiz-adv-x="1356" d="M-12 833v532h1380v-532h-220q1 34 1 51q0 136 -55.5 216t-171.5 80q-18 0 -45 -1v-800q2 -112 6.5 -143t28 -40t71.5 -9h115v-187h-849v187h115q73 1 87 22t15.5 49.5t3.5 120.5v800h-12q-257 0 -257 -341v-5h-213z" />
<glyph unicode="U" horiz-adv-x="1652" d="M34 1179v186h833v-186h-107q-73 -2 -87 -22.5t-15.5 -49.5t-3.5 -120v-478q0 -135 8 -174q34 -170 256 -170q161 0 214 102q33 64 33 242v478q-2 110 -6.5 142t-31.5 41q-19 8 -68 9h-99v186h658v-186h-115q-73 -2 -87 -22.5t-15.5 -49.5t-3.5 -120v-546q0 -139 -29 -211 q-57 -137 -185 -198.5t-336 -61.5q-361 0 -502 164q-63 74 -81 172q-9 50 -9 135v546q-2 111 -6.5 142.5t-31.5 40.5q-19 8 -68 9h-115z" />
<glyph unicode="V" horiz-adv-x="1444" d="M-31 1178v187h792v-187h-99q-52 0 -71 -9.5t-19 -32t17 -81.5l216 -746l223 763q14 49 14 67q0 31 -40 37q-15 2 -59 2h-87v187h619v-187h-62q-51 0 -77 -14q-38 -20 -90 -189l-303 -975h-436l-299 975q-45 146 -74.5 174.5t-101.5 28.5h-63z" />
<glyph unicode="W" horiz-adv-x="2097" d="M-46 1178v187h706v-186h-55q-64 0 -64 -37q0 -13 11 -53l217 -780l197 644l-16 63q-24 91 -32 107q-29 56 -104 56h-51v186h704v-186h-84q-70 0 -70 -43q0 -18 7 -47l196 -780l199 754q9 35 9 66t-20.5 40.5t-60.5 9.5h-82v186h582v-187h-60q-66 0 -93 -31.5t-55 -131.5 l-278 -1015h-429l-156 558l-165 -558h-430l-297 1015q-33 110 -60.5 136.5t-91.5 26.5h-74z" />
<glyph unicode="X" horiz-adv-x="1522" d="M-14 0v186h82h4q62 0 102 28q40 30 131 140l236 290l-276 386q-61 92 -95 121q-32 28 -80 28h-3h-75v186h760v-186h-65q-54 0 -54 -29q0 -22 27 -62l134 -196l153 196q28 35 28 55q0 36 -57 36h-71v186h600v-186h-58q-67 0 -97 -25.5t-111 -120.5l-232 -281l295 -403 q79 -108 109 -135.5t94 -27.5h69v-186h-806v186h84q73 0 73 33q0 17 -20 47l-160 243l-186 -243q-25 -33 -25 -50q0 -30 45 -30h96v-186h-651z" />
<glyph unicode="Y" horiz-adv-x="1448" d="M-28 1179v186h811v-186h-86q-73 0 -73 -34q0 -14 23 -56l175 -317l180 317q25 44 25 59q0 31 -64 31h-87v186h603v-186h-77q-63 0 -100 -48q-11 -15 -81 -118l-308 -479v-155q2 -112 6.5 -143t28 -40t71.5 -9h134v-187h-858v187h134q73 1 87 22t15.5 49.5t3.5 120.5v155 l-301 479q-65 110 -94 138t-90 28h-78z" />
<glyph unicode="Z" horiz-adv-x="1401" d="M73 0v233l774 931h-289q-60 0 -90.5 -7.5t-56.5 -29.5q-102 -83 -102 -285v-12h-206v535h1227v-201l-805 -978h281q120 1 173 27q92 47 121 179q12 54 16 155h214v-547h-1257z" />
<glyph unicode="[" horiz-adv-x="741" d="M116 -401v1766h571v-169h-211v-1429h211v-168h-571z" />
<glyph unicode="\" horiz-adv-x="801" d="M85 1365h214l544 -1787h-217z" />
<glyph unicode="]" horiz-adv-x="741" d="M54 -233h210v1429h-210v169h570v-1766h-570v168z" />
<glyph unicode="^" d="M11 567l387 807h229l387 -807h-247l-255 517l-254 -517h-247z" />
<glyph unicode="_" d="M0 -96h1024v-161h-1024v161z" />
<glyph unicode="`" d="M180 1351.5q0 19.5 20 32.5q12 7 57 7h238l113 -326h-138l-260 239q-30 28 -30 47.5z" />
<glyph unicode="a" horiz-adv-x="1226" d="M85 239.5q0 124.5 93 185.5q48 32 104.5 46.5t173.5 36.5t178 59t61 119.5t-78 122.5q-57 28 -157 28t-167 -60q40 8 66 8q59 0 84 -34t25 -86t-44.5 -84.5t-117.5 -32.5t-123.5 48.5t-50.5 107.5q0 259 461 259q196 0 293.5 -42.5t135.5 -151.5q18 -51 18 -179v-324 q0 -59 6 -79q9 -33 38 -33q39 0 48 47q5 27 5 79v63h102q6 -106 6 -145q0 -228 -275 -228q-134 0 -210 56q-41 31 -59 108q-80 -164 -302 -164q-154 0 -234 72.5t-80 197zM436 257q0 -48 32.5 -75.5t89.5 -27.5t94 45.5t37 110.5v164q-49 -43 -124 -77.5t-102 -63t-27 -76.5 z" />
<glyph unicode="b" horiz-adv-x="1280" d="M29 1188v177h499v-561q57 75 121.5 117t167.5 42q209 0 318 -161q79 -119 79 -317q0 -292 -151 -427q-99 -88 -259 -88t-252 66q-39 28 -83 94l-54 -142h-245v1012q-1 115 -4 146.5t-33 37.5q-13 2 -60 4h-44zM521 475.5q0 -141.5 39.5 -231.5t120.5 -90q157 0 157 312.5 t-156 312.5q-68 0 -106 -66q-55 -96 -55 -237.5z" />
<glyph unicode="c" horiz-adv-x="1092" d="M67 477q0 126 49.5 228t139.5 166q132 92 320 92q118 0 214.5 -37t161.5 -115t65 -181.5t-63 -158t-144 -54.5t-128 49.5t-47 117t44 104.5t70.5 37t50.5 -5q-63 58 -142 58q-215 0 -215 -321q0 -128 43.5 -215.5t151.5 -87.5q152 0 162 202h213q-17 -142 -75 -230 q-103 -156 -348 -156q-356 0 -476 272q-47 109 -47 235z" />
<glyph unicode="d" horiz-adv-x="1290" d="M68 473.5q0 123.5 37 233.5t102 169q93 87 232.5 87t227.5 -68q40 -31 93 -105v210q-1 115 -4 147t-33 38q-13 2 -59 4h-73v176h520v-1004q1 -115 3.5 -146.5t31.5 -37.5q12 -2 57 -4h66v-173h-509v147q-46 -94 -100 -130q-73 -47 -184 -47q-176 0 -287 117 q-56 60 -88.5 161.5t-32.5 225zM434 463q0 -141 38.5 -225t127 -84t126.5 102t38 224.5t-41 210t-124 87.5t-124 -87t-41 -228z" />
<glyph unicode="e" horiz-adv-x="1130" d="M68 478q0 117 50 221.5t140 172.5q124 92 307 92q490 0 497 -548h-629v-8q0 -254 185 -254q155 0 175 170h252q-31 -122 -101 -202q-134 -152 -358 -152q-351 0 -474 288q-44 103 -44 220zM435 573h282q-5 98 -23 139q-30 67 -112.5 67t-117.5 -74q-21 -46 -29 -132z" />
<glyph unicode="f" horiz-adv-x="813" d="M72 0v177h66q47 3 60 5q29 6 32 38t4 146v391h-162v177h162v113q0 346 398 346q152 0 241 -63t89 -160q0 -69 -44 -111t-114.5 -42t-107 35.5t-36.5 92t45 85.5q17 11 55 22q-28 13 -52 13q-134 0 -134 -138q0 -21 11 -193h175v-177h-175v-391q1 -115 4 -146.5t33 -37.5 q13 -2 60 -5h78v-177h-688z" />
<glyph unicode="g" horiz-adv-x="1265" d="M36 -235q0 79 80 120q33 16 84 30q-65 33 -100 72.5t-35 127.5t76 142q32 22 101 41q-63 52 -91 92q-55 77 -55 183q0 169 126 279q59 52 146 81.5t207.5 29.5t224.5 -55q26 -13 75 -46q49 50 93.5 80t132 30t146 -59t58.5 -135.5t-41.5 -114.5t-97.5 -38t-90 39.5 t-34 92.5t44 105q-22 4 -36 4q-64 0 -118 -64q68 -110 68 -201q0 -183 -143 -292q-118 -91 -311 -91q-114 0 -241 42q-30 -24 -30 -51q0 -88 190 -88l308 10q188 0 282 -71.5t94 -201.5q0 -62 -26.5 -117t-82.5 -94q-116 -81 -421 -81t-457 53q-126 45 -126 146zM298 -211 q0 -55 100 -69.5t216 -14.5q293 0 293 88q0 52 -96.5 62.5t-219.5 10.5t-208 -11t-85 -66zM431 580q0 -92 24.5 -169t89.5 -77q120 0 120 254q0 124 -23.5 193t-91.5 69q-119 0 -119 -270z" />
<glyph unicode="h" horiz-adv-x="1386" d="M54 0v177h69q46 2 59 4q30 7 33 38.5t4 146.5v634q-1 115 -4 147t-33 38q-13 2 -59 4h-69v176h516v-558q35 55 75 85q95 71 272.5 71t260.5 -105q41 -52 45 -107.5t4 -136.5v-248q1 -115 4 -146.5t33 -38.5q13 -2 59 -4h56v-177h-615v177h9q45 2 59 4q29 7 32 39t4 146 v144q0 123 -4 153q-16 116 -136 116q-83 0 -120.5 -51t-37.5 -127v-235q1 -115 4 -146.5t34 -38.5q14 -2 61 -4h21v-177h-636z" />
<glyph unicode="i" horiz-adv-x="749" d="M68 0v177h69h7q58 0 72 17q15 18 15.5 48.5t1.5 123.5v202q-1 115 -4 146.5t-33 37.5q-13 3 -59 5h-69v177h516v-568q1 -112 4 -145t32 -39q13 -2 58 -5h64v-177h-674zM213 1194.5q0 77.5 57.5 129.5t135 52t129.5 -57.5t52 -135.5t-57.5 -129.5t-135 -51.5t-129.5 57.5 t-52 135z" />
<glyph unicode="j" horiz-adv-x="774" d="M-126 -209q0 85 49.5 132t128.5 47t119 -55q27 -37 27 -93.5t-21 -82t-50 -44.5q30 -12 57 -12t56.5 34t29.5 103l-6 146v602q-1 113 -4 145.5t-33 38.5q-14 3 -59 5h-80v177h527v-968q0 -119 -8 -164q-24 -130 -127.5 -188.5t-217.5 -58.5q-213 0 -317 89 q-71 62 -71 147zM251 1194.5q0 77.5 57.5 130t135 52.5t130 -57.5t52.5 -135.5t-58 -130t-135.5 -52t-129.5 57.5t-52 135z" />
<glyph unicode="k" horiz-adv-x="1382" d="M55 0v177h71q46 2 59 4q30 7 33 39.5t4 145.5v634q-1 113 -4 146t-33 39q-13 2 -59 4h-71v176h518v-872l246 213q15 13 15 26q0 25 -49 25h-88v177h626v-177h-90h-7q-63 0 -125 -49l-110 -91l213 -347q37 -58 68 -76q29 -17 77 -17h6h63v-177h-671v177h57q40 0 40 26 q0 11 -35 67l-84 136l-152 -136q0 -49 8 -71t54 -22h34v-177h-614z" />
<glyph unicode="l" horiz-adv-x="751" d="M55 0v177h69q46 2 59 4q30 7 33 39t4 146v634q-1 115 -4 147t-33 38q-13 2 -59 4h-69v176h516v-999q1 -115 4 -147t33 -38q14 -2 60 -4h63v-177h-676z" />
<glyph unicode="m" horiz-adv-x="1967" d="M68 0v177h68q68 1 81 18t13.5 47.5t1.5 123.5v202q-1 113 -4 145.5t-32 38.5q-14 3 -60 5h-68v177h508v-158q50 94 107 132q86 56 233.5 56t221.5 -91q27 -33 48 -97q49 98 126 143t194 45q215 0 277 -144q20 -45 22 -112.5t2 -114.5v-227q1 -113 4 -145.5t33 -38.5 q13 -2 59 -5h57v-177h-605v177q24 2 44.5 2.5t36 12t16 43.5t1.5 131v217q0 99 -10.5 129t-42 50t-71.5 20q-143 0 -143 -199v-217q1 -115 4 -146.5t25 -35.5t67 -7v-177h-540v177q29 2 50 2.5t36 11.5t16 43.5t2 131.5v217q0 85 -13 125q-24 72 -113 72q-144 0 -144 -197 v-217q1 -115 4 -146t33 -38q16 -4 59 -5v-177h-604z" />
<glyph unicode="n" horiz-adv-x="1377" d="M68 0v177h64q46 2 60 4q29 6 32 39t4 146v202q-1 114 -4 146.5t-32 38.5q-15 3 -60 4h-64v177h505v-135q62 86 129.5 125.5t199.5 39.5q208 0 278 -109q36 -56 39 -120.5t3 -150.5v-218q1 -115 4 -147t32 -38q14 -2 60 -4h53v-177h-608v177h10q45 2 58 4q30 6 33 38.5 t4 146.5v215q0 73 -6 97q-28 102 -135 102q-83 0 -118.5 -57.5t-35.5 -141.5v-215q1 -114 4 -146.5t32 -38.5q14 -2 60 -4h15v-177h-616z" />
<glyph unicode="o" horiz-adv-x="1211" d="M68 463q0 118 41 217q117 283 511 283q250 0 397 -154q126 -133 126 -336q0 -255 -189 -399q-136 -104 -350 -104q-236 0 -376 125q-160 141 -160 368zM443 459q0 -154 33.5 -237t126 -83t129 89t36.5 248.5t-32.5 238.5t-126.5 79q-166 0 -166 -335z" />
<glyph unicode="p" horiz-adv-x="1311" d="M27 -246h77q45 2 59 4q30 7 33 39.5t4 145.5v625q-1 114 -4 146.5t-33 38.5q-14 2 -59 4h-64v177h511v-144q49 84 114.5 129t184.5 45q276 0 360 -273q32 -106 32 -233.5t-39 -239.5t-116 -180t-224.5 -68t-227.5 63q-36 28 -84 92v-182q1 -115 4 -147t32 -38 q14 -2 60 -4h58v-176h-678v176zM552 446q0 -151 42 -229t116 -78q157 0 157 317q0 162 -35.5 243t-117 81t-122 -91.5t-40.5 -242.5z" />
<glyph unicode="q" horiz-adv-x="1303" d="M68 467q0 121 40.5 230.5t113.5 171.5q109 95 251 95t218 -66q31 -28 73 -91v127h511v-177h-64q-45 -1 -60 -4q-29 -6 -32 -38t-4 -147v-625q1 -115 4 -147t25 -36t67 -6h64v-176h-683v176h76q45 2 60 4q29 6 32 38t4 147v190q-60 -88 -128.5 -125.5t-170.5 -37.5 q-176 0 -282 119q-53 60 -84 158.5t-31 219.5zM443 445q0 -291 157 -291q170 0 170 323q0 146 -43 224t-121 78q-163 0 -163 -334z" />
<glyph unicode="r" horiz-adv-x="1003" d="M68 0v177h75q46 2 59 4q30 7 33 39t4 146v202q-1 115 -4 146.5t-33 38.5q-14 2 -59 4h-75v177h511v-177q49 94 82 134q60 73 165 73t153.5 -67.5t48.5 -161.5t-52 -143.5t-121 -49.5t-113 41.5t-44 111.5q0 96 91 125q-27 7 -50.5 7t-61 -31t-68 -89.5t-30.5 -210.5v-130 q1 -113 4 -145.5t33 -39.5q13 -2 59 -4h69v-177h-676z" />
<glyph unicode="s" horiz-adv-x="1086" d="M65 652q0 151 123 232t331 81q126 0 215 -37q36 -14 87 -45l19 51h143v-314h-162q-40 175 -262 175q-135 0 -135 -82q0 -55 154 -90q244 -57 346.5 -123t102.5 -198q0 -76 -35 -144t-98 -112q-108 -77 -268 -77t-274 49q-40 18 -95 56l-19 -74h-162v340h162 q30 -92 115 -146.5t208.5 -54.5t123.5 76q0 31 -31 49.5t-161 53t-192 59.5q-236 93 -236 275z" />
<glyph unicode="t" horiz-adv-x="952" d="M38 757v165q296 22 297 394h240v-382h245v-177h-245v-408q0 -96 11.5 -145.5t61.5 -49.5q62 0 74 72q7 39 7 87t-2 147h175v-100v-13q0 -140 -21 -196q-66 -181 -302 -181q-190 0 -283 101q-55 60 -63.5 129t-8.5 149v408h-186z" />
<glyph unicode="u" horiz-adv-x="1316" d="M7 757v177h496v-580q0 -95 18 -140q27 -66 126 -66q152 0 152 206v214q-1 113 -4 145.5t-33 38.5q-13 3 -59 5h-75v177h514v-568q1 -114 4 -146t33 -38q13 -2 59 -5h72v-177h-511v137q-90 -168 -318 -168q-185 0 -261 93q-53 64 -58 150q-2 39 -2 132v224 q-1 115 -4 146.5t-33 37.5q-14 3 -59 5h-57z" />
<glyph unicode="v" horiz-adv-x="1193" d="M-5 757v177h658v-177h-67q-38 0 -54 -7.5t-16 -27t11 -52.5l154 -456l156 456q11 32 11 53q0 34 -51 34h-72v177h474v-177h-45q-57 0 -83.5 -24t-55.5 -107l-218 -626h-405l-213 626q-27 76 -49 103t-80 28h-55z" />
<glyph unicode="w" horiz-adv-x="1705" d="M-10 757v177h598v-177h-31q-29 0 -46.5 -6.5t-17.5 -26t5 -36.5l120 -457l134 457q8 28 8 40q0 29 -51 29h-47v177h566v-177h-46q-54 0 -54 -33q0 -10 7 -36l122 -457l131 457q7 26 7 35q0 34 -45 34h-48v177h411v-177h-41h-6q-48 0 -65 -16q-18 -17 -48 -118l-180 -623 h-389l-128 452l-127 -452h-384l-180 623q-22 75 -44.5 104.5t-71.5 29.5h-59z" />
<glyph unicode="x" horiz-adv-x="1263" d="M2 0v177h71q49 0 80.5 18t109.5 91l176 165l-209 218q-64 59 -88 74q-22 14 -62 14h-5h-53v177h663v-177h-37q-36 0 -36 -17t18 -35l87 -89l105 93q16 14 16 27q0 21 -35 21h-46v177h490v-177h-47q-56 0 -85 -14.5t-94 -70.5l-199 -170l208 -216q66 -69 94 -89t85 -20h52 v-177h-680v177h31q51 0 51 22q0 14 -16 32l-100 110l-108 -109q-16 -16 -16 -30q0 -25 34 -25h43v-177h-498z" />
<glyph unicode="y" horiz-adv-x="1222" d="M-1 757v177h689v-177h-76q-36 0 -48 -6t-12 -19.5t16 -52.5l148 -372l160 372q13 29 13 47q0 31 -58 31h-74v177h474v-177h-56q-50 0 -71.5 -29t-55.5 -102l-318 -705q-99 -221 -194.5 -292t-238 -71t-215 72t-72.5 175t59.5 154t132 51t118.5 -42.5t46 -118.5t-59 -114 q-30 -20 -56.5 -20t-46.5 1q44 -31 89 -31q81 0 136.5 71t99.5 165l-323 705q-38 79 -57 105t-74 26h-76z" />
<glyph unicode="z" horiz-adv-x="1035" d="M53 0v213l489 544h-141q-101 -1 -122 -46.5t-24 -175.5h-179v399h904v-177l-510 -580h127q173 0 196 101q7 27 7 64v102h180v-444h-927z" />
<glyph unicode="{" horiz-adv-x="1025" d="M145 381v188q59 11 85.5 47.5t27.5 135.5v319q0 172 79.5 233t228.5 61q62 0 232 -4v-184q-28 1 -82.5 1t-85 -18t-33.5 -66q-2 -17 -2 -106v-255q0 -127 -42 -186q-22 -31 -80 -72q59 -39 89.5 -87t32.5 -171v-255q0 -125 13.5 -150.5t55 -32t74.5 -6.5h60v-184 q-181 -4 -255 -4q-217 0 -266 155q-19 58 -19 140v318q-1 101 -31.5 138t-81.5 45z" />
<glyph unicode="|" horiz-adv-x="1023" d="M394 -341v1706h235v-1706h-235z" />
<glyph unicode="}" horiz-adv-x="1025" d="M225 -227h39q98 0 128.5 17.5t33.5 66.5q2 16 2 105v255q0 90 17 135.5t39 69.5t66 53q-64 44 -87 82q-35 62 -35 176v255q0 125 -13.5 151t-55 32.5t-74 6.5t-60.5 -1v184q170 4 249 4q223 0 272 -155q19 -57 19 -139v-319q1 -99 28 -135.5t86 -47.5v-188 q-52 -8 -82.5 -45t-31.5 -138v-318q0 -172 -79.5 -233.5t-229.5 -61.5q-50 0 -231 4v184z" />
<glyph unicode="~" horiz-adv-x="1359" d="M181 1300q58 103 101 151q83 94 173.5 94t225.5 -60t163 -69t52 -9q53 0 91.5 41t83.5 118l107 -123q-63 -107 -110 -156q-77 -78 -173 -78q-44 0 -81.5 12.5t-142.5 57.5t-135.5 56.5t-76.5 11.5t-86 -45t-85 -128z" />
<glyph unicode="&#xa1;" horiz-adv-x="636" d="M123 -219q0 85 31.5 293.5t50.5 406.5l4 42h191q27 -240 101 -590q12 -60 12 -135q0 -139 -68 -200q-52 -47 -124 -47q-100 0 -149 72.5t-49 157.5zM137 795q0 69 51.5 115.5t120.5 46.5t115.5 -51.5t46.5 -120.5t-51.5 -115.5t-120.5 -46.5t-115.5 51.5t-46.5 120.5z " />
<glyph unicode="&#xa2;" horiz-adv-x="1283" d="M169 670q0 200 107.5 334t323.5 161v129h137v-129q138 -14 233 -77q140 -92 140 -247q0 -99 -56 -154t-143 -55t-134 48t-47 119t60 114q32 24 59 24t50 -2q-30 36 -60 47.5t-70 11.5q-101 0 -165 -60.5t-64 -259.5q0 -318 200 -318q156 0 159 200h210q2 -155 -89 -244.5 t-219 -110.5q-27 -5 -64 -9v-154h-137v154q-431 70 -431 478z" />
<glyph unicode="&#xa3;" horiz-adv-x="1284" d="M124 179q111 76 148.5 126t37.5 121.5t-58 153.5h-128v133h63q-47 99 -47 170q0 167 159 280q69 48 176 76t224 28q269 0 429 -127q120 -95 120 -231q0 -99 -60 -152.5t-138 -53.5t-133 51q-54 51 -54 124t59 111q36 23 63.5 23t49.5 -2q-47 42 -95.5 58.5t-126.5 16.5 q-151 0 -219 -54.5t-68 -113.5t32 -120.5t43 -83.5h171v-133h-127q13 -42 13 -76q0 -77 -47 -132q-25 -30 -95 -89q101 28 156 28t100 -23.5t107.5 -68.5t96.5 -45q67 0 85 59q7 27 11 103h169v-39q0 -226 -154 -299q-57 -28 -136.5 -28t-231.5 59t-237.5 59t-157.5 -44 q-25 -16 -72 -52z" />
<glyph unicode="&#xa4;" horiz-adv-x="1365" d="M42 1266l143 143l212 -212q137 89 286 89t282 -87l211 208l141 -141l-208 -209q94 -144 94 -287.5t-90 -277.5l210 -211l-140 -142l-210 209q-139 -93 -286.5 -93t-291.5 92l-210 -208l-141 141l210 211q-90 130 -90 279t91 284zM403 770.5q0 -117.5 82.5 -200t198 -82.5 t198.5 82q82 83 82 201.5t-83.5 200t-198.5 81.5t-197 -82.5t-82 -200z" />
<glyph unicode="&#xa5;" horiz-adv-x="1283" d="M7 1057v185h674v-185h-45q-73 0 -73 -34q0 -16 23 -56l140 -240l143 240q24 41 24 59q0 31 -64 31h-31v185h479v-185h-37q-62 0 -99 -47q-11 -16 -81 -119l-34 -51h147v-137h-238l-108 -163h319v-137h-323v-24q2 -112 6.5 -143t28 -40t71.5 -9h93v-187h-768v187h93 q73 1 87 22t15.5 49.5t3.5 120.5v24h-308v137h305l-104 163h-228v137h142l-32 51q-65 110 -94 138t-90 28h-37z" />
<glyph unicode="&#xa6;" horiz-adv-x="1023" d="M394 314h235v-655h-235v655zM394 657v708h235v-708h-235z" />
<glyph unicode="&#xa7;" horiz-adv-x="1282" d="M106 474.5q0 155.5 116 249.5q39 31 95 53q-141 102 -141 247q0 86 48.5 164t134.5 130q124 75 313.5 75t313.5 -77q62 -39 92 -105q14 -32 14 -76t-29 -87q-45 -68 -127 -68t-124 38t-42 80.5t22 73t28 41.5q-76 32 -169.5 32t-157 -47t-63.5 -116t110 -113 q70 -28 316 -102q165 -50 243 -125.5t78 -200t-113 -216.5q-39 -31 -104 -67q74 -46 118 -103t44 -149q0 -205 -191 -319q-135 -81 -341.5 -81t-330.5 88q-51 36 -80.5 86.5t-29.5 115.5t56 111.5t129.5 46.5t113 -41t39.5 -99t-68 -119q63 -41 167.5 -41t188.5 52 q82 52 82 129.5t-80 122.5q-47 26 -233 74.5t-285 102.5q-153 84 -153 239.5zM343 562q0 -102 195 -165t250.5 -63t101.5 37.5t46 101.5q0 86 -131 136q-245 95 -315 95t-108.5 -44t-38.5 -98z" />
<glyph unicode="&#xa8;" d="M158 1225.5q0 60.5 45 102t106.5 41.5t102.5 -45.5t41 -106.5t-45.5 -102t-106.5 -41t-102 45.5t-41 106zM572 1225.5q0 60.5 45 102t106.5 41.5t102.5 -45.5t41 -106.5t-45.5 -102t-106.5 -41t-102 45.5t-41 106z" />
<glyph unicode="&#xa9;" horiz-adv-x="1556" d="M68 681q0 203 104 374t271 255.5t324 84.5q303 0 512 -207q100 -101 154.5 -232.5t54.5 -273.5t-54 -272.5t-153.5 -231t-229.5 -154.5t-270.5 -54t-271 53.5t-231 153t-155.5 231.5t-55 273zM210 683.5q0 -244.5 168 -415t401 -170.5q112 0 217 44.5t184 126.5 q166 171 166 412q0 117 -44 226.5t-123 189.5q-169 170 -405 170q-108 0 -212 -44.5t-183 -124.5q-169 -170 -169 -414.5zM389 675.5q0 208.5 137 313.5q103 78 242.5 78t206.5 -69l15 53h126v-294h-128q-4 193 -162 193q-93 0 -134.5 -75t-41.5 -189.5t35 -179.5 q49 -91 143 -91q152 0 160 204h128q0 -90 -26 -149q-77 -172 -312 -172q-148 0 -243 66q-146 103 -146 311.5z" />
<glyph unicode="&#xaa;" horiz-adv-x="819" d="M66 685q0 76 45 112t170.5 57.5t157.5 54.5q16 16 16 48q0 83 -132 83q-55 0 -91 -18q11 1 32 1t40.5 -21t19.5 -54.5t-28 -56t-88.5 -22.5t-96.5 52q-15 22 -15 52q0 155 305 155q189 0 248 -69q29 -34 35 -67.5t6 -90.5v-191q0 -60 22 -60q27 0 27 72q0 25 -1 40h79 q4 -64 4 -90q0 -144 -183 -144q-83 0 -137 35q-12 7 -38 49q-4 0 -38 -42t-169 -42q-72 0 -131 40.5t-59 116.5zM304 704q0 -19 16 -36t50.5 -17t58.5 23q23 23 23 62v82q-25 -19 -74.5 -39.5t-61.5 -38t-12 -36.5z" />
<glyph unicode="&#xab;" horiz-adv-x="814" d="M91 477q0 89 61 194q20 35 66 98h158q-79 -168 -79 -303t79 -293h-158q-127 173 -127 304zM442 477q0 89 61 194q20 35 66 98h159q-80 -167 -80 -302.5t80 -293.5h-159q-127 174 -127 304z" />
<glyph unicode="&#xac;" d="M66 264v216h889v-480h-236v264h-653z" />
<glyph unicode="&#xad;" horiz-adv-x="532" d="M0 369v244h532v-244h-532z" />
<glyph unicode="&#xae;" horiz-adv-x="1556" d="M68 681q0 203 104 374t271 255.5t324 84.5q303 0 512 -207q100 -101 154.5 -232.5t54.5 -273.5t-54 -272.5t-153.5 -231t-229.5 -154.5t-270.5 -54t-271 53.5t-231 153t-155.5 231.5t-55 273zM210 683.5q0 -244.5 168 -415t401 -170.5q112 0 217 44.5t184 126.5 q166 171 166 412q0 117 -44 226.5t-123 189.5q-169 170 -405 170q-108 0 -212 -44.5t-183 -124.5q-169 -170 -169 -414.5zM375 314v113h56q41 0 46 13.5t6 80.5v322q-1 74 -7.5 84t-44.5 11h-56v113h482q92 0 126 -7q83 -18 119.5 -70t36.5 -91t-17 -82t-33.5 -57.5 t-55 -27.5t-38.5 -15q6 -8 26 -12q80 -22 77 -138v-75q0 -56 24 -56q15 0 20 12q6 16 6 98h86l2 -61q0 -70 -33 -110q-49 -61 -144 -61q-196 0 -196 218l1 75q0 29 -15 40t-60 11h-73v-121q1 -73 8 -83t43 -11h50v-113h-442zM716 750q47 -1 92 -1q93 0 93 96q0 52 -25.5 73 t-88.5 21h-71v-189z" />
<glyph unicode="&#xaf;" d="M0 1665v162h1024v-162h-1024z" />
<glyph unicode="&#xb0;" horiz-adv-x="1025" d="M198 1041.5q0 129.5 93.5 219t222.5 89.5t222 -90t93 -218.5t-92.5 -220t-223.5 -91.5t-223 91t-92 220.5zM355 1040.5q0 -64.5 46.5 -110.5t112 -46t112 46t46.5 111.5t-47 110.5t-112 45t-111.5 -46t-46.5 -110.5z" />
<glyph unicode="&#xb1;" d="M14 -108v243h997v-243h-997zM14 576v242h374v356h248v-356h375v-242h-375v-343h-248v343h-374z" />
<glyph unicode="&#xb2;" horiz-adv-x="856" d="M59 546q0 103 27 164q46 104 228 195q117 59 147.5 88.5t30.5 78.5t-35 79t-97.5 30t-86.5 -12.5t-44 -31.5t-18 -22l54 10q33 0 54.5 -24.5t21.5 -62t-21 -65.5q-36 -51 -102 -51t-105.5 40.5t-39.5 105.5q0 94 88.5 167t260.5 73t272 -85q73 -62 73 -162t-89 -169 q-56 -44 -182 -76t-143.5 -37t-38.5 -15q-57 -28 -54 -35h6q79 21 108 21t112 -16.5t110 -16.5q47 0 59 48q4 15 4 52h130v-31q0 -258 -228 -258q-75 0 -173 37.5t-133.5 37.5t-43.5 -14t-9 -43h-143z" />
<glyph unicode="&#xb3;" horiz-adv-x="856" d="M64 740q0 53 36 93t99.5 40t93.5 -34t30 -82.5t-45 -74.5q-21 -12 -46 -12q53 -28 111 -28q104 0 149 56q24 30 24 72.5t-37.5 76.5t-131.5 34h-21v115q17 -1 46 -1t58 12q61 25 61 89q0 38 -34 68.5t-99 30.5t-123 -33q96 -7 96 -84q0 -46 -36.5 -76t-87.5 -30t-87 37 t-36 85q0 96 92.5 155t251.5 59q217 0 299 -96q39 -47 39 -115.5t-65 -110.5q-24 -15 -78 -40q89 -33 117 -58q57 -52 57 -132t-74 -143q-100 -85 -285 -85q-112 0 -203 32q-171 60 -171 180z" />
<glyph unicode="&#xb4;" d="M415 1065l114 326h237q77 0 77 -40q0 -19 -29 -47l-261 -239h-138z" />
<glyph unicode="&#xb5;" horiz-adv-x="1283" d="M7 737v174l483 -1v-565q0 -93 18 -137q26 -64 122 -64q149 0 149 201v209q-1 110 -4 141.5t-32 37.5q-14 3 -57 4h-73v174l500 -1v-553q1 -112 4 -143t32 -37q13 -2 58 -4h70v-173h-498v133q-87 -164 -304 -164q-28 0 -75 5q11 -29 44.5 -112.5t33.5 -143.5t-51.5 -105.5 t-143 -45.5t-152 43.5t-60.5 127.5q0 47 34.5 184.5t42.5 218t8 197.5v260l-1 40q0 56 -8 75t-28.5 21t-56.5 3h-55z" />
<glyph unicode="&#xb6;" horiz-adv-x="1359" d="M54 1004q0 118 55 202q105 159 416 159h545v-175h-163v-1378h-172v1378h-131v-1378h-161v845q-21 -1 -56.5 -1t-102 22t-111.5 58q-119 91 -119 268z" />
<glyph unicode="&#xb7;" horiz-adv-x="490" d="M79 493.5q0 68.5 51 115t120 46.5t115.5 -51t46.5 -120.5t-51.5 -115.5t-120 -46t-115 51.5t-46.5 120z" />
<glyph unicode="&#xb8;" d="M283 -389l42 86q86 -34 140 -34q82 0 82 75q0 35 -22.5 52.5t-48.5 17.5t-60 -20l-49 49l117 163h139l-94 -116q36 3 73.5 3t76.5 -18t60 -50.5t21 -67.5q0 -92 -87 -148q-63 -41 -168 -41t-222 49z" />
<glyph unicode="&#xb9;" horiz-adv-x="856" d="M206 546v124h72q44 1 52 12.5t9 93.5v301h-133v119q161 4 187 94h196v-514q2 -82 9.5 -93.5t51.5 -12.5h58v-124h-502z" />
<glyph unicode="&#xba;" horiz-adv-x="809" d="M54 832q0 143 99 219.5t261.5 76.5t252 -87t89.5 -209q0 -154 -124 -242q-89 -62 -234.5 -62t-244.5 80.5t-99 223.5zM308 823q0 -107 25 -144t71.5 -37t72 42t25.5 150.5t-23.5 144.5t-70.5 36q-100 0 -100 -192z" />
<glyph unicode="&#xbb;" horiz-adv-x="814" d="M85 173q80 166 80 302.5t-80 293.5h159q127 -173 127 -299t-127 -297h-159zM437 173q79 168 79 303t-79 293h158q127 -174 127 -304q0 -89 -61 -194q-20 -35 -66 -98h-158z" />
<glyph unicode="&#xbc;" horiz-adv-x="1932" d="M206 546v124h72q44 1 52 12.5t9 93.5v301h-133v119q161 4 187 94h196v-514q2 -82 9.5 -93.5t51.5 -12.5h58v-124h-502zM536 0l717 1229h143l-717 -1229h-143zM1124 209v121l413 414h218v-410h131v-125h-131q1 -22 1.5 -45.5t11 -31t48.5 -8.5h70v-124h-519v124h77 q44 1 51.5 12t9.5 73h-381zM1306 334h199v193z" />
<glyph unicode="&#xbd;" horiz-adv-x="1933" d="M206 546v124h72q44 1 52 12.5t9 93.5v301h-133v119q161 4 187 94h196v-514q2 -82 9.5 -93.5t51.5 -12.5h58v-124h-502zM536 0l717 1229h143l-717 -1229h-143zM1136 0q0 103 27 164q46 104 228 195q117 59 147.5 88.5t30.5 78.5t-34.5 79t-97.5 30t-87 -13t-44 -31.5 t-19 -21.5q35 10 61.5 10t48 -24.5t21.5 -62t-21 -65.5q-36 -51 -102 -51t-105.5 40.5t-39.5 105.5q0 94 88.5 167t260.5 73t272 -85q73 -62 73 -162t-89 -169q-56 -44 -182 -76t-143.5 -37t-39.5 -15q-56 -28 -53 -35h6q79 21 107.5 21t112 -16.5t110.5 -16.5q47 0 59 48 q4 15 4 52h130v-31q0 -258 -228 -258q-75 0 -172.5 37.5t-133.5 37.5t-44.5 -14t-8.5 -43h-143z" />
<glyph unicode="&#xbe;" horiz-adv-x="1932" d="M64 740q0 53 36 93t99.5 40t93.5 -34t30 -82.5t-45 -74.5q-21 -12 -46 -12q53 -28 111 -28q104 0 149 56q24 30 24 72.5t-37.5 76.5t-131.5 34h-21v115q17 -1 46 -1t58 12q61 25 61 89q0 38 -34 68.5t-99 30.5t-123 -33q96 -7 96 -84q0 -46 -36.5 -76t-87.5 -30t-87 37 t-36 85q0 96 92.5 155t251.5 59q217 0 299 -96q39 -47 39 -115.5t-65 -110.5q-24 -15 -78 -40q89 -33 117 -58q57 -52 57 -132t-74 -143q-100 -85 -285 -85q-112 0 -203 32q-171 60 -171 180zM536 0l717 1229h143l-717 -1229h-143zM1124 209v121l413 414h218v-410h131v-125 h-131q1 -22 1.5 -45.5t11 -31t48.5 -8.5h70v-124h-519v124h77q43 1 51 12t10 73h-381zM1306 334h199v193z" />
<glyph unicode="&#xbf;" horiz-adv-x="1074" d="M51 -68.5q0 125.5 61.5 202.5t172 154t133.5 105q63 71 66 153h199q-1 -103 -23.5 -164.5t-94.5 -157t-107 -157t-35 -131.5t61 -130.5t156 -60.5q155 0 215 164q-56 -27 -97 -27q-75 0 -113 51t-38 118t53 118t145 51t153.5 -79t61.5 -189q0 -160 -126 -277 q-62 -58 -159.5 -91t-214.5 -33t-223 41.5t-176 127.5t-70 211.5zM415 795q0 69 51.5 115.5t120.5 46.5t115.5 -51t46.5 -120.5t-51.5 -116t-120.5 -46.5t-115.5 51.5t-46.5 120.5z" />
<glyph unicode="&#xc0;" horiz-adv-x="1506" d="M-38 0v187h66q53 0 84 21q35 28 70 131l349 1026h472l319 -1026q41 -118 64 -131q21 -19 91 -21h68v-187h-779v187h81q53 0 75.5 7t22.5 32t-27 113l-35 105h-419l-35 -105q-27 -87 -27 -102q0 -50 95 -50h89v-187h-624zM327 1728q0 27 15.5 35.5t60.5 8.5h306l209 -288 h-151l-411 203q-29 14 -29 41zM520 620h308l-150 460z" />
<glyph unicode="&#xc1;" horiz-adv-x="1506" d="M-38 0v187h66q53 0 84 21q35 28 70 131l349 1026h472l319 -1026q41 -118 64 -131q21 -19 91 -21h68v-187h-779v187h81q53 0 75.5 7t22.5 32t-27 113l-35 105h-419l-35 -105q-27 -87 -27 -102q0 -50 95 -50h89v-187h-624zM520 620h308l-150 460zM623 1484l209 288h306 q50 0 63 -10.5t13 -35.5t-29 -39l-410 -203h-152z" />
<glyph unicode="&#xc2;" horiz-adv-x="1506" d="M-38 0v187h66q53 0 84 21q35 28 70 131l349 1026h472l319 -1026q41 -118 64 -131q21 -19 91 -21h68v-187h-779v187h81q53 0 75.5 7t22.5 32t-27 113l-35 105h-419l-35 -105q-27 -87 -27 -102q0 -50 95 -50h89v-187h-624zM340 1485l279 287h292l283 -287h-311l-172 145 l-191 -145h-180zM520 620h308l-150 460z" />
<glyph unicode="&#xc3;" horiz-adv-x="1506" d="M-38 0v187h66q53 0 84 21q35 28 70 131l349 1026h472l319 -1026q41 -118 64 -131q21 -19 91 -21h68v-187h-779v187h81q53 0 75.5 7t22.5 32t-27 113l-35 105h-419l-35 -105q-27 -87 -27 -102q0 -50 95 -50h89v-187h-624zM392 1511q9 100 33 147q45 91 176 91 q62 0 117.5 -13.5t127 -32t96.5 -18.5q52 0 59 61h141q-9 -103 -39 -157q-45 -81 -163 -81q-78 0 -200.5 32.5t-149.5 32.5q-50 0 -63 -62h-135zM520 620h308l-150 460z" />
<glyph unicode="&#xc4;" horiz-adv-x="1506" d="M-38 0v187h66q53 0 84 21q35 28 70 131l349 1026h472l319 -1026q41 -118 64 -131q21 -19 91 -21h68v-187h-779v187h81q53 0 75.5 7t22.5 32t-27 113l-35 105h-419l-35 -105q-27 -87 -27 -102q0 -50 95 -50h89v-187h-624zM377 1633q0 61 45.5 102t106.5 41t102 -45.5 t41 -106.5t-45.5 -102t-106.5 -41t-102 45.5t-41 106.5zM520 620h308l-150 460zM862 1633q0 61 45 102t106.5 41t102.5 -45.5t41 -106.5t-45.5 -102t-107 -41t-102 45.5t-40.5 106.5z" />
<glyph unicode="&#xc5;" horiz-adv-x="1506" d="M-38 0v187h66q53 0 84 21q35 28 70 131l349 1026h472l319 -1026q41 -118 64 -131q21 -19 91 -21h68v-187h-779v187h81q53 0 75.5 7t22.5 32t-27 113l-35 105h-419l-35 -105q-27 -87 -27 -102q0 -50 95 -50h89v-187h-624zM520 620h308l-150 460zM566 1661q0 83 62 139.5 t145.5 56.5t139.5 -62t56 -145.5t-62 -139.5t-145.5 -56t-139.5 62t-56 145zM694 1652.5q0 -30.5 22.5 -51t53.5 -20.5t51.5 23t20.5 53.5t-23 51t-53 20.5t-51 -23t-21 -53.5z" />
<glyph unicode="&#xc6;" horiz-adv-x="2286" d="M-13 0v186q24 -1 36 -1q67 0 115.5 38.5t115.5 154.5l421 723q13 21 13 42q0 35 -76 35h-123v187h1696v-526h-210q-7 117 -27 172q-59 168 -254 168h-298v-386h81q116 2 145 88q15 42 15 129h173v-617h-173q-1 72 -5.5 113.5t-43.5 74t-103 32.5h-89v-427h241 q119 0 161 7q172 34 177 364h210v-557h-1409v187h115q73 1 87 22t15.5 49.5t3.5 120.5v151h-385l-138 -234q-28 -48 -28 -71q0 -39 92 -39h74v-186h-625zM713 706h284v473z" />
<glyph unicode="&#xc7;" horiz-adv-x="1451" d="M67 672q0 384 245 578q184 145 451 145q168 0 262 -54q45 -26 102 -88l30 112h208v-530h-208q-4 157 -62 245q-80 120 -251 120t-258 -164q-69 -129 -69 -348t65 -345q92 -178 280 -178t262 184q27 67 33 200h208q5 -223 -118 -383q-128 -157 -333 -185q-46 -7 -101 -10 l-71 -87q37 3 74 3t76 -18t60 -50.5t21 -67.5q0 -92 -87 -148q-63 -41 -168 -41t-221 49l41 86q86 -34 140 -34q82 0 82 75q0 35 -22.5 52.5t-48.5 17.5t-59 -20l-49 49l97 136q-342 27 -502 281q-109 175 -109 418z" />
<glyph unicode="&#xc8;" horiz-adv-x="1577" d="M68 0v187h115q73 1 87 22t15.5 49.5t3.5 120.5v608q-2 111 -6.5 142.5t-31.5 40.5q-19 8 -68 9h-115v186h1406v-527h-214q1 161 -62 253q-34 51 -85 69.5t-154 18.5h-271v-387h70q107 1 143 85q13 35 13 129h181v-614h-181v42q0 101 -41.5 139t-119.5 38h-65v-425h226 q133 0 180 12.5t88 58t57 108.5t21 195h214v-560h-1406zM431 1728q0 27 15.5 35.5t60.5 8.5h306l209 -288h-151l-411 203q-29 14 -29 41z" />
<glyph unicode="&#xc9;" horiz-adv-x="1577" d="M68 0v187h115q73 1 87 22t15.5 49.5t3.5 120.5v608q-2 111 -6.5 142.5t-31.5 40.5q-19 8 -68 9h-115v186h1406v-527h-214q1 161 -62 253q-34 51 -85 69.5t-154 18.5h-271v-387h70q107 1 143 85q13 35 13 129h181v-614h-181v42q0 101 -41.5 139t-119.5 38h-65v-425h226 q133 0 180 12.5t88 58t57 108.5t21 195h214v-560h-1406zM651 1484l209 288h306q50 0 63 -10.5t13 -35.5t-29 -39l-410 -203h-152z" />
<glyph unicode="&#xca;" horiz-adv-x="1577" d="M68 0v187h115q73 1 87 22t15.5 49.5t3.5 120.5v608q-2 111 -6.5 142.5t-31.5 40.5q-19 8 -68 9h-115v186h1406v-527h-214q1 161 -62 253q-34 51 -85 69.5t-154 18.5h-271v-387h70q107 1 143 85q13 35 13 129h181v-614h-181v42q0 101 -41.5 139t-119.5 38h-65v-425h226 q133 0 180 12.5t88 58t57 108.5t21 195h214v-560h-1406zM386 1485l279 287h292l283 -287h-311l-172 145l-191 -145h-180z" />
<glyph unicode="&#xcb;" horiz-adv-x="1577" d="M68 0v187h115q73 1 87 22t15.5 49.5t3.5 120.5v608q-2 111 -6.5 142.5t-31.5 40.5q-19 8 -68 9h-115v186h1406v-527h-214q1 161 -62 253q-34 51 -85 69.5t-154 18.5h-271v-387h70q107 1 143 85q13 35 13 129h181v-614h-181v42q0 101 -41.5 139t-119.5 38h-65v-425h226 q133 0 180 12.5t88 58t57 108.5t21 195h214v-560h-1406zM419 1633q0 61 45.5 102t106.5 41t102 -45.5t41 -106.5t-45.5 -102t-106.5 -41t-102 45.5t-41 106.5zM904 1633q0 61 45 102t106.5 41t102.5 -45.5t41 -106.5t-45.5 -102t-107 -41t-102 45.5t-40.5 106.5z" />
<glyph unicode="&#xcc;" horiz-adv-x="971" d="M66 1728q0 27 15.5 35.5t60.5 8.5h306l209 -288h-151l-411 203q-29 14 -29 41zM67 0v187h115q73 2 87 22.5t15.5 49t3.5 120.5v608q-2 110 -6.5 142t-31.5 41q-19 8 -68 9h-115v186h834v-186h-115q-73 -2 -87 -22.5t-15.5 -49.5t-3.5 -120v-608q2 -112 6.5 -143t28 -40 t71.5 -9h115v-187h-834z" />
<glyph unicode="&#xcd;" horiz-adv-x="971" d="M67 0v187h115q73 2 87 22.5t15.5 49t3.5 120.5v608q-2 110 -6.5 142t-31.5 41q-19 8 -68 9h-115v186h834v-186h-115q-73 -2 -87 -22.5t-15.5 -49.5t-3.5 -120v-608q2 -112 6.5 -143t28 -40t71.5 -9h115v-187h-834zM334 1484l209 288h306q50 0 63 -10.5t13 -35.5t-29 -39 l-410 -203h-152z" />
<glyph unicode="&#xce;" horiz-adv-x="971" d="M58 1485l279 287h292l283 -287h-311l-172 145l-191 -145h-180zM67 0v187h115q73 2 87 22.5t15.5 49t3.5 120.5v608q-2 110 -6.5 142t-31.5 41q-19 8 -68 9h-115v186h834v-186h-115q-73 -2 -87 -22.5t-15.5 -49.5t-3.5 -120v-608q2 -112 6.5 -143t28 -40t71.5 -9h115v-187 h-834z" />
<glyph unicode="&#xcf;" horiz-adv-x="971" d="M67 0v187h115q73 2 87 22.5t15.5 49t3.5 120.5v608q-2 110 -6.5 142t-31.5 41q-19 8 -68 9h-115v186h834v-186h-115q-73 -2 -87 -22.5t-15.5 -49.5t-3.5 -120v-608q2 -112 6.5 -143t28 -40t71.5 -9h115v-187h-834zM143 1633q0 61 45.5 102t106.5 41t102 -45.5t41 -106.5 t-45.5 -102t-106.5 -41t-102 45.5t-41 106.5zM532 1633q0 61 45 102t106.5 41t102.5 -45.5t41 -106.5t-45.5 -102t-107 -41t-102 45.5t-40.5 106.5z" />
<glyph unicode="&#xd0;" horiz-adv-x="1708" d="M68 0v187h111q74 2 88 22.5t15.5 49t3.5 119.5v239h-218v184h218v185q-2 110 -6.5 142t-28 41t-72.5 9h-111v187h847q185 0 289 -32q201 -62 318.5 -227t117.5 -420t-132.5 -432.5t-379.5 -229.5q-112 -24 -267 -24h-793zM686 187h138q111 0 175 29q112 50 160 188 q30 88 30 292t-37 301q-52 132 -164 165q-54 16 -167 16h-135v-377h278v-184h-278v-430z" />
<glyph unicode="&#xd1;" horiz-adv-x="1768" d="M68 0v187h115q73 1 87 22t15.5 49.5t3.5 120.5v608q-2 110 -6.5 142t-31.5 41q-19 8 -68 9h-115v186h686l520 -944v566q-2 110 -6.5 142t-31.5 41q-19 8 -68 9h-126v186h685v-186h-115q-73 -2 -87 -22.5t-15.5 -49.5t-3.5 -120v-987h-442l-543 995v-616 q2 -111 6.5 -142.5t27.5 -40.5t72 -9h127v-187h-686zM523 1511q9 100 33 147q45 91 176 91q62 0 117.5 -13.5t127 -32t96.5 -18.5q52 0 59 61h141q-9 -103 -39 -157q-45 -81 -163 -81q-78 0 -200.5 32.5t-149.5 32.5q-50 0 -63 -62h-135z" />
<glyph unicode="&#xd2;" horiz-adv-x="1607" d="M68 679q0 180 64.5 329t183.5 242q185 145 480 145q517 0 675 -373q67 -157 67 -335t-59.5 -321t-170.5 -235q-194 -161 -498 -161t-502 155q-112 87 -176 230.5t-64 323.5zM391 1728q0 27 15.5 35.5t60.5 8.5h306l209 -288h-151l-411 203q-29 14 -29 41zM519 670.5 q0 -266.5 60 -381.5q72 -137 233.5 -137t227.5 162q47 117 47 374t-59 373q-69 139 -222 139t-220 -131.5t-67 -398z" />
<glyph unicode="&#xd3;" horiz-adv-x="1607" d="M68 679q0 180 64.5 329t183.5 242q185 145 480 145q517 0 675 -373q67 -157 67 -335t-59.5 -321t-170.5 -235q-194 -161 -498 -161t-502 155q-112 87 -176 230.5t-64 323.5zM519 670.5q0 -266.5 60 -381.5q72 -137 233.5 -137t227.5 162q47 117 47 374t-59 373 q-69 139 -222 139t-220 -131.5t-67 -398zM649 1484l209 288h306q50 0 63 -10.5t13 -35.5t-29 -39l-410 -203h-152z" />
<glyph unicode="&#xd4;" horiz-adv-x="1607" d="M68 679q0 180 64.5 329t183.5 242q185 145 480 145q517 0 675 -373q67 -157 67 -335t-59.5 -321t-170.5 -235q-194 -161 -498 -161t-502 155q-112 87 -176 230.5t-64 323.5zM390 1485l279 287h292l283 -287h-311l-172 145l-191 -145h-180zM519 670.5q0 -266.5 60 -381.5 q72 -137 233.5 -137t227.5 162q47 117 47 374t-59 373q-69 139 -222 139t-220 -131.5t-67 -398z" />
<glyph unicode="&#xd5;" horiz-adv-x="1607" d="M68 679q0 180 64.5 329t183.5 242q185 145 480 145q517 0 675 -373q67 -157 67 -335t-59.5 -321t-170.5 -235q-194 -161 -498 -161t-502 155q-112 87 -176 230.5t-64 323.5zM442 1511q9 100 33 147q45 91 176 91q62 0 117.5 -13.5t127 -32t96.5 -18.5q52 0 59 61h141 q-9 -103 -39 -157q-45 -81 -163 -81q-78 0 -200.5 32.5t-149.5 32.5q-50 0 -63 -62h-135zM519 670.5q0 -266.5 60 -381.5q72 -137 233.5 -137t227.5 162q47 117 47 374t-59 373q-69 139 -222 139t-220 -131.5t-67 -398z" />
<glyph unicode="&#xd6;" horiz-adv-x="1607" d="M68 679q0 180 64.5 329t183.5 242q185 145 480 145q517 0 675 -373q67 -157 67 -335t-59.5 -321t-170.5 -235q-194 -161 -498 -161t-502 155q-112 87 -176 230.5t-64 323.5zM414 1633q0 61 45.5 102t106.5 41t102 -45.5t41 -106.5t-45.5 -102t-106.5 -41t-102 45.5 t-41 106.5zM519 670.5q0 -266.5 60 -381.5q72 -137 233.5 -137t227.5 162q47 117 47 374t-59 373q-69 139 -222 139t-220 -131.5t-67 -398zM899 1633q0 61 45 102t106.5 41t102.5 -45.5t41 -106.5t-45.5 -102t-107 -41t-102 45.5t-40.5 106.5z" />
<glyph unicode="&#xd7;" d="M35 391l305 305l-305 306l171 171l306 -305l305 305l171 -171l-305 -306l305 -305l-171 -171l-305 305l-306 -305z" />
<glyph unicode="&#xd8;" horiz-adv-x="1607" d="M79 678q0 129 37.5 253t104.5 212q190 248 590 248q163 0 317 -51l99 165l141 -91l-89 -152q266 -195 266 -582q0 -421 -290 -601q-179 -112 -437 -112q-197 0 -327 58l-110 -170l-137 84l102 156q-92 65 -147 144t-87.5 194.5t-32.5 244.5zM530 648q0 -108 19 -257 l439 736q-70 69 -171 69q-166 0 -234 -162q-53 -125 -53 -386zM633 217q78 -68 178 -68q183 0 248 198q35 105 35 297t-20 312z" />
<glyph unicode="&#xd9;" horiz-adv-x="1652" d="M34 1179v186h833v-186h-107q-73 -2 -87 -22.5t-15.5 -49.5t-3.5 -120v-478q0 -135 8 -174q34 -170 256 -170q161 0 214 102q33 64 33 242v478q-2 110 -6.5 142t-31.5 41q-19 8 -68 9h-99v186h658v-186h-115q-73 -2 -87 -22.5t-15.5 -49.5t-3.5 -120v-546q0 -139 -29 -211 q-57 -137 -185 -198.5t-336 -61.5q-361 0 -502 164q-63 74 -81 172q-9 50 -9 135v546q-2 111 -6.5 142.5t-31.5 40.5q-19 8 -68 9h-115zM448 1728q0 27 15.5 35.5t60.5 8.5h306l209 -288h-151l-411 203q-29 14 -29 41z" />
<glyph unicode="&#xda;" horiz-adv-x="1652" d="M34 1179v186h833v-186h-107q-73 -2 -87 -22.5t-15.5 -49.5t-3.5 -120v-478q0 -135 8 -174q34 -170 256 -170q161 0 214 102q33 64 33 242v478q-2 110 -6.5 142t-31.5 41q-19 8 -68 9h-99v186h658v-186h-115q-73 -2 -87 -22.5t-15.5 -49.5t-3.5 -120v-546q0 -139 -29 -211 q-57 -137 -185 -198.5t-336 -61.5q-361 0 -502 164q-63 74 -81 172q-9 50 -9 135v546q-2 111 -6.5 142.5t-31.5 40.5q-19 8 -68 9h-115zM688 1484l209 288h306q50 0 63 -10.5t13 -35.5t-29 -39l-410 -203h-152z" />
<glyph unicode="&#xdb;" horiz-adv-x="1652" d="M34 1179v186h833v-186h-107q-73 -2 -87 -22.5t-15.5 -49.5t-3.5 -120v-478q0 -135 8 -174q34 -170 256 -170q161 0 214 102q33 64 33 242v478q-2 110 -6.5 142t-31.5 41q-19 8 -68 9h-99v186h658v-186h-115q-73 -2 -87 -22.5t-15.5 -49.5t-3.5 -120v-546q0 -139 -29 -211 q-57 -137 -185 -198.5t-336 -61.5q-361 0 -502 164q-63 74 -81 172q-9 50 -9 135v546q-2 111 -6.5 142.5t-31.5 40.5q-19 8 -68 9h-115zM440 1485l279 287h292l283 -287h-311l-172 145l-191 -145h-180z" />
<glyph unicode="&#xdc;" horiz-adv-x="1652" d="M34 1179v186h833v-186h-107q-73 -2 -87 -22.5t-15.5 -49.5t-3.5 -120v-478q0 -135 8 -174q34 -170 256 -170q161 0 214 102q33 64 33 242v478q-2 110 -6.5 142t-31.5 41q-19 8 -68 9h-99v186h658v-186h-115q-73 -2 -87 -22.5t-15.5 -49.5t-3.5 -120v-546q0 -139 -29 -211 q-57 -137 -185 -198.5t-336 -61.5q-361 0 -502 164q-63 74 -81 172q-9 50 -9 135v546q-2 111 -6.5 142.5t-31.5 40.5q-19 8 -68 9h-115zM470 1633q0 61 45.5 102t106.5 41t102 -45.5t41 -106.5t-45.5 -102t-106.5 -41t-102 45.5t-41 106.5zM955 1633q0 61 45 102t106.5 41 t102.5 -45.5t41 -106.5t-45.5 -102t-107 -41t-102 45.5t-40.5 106.5z" />
<glyph unicode="&#xdd;" horiz-adv-x="1448" d="M-28 1179v186h811v-186h-86q-73 0 -73 -34q0 -14 23 -56l175 -317l180 317q25 44 25 59q0 31 -64 31h-87v186h603v-186h-77q-63 0 -100 -48q-11 -15 -81 -118l-308 -479v-155q2 -112 6.5 -143t28 -40t71.5 -9h134v-187h-858v187h134q73 1 87 22t15.5 49.5t3.5 120.5v155 l-301 479q-65 110 -94 138t-90 28h-78zM594 1484l209 288h306q50 0 63 -10.5t13 -35.5t-29 -39l-410 -203h-152z" />
<glyph unicode="&#xde;" horiz-adv-x="1476" d="M68 0v187h115q73 1 87 22t15.5 49.5t3.5 120.5v608q-2 110 -6.5 142t-31.5 41q-19 8 -68 9h-115v186h841v-187h-115q-73 -1 -86 -22q-20 -29 -20 -108v-20h285q226 0 328.5 -32t149.5 -110t47 -199.5t-83 -206.5q-100 -102 -457 -102h-270v-20q2 -91 6.5 -122t27.5 -40 t72 -9h115v-187h-841zM688 564h146q128 0 171 17q82 32 82 128.5t-89 119.5q-53 13 -169 13h-141v-278z" />
<glyph unicode="&#xdf;" horiz-adv-x="1378" d="M34 0v177h54q47 2 59 4q30 6 33 39t4 146v602q0 155 28 217q89 199 506 199q244 0 359.5 -78t115.5 -217t-132 -212q-41 -23 -121 -41q109 -24 173 -64q176 -109 176 -355q0 -123 -43 -225q-95 -222 -352 -222q-192 0 -251 124q-31 67 -31 182q0 38 2 108h171 q-2 -80 -2 -116q0 -129 62 -129q38 0 53.5 46.5t15.5 196.5t-13 205q-39 171 -236 171q-18 0 -51 -1v177q45 -6 75 -6q163 0 163 145q0 65 -42.5 103.5t-122 38.5t-118.5 -58q-23 -35 -28.5 -81t-5.5 -108v-968h-501z" />
<glyph unicode="&#xe0;" horiz-adv-x="1226" d="M85 239.5q0 124.5 93 185.5q48 32 104.5 46.5t173.5 36.5t178 59t61 119.5t-78 122.5q-57 28 -157 28t-167 -60q40 8 66 8q59 0 84 -34t25 -86t-44.5 -84.5t-117.5 -32.5t-123.5 48.5t-50.5 107.5q0 259 461 259q196 0 293.5 -42.5t135.5 -151.5q18 -51 18 -179v-324 q0 -59 6 -79q9 -33 38 -33q39 0 48 47q5 27 5 79v63h102q6 -106 6 -145q0 -228 -275 -228q-134 0 -210 56q-41 31 -59 108q-80 -164 -302 -164q-154 0 -234 72.5t-80 197zM329 1351.5q0 19.5 20 32.5q12 7 57 7h238l113 -326h-138l-260 239q-30 28 -30 47.5zM436 257 q0 -48 32.5 -75.5t89.5 -27.5t94 45.5t37 110.5v164q-49 -43 -124 -77.5t-102 -63t-27 -76.5z" />
<glyph unicode="&#xe1;" horiz-adv-x="1226" d="M85 239.5q0 124.5 93 185.5q48 32 104.5 46.5t173.5 36.5t178 59t61 119.5t-78 122.5q-57 28 -157 28t-167 -60q40 8 66 8q59 0 84 -34t25 -86t-44.5 -84.5t-117.5 -32.5t-123.5 48.5t-50.5 107.5q0 259 461 259q196 0 293.5 -42.5t135.5 -151.5q18 -51 18 -179v-324 q0 -59 6 -79q9 -33 38 -33q39 0 48 47q5 27 5 79v63h102q6 -106 6 -145q0 -228 -275 -228q-134 0 -210 56q-41 31 -59 108q-80 -164 -302 -164q-154 0 -234 72.5t-80 197zM436 257q0 -48 32.5 -75.5t89.5 -27.5t94 45.5t37 110.5v164q-49 -43 -124 -77.5t-102 -63t-27 -76.5 zM475 1065l114 326h237q77 0 77 -40q0 -19 -29 -47l-261 -239h-138z" />
<glyph unicode="&#xe2;" horiz-adv-x="1226" d="M85 239.5q0 124.5 93 185.5q48 32 104.5 46.5t173.5 36.5t178 59t61 119.5t-78 122.5q-57 28 -157 28t-167 -60q40 8 66 8q59 0 84 -34t25 -86t-44.5 -84.5t-117.5 -32.5t-123.5 48.5t-50.5 107.5q0 259 461 259q196 0 293.5 -42.5t135.5 -151.5q18 -51 18 -179v-324 q0 -59 6 -79q9 -33 38 -33q39 0 48 47q5 27 5 79v63h102q6 -106 6 -145q0 -228 -275 -228q-134 0 -210 56q-41 31 -59 108q-80 -164 -302 -164q-154 0 -234 72.5t-80 197zM261 1065l215 326h263l226 -326h-288l-110 165l-147 -165h-159zM436 257q0 -48 32.5 -75.5 t89.5 -27.5t94 45.5t37 110.5v164q-49 -43 -124 -77.5t-102 -63t-27 -76.5z" />
<glyph unicode="&#xe3;" horiz-adv-x="1226" d="M85 239.5q0 124.5 93 185.5q48 32 104.5 46.5t173.5 36.5t178 59t61 119.5t-78 122.5q-57 28 -157 28t-167 -60q40 8 66 8q59 0 84 -34t25 -86t-44.5 -84.5t-117.5 -32.5t-123.5 48.5t-50.5 107.5q0 259 461 259q196 0 293.5 -42.5t135.5 -151.5q18 -51 18 -179v-324 q0 -59 6 -79q9 -33 38 -33q39 0 48 47q5 27 5 79v63h102q6 -106 6 -145q0 -228 -275 -228q-134 0 -210 56q-41 31 -59 108q-80 -164 -302 -164q-154 0 -234 72.5t-80 197zM256 1091q8 98 32 151q51 109 170 109q72 0 173.5 -35t140 -35t50 12t19.5 55h129q-10 -119 -39 -172 q-48 -88 -172 -88q-82 0 -177.5 36.5t-130 36.5t-48 -17t-18.5 -53h-129zM436 257q0 -48 32.5 -75.5t89.5 -27.5t94 45.5t37 110.5v164q-49 -43 -124 -77.5t-102 -63t-27 -76.5z" />
<glyph unicode="&#xe4;" horiz-adv-x="1226" d="M85 239.5q0 124.5 93 185.5q48 32 104.5 46.5t173.5 36.5t178 59t61 119.5t-78 122.5q-57 28 -157 28t-167 -60q40 8 66 8q59 0 84 -34t25 -86t-44.5 -84.5t-117.5 -32.5t-123.5 48.5t-50.5 107.5q0 259 461 259q196 0 293.5 -42.5t135.5 -151.5q18 -51 18 -179v-324 q0 -59 6 -79q9 -33 38 -33q39 0 48 47q5 27 5 79v63h102q6 -106 6 -145q0 -228 -275 -228q-134 0 -210 56q-41 31 -59 108q-80 -164 -302 -164q-154 0 -234 72.5t-80 197zM252 1225.5q0 60.5 45 102t106.5 41.5t102.5 -45.5t41 -106.5t-45.5 -102t-106.5 -41t-102 45.5 t-41 106zM436 257q0 -48 32.5 -75.5t89.5 -27.5t94 45.5t37 110.5v164q-49 -43 -124 -77.5t-102 -63t-27 -76.5zM666 1225.5q0 60.5 45 102t106.5 41.5t102.5 -45.5t41 -106.5t-45.5 -102t-106.5 -41t-102 45.5t-41 106z" />
<glyph unicode="&#xe5;" horiz-adv-x="1226" d="M85 239.5q0 124.5 93 185.5q48 32 104.5 46.5t173.5 36.5t178 59t61 119.5t-78 122.5q-57 28 -157 28t-167 -60q40 8 66 8q59 0 84 -34t25 -86t-44.5 -84.5t-117.5 -32.5t-123.5 48.5t-50.5 107.5q0 259 461 259q196 0 293.5 -42.5t135.5 -151.5q18 -51 18 -179v-324 q0 -59 6 -79q9 -33 38 -33q39 0 48 47q5 27 5 79v63h102q6 -106 6 -145q0 -228 -275 -228q-134 0 -210 56q-41 31 -59 108q-80 -164 -302 -164q-154 0 -234 72.5t-80 197zM406 1249q0 83 62 139.5t145.5 56.5t139.5 -62t56 -145.5t-62 -139.5t-145.5 -56t-139.5 62t-56 145z M436 257q0 -48 32.5 -75.5t89.5 -27.5t94 45.5t37 110.5v164q-49 -43 -124 -77.5t-102 -63t-27 -76.5zM534 1240.5q0 -30.5 23 -51t53.5 -20.5t51 23t20.5 53t-22.5 51t-53.5 21t-51.5 -23t-20.5 -53.5z" />
<glyph unicode="&#xe6;" horiz-adv-x="1739" d="M86 233q0 145 110 213q60 37 222 64t223 67t61 111t-58 114.5t-152 43.5t-126 -16t-54 -38q21 4 33 4q129 0 129 -111q0 -57 -44 -92t-124 -35t-124.5 47.5t-44.5 112.5q0 106 95 173q48 33 144 53t237.5 20t202 -21t107.5 -56q105 77 271 77q263 0 387 -183 q77 -113 87 -254q3 -50 3 -115h-628q1 -104 32 -169q46 -96 147 -96t158 82q23 32 41 100h250q-103 -359 -487 -359q-189 0 -303 81q-42 30 -93 87q-64 -87 -143.5 -127.5t-236.5 -40.5t-239.5 75t-82.5 188zM433 270q0 -107 118 -107q75 0 114 61q26 40 26 105v151 q-29 -30 -52.5 -41.5t-114.5 -51t-91 -117.5zM1049 569h283q-5 210 -132 210q-149 0 -151 -210z" />
<glyph unicode="&#xe7;" horiz-adv-x="1092" d="M67 479q0 258 189 391q132 93 320 93q118 0 214.5 -37t161.5 -115t65 -181.5t-63 -158t-144 -54.5t-128 49.5t-47 117t44 104.5t70.5 37t50.5 -5q-63 58 -142 58q-215 0 -215 -321q0 -128 43.5 -215.5t151.5 -87.5q152 0 162 202h213q-21 -216 -158 -316 q-93 -66 -236 -69l-70 -87q34 3 72.5 3t77.5 -18t60 -50.5t21 -67.5q0 -92 -87 -148q-63 -41 -168 -41t-222 49l42 86q86 -34 140 -34q82 0 82 75q0 35 -22.5 52.5t-48 17.5t-60.5 -21l-49 50l102 140q-207 25 -314.5 164t-107.5 338z" />
<glyph unicode="&#xe8;" horiz-adv-x="1130" d="M68 478q0 117 50 221.5t140 172.5q124 92 307 92q490 0 497 -548h-629q-3 -262 185 -262q155 0 175 170h252q-31 -122 -101 -202q-134 -152 -358 -152q-351 0 -474 288q-44 103 -44 220zM298 1351.5q0 19.5 20 32.5q12 7 57 7h238l113 -326h-138l-260 239 q-30 28 -30 47.5zM435 573h282q-5 98 -23 139q-30 67 -112.5 67t-117.5 -74q-21 -46 -29 -132z" />
<glyph unicode="&#xe9;" horiz-adv-x="1130" d="M68 478q0 117 50 221.5t140 172.5q124 92 307 92q490 0 497 -548h-629q-3 -262 185 -262q155 0 175 170h252q-31 -122 -101 -202q-134 -152 -358 -152q-351 0 -474 288q-44 103 -44 220zM435 573h282q-5 98 -23 139q-30 67 -112.5 67t-117.5 -74q-21 -46 -29 -132z M445 1065l114 326h237q77 0 77 -40q0 -19 -29 -47l-261 -239h-138z" />
<glyph unicode="&#xea;" horiz-adv-x="1130" d="M68 478q0 117 50 221.5t140 172.5q124 92 307 92q490 0 497 -548h-629q-3 -262 185 -262q155 0 175 170h252q-31 -122 -101 -202q-134 -152 -358 -152q-351 0 -474 288q-44 103 -44 220zM227 1065l215 326h263l226 -326h-288l-110 165l-147 -165h-159zM435 573h282 q-5 98 -23 139q-30 67 -112.5 67t-117.5 -74q-21 -46 -29 -132z" />
<glyph unicode="&#xeb;" horiz-adv-x="1130" d="M68 478q0 117 50 221.5t140 172.5q124 92 307 92q490 0 497 -548h-629q-3 -262 185 -262q155 0 175 170h252q-31 -122 -101 -202q-134 -152 -358 -152q-351 0 -474 288q-44 103 -44 220zM211 1225.5q0 60.5 45 102t106.5 41.5t102.5 -45.5t41 -106.5t-45.5 -102 t-106.5 -41t-102 45.5t-41 106zM435 573h282q-5 98 -23 139q-30 67 -112.5 67t-117.5 -74q-21 -46 -29 -132zM625 1225.5q0 60.5 45 102t106.5 41.5t102.5 -45.5t41 -106.5t-45.5 -102t-106.5 -41t-102 45.5t-41 106z" />
<glyph unicode="&#xec;" horiz-adv-x="749" d="M68 0v177h69q64 -1 79 17t15.5 48.5t1.5 123.5v202q-1 115 -4 146.5t-33 37.5q-13 3 -59 5h-69v177h516v-568q1 -112 4 -145t32 -39q13 -2 58 -5h64v-177h-674zM112 1351.5q0 19.5 20 32.5q12 7 57 7h238l113 -326h-138l-260 239q-30 28 -30 47.5z" />
<glyph unicode="&#xed;" horiz-adv-x="749" d="M68 0v177h69q64 -1 79 17t15.5 48.5t1.5 123.5v202q-1 115 -4 146.5t-33 37.5q-13 3 -59 5h-69v177h516v-568q1 -112 4 -145t32 -39q13 -2 58 -5h64v-177h-674zM251 1065l114 326h237q77 0 77 -40q0 -19 -29 -47l-261 -239h-138z" />
<glyph unicode="&#xee;" horiz-adv-x="750" d="M37 1065l215 326h263l226 -326h-288l-110 165l-147 -165h-159zM69 0v177h69q64 -1 79 17t15.5 48.5t1.5 123.5v202q-1 115 -4 146.5t-33 37.5q-13 3 -59 5h-69v177h516v-568q1 -112 4 -145t32 -39q13 -2 58 -5h64v-177h-674z" />
<glyph unicode="&#xef;" horiz-adv-x="749" d="M68 0v177h69q64 -1 79 17t15.5 48.5t1.5 123.5v202q-1 115 -4 146.5t-33 37.5q-13 3 -59 5h-69v177h516v-568q1 -112 4 -145t32 -39q13 -2 58 -5h64v-177h-674zM69 1225.5q0 55.5 41.5 93t96.5 37.5t92.5 -41t37.5 -97t-41 -93t-97 -37t-93 41t-37 96.5zM414 1225.5 q0 55.5 41.5 93t96.5 37.5t92.5 -41t37.5 -97t-41 -93t-97 -37t-93 41t-37 96.5z" />
<glyph unicode="&#xf0;" horiz-adv-x="1211" d="M68 467q0 191 102 318q132 165 410 179l-72 119l-178 -72l-60 136l162 65l-103 153h226l74 -75l178 75l60 -135l-130 -50l183 -192q82 -86 140 -174q83 -128 83 -310q0 -281 -188 -428q-136 -106 -359.5 -106t-375.5 133.5t-152 363.5zM448 457q0 -153 32.5 -235.5 t123.5 -82.5t126.5 88.5t35.5 247t-31.5 237t-124.5 78.5q-162 0 -162 -333z" />
<glyph unicode="&#xf1;" horiz-adv-x="1377" d="M68 0v177h64q46 2 60 4q29 6 32 39t4 146v202q-1 114 -4 146.5t-32 38.5q-15 3 -60 4h-64v177h505v-135q62 86 129.5 125.5t199.5 39.5q208 0 278 -109q36 -56 39 -120.5t3 -150.5v-218q1 -115 4 -147t32 -38q14 -2 60 -4h53v-177h-608v177h10q45 2 58 4q30 6 33 38.5 t4 146.5v215q0 73 -6 97q-28 102 -135 102q-83 0 -118.5 -57.5t-35.5 -141.5v-215q1 -114 4 -146.5t32 -38.5q14 -2 60 -4h15v-177h-616zM332 1091q8 98 32 151q51 109 170 109q72 0 173.5 -35t140 -35t50 12t19.5 55h129q-10 -119 -39 -172q-48 -88 -172 -88 q-82 0 -177.5 36.5t-130 36.5t-48 -17t-18.5 -53h-129z" />
<glyph unicode="&#xf2;" horiz-adv-x="1211" d="M68 463q0 118 41 217q117 283 511 283q250 0 397 -154q126 -133 126 -336q0 -255 -189 -399q-136 -104 -350 -104q-236 0 -376 125q-160 141 -160 368zM338 1351.5q0 19.5 20 32.5q12 7 57 7h238l113 -326h-138l-260 239q-30 28 -30 47.5zM443 459q0 -154 33.5 -237 t126 -83t129 89t36.5 248.5t-32.5 238.5t-126.5 79q-166 0 -166 -335z" />
<glyph unicode="&#xf3;" horiz-adv-x="1211" d="M68 463q0 118 41 217q117 283 511 283q250 0 397 -154q126 -133 126 -336q0 -255 -189 -399q-136 -104 -350 -104q-236 0 -376 125q-160 141 -160 368zM443 459q0 -154 33.5 -237t126 -83t129 89t36.5 248.5t-32.5 238.5t-126.5 79q-166 0 -166 -335zM481 1065l114 326 h237q77 0 77 -40q0 -19 -29 -47l-261 -239h-138z" />
<glyph unicode="&#xf4;" horiz-adv-x="1211" d="M68 463q0 118 41 217q117 283 511 283q250 0 397 -154q126 -133 126 -336q0 -255 -189 -399q-136 -104 -350 -104q-236 0 -376 125q-160 141 -160 368zM274 1065l215 326h263l226 -326h-288l-110 165l-147 -165h-159zM443 459q0 -154 33.5 -237t126 -83t129 89 t36.5 248.5t-32.5 238.5t-126.5 79q-166 0 -166 -335z" />
<glyph unicode="&#xf5;" horiz-adv-x="1211" d="M68 463q0 118 41 217q117 283 511 283q250 0 397 -154q126 -133 126 -336q0 -255 -189 -399q-136 -104 -350 -104q-236 0 -376 125q-160 141 -160 368zM262 1091q8 98 32 151q51 109 170 109q72 0 173.5 -35t140 -35t50 12t19.5 55h129q-10 -119 -39 -172 q-48 -88 -172 -88q-82 0 -177.5 36.5t-130 36.5t-48 -17t-18.5 -53h-129zM443 459q0 -154 33.5 -237t126 -83t129 89t36.5 248.5t-32.5 238.5t-126.5 79q-166 0 -166 -335z" />
<glyph unicode="&#xf6;" horiz-adv-x="1211" d="M68 463q0 118 41 217q117 283 511 283q250 0 397 -154q126 -133 126 -336q0 -255 -189 -399q-136 -104 -350 -104q-236 0 -376 125q-160 141 -160 368zM251 1225.5q0 60.5 45 102t106.5 41.5t102.5 -45.5t41 -106.5t-45.5 -102t-106.5 -41t-102 45.5t-41 106zM443 459 q0 -154 33.5 -237t126 -83t129 89t36.5 248.5t-32.5 238.5t-126.5 79q-166 0 -166 -335zM665 1225.5q0 60.5 45 102t106.5 41.5t102.5 -45.5t41 -106.5t-45.5 -102t-106.5 -41t-102 45.5t-41 106z" />
<glyph unicode="&#xf7;" horiz-adv-x="1025" d="M14 576v242h997v-242h-997zM362 348.5q0 63.5 45 106.5t106 43t105.5 -43t44.5 -106.5t-44 -107.5t-106.5 -44t-106.5 44t-44 107.5zM362 1047q0 63 44.5 106t105.5 43t105.5 -43t44.5 -106t-44 -107t-106.5 -44t-106 44t-43.5 107z" />
<glyph unicode="&#xf8;" horiz-adv-x="1218" d="M68 464q0 273 190 404q138 95 334 95q109 0 227 -35l91 149l121 -68l-81 -131q66 -42 106 -99q93 -133 93 -291q0 -312 -219 -443q-127 -75 -320 -75q-111 0 -215 34l-90 -143l-121 70l84 132q-66 52 -102 96q-98 119 -98 305zM444 499q0 -51 11 -156l246 414 q-40 37 -98 37q-159 0 -159 -295zM511 177q51 -38 101 -38q162 0 162 306q0 20 -10 155z" />
<glyph unicode="&#xf9;" horiz-adv-x="1316" d="M7 757v177h496v-580q0 -95 18 -140q27 -66 126 -66q152 0 152 206v214q-1 113 -4 145.5t-33 38.5q-13 3 -59 5h-75v177h514v-568q1 -114 4 -146t33 -38q13 -2 59 -5h72v-177h-511v137q-90 -168 -318 -168q-185 0 -261 93q-53 64 -58 150q-2 39 -2 132v224 q-1 115 -4 146.5t-33 37.5q-14 3 -59 5h-57zM354 1351.5q0 19.5 20 32.5q12 7 57 7h238l113 -326h-138l-260 239q-30 28 -30 47.5z" />
<glyph unicode="&#xfa;" horiz-adv-x="1316" d="M7 757v177h496v-580q0 -95 18 -140q27 -66 126 -66q152 0 152 206v214q-1 113 -4 145.5t-33 38.5q-13 3 -59 5h-75v177h514v-568q1 -114 4 -146t33 -38q13 -2 59 -5h72v-177h-511v137q-90 -168 -318 -168q-185 0 -261 93q-53 64 -58 150q-2 39 -2 132v224 q-1 115 -4 146.5t-33 37.5q-14 3 -59 5h-57zM500 1065l114 326h237q77 0 77 -40q0 -19 -29 -47l-261 -239h-138z" />
<glyph unicode="&#xfb;" horiz-adv-x="1316" d="M7 757v177h496v-580q0 -95 18 -140q27 -66 126 -66q152 0 152 206v214q-1 113 -4 145.5t-33 38.5q-13 3 -59 5h-75v177h514v-568q1 -114 4 -146t33 -38q13 -2 59 -5h72v-177h-511v137q-90 -168 -318 -168q-185 0 -261 93q-53 64 -58 150q-2 39 -2 132v224 q-1 115 -4 146.5t-33 37.5q-14 3 -59 5h-57zM279 1065l215 326h263l226 -326h-288l-110 165l-147 -165h-159z" />
<glyph unicode="&#xfc;" horiz-adv-x="1316" d="M7 757v177h496v-580q0 -95 18 -140q27 -66 126 -66q152 0 152 206v214q-1 113 -4 145.5t-33 38.5q-13 3 -59 5h-75v177h514v-568q1 -114 4 -146t33 -38q13 -2 59 -5h72v-177h-511v137q-90 -168 -318 -168q-185 0 -261 93q-53 64 -58 150q-2 39 -2 132v224 q-1 115 -4 146.5t-33 37.5q-14 3 -59 5h-57zM277 1225.5q0 60.5 45 102t106.5 41.5t102.5 -45.5t41 -106.5t-45.5 -102t-106.5 -41t-102 45.5t-41 106zM691 1225.5q0 60.5 45 102t106.5 41.5t102.5 -45.5t41 -106.5t-45.5 -102t-106.5 -41t-102 45.5t-41 106z" />
<glyph unicode="&#xfd;" horiz-adv-x="1222" d="M-1 757v177h689v-177h-76q-36 0 -48 -6t-12 -19.5t16 -52.5l148 -372l160 372q13 29 13 47q0 31 -58 31h-74v177h474v-177h-56q-50 0 -71.5 -29t-55.5 -102l-318 -705q-99 -221 -194.5 -292t-238 -71t-215 72t-72.5 175t59.5 154t132 51t118.5 -42.5t46 -118.5t-59 -114 q-30 -20 -56.5 -20t-46.5 1q44 -31 89 -31q81 0 136.5 71t99.5 165l-323 705q-38 79 -57 105t-74 26h-76zM507 1065l114 326h237q77 0 77 -40q0 -19 -29 -47l-261 -239h-138z" />
<glyph unicode="&#xfe;" horiz-adv-x="1311" d="M27 -246h77q45 2 59 4q30 7 33 39.5t4 145.5v1057q-1 113 -4 145.5t-33 38.5q-14 2 -59 4h-64v177h510v-575q49 83 115.5 128t185.5 45q275 0 359 -273q32 -106 32 -233t-39 -239t-116 -180t-224.5 -68t-228.5 63q-36 28 -84 92v-182q1 -115 4 -147t33 -38q14 -2 59 -4 h60v-176h-679v176zM551 445.5q0 -148.5 43 -225.5t118 -77q159 0 159 312q0 160 -36 240t-119 80t-124 -90.5t-41 -239z" />
<glyph unicode="&#xff;" horiz-adv-x="1222" d="M-1 757v177h689v-177h-76q-36 0 -48 -6t-12 -19.5t16 -52.5l148 -372l160 372q13 29 13 47q0 31 -58 31h-74v177h474v-177h-56q-50 0 -71.5 -29t-55.5 -102l-318 -705q-99 -221 -194.5 -292t-238 -71t-215 72t-72.5 175t59.5 154t132 51t118.5 -42.5t46 -118.5t-59 -114 q-30 -20 -56.5 -20t-46.5 1q44 -31 89 -31q81 0 136.5 71t99.5 165l-323 705q-38 79 -57 105t-74 26h-76zM291 1225.5q0 60.5 45 102t106.5 41.5t102.5 -45.5t41 -106.5t-45.5 -102t-106.5 -41t-102 45.5t-41 106zM705 1225.5q0 60.5 45 102t106.5 41.5t102.5 -45.5 t41 -106.5t-45.5 -102t-106.5 -41t-102 45.5t-41 106z" />
<glyph unicode="&#x152;" horiz-adv-x="2298" d="M68 687q0 143 41 271.5t115 216.5q185 220 525 220q67 0 201.5 -16.5t184.5 -16.5t217 3h843v-516h-214q0 170 -73 255q-51 57 -142 69q-41 6 -124 6h-236v-386h79q94 0 134 70q20 41 23 148h176v-618h-176q-1 120 -36 169.5t-121 50.5h-79v-427h236q127 0 173 15 q75 24 120.5 103t45.5 214v47h214v-565h-842q-237 0 -300.5 -3.5t-165.5 -15t-169 -11.5q-220 0 -385 128q-265 207 -265 589zM518 693.5q0 -266.5 61 -395.5q70 -147 242 -147q112 0 158 71q24 37 26 69t2 84v619q0 72 -9 101q-33 105 -189 105t-217 -108 q-74 -132 -74 -398.5z" />
<glyph unicode="&#x153;" horiz-adv-x="1818" d="M67 474.5q0 119.5 54 225t150 171.5q135 92 336 92q137 0 238 -41q42 -17 98 -60q53 44 121.5 72.5t185.5 28.5q271 0 403 -189q76 -110 90 -255q5 -50 7 -116h-636q-2 -170 96 -225q43 -24 94 -24q147 0 179 164h248q-23 -118 -104.5 -202.5t-170.5 -115t-216 -30.5 t-212 42q-36 18 -85 58q-75 -54 -154.5 -77t-188.5 -23q-214 0 -349 109q-88 71 -136 173.5t-48 222zM443 466.5q0 -327.5 166 -327.5q137 0 147 200q2 40 2 182t-31.5 207.5t-119.5 65.5q-164 0 -164 -327.5zM1111 560h296q-5 85 -22 131q-33 88 -120 88t-125 -76 q-23 -48 -29 -143z" />
<glyph unicode="&#x178;" horiz-adv-x="1448" d="M-28 1179v186h811v-186h-86q-73 0 -73 -34q0 -14 23 -56l175 -317l180 317q25 44 25 59q0 31 -64 31h-87v186h603v-186h-77q-63 0 -100 -48q-11 -15 -81 -118l-308 -479v-155q2 -112 6.5 -143t28 -40t71.5 -9h134v-187h-858v187h134q73 1 87 22t15.5 49.5t3.5 120.5v155 l-301 479q-65 110 -94 138t-90 28h-78zM376 1633q0 61 45.5 102t106.5 41t102 -45.5t41 -106.5t-45.5 -102t-106.5 -41t-102 45.5t-41 106.5zM861 1633q0 61 45 102t106.5 41t102.5 -45.5t41 -106.5t-45.5 -102t-107 -41t-102 45.5t-40.5 106.5z" />
<glyph unicode="&#x2c6;" d="M160 1065l215 326h263l226 -326h-288l-110 165l-147 -165h-159z" />
<glyph unicode="&#x2dc;" d="M155 1091q8 98 32 151q51 109 170 109q72 0 173.5 -35t140 -35t50 12t19.5 55h129q-10 -119 -39 -172q-48 -88 -172 -88q-82 0 -177.5 36.5t-130 36.5t-48 -17t-18.5 -53h-129z" />
<glyph unicode="&#x2000;" horiz-adv-x="928" />
<glyph unicode="&#x2001;" horiz-adv-x="1857" />
<glyph unicode="&#x2002;" horiz-adv-x="928" />
<glyph unicode="&#x2003;" horiz-adv-x="1857" />
<glyph unicode="&#x2004;" horiz-adv-x="619" />
<glyph unicode="&#x2005;" horiz-adv-x="464" />
<glyph unicode="&#x2006;" horiz-adv-x="309" />
<glyph unicode="&#x2007;" horiz-adv-x="309" />
<glyph unicode="&#x2008;" horiz-adv-x="232" />
<glyph unicode="&#x2009;" horiz-adv-x="371" />
<glyph unicode="&#x200a;" horiz-adv-x="103" />
<glyph unicode="&#x2010;" horiz-adv-x="532" d="M0 369v244h532v-244h-532z" />
<glyph unicode="&#x2011;" horiz-adv-x="532" d="M0 369v244h532v-244h-532z" />
<glyph unicode="&#x2012;" horiz-adv-x="532" d="M0 369v244h532v-244h-532z" />
<glyph unicode="&#x2013;" horiz-adv-x="1215" d="M69 369v244h1079v-244h-1079z" />
<glyph unicode="&#x2014;" horiz-adv-x="1570" d="M0 369v244h1570v-244h-1570z" />
<glyph unicode="&#x2018;" horiz-adv-x="470" d="M64 1066q0 168 137 260q72 48 191 69v-91q-128 -28 -166 -147q27 20 70.5 20t83.5 -40.5t40 -112t-54.5 -114.5t-133.5 -43t-132 73q-36 50 -36 126z" />
<glyph unicode="&#x2019;" horiz-adv-x="470" d="M62 1237q0 72 54.5 115t119.5 43q93 0 146 -74q36 -49 36 -126q0 -167 -137 -260q-72 -49 -191 -69v91q128 28 166 147q-27 -20 -70.5 -20t-83.5 40.5t-40 112.5z" />
<glyph unicode="&#x201a;" horiz-adv-x="470" d="M62 133q0 72 54.5 115t119.5 43q93 0 146 -74q36 -49 36 -126q0 -168 -137 -260q-72 -49 -191 -69v90q128 29 166 147q-27 -20 -70.5 -20t-83.5 41t-40 113z" />
<glyph unicode="&#x201c;" horiz-adv-x="920" d="M62 1066q0 168 137 260q71 48 190 69v-91q-128 -28 -166 -147q27 20 70 20t83.5 -40.5t40.5 -112t-54.5 -114.5t-118.5 -43q-93 0 -146 73q-36 49 -36 126zM512 1066q0 168 137 260q72 48 191 69v-91q-129 -28 -167 -147q28 20 71 20t83.5 -40.5t40.5 -112t-54.5 -114.5 t-133.5 -43t-132 73q-36 50 -36 126z" />
<glyph unicode="&#x201d;" horiz-adv-x="920" d="M62 1237q0 72 54.5 115t118.5 43q93 0 146 -74q36 -49 36 -126q0 -167 -137 -260q-71 -49 -190 -69v91q128 28 166 147q-28 -20 -71 -20t-83 40.5t-40 112.5zM511 1237q0 72 54.5 115t119.5 43q93 0 146 -74q36 -49 36 -126q0 -168 -137 -260q-72 -48 -191 -69v91 q128 28 166 147q-28 -20 -71 -20t-83 40.5t-40 112.5z" />
<glyph unicode="&#x201e;" horiz-adv-x="920" d="M62 133.5q0 71.5 54.5 114.5t118.5 43q93 0 146 -74q36 -49 36 -126q0 -167 -137 -260q-71 -48 -190 -68v90q128 29 166 147q-28 -19 -71 -19t-83 40.5t-40 112zM511 133.5q0 71.5 54.5 114.5t133.5 43t132 -73q36 -50 36 -126q0 -168 -137 -261q-71 -48 -191 -68v90 q128 29 166 147q-28 -19 -71 -19t-83 40.5t-40 112z" />
<glyph unicode="&#x2022;" horiz-adv-x="1365" d="M401 695q0 119 84 201q85 82 201 82t199.5 -83t83.5 -201t-83 -201t-200 -83t-201 83t-84 202z" />
<glyph unicode="&#x2026;" horiz-adv-x="1470" d="M79 152.5q0 68.5 51 115t120 46.5t115.5 -51.5t46.5 -120t-51.5 -115t-120 -46.5t-115 51.5t-46.5 120zM569 152.5q0 68.5 51 115t120 46.5t115.5 -51.5t46.5 -120t-51.5 -115t-120 -46.5t-115 51.5t-46.5 120zM1059 152.5q0 68.5 51 115t120 46.5t115.5 -51.5t46.5 -120 t-51.5 -115t-120.5 -46.5t-115 51.5t-46 120z" />
<glyph unicode="&#x202f;" horiz-adv-x="371" />
<glyph unicode="&#x2039;" horiz-adv-x="463" d="M91 477q0 89 61 194q20 35 66 98h158q-79 -168 -79 -303t79 -293h-158q-127 173 -127 304z" />
<glyph unicode="&#x203a;" horiz-adv-x="464" d="M85 173q80 168 80 303.5t-80 292.5h159q127 -174 127 -303q0 -90 -61 -195q-21 -36 -66 -98h-159z" />
<glyph unicode="&#x205f;" horiz-adv-x="464" />
<glyph unicode="&#x2122;" horiz-adv-x="2163" d="M-14 1053v312h863v-312h-150q1 28 1 36q0 158 -135 158h-19v-441q1 -78 9 -89t49 -12h78v-118h-536v118h77q46 0 52 14.5t7 86.5v440q-155 2 -152 -193h-144zM869 587v118h78q45 0 51 14.5t7 86.5v340q-1 79 -8.5 89.5t-49.5 11.5h-78v118h502l127 -446l129 446h501v-118 h-77q-46 -1 -52 -15t-7 -86v-340q1 -78 9 -89t50 -12h77v-118h-503v118h50q45 0 51 14t7 87v382l-181 -601h-207l-184 602v-383q1 -78 9 -89t50 -12h50v-118h-401z" />
<glyph unicode="&#xe000;" horiz-adv-x="935" d="M0 0v935h935v-935h-935z" />
</font>
</defs>
</svg>
