<?xml version="1.0" standalone="no"?>
<!DOCTYPE svg PUBLIC "-//W3C//DTD SVG 1.1//EN" "http://www.w3.org/Graphics/SVG/1.1/DTD/svg11.dtd" >
<svg xmlns="http://www.w3.org/2000/svg">
<metadata></metadata>
<defs>
<font id="ClarendonBlkBTBlack" horiz-adv-x="1327" >
<font-face units-per-em="2048" ascent="1638" descent="-410" />
<missing-glyph horiz-adv-x="664" />
<glyph horiz-adv-x="0" />
<glyph horiz-adv-x="2048" />
<glyph unicode="&#xd;" horiz-adv-x="664" />
<glyph unicode=" "  horiz-adv-x="664" />
<glyph unicode="&#x09;" horiz-adv-x="664" />
<glyph unicode="&#xa0;" horiz-adv-x="664" />
<glyph unicode="!" horiz-adv-x="711" d="M143 1151q0 123 57 193.5t156.5 70.5t155 -69.5t55.5 -194.5q0 -61 -42 -301.5t-58 -423.5h-223q-16 183 -58.5 423.5t-42.5 301.5zM170 153.5q0 79.5 54.5 134t134 54.5t134 -54.5t54.5 -134t-54.5 -134t-134 -54.5t-134 54.5t-54.5 134z" />
<glyph unicode="&#x22;" horiz-adv-x="729" d="M68 1341q0 55 33 89t87 34t87.5 -34t33.5 -89q0 -16 -4 -37l-92 -466h-49l-92 466q-4 21 -4 37zM420 1341q0 55 33.5 89t87.5 34t87.5 -34t33.5 -89q-1 -7 -1.5 -14t-3.5 -23l-92 -466h-49l-92 467q-4 20 -4 36z" />
<glyph unicode="#" horiz-adv-x="1575" d="M-6 350l100 271h254l74 213h-258l98 270h258l129 366h289l-129 -366h227l129 366h289l-129 -366h256l-100 -270h-252l-76 -213h258l-100 -271h-254l-131 -366h-289l131 366h-227l-131 -366h-289l131 366h-258zM629 616h239l78 220h-239z" />
<glyph unicode="$" d="M92 289q0 79 52 130.5t129.5 51.5t127.5 -43t50 -106q0 -98 -103 -123q79 -52 209 -52h31v310q-265 57 -375.5 143.5t-110.5 245.5t130 270.5t356 130.5v148h157l1 -146q215 -8 329.5 -80.5t114.5 -201.5q0 -79 -49 -129t-125 -50t-124 40t-48 105t71 116q-64 38 -170 38 v-303q260 -49 378 -142.5t118 -261.5t-130 -271t-366 -109v-231h-157v231h-8q-238 0 -363 74t-125 215zM442 950q0 -56 34 -87.5t112 -45.5v268q-146 -12 -146 -135zM745 422l1 -270q78 4 121.5 39t43.5 90q0 110 -166 141z" />
<glyph unicode="%" horiz-adv-x="1976" d="M63 888q0 178 108 286t285.5 108t285.5 -107.5t108 -285.5t-108.5 -286.5t-285.5 -108.5t-285 108t-108 286zM324 888.5q0 -124.5 31.5 -182t101.5 -57.5t100.5 55.5t30.5 183.5t-31 184t-100 56t-101 -57.5t-32 -182zM494 -37l784 1321h195l-783 -1321h-196zM1120 358 q0 178 108 286t285 108t285.5 -108t108.5 -285.5t-108 -285.5t-286 -108t-285.5 107.5t-107.5 285.5zM1380 356q0 -125 31 -181t101 -56t101.5 55t31.5 182t-31 183.5t-101 56.5q-133 0 -133 -240z" />
<glyph unicode="&#x26;" horiz-adv-x="1788" d="M57 360.5q0 179.5 88.5 290.5t282.5 187q-84 146 -84 276t102 215.5t267 85.5t261.5 -81.5t96.5 -217.5q0 -192 -223 -334q116 -204 254 -346q110 127 110 189q0 25 -24.5 36t-124.5 17v178h586v-178q-90 -8 -139 -34t-83 -81q-5 -9 -21 -39q-71 -135 -157 -239 q82 -82 145.5 -82t102.5 67t39 187v16h211v-37q0 -477 -393 -477q-207 0 -367 115q-191 -115 -427.5 -115t-369.5 111t-133 290.5zM432 431q0 -102 69 -174.5t167 -72.5q65 0 149 47q-111 103 -287 390q-98 -88 -98 -190zM651 1132q0 -75 70 -157q131 48 131 151 q0 46 -27.5 74.5t-73.5 28.5t-73 -28t-27 -69z" />
<glyph unicode="'" horiz-adv-x="379" d="M70 1341q0 55 33 89t86 34t86.5 -34t33.5 -89q0 -16 -4 -37l-92 -466h-47l-92 466q-4 21 -4 37z" />
<glyph unicode="(" horiz-adv-x="883" d="M131 496q0 432 178.5 663t524.5 256v-176q-149 -27 -220 -206t-71 -527t70.5 -526.5t220.5 -208.5l-1 -174q-344 3 -523 235t-179 664z" />
<glyph unicode=")" horiz-adv-x="883" d="M45 -227q149 27 220 206t71 527t-71 526.5t-220 208.5v174q344 -3 523.5 -235t179.5 -664t-179 -663.5t-524 -255.5v176z" />
<glyph unicode="*" horiz-adv-x="1053" d="M111 792q0 101 133 113q10 1 29 2q137 10 210 47q-88 54 -264 54q-43 0 -75.5 32.5t-32.5 82.5t34.5 87t92.5 37t131 -109l1 -1q63 -95 135 -141q-4 86 -51.5 184t-47.5 136.5t33 68.5t85.5 30t87.5 -32t35 -68t-46.5 -133.5t-53.5 -185.5q75 39 152 159q63 96 117 96 t90 -38t36 -92.5t-36 -82t-123 -32.5q-147 -10 -214 -48q84 -45 237 -52q70 0 104 -31.5t34 -83.5t-35.5 -90.5t-90 -38.5t-115.5 90q-59 86 -91.5 120.5t-62.5 48.5q3 -84 51.5 -183.5t48.5 -138t-34 -69t-87 -30.5t-86.5 29.5t-33.5 67.5t47 138t55 183q-74 -36 -143 -143 q-67 -111 -136 -111q-50 0 -85 38t-35 90z" />
<glyph unicode="+" horiz-adv-x="1706" d="M254 475v273h459v473h280v-473h459v-273h-459v-475h-280v475h-459z" />
<glyph unicode="," horiz-adv-x="664" d="M125 155q0 79 55 133t145.5 54t151 -64.5t60.5 -168.5q0 -145 -111.5 -253.5t-284.5 -125.5l1 129q146 16 184 129q-8 -4 -39 -4q-73 0 -117.5 46t-44.5 125z" />
<glyph unicode="-" horiz-adv-x="735" d="M63 317v326h599v-326h-599z" />
<glyph unicode="." horiz-adv-x="664" d="M143 153.5q0 79.5 54.5 134t134.5 54.5t134 -54.5t54 -134t-54 -134t-134 -54.5t-134.5 54.5t-54.5 134z" />
<glyph unicode="/" horiz-adv-x="592" d="M-100 -190l528 1605h188l-530 -1605h-186z" />
<glyph unicode="0" d="M55 623.5q0 296.5 168.5 477.5t441 181t441 -181.5t168.5 -477.5t-168.5 -477t-441.5 -181t-441 181t-168 477.5zM496 623q0 -244 39.5 -351.5t128.5 -107.5t128 106.5t39 351t-39 353t-127.5 108.5t-128.5 -108t-40 -352z" />
<glyph unicode="1" d="M268 0v180h56q97 0 127 17t30 100v608h-213v182q246 20 297 160h324v-983q0 -51 27 -67.5t118 -16.5h47v-180h-813z" />
<glyph unicode="2" d="M88 860q0 184 154.5 303t398 119t396.5 -117.5t153 -304.5q0 -153 -101 -248t-352 -170q-29 -8 -83 -23q-246 -69 -277 -161q136 72 264 72q67 0 167 -24.5t132 -24.5q86 0 86 139v18h209q2 -26 2 -71q0 -211 -85 -307.5t-269 -96.5q-111 0 -270 48t-203 48 q-80 0 -101 -61h-215l-2 45q0 141 56.5 247t187.5 208q53 42 166 110.5t158 102.5q92 68 92 178q0 80 -57.5 126t-139.5 46q-145 0 -221 -82h10q73 0 113.5 -38t40.5 -117.5t-54.5 -131t-149 -51.5t-150.5 59.5t-56 159.5z" />
<glyph unicode="3" d="M76 303q0 99 65 163t158.5 64t147 -48t53.5 -123.5t-39.5 -112t-124.5 -45.5q78 -47 199 -47t186 54.5t65 153.5q0 199 -231 199v172q109 5 161 43t52 121.5t-61 138t-143.5 54.5t-125 -17.5t-71.5 -54.5q57 0 93 -37t36 -106.5t-49 -111.5t-138.5 -42t-144.5 52.5 t-55 137.5q0 169 155 270t404.5 101t380.5 -90.5t131 -251.5q0 -200 -228 -270q275 -89 275 -326q0 -177 -148 -278t-424 -101t-427.5 86t-151.5 252z" />
<glyph unicode="4" d="M63 356v219l619 672h385v-717h195v-174h-195v-92q0 -51 27 -67.5t118 -16.5h50v-180h-795v180h55q96 0 127 17.5t31 101.5v57h-617zM287 530h393l4 437z" />
<glyph unicode="5" d="M86 330q0 95 60.5 153t154 58t148.5 -49.5t55 -123.5t-33 -110.5t-111 -50.5q76 -62 173 -62t166 82.5t69 208.5t-57 195t-151 69t-167 -67h-221l37 643q319 -27 483.5 -27t352.5 39q43 8 56 8t24.5 -14.5t11.5 -36.5q0 -92 -144.5 -174t-339.5 -82q-63 0 -243 16 l-9 -161q108 63 267 63q249 0 392.5 -126t143.5 -340t-166.5 -346t-421 -132t-392.5 99t-138 268z" />
<glyph unicode="6" d="M106 599.5q0 308.5 175.5 495.5t476.5 187q193 0 312.5 -80.5t119.5 -208.5q0 -80 -53 -127t-139.5 -47t-139.5 43.5t-53 115t71 114.5q-42 14 -83 14q-122 0 -195.5 -105t-73.5 -284v-6q140 77 283 77q191 0 308.5 -110.5t117.5 -299.5t-137 -301t-379 -112 q-290 0 -450.5 163t-160.5 471.5zM545 362.5q0 -104.5 38 -165t102.5 -60.5t103 61.5t38.5 164t-38.5 164t-103 61.5t-102.5 -60.5t-38 -165z" />
<glyph unicode="7" d="M143 668v579h234l-2 -127q86 152 262 152q102 0 229.5 -50.5t157.5 -50.5q68 0 68 62v14h178q2 -14 2 -39q0 -124 -177 -404q-157 -248 -204 -411t-47 -346v-47h-424q-2 22 -2 68q0 154 42.5 276.5t135.5 237.5q47 57 179 175t198 193q-96 -43 -172.5 -43t-165.5 17.5 t-113 17.5q-79 0 -114 -47.5t-35 -155.5q0 -47 2 -71h-232z" />
<glyph unicode="8" d="M66 322q0 102 56.5 173.5t176.5 120.5q-176 117 -176 289t148 274.5t395 102.5t383.5 -84.5t136.5 -230.5q0 -170 -195 -238q142 -64 207.5 -150t65.5 -210q0 -191 -164 -297.5t-450.5 -106.5t-435 92.5t-148.5 264.5zM352 332q0 -88 81 -143.5t203 -55.5q238 0 238 133 q0 52 -42 90.5t-146 79.5l-194 78q-140 -74 -140 -182zM492 994q0 -46 38.5 -75.5t141.5 -62.5l114 -37q113 56 113 142q0 61 -58 101t-150 40t-145.5 -31t-53.5 -77z" />
<glyph unicode="9" d="M88 864q0 186 140.5 302t377.5 116q284 0 446 -168.5t162 -473.5t-176 -491t-475 -186q-193 0 -311.5 81.5t-118.5 211.5q0 79 53.5 125.5t139.5 46.5t139 -43.5t53 -115.5t-71 -113q41 -15 81 -15q123 0 197 105.5t74 283.5v7q-142 -78 -285 -78q-191 0 -308.5 109.5 t-117.5 295.5zM494 884.5q0 -102.5 38.5 -164t103 -61.5t103.5 61t39 165t-39 164.5t-103.5 60.5t-103 -61.5t-38.5 -164z" />
<glyph unicode=":" horiz-adv-x="711" d="M162 153.5q0 79.5 55 134t135 54.5t134.5 -54.5t54.5 -134t-54.5 -134t-134.5 -54.5t-135 54.5t-55 134zM162 735.5q0 79.5 55 134t135 54.5t134.5 -54.5t54.5 -134.5t-54.5 -134t-134.5 -54t-135 54.5t-55 134z" />
<glyph unicode=";" horiz-adv-x="711" d="M147 155q0 79 55 133t146 54t151 -64.5t60 -168.5q0 -145 -111.5 -253.5t-283.5 -125.5v129q147 14 186 129q-8 -4 -39 -4q-73 0 -118.5 46t-45.5 125zM162 735.5q0 79.5 55 134t135 54.5t134.5 -54.5t54.5 -134.5t-54.5 -134t-134.5 -54t-135 54.5t-55 134z" />
<glyph unicode="&#x3c;" horiz-adv-x="1706" d="M264 471v281l1178 487v-301l-801 -328l801 -327v-299z" />
<glyph unicode="=" horiz-adv-x="1706" d="M254 240v272h1198v-272h-1198zM254 711v272h1198v-272h-1198z" />
<glyph unicode="&#x3e;" horiz-adv-x="1706" d="M264 -16v299l801 327l-801 328v301l1178 -487v-281z" />
<glyph unicode="?" horiz-adv-x="1223" d="M100 983q0 193 142.5 312.5t369.5 119.5t361.5 -103.5t134.5 -269.5q0 -161 -109 -266q-56 -55 -121 -102q-58 -41 -82 -59q-110 -83 -110 -183h-237q-5 35 -5 64q0 69 54 154q9 14 28 43q148 233 148 323t-52 140t-133 50t-130.5 -38t-63.5 -107q44 12 97.5 12 t92.5 -40.5t39 -120.5t-55 -133.5t-152 -53.5t-157 69.5t-60 188.5zM375 153.5q0 80.5 53.5 134.5t133 54t134 -54.5t54.5 -134t-54.5 -134t-134 -54.5t-133 54t-53.5 134.5z" />
<glyph unicode="@" horiz-adv-x="2019" d="M125 532q0 371 258 631q143 144 337 222.5t408 78.5q346 0 558 -191.5t212 -504.5q0 -310 -196 -512q-135 -141 -311 -141q-101 0 -163.5 52.5t-64.5 137.5q-116 -188 -274 -188t-247 93t-89 253q0 237 172 403q158 156 353.5 156t215.5 -172l45 149h234l-176 -628 q-15 -51 -15 -90.5t18.5 -65t47.5 -25.5t85.5 32.5t102.5 78.5q181 179 181 465q0 226 -109 364q-85 113 -236 179.5t-309 66.5q-313 0 -538 -188q-299 -250 -299 -682q0 -328 199 -517.5t544 -189.5q161 0 309 48t326 159l45 -65q-303 -230 -676 -230q-435 0 -691.5 222.5 t-256.5 598.5zM819 348q0 -141 111 -141q44 0 85 41t92 143.5t86.5 233.5t35.5 209q0 100 -90 100q-100 0 -178 -137q-64 -109 -103 -236.5t-39 -212.5z" />
<glyph unicode="A" horiz-adv-x="1446" d="M-63 0v195h51q52 0 87.5 33t61.5 108l361 1038h497l322 -1034q33 -102 60 -123.5t87 -21.5h72v-195h-834v195h62q78 0 95.5 8.5t17.5 28.5q0 32 -9 63l-49 147h-370l-43 -131q-19 -52 -19 -78q0 -38 96 -38h68v-195h-614zM512 639h242l-125 416z" />
<glyph unicode="B" horiz-adv-x="1532" d="M33 0v195h69q68 0 89.5 16t21.5 92v760q0 80 -20 98.5t-93 18.5h-67v194h827q269 0 394.5 -78t125.5 -245q0 -114 -73 -197t-211 -127q179 -39 266.5 -125t87.5 -225q0 -202 -140.5 -289.5t-471.5 -87.5h-805zM666 193h88q125 0 179 52t54 166t-57 166t-178 52h-86v-436z M666 809h75q109 0 159 45.5t50 142t-46.5 138t-155.5 41.5h-82v-367z" />
<glyph unicode="C" horiz-adv-x="1518" d="M66 676.5q0 340.5 198.5 539.5t530.5 199q221 0 391 -96l35 76h223v-566h-246q-36 198 -110 287.5t-209 89.5t-201 -122.5t-66 -398t68 -398.5t214 -123t235 99.5t100 268.5h221q-8 -276 -174.5 -424.5t-470.5 -148.5q-356 0 -547.5 188.5t-191.5 529z" />
<glyph unicode="D" horiz-adv-x="1657" d="M33 0v195h69q68 0 89.5 16t21.5 92v760q0 80 -20 98.5t-93 18.5h-67v194h747q412 0 611.5 -169t199.5 -517.5t-200 -518t-611 -169.5h-747zM672 201h108q149 0 214 112t65 375t-65 375.5t-214 112.5h-108v-975z" />
<glyph unicode="E" horiz-adv-x="1595" d="M33 0v195h69q68 0 89.5 16t21.5 92v760q0 80 -20 98.5t-93 18.5h-67v194h1442v-512h-218q-38 182 -102 246q-39 39 -95 55.5t-181 16.5h-217v-377h53q93 0 130.5 45t37.5 160v12h172v-627h-172q-4 144 -37.5 187t-128.5 43h-55v-428h243q141 0 194.5 17t84.5 62 q62 92 73 293h226v-567h-1450z" />
<glyph unicode="F" horiz-adv-x="1479" d="M33 0v195h69q68 0 89.5 16t21.5 92v760q0 80 -20 98.5t-93 18.5h-67v194h1397v-563h-223q-11 191 -66 274q-35 52 -90.5 73.5t-212.5 21.5h-176v-377h53q93 0 130.5 45t37.5 160v12h172v-627h-172q-4 144 -37.5 187t-128.5 43h-55v-310q0 -85 21.5 -101.5t90.5 -16.5h76 v-195h-817z" />
<glyph unicode="G" horiz-adv-x="1686" d="M66 680q0 335 197 536t521 201q220 0 369 -98l33 76h219v-566h-240q-34 198 -106 287.5t-203.5 89.5t-194.5 -121.5t-63 -396t63 -397.5t201 -123q90 0 122 27.5t32 119.5v105q0 78 -20.5 97.5t-94.5 19.5h-45v194h760v-194h-49q-71 0 -92 -17t-21 -100v-434h-250l-45 84 q-202 -115 -407 -115q-319 0 -502.5 195t-183.5 530z" />
<glyph unicode="H" horiz-adv-x="1726" d="M33 0v195h69q69 0 91 16.5t22 101.5v750q0 81 -20 99t-93 18h-69v194h762v-194h-23q-62 0 -81 -19.5t-19 -97.5v-248h381v248q0 78 -19.5 97.5t-81.5 19.5h-22v194h762v-194h-70q-72 0 -92.5 -18.5t-20.5 -98.5v-750q0 -80 20.5 -99t92.5 -19h70v-195h-762v195h22 q61 0 81 20t20 98v308h-381v-308q0 -78 19.5 -98t80.5 -20h23v-195h-762z" />
<glyph unicode="I" horiz-adv-x="899" d="M41 0v195h68q72 0 93 19.5t21 98.5v750q0 78 -20.5 97.5t-93.5 19.5h-68v194h817v-194h-67q-74 0 -94.5 -19.5t-20.5 -97.5v-750q0 -79 21 -98.5t94 -19.5h67v-195h-817z" />
<glyph unicode="J" horiz-adv-x="1309" d="M41 348q0 130 76 210.5t182.5 80.5t159.5 -51.5t53 -136t-48 -135t-126 -50.5q-25 0 -57 6q50 -100 163 -100t157 61.5t44 247.5v582q0 80 -20 98.5t-93 18.5h-77v194h821v-194h-64q-68 0 -89 -16t-21 -91v-612q0 -152 -27 -233t-95 -142q-138 -127 -427 -127 q-228 0 -370 109t-142 280z" />
<glyph unicode="K" horiz-adv-x="1745" d="M33 0v195h69q72 0 92.5 19t20.5 99v750q0 80 -20 98.5t-93 18.5h-69v194h751v-194h-12q-66 0 -87 -17t-21 -100v-340l443 366q34 28 34 56q0 35 -80 35h-115v194h766v-194h-70q-74 0 -194 -101l-277 -237l371 -555q33 -50 67 -71t81 -21h84v-195h-850v195h65q96 0 96 38 q0 28 -16 50l-201 305l-206 -160v-115q0 -79 20.5 -98.5t89.5 -19.5h45v-195h-784z" />
<glyph unicode="L" horiz-adv-x="1413" d="M33 0v195h69q72 0 92.5 19t20.5 99v750q0 80 -20 98.5t-93 18.5h-69v194h827v-194h-78q-68 0 -89 -16t-21 -91v-874h92q128 0 180.5 13.5t87.5 51.5q69 75 82 309h213v-573h-1294z" />
<glyph unicode="M" horiz-adv-x="2118" d="M33 0v195h63q72 0 92.5 19t20.5 99v750q0 80 -20 98.5t-93 18.5h-63v194h770l233 -819l252 819h795v-194h-68q-71 0 -91.5 -17.5t-20.5 -99.5v-750q0 -83 21 -100.5t91 -17.5h68v-195h-754v195h51q69 0 91 16.5t22 101.5v836l-352 -1149h-322l-334 1147v-834 q0 -80 20.5 -99t92.5 -19h51v-195h-616z" />
<glyph unicode="N" horiz-adv-x="1667" d="M33 0v195h67q73 0 94 19.5t21 98.5v750q0 78 -20.5 97.5t-94.5 19.5h-67v194h680l506 -925v614q0 83 -21.5 100t-91.5 17h-78v194h604v-194h-49q-72 0 -92.5 -18.5t-20.5 -98.5v-1063h-471l-534 985v-672q0 -80 20.5 -99t92.5 -19h61v-195h-606z" />
<glyph unicode="O" horiz-adv-x="1726" d="M66 687q0 340 212 534t585 194t584.5 -194t211.5 -535t-212 -534t-585 -193t-584.5 194t-211.5 534zM598 687.5q0 -273.5 63 -396.5t202 -123t202 122t63 395t-63 397t-201.5 124t-202 -122.5t-63.5 -396z" />
<glyph unicode="P" horiz-adv-x="1538" d="M33 0v195h69q72 0 92.5 19t20.5 99v750q0 80 -20 98.5t-93 18.5h-69v194h901q289 0 424 -93t135 -290.5t-134.5 -290t-424.5 -92.5h-264v-295q0 -80 20.5 -99t91.5 -19h78v-195h-827zM672 778h90q142 0 201 46.5t59 153.5t-56 150t-196 43h-98v-393z" />
<glyph unicode="Q" horiz-adv-x="1778" d="M66 691q0 336 212 530t585 194t584.5 -194t211.5 -520.5t-180 -514.5q63 -49 106 -49q84 0 84 158v12h151q-8 -446 -329 -446q-174 0 -317 157q-167 -59 -345 -59q-347 0 -555 198t-208 534zM588 731q0 -88 20 -270q44 194 234 194q153 0 303 -170q4 62 4 179 q0 290 -64 416t-210.5 126t-216.5 -114.5t-70 -360.5zM698 260q0 -55 44 -91t106 -36q111 0 211 66q-133 178 -252 178q-48 0 -78.5 -31t-30.5 -86z" />
<glyph unicode="R" horiz-adv-x="1677" d="M33 0v195h69q72 0 92.5 19t20.5 99v750q0 80 -20 98.5t-93 18.5h-69v194h946q498 0 498 -342q0 -116 -76 -195t-215 -108q140 -17 189.5 -85.5t49.5 -313.5q0 -74 12.5 -102.5t41.5 -28.5q55 0 55 141l-2 47h139l2 -55q0 -192 -79 -278.5t-260.5 -86.5t-267 78t-85.5 248 v115q0 138 -36.5 175.5t-151.5 37.5h-123v-308q0 -80 20.5 -99t91.5 -19h78v-195h-827zM666 807h120q127 0 178.5 40.5t51.5 140t-47.5 141.5t-167.5 42h-135v-364z" />
<glyph unicode="S" horiz-adv-x="1442" d="M74 964q0 197 153.5 324t404.5 127t455 -102l37 69h197v-477h-231q-67 289 -379 289q-92 0 -151.5 -42t-59.5 -103q0 -92 228 -139q397 -85 529 -197t132 -309.5t-157.5 -321t-410.5 -123.5t-473 111l-51 -76h-188v512h198q49 -159 162.5 -248.5t267.5 -89.5 q93 0 149 39.5t56 103.5q0 99 -243 166q-374 99 -460 165q-165 125 -165 322z" />
<glyph unicode="T" horiz-adv-x="1526" d="M39 854v520h1446v-520h-201v6q0 145 -60.5 222t-174.5 77h-60v-846q0 -79 21 -98.5t94 -19.5h115v-195h-904v195h107q69 0 91 16.5t22 101.5v846h-60q-113 0 -173 -76.5t-60 -222.5v-6h-203z" />
<glyph unicode="U" horiz-adv-x="1602" d="M12 1180v194h828v-194h-76q-74 0 -94.5 -19.5t-20.5 -97.5v-606q0 -159 49.5 -223t178.5 -64t190 63t61 207v623q0 81 -20 99t-92 18h-70v194h637v-194h-63q-72 0 -92.5 -18.5t-20.5 -92.5v-663q0 -220 -159 -334.5t-452 -114.5t-446 113t-153 319v674q0 78 -21 97.5 t-94 19.5h-70z" />
<glyph unicode="V" horiz-adv-x="1473" d="M-55 1180v194h823v-194h-76q-59 0 -79.5 -11.5t-20.5 -37t3 -40.5t3 -16l217 -702l228 705q10 34 10 57t-20.5 34t-82.5 11h-69v194h639v-194h-50q-64 0 -98 -27.5t-59 -105.5l-346 -1047h-469l-318 1012q-28 87 -68.5 127.5t-101.5 40.5h-65z" />
<glyph unicode="W" horiz-adv-x="2036" d="M-4 1180v194h637v-194q-47 0 -66.5 -12t-19.5 -33q0 -36 8 -60l195 -696l159 649q-15 89 -50 119.5t-120 32.5v194h678v-194h-45q-61 0 -81.5 -11.5t-20.5 -31.5q0 -32 8 -62l170 -696l176 698q8 30 8 55.5t-21.5 36.5t-92.5 11v194h524v-194q-65 0 -99 -29.5t-55 -103.5 l-286 -1047h-437l-135 559l-139 -559h-440l-283 1010q-26 90 -66 129t-106 41z" />
<glyph unicode="X" horiz-adv-x="1518" d="M-29 0v195h68q54 0 94.5 20.5t97.5 89.5l289 344l-344 443q-45 55 -71.5 71.5t-59.5 16.5h-47v194h770v-194h-35q-61 0 -61 -41q0 -23 37 -72l104 -143l164 188q18 20 18 33q0 35 -65 35h-60v194h629v-194h-39q-95 0 -147 -62l-307 -358l348 -486q58 -79 139 -79h55v-195 h-782v195h43q61 0 61 41q0 18 -37 72l-122 167l-180 -212q-17 -21 -17 -34q0 -34 66 -34h75v-195h-684z" />
<glyph unicode="Y" horiz-adv-x="1413" d="M-49 1180v194h801v-194h-47q-93 0 -93 -50q0 -20 21 -55l162 -264l162 267q20 31 20 67q0 35 -84 35h-51v194h616v-194h-43q-47 0 -84.5 -28t-89.5 -110l-307 -491v-238q0 -79 21 -98.5t94 -19.5h75v-195h-835v195h78q68 0 90 16.5t22 101.5v238l-301 500 q-78 129 -188 129h-39z" />
<glyph unicode="Z" horiz-adv-x="1384" d="M35 0v195l762 985h-183q-166 0 -231 -67t-78 -251h-235v512h1259v-194l-758 -985h187q178 0 246.5 75.5t80.5 280.5h244v-551h-1294z" />
<glyph unicode="[" horiz-adv-x="883" d="M240 -375v1749h608v-200h-225v-1342h225v-207h-608z" />
<glyph unicode="\" horiz-adv-x="592" d="M-23 1415h189l526 -1605h-186z" />
<glyph unicode="]" horiz-adv-x="883" d="M31 -168h225v1342h-225v200h608v-1749h-608v207z" />
<glyph unicode="^" horiz-adv-x="2048" d="M412 897l467 565h288l465 -565h-131l-479 315l-477 -315h-133z" />
<glyph unicode="_" horiz-adv-x="1024" d="M0 -201h1024v-282h-1024v282z" />
<glyph unicode="`" horiz-adv-x="1024" d="M162 1406q0 44 32.5 77t76.5 33t81.5 -22.5t89.5 -78.5l295 -313h-121l-346 172q-59 29 -83.5 58.5t-24.5 73.5z" />
<glyph unicode="a" horiz-adv-x="1300" d="M33 236.5q0 129.5 74 193.5t266.5 97t238 69t45.5 110.5t-51 118t-139 43.5q-57 0 -121 -34q107 -32 107 -132q0 -63 -49 -102t-137.5 -39t-140.5 45t-52 127q0 126 130 197t363 71q270 0 381 -75q63 -42 88 -99.5t25 -181.5v-373q0 -38 8.5 -49.5t32.5 -11.5t33.5 12 t9.5 49v117h135v-127q0 -159 -72 -228t-243.5 -69t-259.5 137q-110 -137 -353 -137q-153 0 -236 71t-83 200.5zM430 274q0 -42 30 -69t82.5 -27t87 37.5t34.5 101.5v7l-2 125q-36 -20 -96 -49q-136 -66 -136 -126z" />
<glyph unicode="b" horiz-adv-x="1323" d="M0 1194v180h547v-516q114 146 299.5 146t293 -142t107.5 -389t-105 -376.5t-311 -129.5q-97 0 -176.5 39.5t-156.5 126.5l-92 -133h-263v1098q0 57 -21.5 76.5t-88.5 19.5h-33zM547 480q0 -306 134 -306t134 306t-134 306t-134 -306z" />
<glyph unicode="c" horiz-adv-x="1087" d="M45 484.5q0 239.5 149 379.5t406 140q199 0 317.5 -91t118.5 -239q0 -99 -57 -153t-152 -54t-144.5 43t-49.5 111t34.5 106t94.5 41q-30 49 -100 49q-98 0 -138.5 -73t-40.5 -256t37.5 -258.5t113.5 -75.5q149 0 153 182h247q-6 -182 -121 -278.5t-344.5 -96.5 t-376.5 142t-147 381.5z" />
<glyph unicode="d" horiz-adv-x="1323" d="M45 473q0 247 107.5 389t289.5 142t306 -146v239q-2 59 -25 79t-90 20l-51 -2v180h569v-1098q2 -61 19 -78.5t71 -17.5h49v-180h-516v133q-73 -87 -148 -126.5t-169 -39.5q-203 0 -307.5 129.5t-104.5 376.5zM477 480q0 -306 134 -306t134 305q0 160 -32.5 233.5 t-102.5 73.5q-133 0 -133 -306z" />
<glyph unicode="e" horiz-adv-x="1163" d="M45 482q0 239 148.5 380.5t397 141.5t381 -140.5t132.5 -402.5v-35h-643v-20q0 -122 51 -187t138 -65q171 0 206 182h252q-69 -373 -512 -373q-255 0 -403 140t-148 379zM461 606h297v15q0 96 -39 148t-110 52t-109.5 -56t-38.5 -159z" />
<glyph unicode="f" horiz-adv-x="825" d="M43 0v180h49q58 0 76 18t18 78v504h-143v187h143v55q0 206 108 297.5t347 91.5q166 0 265.5 -64.5t99.5 -170.5q0 -69 -49.5 -113.5t-123 -44.5t-117.5 37t-44 101.5t73 109.5q-36 10 -53 10q-55 0 -78.5 -39t-23.5 -139v-131h178v-187h-178v-501q0 -61 18.5 -80 t77.5 -19h86v-180h-729z" />
<glyph unicode="g" horiz-adv-x="1270" d="M-6 -213q0 52 34 93.5t95 64.5q-111 81 -111 190q0 70 42.5 124.5t121.5 84.5q-117 99 -117 275t129.5 278t364.5 102q146 0 305 -73q98 73 214 73t186.5 -55t70.5 -133t-39 -119t-104.5 -41t-109.5 32.5t-44 88.5t62 102q-30 25 -55 25q-50 0 -117 -53q82 -92 82 -255.5 t-135.5 -270.5t-356.5 -107q-95 0 -190 31q-39 -20 -39 -50t23 -41.5t112 -11.5l370 6q197 0 286 -63t89 -201q0 -323 -594 -323q-296 0 -435.5 55t-139.5 172zM305 -215q0 -40 69 -58t220 -18t215.5 18.5t64.5 58t-59.5 55.5t-223 16t-225 -16t-61.5 -56zM438 606 q0 -136 23 -193t71.5 -57t69.5 60t21 194.5t-20.5 191t-70 56.5t-72 -58t-22.5 -194z" />
<glyph unicode="h" horiz-adv-x="1405" d="M33 0v180h35q58 0 77 18.5t19 77.5v822q0 59 -19 77.5t-77 18.5h-35v180h532v-553q130 172 350 172q185 0 261.5 -80t76.5 -278v-359q0 -59 19 -77.5t78 -18.5h24v-180h-631v180h23q51 0 67.5 18t16.5 78v349q0 166 -131 166q-71 0 -112.5 -53.5t-41.5 -143.5v-318 q0 -58 18 -77t70 -19h21v-180h-641z" />
<glyph unicode="i" horiz-adv-x="750" d="M45 0v180h41q59 0 77.5 18.5t18.5 77.5v414q0 60 -18.5 78t-77.5 18h-41v181h541v-691q0 -59 18.5 -77.5t77.5 -18.5h35v-180h-672zM172 1228.5q0 78.5 53.5 132.5t130.5 54t131 -54.5t54 -131.5t-54 -131t-131.5 -54t-130.5 53t-53 131.5z" />
<glyph unicode="j" horiz-adv-x="725" d="M-223 -207q0 77 48.5 123.5t126.5 46.5t122.5 -37t44.5 -96t-55 -102q36 -17 53 -17q67 0 67 88v891q0 60 -18.5 78t-77.5 18h-49v181h549v-1030q0 -113 -15 -166.5t-49 -94.5q-104 -118 -374 -118q-182 0 -277.5 60.5t-95.5 174.5zM174 1228.5q0 78.5 53.5 132.5 t130.5 54t131 -54.5t54 -131.5t-54 -131t-131.5 -54t-130.5 53t-53 131.5z" />
<glyph unicode="k" horiz-adv-x="1380" d="M29 1194v180h540v-821l205 162q29 19 29 45t-60 26h-22v181h579v-181q-108 0 -165 -47l-136 -106l236 -377q44 -72 155 -76l1 -180h-629v180h4q65 3 65 27t-36 84l-82 129l-143 -106q-3 -15 -3 -55t19.5 -59.5t68.5 -19.5h9v-180h-631v180h41q59 0 77.5 18.5t18.5 77.5 v822q0 59 -18.5 77.5t-77.5 18.5h-45z" />
<glyph unicode="l" horiz-adv-x="727" d="M25 0v180h45q58 0 77 18.5t19 77.5v822q0 59 -19 77.5t-77 18.5h-45v180h544v-1098q0 -60 18.5 -78t76.5 -18h32v-180h-671z" />
<glyph unicode="m" horiz-adv-x="2001" d="M39 0v180h35q59 0 77.5 18.5t18.5 77.5v414q0 60 -18.5 78t-77.5 18h-35v181h524v-121q150 158 345 158t280 -130q144 130 326 130t258.5 -80.5t76.5 -278.5v-369q0 -59 19 -77.5t78 -18.5h24v-180h-610v180q53 2 69.5 19.5t16.5 76.5v349q0 88 -24.5 125.5t-82.5 37.5 q-129 0 -129 -221v-291q0 -60 13.5 -78t52.5 -18h22v-180h-575v180h20q39 0 52.5 19t13.5 77v349q0 88 -25 125.5t-87 37.5q-124 0 -124 -225v-287q0 -57 17.5 -76.5t64.5 -19.5h9v-180h-625z" />
<glyph unicode="n" horiz-adv-x="1413" d="M25 0v180h49q59 0 77.5 18.5t18.5 77.5v414q0 60 -18.5 78t-77.5 18h-49v181h538v-150q134 176 359 176q185 0 262.5 -80t77.5 -278v-359q0 -60 18 -78t76 -18h41v-180h-647v180h22q52 0 69 18.5t17 77.5v349q0 166 -133 166q-70 0 -111 -53t-41 -144v-318q0 -58 18 -77 t71 -19h20v-180h-657z" />
<glyph unicode="o" horiz-adv-x="1264" d="M45 483.5q0 242.5 155.5 381.5t428.5 139t431.5 -140t158.5 -380.5t-157.5 -379.5t-431.5 -139t-429.5 138t-155.5 380.5zM479 483q0 -187 34.5 -258t118 -71t117 70.5t33.5 258t-34.5 259t-117.5 71.5t-117 -71.5t-34 -258.5z" />
<glyph unicode="p" horiz-adv-x="1323" d="M33 -260h47q56 0 74 18.5t18 77.5v854q0 59 -18 77.5t-74 18.5h-47v181h514v-133q74 87 150.5 126t170.5 39q200 0 305 -131t105 -375.5t-108 -386t-292.5 -141.5t-304.5 144v-273q0 -57 21.5 -76.5t85.5 -19.5h29v-180h-676v180zM575 487.5q0 -307.5 134.5 -307.5 t134.5 307.5t-134.5 307.5t-134.5 -307.5z" />
<glyph unicode="q" horiz-adv-x="1323" d="M45 492.5q0 244.5 105 375.5t305 131q94 0 170.5 -39t150.5 -126v133h512v-181h-45q-56 0 -74 -18.5t-18 -77.5v-854q0 -59 18 -77.5t74 -18.5h45v-180h-674v180h29q63 0 84 19.5t21 76.5v273q-118 -144 -302.5 -144t-292.5 141.5t-108 386zM479 487.5 q0 -307.5 134.5 -307.5t134.5 307.5t-134.5 307.5t-134.5 -307.5z" />
<glyph unicode="r" horiz-adv-x="1053" d="M39 0v180h35q59 0 77.5 18.5t18.5 77.5v414q0 60 -18.5 78t-77.5 18h-35v181h524v-95q103 129 250 129q110 0 176 -64.5t66 -165t-52.5 -156.5t-129.5 -56t-122.5 43t-45.5 107q0 88 89 133q-24 6 -44 6q-82 0 -129.5 -76.5t-47.5 -210.5v-285q0 -59 19 -77.5t78 -18.5 h65v-180h-696z" />
<glyph unicode="s" horiz-adv-x="1163" d="M39 678q0 149 123.5 237.5t322.5 88.5t365 -76l29 57h151v-305h-160q-42 72 -113 110.5t-145 38.5q-145 0 -145 -73q0 -62 153 -108q39 -12 59.5 -18.5t54.5 -16.5q165 -51 226 -92q117 -78 117 -229t-120 -239t-339 -88t-378 96l-37 -75h-144v354h181q64 -188 278 -188 q135 0 135 81q0 56 -160 103q-308 91 -381 160.5t-73 181.5z" />
<glyph unicode="t" horiz-adv-x="946" d="M12 788v179h8q122 0 189.5 88t99.5 288h242v-376h285v-179h-285v-524q0 -114 72 -114q46 0 64 43.5t18 173.5v90h176v-131q0 -199 -83.5 -283t-277.5 -84q-212 0 -311 121q-33 40 -47.5 90.5t-14.5 173.5v444h-135z" />
<glyph unicode="u" horiz-adv-x="1413" d="M25 786v181h532v-625q0 -166 131 -166q70 0 111 53t41 144v317q0 61 -18.5 78.5t-76.5 17.5h-40v181h538v-691q0 -59 19 -77.5t77 -18.5h43v-180h-532v141q-135 -178 -358 -178q-185 0 -261.5 80t-76.5 279v368q0 60 -19 78t-78 18h-32z" />
<glyph unicode="v" horiz-adv-x="1178" d="M10 786v181h631v-181h-29q-45 0 -63.5 -12t-18.5 -32q0 -25 9 -52l141 -434l143 434q6 18 6 41q0 49 -106 56v180h473v-181h-8q-61 0 -95 -24.5t-55 -83.5l-231 -678h-447l-219 690q-18 62 -36.5 79t-57.5 17h-37z" />
<glyph unicode="w" horiz-adv-x="1751" d="M12 786v181h576v-181h-19q-34 0 -48.5 -12.5t-14.5 -32.5q0 -31 6 -51l111 -444l131 445q6 20 6 41q0 43 -82 54v181h573v-181h-18q-32 0 -45.5 -12.5t-13.5 -32.5q0 -31 6 -51l108 -434l125 434q4 14 4 38q0 47 -80 58v181h420v-181q-61 0 -93.5 -24t-51.5 -84 l-209 -678h-402l-118 469l-138 -469h-417l-164 639q-26 97 -45.5 122t-59.5 25h-47z" />
<glyph unicode="x" horiz-adv-x="1305" d="M2 0v180h10q97 0 148 47l258 246l-197 217q-50 56 -90 76t-92 20h-8v181h655v-170h-12q-41 0 -41 -25q0 -11 31 -49l63 -78l86 90q18 18 18 37q0 25 -47 25h-8v170h504v-181l-33 2q-55 0 -94 -14.5t-82 -54.5l-213 -195l229 -248q89 -96 191 -96h33v-180h-721v172h31 q47 0 47 23q0 14 -31 49l-86 96l-107 -102q-18 -20 -18 -43t51 -23h17v-172h-492z" />
<glyph unicode="y" horiz-adv-x="1186" d="M-43 -170q0 86 55.5 140.5t138 54.5t131 -41.5t48.5 -106.5q0 -119 -129 -145q29 -35 82 -35t109.5 51.5t101.5 147.5l-322 735q-2 4 -6 13q-63 142 -133 142h-37v181h631v-181q-60 -1 -74 -9t-14 -26t6 -33l147 -360l129 338q2 6 7.5 20t5.5 19q0 27 -25.5 38t-99.5 14 v180h493v-181q-63 0 -96.5 -20.5t-61.5 -87.5l-309 -760q-144 -358 -450 -358q-150 0 -239 73.5t-89 196.5z" />
<glyph unicode="z" horiz-adv-x="1059" d="M29 0v199l520 587h-135q-95 0 -128.5 -40t-37.5 -168h-185v389h930v-199l-508 -588h136q107 0 147.5 44.5t40.5 164.5v35h184v-424h-964z" />
<glyph unicode="{" horiz-adv-x="1024" d="M178 590v90q148 14 202 78t54 235v176q0 201 89.5 274t332.5 73v-72q-100 -3 -137 -53.5t-37 -208.5v-125q0 -227 -47 -308t-170 -114q123 -35 170 -115t47 -305v-127q0 -158 37 -208.5t137 -54.5v-69q-244 0 -333 72.5t-89 271.5v176q0 172 -54 235.5t-202 78.5z" />
<glyph unicode="|" horiz-adv-x="1024" d="M373 -483v2048h280v-2048h-280z" />
<glyph unicode="}" horiz-adv-x="1024" d="M168 -175q100 4 137 55t37 208v127q0 225 47 305t170 115q-123 33 -170 114t-47 308v125q0 156 -37.5 207.5t-136.5 54.5v72q243 0 332.5 -73.5t89.5 -273.5v-176q0 -171 54 -235t202 -78v-90q-148 -15 -202 -78.5t-54 -235.5v-176q0 -198 -89 -271t-333 -73v69z" />
<glyph unicode="~" horiz-adv-x="1706" d="M178 379v299q227 143 408 143q132 0 313 -64.5t264 -64.5q166 0 367 150v-299q-197 -133 -371 -133q-103 0 -246.5 49.5t-214 63.5t-137.5 14q-161 0 -383 -158z" />
<glyph unicode="&#xa0;" />
<glyph unicode="&#xa1;" horiz-adv-x="711" d="M143 229q0 61 42.5 300.5t58.5 422.5h223q16 -183 58 -422.5t42 -300.5q0 -123 -56 -193.5t-155.5 -70.5t-156 70t-56.5 194zM164 1227q0 80 54 134t134 54t134.5 -54t54.5 -134t-54.5 -134.5t-134.5 -54.5t-134 54.5t-54 134.5z" />
<glyph unicode="&#xa2;" d="M156 518q0 233 148.5 379.5t383.5 146.5q89 0 225 -38l82 157h158l-115 -223q111 -107 111 -217q0 -219 -221 -219q-29 0 -101 22l-155 -309q33 -29 89.5 -29t95.5 49t40 135l248 1q-8 -182 -119 -277.5t-315 -95.5q-81 0 -145 10l-117 -231h-158l139 274 q-274 131 -274 465zM582 569q0 -60 14 -192l152 299q12 119 124 129q-41 51 -106 51q-184 0 -184 -287z" />
<glyph unicode="&#xa3;" d="M61 537v186h158q-33 93 -33 168q0 176 146.5 283.5t385 107.5t380 -91.5t141.5 -238.5q0 -76 -52 -125t-131 -49t-130.5 45t-51.5 121.5t80 120.5q-57 51 -152 51t-154.5 -55.5t-59.5 -149.5q0 -32 39 -188h282v-186l-264 -1q-2 -84 -41.5 -146t-126.5 -118l4 -6 q122 72 202.5 72t173 -35t130.5 -35t64 36t26 82t-2 60h193q4 -36 4 -98q0 -385 -328 -385q-89 0 -148 19.5t-170 58.5t-177 39q-110 0 -267 -117l-106 219q207 114 207 277q0 46 -9 78h-213z" />
<glyph unicode="&#xa4;" horiz-adv-x="1241" d="M51 453l199 202q-64 100 -64 228.5t64 230.5l-199 205l135 133l201 -199q99 68 234 68q138 0 237 -68l201 199l133 -133l-199 -205q64 -101 64 -229q0 -126 -64 -230l199 -202l-133 -136l-201 201q-103 -69 -235.5 -69t-235.5 69l-201 -201zM381 884.5 q0 -99.5 70.5 -170.5t170.5 -71t171 71.5t71 170t-71.5 170t-170.5 71.5t-170 -71t-71 -170.5z" />
<glyph unicode="&#xa5;" horiz-adv-x="1352" d="M-8 1063v174h708v-174h-43q-82 0 -82 -43q0 -20 19 -53l143 -256l160 260q18 30 18 61t-75 31h-47v174h555v-174h-37q-44 0 -79.5 -27t-78.5 -98l-53 -86h203v-135h-289l-84 -135h373v-136h-426v-165q0 -72 19 -89.5t83 -17.5h70v-174h-752v174h70q60 0 80 15.5t20 91.5 v165h-418v136h369l-82 135h-287v135h205l-57 94q-72 117 -168 117h-37z" />
<glyph unicode="&#xa6;" horiz-adv-x="1024" d="M373 -350v758h280v-758h-280zM373 674v758h280v-758h-280z" />
<glyph unicode="&#xa7;" horiz-adv-x="1280" d="M100 494q0 197 228 309q-150 110 -150 266.5t123 251t331.5 94.5t328.5 -73t120 -193q0 -70 -45.5 -114t-118.5 -44t-122.5 42t-49.5 99t52 99q-54 33 -140.5 33t-142 -38.5t-55.5 -97.5q0 -80 200 -157q325 -121 412.5 -209.5t87.5 -202.5q0 -223 -207 -313 q176 -115 176 -289t-141.5 -282.5t-356 -108.5t-335.5 82t-121 215q0 76 46.5 125t120.5 49t122.5 -46t48.5 -109.5t-51 -110.5q64 -41 163.5 -41t160.5 40.5t61 108.5q0 114 -285 220q-304 114 -382.5 194t-78.5 201zM367 588q0 -90 114 -146q213 -102 291 -102 q43 0 82 36.5t39 83t-25.5 76.5t-103 70.5t-157.5 69.5t-122.5 29t-80 -36t-37.5 -81z" />
<glyph unicode="&#xa8;" horiz-adv-x="1024" d="M131 1312q0 66 49 114.5t114.5 48.5t112 -46.5t46.5 -115.5t-45.5 -114.5t-114 -45.5t-115.5 46.5t-47 112.5zM569 1312q0 66 48 114.5t113.5 48.5t113 -47t47.5 -115t-46 -114t-115 -46t-115 46.5t-46 112.5z" />
<glyph unicode="&#xa9;" horiz-adv-x="1683" d="M84 678q0 151 57 289.5t163.5 246.5t246.5 166t290.5 58t290 -58t245 -163t164 -246.5t58.5 -292.5q0 -310 -223 -537q-219 -221 -534 -221q-310 0 -535 221q-223 221 -223 537zM207 678q0 -265 186 -449q188 -184 449 -184q260 0 444 184q90 92 139.5 209t49.5 242 t-49 243.5t-138 205.5t-206 135.5t-243 48.5t-243 -48.5t-206 -138.5q-183 -187 -183 -448zM393 672.5q0 189.5 127.5 314.5t321.5 125q87 0 161 -32.5t85 -32.5q28 0 42 61h54l6 -336h-57q-34 132 -101 201t-162 69q-208 0 -208 -358q0 -181 58.5 -277t168.5 -96 q145 0 262 176l55 -34q-132 -222 -366 -222q-192 0 -319.5 126t-127.5 315.5z" />
<glyph unicode="&#xaa;" horiz-adv-x="975" d="M25 864q0 91 56 136t200 68t178.5 48.5t34.5 77t-39 82.5t-105 31q-44 0 -90 -25q80 -22 80 -92q0 -44 -36.5 -71t-103 -27t-106 31.5t-39.5 88.5q0 88 98 137.5t273 49.5q292 0 352 -123q19 -40 19 -125v-262q0 -28 6 -35.5t23.5 -7.5t24.5 8t7 35v82h103v-88 q0 -112 -54 -160.5t-181 -48.5t-198 96q-79 -96 -264 -96q-114 0 -176.5 49.5t-62.5 140.5zM324 891q0 -30 22 -49t61.5 -19t65 26.5t25.5 72.5v4l-2 86q-26 -13 -69 -33q-103 -47 -103 -88z" />
<glyph unicode="&#xab;" horiz-adv-x="1036" d="M80 483q0 67 213 353h204l-3 -9q-115 -273 -115 -339t135 -351h-221q-137 186 -175 250.5t-38 95.5zM524 483q0 67 213 353l205 -1q-119 -278 -119 -345.5t135 -352.5h-221q-136 186 -174.5 250.5t-38.5 95.5z" />
<glyph unicode="&#xac;" horiz-adv-x="1706" d="M254 602v266h1198v-501h-272v235h-926z" />
<glyph unicode="&#xad;" horiz-adv-x="735" d="M63 317v326h599v-326h-599z" />
<glyph unicode="&#xae;" horiz-adv-x="1683" d="M84 656q0 335 221 558q106 108 245.5 166t293 58t298 -62.5t247 -171t156.5 -245.5t54 -269q0 -255 -145 -457q-108 -149 -268.5 -231t-345.5 -82q-227 0 -402.5 116t-264.5 281.5t-89 338.5zM207 678q0 -265 186 -449q188 -184 447 -184q260 0 446 184q90 92 139.5 209 t49.5 242t-49 243.5t-138 205.5t-206 135.5t-243 48.5t-243 -48.5t-206 -138.5q-183 -187 -183 -448zM461 279v59q50 5 69 24t19 64v528q0 45 -17.5 62.5t-70.5 23.5v62h409q149 0 239.5 -56.5t90.5 -146t-64.5 -139.5t-207.5 -72q112 -17 170.5 -78.5t58.5 -160.5v-48 q0 -59 35 -59q51 0 51 119v12h62v-33q0 -182 -193 -182q-173 0 -187 219q-1 13 -1 19q-7 91 -36.5 131.5t-90.5 40.5h-11v-242q0 -44 15.5 -61.5t58.5 -26.5v-59h-399zM786 981l1 -252q12 -2 32 -2q146 0 146 170q0 64 -32 103.5t-85 39.5q-62 0 -62 -59z" />
<glyph unicode="&#xaf;" horiz-adv-x="1024" d="M186 1206v180h652v-180h-652z" />
<glyph unicode="&#xb0;" horiz-adv-x="674" d="M14 1148.5q0 134.5 95.5 229.5t229 95t227 -94.5t93.5 -228t-94.5 -228.5t-228.5 -95t-228 93.5t-94 228zM186 1150.5q0 -63.5 44 -108.5t107 -45t107.5 46t44.5 108t-45 107t-107.5 45t-106.5 -44.5t-44 -108z" />
<glyph unicode="&#xb1;" horiz-adv-x="1706" d="M254 -41v272h1198v-272h-1198zM254 680v272h459v310h280v-310h459v-272h-459v-309h-280v309h-459z" />
<glyph unicode="&#xb2;" horiz-adv-x="877" d="M57 1016q0 110 102.5 182t263 72t261 -71t100.5 -173t-66 -159q-71 -60 -260 -108.5t-210 -103.5q96 43 158 43t128 -15t87 -15q57 0 57 84v10h137q2 -14 2 -43q0 -125 -56.5 -183.5t-178.5 -58.5q-73 0 -177.5 29t-146 29t-53.5 -37h-144v28q0 84 37.5 147.5t98 107 t135.5 84.5t104 61q60 40 60 98q0 113 -142 113q-83 0 -133 -50h6q101 0 101 -88q0 -53 -36 -83.5t-98 -30.5t-99.5 35.5t-37.5 95.5z" />
<glyph unicode="&#xb3;" horiz-adv-x="877" d="M49 682q0 59 43 97t105 38t97.5 -28.5t35.5 -75.5q0 -83 -108 -93q50 -28 130.5 -28t123 33t42.5 94q0 117 -151 117v104q141 6 141 94q0 54 -40.5 86.5t-95.5 32.5q-93 0 -130 -43q38 0 62 -22t24 -63.5t-32.5 -67t-91.5 -25.5t-95.5 32t-36.5 83q0 102 102 162.5 t266.5 60.5t251 -55t86.5 -152q0 -118 -149 -162q180 -51 180 -194q0 -107 -97.5 -167.5t-279.5 -60.5t-282.5 52t-100.5 151z" />
<glyph unicode="&#xb4;" horiz-adv-x="1024" d="M287 1102l295 313q54 58 90 79.5t80.5 21.5t77 -33t32.5 -76.5t-25.5 -73.5t-82.5 -59l-346 -172h-121z" />
<glyph unicode="&#xb5;" horiz-adv-x="1270" d="M-72 -294q0 57 69.5 278t106.5 395l107 506h336l-117 -543q-14 -62 -14 -110t23.5 -74.5t73 -26.5t84 51.5t62.5 179.5l115 523h334l-111 -514q-8 -38 -8 -77.5t20.5 -63t57.5 -23.5q54 0 104 84q29 44 39 51.5t26 7.5t26 -11.5t10 -31.5t-15 -67.5t-50.5 -112 t-99 -107.5t-142.5 -43q-181 0 -193 195q-81 -190 -276 -190q-99 0 -158.5 48t-69.5 135q-17 -113 -31 -252.5t-18 -164.5q-15 -102 -48 -139t-100.5 -37t-105 38.5t-37.5 95.5z" />
<glyph unicode="&#xb6;" horiz-adv-x="1024" d="M10 1134.5q0 152.5 106.5 248.5t282.5 96h615v-142h-101v-1337h-202v1337h-140v-1337h-202v784q-163 8 -261 103t-98 247.5z" />
<glyph unicode="&#xb7;" horiz-adv-x="664" d="M141 627q0 80 55.5 135t135.5 55t135 -55t55 -135.5t-55 -135.5t-135 -55t-135.5 55.5t-55.5 135.5z" />
<glyph unicode="&#xb8;" horiz-adv-x="1024" d="M190 -387l52 108q140 -81 256 -81q39 0 62.5 21.5t23.5 57.5q0 86 -99 86q-31 0 -63 -8v203h92v-109q32 9 74 9q91 0 142.5 -48.5t51.5 -137.5t-64.5 -143t-174.5 -54q-124 0 -353 96z" />
<glyph unicode="&#xb9;" horiz-adv-x="877" d="M178 500v108h35q64 0 84 10t20 60v364h-139l1 111q160 10 194 94h215v-590q0 -30 16.5 -39.5t77.5 -9.5h33v-108h-537z" />
<glyph unicode="&#xba;" horiz-adv-x="948" d="M35 1037q0 170 116 267t321 97t323 -98t118 -266.5t-117.5 -265.5t-322.5 -97t-321.5 96.5t-116.5 266.5zM360 1036.5q0 -130.5 26 -180t88.5 -49.5t88 49.5t25.5 179.5t-26.5 181t-89 51t-87.5 -50.5t-25 -181z" />
<glyph unicode="&#xbb;" horiz-adv-x="1036" d="M80 137q133 280 133 334t-21.5 122t-95.5 243h205q213 -286 213 -349t-215 -350h-219zM524 137q135 281 135 349t-115 342q-2 5 -3 7l204 1q213 -283 213 -353q0 -60 -214 -345z" />
<glyph unicode="&#xbc;" horiz-adv-x="2015" d="M170 549v100h35q60 0 79 9.5t19 56.5v342h-133v100q154 12 186 90h205v-551q0 -28 17.5 -37.5t72.5 -9.5h31v-100h-512zM494 -35l831 1317h195l-832 -1317h-194zM1219 199v123l389 376h241v-401h123v-98h-123v-52q0 -28 18 -37.5t75 -9.5h30v-100h-499v100h34q59 0 79 10 t20 58v31h-387zM1358 297h248l2 244z" />
<glyph unicode="&#xbd;" horiz-adv-x="2015" d="M170 549v100h35q60 0 79 9.5t19 56.5v342h-133v100q154 12 186 90h205v-551q0 -28 17.5 -37.5t72.5 -9.5h31v-100h-512zM494 -35l831 1317h195l-832 -1317h-194zM1233 481q0 103 98 170.5t251 67.5t249 -66.5t96 -161.5t-63 -147q-70 -59 -250 -104t-199 -95 q88 39 148.5 39t123.5 -13t82 -13q56 0 56 78v10l131 -1q2 -14 2 -40q0 -117 -53.5 -171t-169.5 -54q-71 0 -171.5 26.5t-138 26.5t-53.5 -35h-135l-2 27q0 79 35 138q53 87 226 179q72 39 101 57q54 37 54 91q0 104 -135 104q-82 0 -127 -45h6q45 0 70.5 -21.5t25.5 -66 t-34 -74t-93.5 -29.5t-95 33.5t-35.5 89.5z" />
<glyph unicode="&#xbe;" horiz-adv-x="2013" d="M47 719q0 55 41.5 91t100.5 36t92.5 -27t33.5 -71q0 -77 -104 -87q52 -26 127 -26q158 0 158 119q0 108 -146 108v96q133 8 133 91q0 50 -38 80t-90 30q-87 0 -124 -41q36 0 58 -20t22 -54q0 -92 -116 -92q-57 0 -92 29.5t-35 77.5q0 95 97.5 152t255 57t240 -51.5 t82.5 -141.5q0 -113 -143 -151q172 -49 172 -183q0 -99 -93 -156t-255 -57q-377 0 -377 191zM494 -35l831 1317h195l-832 -1317h-194zM1219 199v123l389 376h241v-401h123v-98h-123v-52q0 -28 18 -37.5t75 -9.5h30v-100h-499v100h34q59 0 79 10t20 58v31h-387zM1358 297h248 l2 244z" />
<glyph unicode="&#xbf;" horiz-adv-x="1223" d="M115 338q0 164 108 266q57 55 121 102q70 50 83 60q110 83 110 182h237l4 -51q0 -91 -51 -168q-178 -274 -178 -364.5t53 -141.5t133.5 -51t129.5 39t63 108q-44 -12 -97 -12t-92 40.5t-39 120.5t55 132.5t152 52.5t156 -69t59 -189q0 -193 -142 -311.5t-369 -118.5 t-361.5 103.5t-134.5 269.5zM473 1227q0 80 54.5 134t134 54t134 -54t54.5 -134t-54.5 -134.5t-134 -54.5t-134 54.5t-54.5 134.5z" />
<glyph unicode="&#xc0;" horiz-adv-x="1446" d="M-63 0v195h51q52 0 87.5 33t61.5 108l361 1038h497l322 -1034q33 -102 60 -123.5t87 -21.5h72v-195h-834v195h62q78 0 95.5 8.5t17.5 28.5q0 32 -9 63l-49 147h-370l-43 -131q-19 -52 -19 -78q0 -38 96 -38h68v-195h-614zM408 1818q0 44 32.5 77t76.5 33t81.5 -22.5 t89.5 -78.5l295 -313h-121l-346 172q-59 29 -83.5 58.5t-24.5 73.5zM512 639h242l-125 416z" />
<glyph unicode="&#xc1;" horiz-adv-x="1446" d="M-63 0v195h51q52 0 87.5 33t61.5 108l361 1038h497l322 -1034q33 -102 60 -123.5t87 -21.5h72v-195h-834v195h62q78 0 95.5 8.5t17.5 28.5q0 32 -9 63l-49 147h-370l-43 -131q-19 -52 -19 -78q0 -38 96 -38h68v-195h-614zM512 639h242l-125 416zM533 1514l295 313 q54 58 90 79.5t80.5 21.5t77 -33t32.5 -76.5t-25.5 -73.5t-82.5 -59l-346 -172h-121z" />
<glyph unicode="&#xc2;" horiz-adv-x="1446" d="M-63 0v195h51q52 0 87.5 33t61.5 108l361 1038h497l322 -1034q33 -102 60 -123.5t87 -21.5h72v-195h-834v195h62q78 0 95.5 8.5t17.5 28.5q0 32 -9 63l-49 147h-370l-43 -131q-19 -52 -19 -78q0 -38 96 -38h68v-195h-614zM418 1512l242 393h196l242 -393h-107l-233 182 l-233 -182h-107zM512 639h242l-125 416z" />
<glyph unicode="&#xc3;" horiz-adv-x="1446" d="M-63 0v195h51q52 0 87.5 33t61.5 108l361 1038h497l322 -1034q33 -102 60 -123.5t87 -21.5h72v-195h-834v195h62q78 0 95.5 8.5t17.5 28.5q0 32 -9 63l-49 147h-370l-43 -131q-19 -52 -19 -78q0 -38 96 -38h68v-195h-614zM410 1545q52 282 246 282q36 0 84 -12l127 -33 q35 -8 61 -8q58 0 88 98h88q-55 -282 -242 -282q-28 0 -74 10l-122 35q-36 8 -62 8q-84 0 -106 -98h-88zM512 639h242l-125 416z" />
<glyph unicode="&#xc4;" horiz-adv-x="1446" d="M-63 0v195h51q52 0 87.5 33t61.5 108l361 1038h497l322 -1034q33 -102 60 -123.5t87 -21.5h72v-195h-834v195h62q78 0 95.5 8.5t17.5 28.5q0 32 -9 63l-49 147h-370l-43 -131q-19 -52 -19 -78q0 -38 96 -38h68v-195h-614zM377 1724q0 66 49 114.5t114.5 48.5t112 -46.5 t46.5 -115.5t-45.5 -114.5t-114 -45.5t-115.5 46.5t-47 112.5zM512 639h242l-125 416zM815 1724q0 66 48 114.5t113.5 48.5t113 -47t47.5 -115t-46 -114t-115 -46t-115 46.5t-46 112.5z" />
<glyph unicode="&#xc5;" horiz-adv-x="1446" d="M-63 0v195h51q53 0 88 32.5t61 108.5l361 1014h497l322 -1010q0 -1 1 -4q45 -141 146 -141h72v-195h-834v195h62q78 0 95.5 8.5t17.5 28.5q0 32 -9 63l-49 147h-370l-43 -131q-19 -52 -19 -78q0 -38 96 -38h68v-195h-614zM467 1693.5q0 116.5 82 197.5t198.5 81 t196.5 -80.5t80 -197.5t-80 -198t-196.5 -81t-198.5 81t-82 197.5zM512 639h242l-125 416zM631 1693q0 -48 33.5 -81t82 -33t83 33.5t34.5 81t-35 82t-82 34.5t-81.5 -34.5t-34.5 -82.5z" />
<glyph unicode="&#xc6;" horiz-adv-x="2277" d="M-84 0v195h51q117 0 189 133l407 745q17 32 17 58.5t-17.5 37.5t-95.5 11h-74v194h1757v-512h-213q-39 185 -100 246q-38 39 -93 55.5t-179 16.5h-222v-377h62q91 0 127.5 44.5t36.5 160.5v12h170v-627h-170q-4 145 -37 187.5t-125 42.5h-64v-428h250q137 0 188.5 16.5 t82.5 60.5q57 84 72 295h221v-567h-1428v195h76q67 0 87.5 15.5t20.5 92.5v139h-403l-70 -133q-22 -46 -22 -76q0 -38 94 -38h66v-195h-662zM608 639h305v541h-41z" />
<glyph unicode="&#xc7;" horiz-adv-x="1518" d="M66 676.5q0 340.5 198.5 539.5t530.5 199q221 0 391 -96l35 76h223v-566h-246q-36 198 -110 287.5t-209 89.5t-201 -122.5t-66 -398t68 -398.5t214 -123t235 99.5t100 268.5h221q-8 -276 -174.5 -424.5t-470.5 -148.5q-356 0 -547.5 188.5t-191.5 529zM446 -387l52 108 q140 -81 256 -81q39 0 62.5 21.5t23.5 57.5q0 86 -99 86q-31 0 -63 -8v203h92v-109q32 9 74 9q91 0 142.5 -48.5t51.5 -137.5t-64.5 -143t-174.5 -54q-124 0 -353 96z" />
<glyph unicode="&#xc8;" horiz-adv-x="1595" d="M33 0v195h69q68 0 89.5 16t21.5 92v760q0 80 -20 98.5t-93 18.5h-67v194h1442v-512h-218q-38 182 -102 246q-39 39 -95 55.5t-181 16.5h-217v-377h53q93 0 130.5 45t37.5 160v12h172v-627h-172q-4 144 -37.5 187t-128.5 43h-55v-428h243q141 0 194.5 17t84.5 62 q62 92 73 293h226v-567h-1450zM449 1818q0 44 32.5 77t76.5 33t81.5 -22.5t89.5 -78.5l295 -313h-121l-346 172q-59 29 -83.5 58.5t-24.5 73.5z" />
<glyph unicode="&#xc9;" horiz-adv-x="1595" d="M33 0v195h69q68 0 89.5 16t21.5 92v760q0 80 -20 98.5t-93 18.5h-67v194h1442v-512h-218q-38 182 -102 246q-39 39 -95 55.5t-181 16.5h-217v-377h53q93 0 130.5 45t37.5 160v12h172v-627h-172q-4 144 -37.5 187t-128.5 43h-55v-428h243q141 0 194.5 17t84.5 62 q62 92 73 293h226v-567h-1450zM574 1514l295 313q54 58 90 79.5t80.5 21.5t77 -33t32.5 -76.5t-25.5 -73.5t-82.5 -59l-346 -172h-121z" />
<glyph unicode="&#xca;" horiz-adv-x="1595" d="M33 0v195h69q68 0 89.5 16t21.5 92v760q0 80 -20 98.5t-93 18.5h-67v194h1442v-512h-218q-38 182 -102 246q-39 39 -95 55.5t-181 16.5h-217v-377h53q93 0 130.5 45t37.5 160v12h172v-627h-172q-4 144 -37.5 187t-128.5 43h-55v-428h243q141 0 194.5 17t84.5 62 q62 92 73 293h226v-567h-1450zM459 1512l242 393h196l242 -393h-107l-233 182l-233 -182h-107z" />
<glyph unicode="&#xcb;" horiz-adv-x="1595" d="M33 0v195h69q68 0 89.5 16t21.5 92v760q0 80 -20 98.5t-93 18.5h-67v194h1442v-512h-218q-38 182 -102 246q-39 39 -95 55.5t-181 16.5h-217v-377h53q93 0 130.5 45t37.5 160v12h172v-627h-172q-4 144 -37.5 187t-128.5 43h-55v-428h243q141 0 194.5 17t84.5 62 q62 92 73 293h226v-567h-1450zM418 1724q0 66 49 114.5t114.5 48.5t112 -46.5t46.5 -115.5t-45.5 -114.5t-114 -45.5t-115.5 46.5t-47 112.5zM856 1724q0 66 48 114.5t113.5 48.5t113 -47t47.5 -115t-46 -114t-115 -46t-115 46.5t-46 112.5z" />
<glyph unicode="&#xcc;" horiz-adv-x="899" d="M41 0v195h68q72 0 93 19.5t21 98.5v750q0 78 -20.5 97.5t-93.5 19.5h-68v194h817v-194h-67q-74 0 -94.5 -19.5t-20.5 -97.5v-750q0 -79 21 -98.5t94 -19.5h67v-195h-817zM101 1818q0 44 32.5 77t76.5 33t81.5 -22.5t89.5 -78.5l295 -313h-121l-346 172q-59 29 -83.5 58.5 t-24.5 73.5z" />
<glyph unicode="&#xcd;" horiz-adv-x="899" d="M41 0v195h68q72 0 93 19.5t21 98.5v750q0 78 -20.5 97.5t-93.5 19.5h-68v194h817v-194h-67q-74 0 -94.5 -19.5t-20.5 -97.5v-750q0 -79 21 -98.5t94 -19.5h67v-195h-817zM226 1514l295 313q54 58 90 79.5t80.5 21.5t77 -33t32.5 -76.5t-25.5 -73.5t-82.5 -59l-346 -172 h-121z" />
<glyph unicode="&#xce;" horiz-adv-x="899" d="M41 0v195h68q72 0 93 19.5t21 98.5v750q0 78 -20.5 97.5t-93.5 19.5h-68v194h817v-194h-67q-74 0 -94.5 -19.5t-20.5 -97.5v-750q0 -79 21 -98.5t94 -19.5h67v-195h-817zM111 1512l242 393h196l242 -393h-107l-233 182l-233 -182h-107z" />
<glyph unicode="&#xcf;" horiz-adv-x="899" d="M41 0v195h68q72 0 93 19.5t21 98.5v750q0 78 -20.5 97.5t-93.5 19.5h-68v194h817v-194h-67q-74 0 -94.5 -19.5t-20.5 -97.5v-750q0 -79 21 -98.5t94 -19.5h67v-195h-817zM70 1724q0 66 49 114.5t114.5 48.5t112 -46.5t46.5 -115.5t-45.5 -114.5t-114 -45.5t-115.5 46.5 t-47 112.5zM508 1724q0 66 48 114.5t113.5 48.5t113 -47t47.5 -115t-46 -114t-115 -46t-115 46.5t-46 112.5z" />
<glyph unicode="&#xd0;" horiz-adv-x="1667" d="M14 631v176h209v256q0 78 -20.5 97.5t-93.5 19.5h-66v194h748q411 0 609.5 -169t198.5 -517.5t-199 -518t-609 -169.5h-748v195h68q68 0 90 16.5t22 101.5v318h-209zM672 201h125q149 0 214.5 113t65.5 374.5t-65.5 374.5t-214.5 113h-125v-369h215v-176h-215v-430z" />
<glyph unicode="&#xd1;" horiz-adv-x="1667" d="M33 0v195h67q73 0 94 19.5t21 98.5v750q0 78 -20.5 97.5t-94.5 19.5h-67v194h680l506 -925v614q0 83 -21.5 100t-91.5 17h-78v194h604v-194h-49q-72 0 -92.5 -18.5t-20.5 -98.5v-1063h-471l-534 985v-672q0 -80 20.5 -99t92.5 -19h61v-195h-606zM506 1545q52 282 246 282 q36 0 84 -12l127 -33q35 -8 61 -8q58 0 88 98h88q-55 -282 -242 -282q-28 0 -74 10l-122 35q-36 8 -62 8q-84 0 -106 -98h-88z" />
<glyph unicode="&#xd2;" horiz-adv-x="1726" d="M66 687q0 340 212 534t585 194t584.5 -194t211.5 -535t-212 -534t-585 -193t-584.5 194t-211.5 534zM514 1818q0 44 32.5 77t76.5 33t81.5 -22.5t89.5 -78.5l295 -313h-121l-346 172q-59 29 -83.5 58.5t-24.5 73.5zM598 687.5q0 -273.5 63 -396.5t202 -123t202 122 t63 395t-63 397t-201.5 124t-202 -122.5t-63.5 -396z" />
<glyph unicode="&#xd3;" horiz-adv-x="1726" d="M66 687q0 340 212 534t585 194t584.5 -194t211.5 -535t-212 -534t-585 -193t-584.5 194t-211.5 534zM598 687.5q0 -273.5 63 -396.5t202 -123t202 122t63 395t-63 397t-201.5 124t-202 -122.5t-63.5 -396zM639 1514l295 313q54 58 90 79.5t80.5 21.5t77 -33t32.5 -76.5 t-25.5 -73.5t-82.5 -59l-346 -172h-121z" />
<glyph unicode="&#xd4;" horiz-adv-x="1726" d="M66 687q0 340 212 534t585 194t584.5 -194t211.5 -535t-212 -534t-585 -193t-584.5 194t-211.5 534zM524 1512l242 393h196l242 -393h-107l-233 182l-233 -182h-107zM598 687.5q0 -273.5 63 -396.5t202 -123t202 122t63 395t-63 397t-201.5 124t-202 -122.5t-63.5 -396z " />
<glyph unicode="&#xd5;" horiz-adv-x="1726" d="M66 687q0 340 212 534t585 194t584.5 -194t211.5 -535t-212 -534t-585 -193t-584.5 194t-211.5 534zM516 1545q52 282 246 282q36 0 84 -12l127 -33q35 -8 61 -8q58 0 88 98h88q-55 -282 -242 -282q-28 0 -74 10l-122 35q-36 8 -62 8q-84 0 -106 -98h-88zM598 687.5 q0 -273.5 63 -396.5t202 -123t202 122t63 395t-63 397t-201.5 124t-202 -122.5t-63.5 -396z" />
<glyph unicode="&#xd6;" horiz-adv-x="1726" d="M66 687q0 340 212 534t585 194t584.5 -194t211.5 -535t-212 -534t-585 -193t-584.5 194t-211.5 534zM483 1724q0 66 49 114.5t114.5 48.5t112 -46.5t46.5 -115.5t-45.5 -114.5t-114 -45.5t-115.5 46.5t-47 112.5zM598 687.5q0 -273.5 63 -396.5t202 -123t202 122t63 395 t-63 397t-201.5 124t-202 -122.5t-63.5 -396zM921 1724q0 66 48 114.5t113.5 48.5t113 -47t47.5 -115t-46 -114t-115 -46t-115 46.5t-46 112.5z" />
<glyph unicode="&#xd7;" horiz-adv-x="1706" d="M256 182l428 428l-428 428l190 193l428 -428l429 428l192 -193l-428 -428l428 -428l-192 -190l-429 428l-428 -428z" />
<glyph unicode="&#xd8;" horiz-adv-x="1726" d="M66 686q0 341 212 535t586 194q278 0 473 -112l156 155l127 -135l-139 -139q178 -200 178 -482q0 -353 -209 -548t-590 -195q-300 0 -481 123l-174 -178l-125 137l156 158q-170 203 -170 487zM596 723q0 -73 6 -155l483 481q-42 83 -94.5 120t-126.5 37q-136 0 -202 -119 t-66 -364zM637 340q65 -172 225 -172q136 0 201 118t65 363q0 84 -6 176z" />
<glyph unicode="&#xd9;" horiz-adv-x="1602" d="M12 1180v194h828v-194h-76q-74 0 -94.5 -19.5t-20.5 -97.5v-606q0 -159 49.5 -223t178.5 -64t190 63t61 207v623q0 81 -20 99t-92 18h-70v194h637v-194h-63q-72 0 -92.5 -18.5t-20.5 -92.5v-663q0 -220 -159 -334.5t-452 -114.5t-446 113t-153 319v674q0 78 -21 97.5 t-94 19.5h-70zM535 1818q0 44 32.5 77t76.5 33t81.5 -22.5t89.5 -78.5l295 -313h-121l-346 172q-59 29 -83.5 58.5t-24.5 73.5z" />
<glyph unicode="&#xda;" horiz-adv-x="1602" d="M12 1180v194h828v-194h-76q-74 0 -94.5 -19.5t-20.5 -97.5v-606q0 -159 49.5 -223t178.5 -64t190 63t61 207v623q0 81 -20 99t-92 18h-70v194h637v-194h-63q-72 0 -92.5 -18.5t-20.5 -92.5v-663q0 -220 -159 -334.5t-452 -114.5t-446 113t-153 319v674q0 78 -21 97.5 t-94 19.5h-70zM660 1514l295 313q54 58 90 79.5t80.5 21.5t77 -33t32.5 -76.5t-25.5 -73.5t-82.5 -59l-346 -172h-121z" />
<glyph unicode="&#xdb;" horiz-adv-x="1602" d="M12 1180v194h828v-194h-76q-74 0 -94.5 -19.5t-20.5 -97.5v-606q0 -159 49.5 -223t178.5 -64t190 63t61 207v623q0 81 -20 99t-92 18h-70v194h637v-194h-63q-72 0 -92.5 -18.5t-20.5 -92.5v-663q0 -220 -159 -334.5t-452 -114.5t-446 113t-153 319v674q0 78 -21 97.5 t-94 19.5h-70zM545 1512l242 393h196l242 -393h-107l-233 182l-233 -182h-107z" />
<glyph unicode="&#xdc;" horiz-adv-x="1602" d="M12 1180v194h828v-194h-76q-74 0 -94.5 -19.5t-20.5 -97.5v-606q0 -159 49.5 -223t178.5 -64t190 63t61 207v623q0 81 -20 99t-92 18h-70v194h637v-194h-63q-72 0 -92.5 -18.5t-20.5 -92.5v-663q0 -220 -159 -334.5t-452 -114.5t-446 113t-153 319v674q0 78 -21 97.5 t-94 19.5h-70zM504 1724q0 66 49 114.5t114.5 48.5t112 -46.5t46.5 -115.5t-45.5 -114.5t-114 -45.5t-115.5 46.5t-47 112.5zM942 1724q0 66 48 114.5t113.5 48.5t113 -47t47.5 -115t-46 -114t-115 -46t-115 46.5t-46 112.5z" />
<glyph unicode="&#xdd;" horiz-adv-x="1413" d="M-49 1180v194h801v-194h-47q-93 0 -93 -50q0 -20 21 -55l162 -264l162 267q20 31 20 67q0 35 -84 35h-51v194h616v-194h-43q-47 0 -84.5 -28t-89.5 -110l-307 -491v-238q0 -79 21 -98.5t94 -19.5h75v-195h-835v195h78q68 0 90 16.5t22 101.5v238l-301 500 q-78 129 -188 129h-39zM482 1514l295 313q54 58 90 79.5t80.5 21.5t77 -33t32.5 -76.5t-25.5 -73.5t-82.5 -59l-346 -172h-121z" />
<glyph unicode="&#xde;" horiz-adv-x="1538" d="M33 0v195h69q72 0 92.5 19t20.5 101v748q0 80 -20 98.5t-93 18.5h-69v194h819v-194h-68q-69 0 -90.5 -17.5t-21.5 -66.5v-17h262q291 0 425 -94.5t134 -298.5q0 -174 -135 -280q-64 -50 -159.5 -71.5t-264.5 -21.5h-264v-26q0 -55 21.5 -73.5t90.5 -18.5h78v-195h-827z M672 481h90q143 0 201.5 46.5t58.5 153.5t-56.5 151.5t-195.5 44.5h-98v-396z" />
<glyph unicode="&#xdf;" horiz-adv-x="1360" d="M39 0v180h35q58 0 77 18t19 78v648q0 158 25 231t91 133q138 127 411 127q532 0 532 -295q0 -214 -264 -272q348 -74 348 -412q0 -207 -106.5 -335t-278.5 -128q-131 0 -200 66.5t-69 191.5v127h146v-120q0 -46 9.5 -63t38 -17t40.5 31t12 153v27q0 242 -46 308t-173 66 h-12v183h4q76 0 117 44t41 120t-34 114.5t-100.5 38.5t-97.5 -51t-31 -182v-1010h-534z" />
<glyph unicode="&#xe0;" horiz-adv-x="1300" d="M33 236.5q0 129.5 74 193.5t266.5 97t238 69t45.5 110.5t-51 118t-139 43.5q-57 0 -121 -34q107 -32 107 -132q0 -63 -49 -102t-137.5 -39t-140.5 45t-52 127q0 126 130 197t363 71q270 0 381 -75q63 -42 88 -99.5t25 -181.5v-373q0 -38 8.5 -49.5t32.5 -11.5t33.5 12 t9.5 49v117h135v-127q0 -159 -72 -228t-243.5 -69t-259.5 137q-110 -137 -353 -137q-153 0 -236 71t-83 200.5zM258 1406q0 44 32.5 77t76.5 33t81.5 -22.5t89.5 -78.5l295 -313h-121l-346 172q-59 29 -83.5 58.5t-24.5 73.5zM430 274q0 -42 30 -69t82.5 -27t87 37.5 t34.5 101.5v7l-2 125q-36 -20 -96 -49q-136 -66 -136 -126z" />
<glyph unicode="&#xe1;" horiz-adv-x="1300" d="M33 236.5q0 129.5 74 193.5t266.5 97t238 69t45.5 110.5t-51 118t-139 43.5q-57 0 -121 -34q107 -32 107 -132q0 -63 -49 -102t-137.5 -39t-140.5 45t-52 127q0 126 130 197t363 71q270 0 381 -75q63 -42 88 -99.5t25 -181.5v-373q0 -38 8.5 -49.5t32.5 -11.5t33.5 12 t9.5 49v117h135v-127q0 -159 -72 -228t-243.5 -69t-259.5 137q-110 -137 -353 -137q-153 0 -236 71t-83 200.5zM383 1102l295 313q54 58 90 79.5t80.5 21.5t77 -33t32.5 -76.5t-25.5 -73.5t-82.5 -59l-346 -172h-121zM430 274q0 -42 30 -69t82.5 -27t87 37.5t34.5 101.5v7 l-2 125q-36 -20 -96 -49q-136 -66 -136 -126z" />
<glyph unicode="&#xe2;" horiz-adv-x="1300" d="M33 236.5q0 129.5 74 193.5t266.5 97t238 69t45.5 110.5t-51 118t-139 43.5q-57 0 -121 -34q107 -32 107 -132q0 -63 -49 -102t-137.5 -39t-140.5 45t-52 127q0 126 130 197t363 71q270 0 381 -75q63 -42 88 -99.5t25 -181.5v-373q0 -38 8.5 -49.5t32.5 -11.5t33.5 12 t9.5 49v117h135v-127q0 -159 -72 -228t-243.5 -69t-259.5 137q-110 -137 -353 -137q-153 0 -236 71t-83 200.5zM268 1100l242 393h196l242 -393h-107l-233 182l-233 -182h-107zM430 274q0 -42 30 -69t82.5 -27t87 37.5t34.5 101.5v7l-2 125q-36 -20 -96 -49 q-136 -66 -136 -126z" />
<glyph unicode="&#xe3;" horiz-adv-x="1300" d="M33 236.5q0 129.5 74 193.5t266.5 97t238 69t45.5 110.5t-51 118t-139 43.5q-57 0 -121 -34q107 -32 107 -132q0 -63 -49 -102t-137.5 -39t-140.5 45t-52 127q0 126 130 197t363 71q270 0 381 -75q63 -42 88 -99.5t25 -181.5v-373q0 -38 8.5 -49.5t32.5 -11.5t33.5 12 t9.5 49v117h135v-127q0 -159 -72 -228t-243.5 -69t-259.5 137q-110 -137 -353 -137q-153 0 -236 71t-83 200.5zM260 1133q52 282 246 282q36 0 84 -12l127 -33q35 -8 61 -8q58 0 88 98h88q-55 -282 -242 -282q-28 0 -74 10l-122 35q-36 8 -62 8q-84 0 -106 -98h-88zM430 274 q0 -42 30 -69t82.5 -27t87 37.5t34.5 101.5v7l-2 125q-36 -20 -96 -49q-136 -66 -136 -126z" />
<glyph unicode="&#xe4;" horiz-adv-x="1300" d="M33 236.5q0 129.5 74 193.5t266.5 97t238 69t45.5 110.5t-51 118t-139 43.5q-57 0 -121 -34q107 -32 107 -132q0 -63 -49 -102t-137.5 -39t-140.5 45t-52 127q0 126 130 197t363 71q270 0 381 -75q63 -42 88 -99.5t25 -181.5v-373q0 -38 8.5 -49.5t32.5 -11.5t33.5 12 t9.5 49v117h135v-127q0 -159 -72 -228t-243.5 -69t-259.5 137q-110 -137 -353 -137q-153 0 -236 71t-83 200.5zM227 1312q0 66 49 114.5t114.5 48.5t112 -46.5t46.5 -115.5t-45.5 -114.5t-114 -45.5t-115.5 46.5t-47 112.5zM430 274q0 -42 30 -69t82.5 -27t87 37.5 t34.5 101.5v7l-2 125q-36 -20 -96 -49q-136 -66 -136 -126zM665 1312q0 66 48 114.5t113.5 48.5t113 -47t47.5 -115t-46 -114t-115 -46t-115 46.5t-46 112.5z" />
<glyph unicode="&#xe5;" horiz-adv-x="1300" d="M33 236.5q0 129.5 74 193.5t266.5 97t238 69t45.5 110.5t-51 118t-139 43.5q-57 0 -121 -34q107 -32 107 -132q0 -63 -49 -102t-137.5 -39t-140.5 45t-52 127q0 126 130 197t363 71q270 0 381 -75q63 -42 88 -99.5t25 -181.5v-373q0 -38 8.5 -49.5t32.5 -11.5t33.5 12 t9.5 49v117h135v-127q0 -159 -72 -228t-243.5 -69t-259.5 137q-110 -137 -353 -137q-153 0 -236 71t-83 200.5zM324 1349.5q0 116.5 80.5 197.5t197.5 81t198 -81t81 -197.5t-81 -197.5t-198 -81t-197.5 81t-80.5 197.5zM430 274q0 -42 30 -69t82.5 -27t87 37.5t34.5 101.5 v7l-2 125q-36 -20 -96 -49q-136 -66 -136 -126zM485 1349q0 -48 34 -81t82.5 -33t83 33.5t34.5 81t-35 82t-82.5 34.5t-82 -34.5t-34.5 -82.5z" />
<glyph unicode="&#xe6;" horiz-adv-x="1743" d="M33 235.5q0 131.5 74.5 195.5t265 96.5t237.5 68.5t47 110.5t-48.5 117t-135.5 42.5q-73 0 -127 -32q107 -32 107 -132q0 -63 -49 -102t-137.5 -39t-140.5 45t-52 127q0 121 127 196t323.5 75t360.5 -91q138 91 299 91q231 0 356 -140.5t125 -400.5v-37h-623v-20 q0 -123 49.5 -187.5t133.5 -64.5q167 0 200 182h244q-69 -373 -477 -373q-252 0 -408 178q-134 -176 -405 -176q-169 0 -257.5 69.5t-88.5 201zM430 274q0 -42 30 -69t82.5 -27t87 37.5t34.5 101.5v7l-2 125q-36 -20 -96 -49q-136 -66 -136 -126zM1042 606h287v15 q0 96 -37.5 148t-106.5 52t-106 -55.5t-37 -159.5z" />
<glyph unicode="&#xe7;" horiz-adv-x="1087" d="M45 484.5q0 239.5 149 379.5t406 140q199 0 317.5 -91t118.5 -239q0 -99 -57 -153t-152 -54t-144.5 43t-49.5 111t34.5 106t94.5 41q-30 49 -100 49q-98 0 -138.5 -73t-40.5 -256t37.5 -258.5t113.5 -75.5q149 0 153 182h247q-6 -182 -121 -278.5t-344.5 -96.5 t-376.5 142t-147 381.5zM223 -387l52 108q140 -81 256 -81q39 0 62.5 21.5t23.5 57.5q0 86 -99 86q-31 0 -63 -8v203h92v-109q32 9 74 9q91 0 142.5 -48.5t51.5 -137.5t-64.5 -143t-174.5 -54q-124 0 -353 96z" />
<glyph unicode="&#xe8;" horiz-adv-x="1163" d="M45 482q0 239 148.5 380.5t397 141.5t381 -140.5t132.5 -402.5v-35h-643v-20q0 -122 51 -187t138 -65q171 0 206 182h252q-69 -373 -512 -373q-255 0 -403 140t-148 379zM232 1406q0 44 32.5 77t76.5 33t81.5 -22.5t89.5 -78.5l295 -313h-121l-346 172q-59 29 -83.5 58.5 t-24.5 73.5zM461 606h297v15q0 96 -39 148t-110 52t-109.5 -56t-38.5 -159z" />
<glyph unicode="&#xe9;" horiz-adv-x="1163" d="M45 482q0 239 148.5 380.5t397 141.5t381 -140.5t132.5 -402.5v-35h-643v-20q0 -122 51 -187t138 -65q171 0 206 182h252q-69 -373 -512 -373q-255 0 -403 140t-148 379zM357 1102l295 313q54 58 90 79.5t80.5 21.5t77 -33t32.5 -76.5t-25.5 -73.5t-82.5 -59l-346 -172 h-121zM461 606h297v15q0 96 -39 148t-110 52t-109.5 -56t-38.5 -159z" />
<glyph unicode="&#xea;" horiz-adv-x="1163" d="M45 482q0 239 148.5 380.5t397 141.5t381 -140.5t132.5 -402.5v-35h-643v-20q0 -122 51 -187t138 -65q171 0 206 182h252q-69 -373 -512 -373q-255 0 -403 140t-148 379zM242 1100l242 393h196l242 -393h-107l-233 182l-233 -182h-107zM461 606h297v15q0 96 -39 148 t-110 52t-109.5 -56t-38.5 -159z" />
<glyph unicode="&#xeb;" horiz-adv-x="1163" d="M45 482q0 239 148.5 380.5t397 141.5t381 -140.5t132.5 -402.5v-35h-643v-20q0 -122 51 -187t138 -65q171 0 206 182h252q-69 -373 -512 -373q-255 0 -403 140t-148 379zM201 1312q0 66 49 114.5t114.5 48.5t112 -46.5t46.5 -115.5t-45.5 -114.5t-114 -45.5t-115.5 46.5 t-47 112.5zM461 606h297v15q0 96 -39 148t-110 52t-109.5 -56t-38.5 -159zM639 1312q0 66 48 114.5t113.5 48.5t113 -47t47.5 -115t-46 -114t-115 -46t-115 46.5t-46 112.5z" />
<glyph unicode="&#xec;" horiz-adv-x="750" d="M19 1406q0 44 32.5 77t76.5 33t81.5 -22.5t89.5 -78.5l295 -313h-121l-346 172q-59 29 -83.5 58.5t-24.5 73.5zM45 0v180h41q59 0 77.5 18.5t18.5 77.5v414q0 60 -18.5 78t-77.5 18h-41v181h541v-691q0 -59 18.5 -77.5t77.5 -18.5h35v-180h-672z" />
<glyph unicode="&#xed;" horiz-adv-x="750" d="M45 0v180h41q59 0 77.5 18.5t18.5 77.5v414q0 60 -18.5 78t-77.5 18h-41v181h541v-691q0 -59 18.5 -77.5t77.5 -18.5h35v-180h-672zM144 1102l295 313q54 58 90 79.5t80.5 21.5t77 -33t32.5 -76.5t-25.5 -73.5t-82.5 -59l-346 -172h-121z" />
<glyph unicode="&#xee;" horiz-adv-x="750" d="M29 1100l242 393h196l242 -393h-107l-233 182l-233 -182h-107zM45 0v180h41q59 0 77.5 18.5t18.5 77.5v414q0 60 -18.5 78t-77.5 18h-41v181h541v-691q0 -59 18.5 -77.5t77.5 -18.5h35v-180h-672z" />
<glyph unicode="&#xef;" horiz-adv-x="750" d="M-12 1312q0 66 49 114.5t114.5 48.5t112 -46.5t46.5 -115.5t-45.5 -114.5t-114 -45.5t-115.5 46.5t-47 112.5zM45 0v180h41q59 0 77.5 18.5t18.5 77.5v414q0 60 -18.5 78t-77.5 18h-41v181h541v-691q0 -59 18.5 -77.5t77.5 -18.5h35v-180h-672zM426 1312q0 66 48 114.5 t113.5 48.5t113 -47t47.5 -115t-46 -114t-115 -46t-115 46.5t-46 112.5z" />
<glyph unicode="&#xf0;" horiz-adv-x="1264" d="M45 452.5q0 227.5 151 358.5t410 131q43 0 129 -20q-69 119 -127 184l-319 -139l-53 114l282 127q-80 84 -127 121l133 111q152 -96 203 -140l309 142l66 -117l-264 -119q196 -174 288.5 -347.5t92.5 -369.5q0 -253 -152 -388.5t-432 -135.5t-435 130t-155 357.5z M479 454q0 -176 34.5 -243.5t118 -67.5t117 68t33.5 244.5t-34.5 243.5t-117.5 67t-117 -68t-34 -244z" />
<glyph unicode="&#xf1;" horiz-adv-x="1413" d="M25 0v180h49q59 0 77.5 18.5t18.5 77.5v414q0 60 -18.5 78t-77.5 18h-49v181h538v-150q134 176 359 176q185 0 262.5 -80t77.5 -278v-359q0 -60 18 -78t76 -18h41v-180h-647v180h22q52 0 69 18.5t17 77.5v349q0 166 -133 166q-70 0 -111 -53t-41 -144v-318q0 -58 18 -77 t71 -19h20v-180h-657zM359 1133q52 282 246 282q36 0 84 -12l127 -33q35 -8 61 -8q58 0 88 98h88q-55 -282 -242 -282q-28 0 -74 10l-122 35q-36 8 -62 8q-84 0 -106 -98h-88z" />
<glyph unicode="&#xf2;" horiz-adv-x="1264" d="M45 483.5q0 242.5 155.5 381.5t428.5 139t431.5 -140t158.5 -380.5t-157.5 -379.5t-431.5 -139t-429.5 138t-155.5 380.5zM283 1406q0 44 32.5 77t76.5 33t81.5 -22.5t89.5 -78.5l295 -313h-121l-346 172q-59 29 -83.5 58.5t-24.5 73.5zM479 483q0 -187 34.5 -258 t118 -71t117 70.5t33.5 258t-34.5 259t-117.5 71.5t-117 -71.5t-34 -258.5z" />
<glyph unicode="&#xf3;" horiz-adv-x="1264" d="M45 483.5q0 242.5 155.5 381.5t428.5 139t431.5 -140t158.5 -380.5t-157.5 -379.5t-431.5 -139t-429.5 138t-155.5 380.5zM408 1102l295 313q54 58 90 79.5t80.5 21.5t77 -33t32.5 -76.5t-25.5 -73.5t-82.5 -59l-346 -172h-121zM479 483q0 -187 34.5 -258t118 -71 t117 70.5t33.5 258t-34.5 259t-117.5 71.5t-117 -71.5t-34 -258.5z" />
<glyph unicode="&#xf4;" horiz-adv-x="1264" d="M45 483.5q0 242.5 155.5 381.5t428.5 139t431.5 -140t158.5 -380.5t-157.5 -379.5t-431.5 -139t-429.5 138t-155.5 380.5zM293 1100l242 393h196l242 -393h-107l-233 182l-233 -182h-107zM479 483q0 -187 34.5 -258t118 -71t117 70.5t33.5 258t-34.5 259t-117.5 71.5 t-117 -71.5t-34 -258.5z" />
<glyph unicode="&#xf5;" horiz-adv-x="1264" d="M45 483.5q0 242.5 155.5 381.5t428.5 139t431.5 -140t158.5 -380.5t-157.5 -379.5t-431.5 -139t-429.5 138t-155.5 380.5zM285 1133q52 282 246 282q36 0 84 -12l127 -33q35 -8 61 -8q58 0 88 98h88q-55 -282 -242 -282q-28 0 -74 10l-122 35q-36 8 -62 8q-84 0 -106 -98 h-88zM479 483q0 -187 34.5 -258t118 -71t117 70.5t33.5 258t-34.5 259t-117.5 71.5t-117 -71.5t-34 -258.5z" />
<glyph unicode="&#xf6;" horiz-adv-x="1264" d="M45 483.5q0 242.5 155.5 381.5t428.5 139t431.5 -140t158.5 -380.5t-157.5 -379.5t-431.5 -139t-429.5 138t-155.5 380.5zM252 1312q0 66 49 114.5t114.5 48.5t112 -46.5t46.5 -115.5t-45.5 -114.5t-114 -45.5t-115.5 46.5t-47 112.5zM479 483q0 -187 34.5 -258t118 -71 t117 70.5t33.5 258t-34.5 259t-117.5 71.5t-117 -71.5t-34 -258.5zM690 1312q0 66 48 114.5t113.5 48.5t113 -47t47.5 -115t-46 -114t-115 -46t-115 46.5t-46 112.5z" />
<glyph unicode="&#xf7;" horiz-adv-x="1706" d="M254 475v273h1198v-273h-1198zM670 188.5q0 76.5 53.5 129.5t129 53t129.5 -54t54 -128.5t-54 -128.5t-130 -54t-129 53t-53 129.5zM670 1032.5q0 76.5 54 130.5t129 54t129 -55t54 -129.5t-54 -128.5t-130 -54t-129 53t-53 129.5z" />
<glyph unicode="&#xf8;" horiz-adv-x="1264" d="M45 500.5q0 225.5 155.5 364.5t428.5 139q179 0 313 -66l123 129l121 -113l-105 -110q138 -162 138 -361q0 -240 -157 -379t-429 -139q-196 0 -332 72l-137 -139l-117 114l119 123q-121 140 -121 365.5zM475 516q0 -47 2 -75l281 288q-36 90 -123.5 90t-123.5 -70.5 t-36 -232.5zM498 254q31 -107 137 -107q82 0 117.5 71.5t35.5 240.5v59q0 21 -2 41z" />
<glyph unicode="&#xf9;" horiz-adv-x="1413" d="M25 786v181h532v-625q0 -166 131 -166q70 0 111 53t41 144v317q0 61 -18.5 78.5t-76.5 17.5h-40v181h538v-691q0 -59 19 -77.5t77 -18.5h43v-180h-532v141q-135 -178 -358 -178q-185 0 -261.5 80t-76.5 279v368q0 60 -19 78t-78 18h-32zM307 1406q0 44 32.5 77t76.5 33 t81.5 -22.5t89.5 -78.5l295 -313h-121l-346 172q-59 29 -83.5 58.5t-24.5 73.5z" />
<glyph unicode="&#xfa;" horiz-adv-x="1413" d="M25 786v181h532v-625q0 -166 131 -166q70 0 111 53t41 144v317q0 61 -18.5 78.5t-76.5 17.5h-40v181h538v-691q0 -59 19 -77.5t77 -18.5h43v-180h-532v141q-135 -178 -358 -178q-185 0 -261.5 80t-76.5 279v368q0 60 -19 78t-78 18h-32zM432 1102l295 313q54 58 90 79.5 t80.5 21.5t77 -33t32.5 -76.5t-25.5 -73.5t-82.5 -59l-346 -172h-121z" />
<glyph unicode="&#xfb;" horiz-adv-x="1413" d="M25 786v181h532v-625q0 -166 131 -166q70 0 111 53t41 144v317q0 61 -18.5 78.5t-76.5 17.5h-40v181h538v-691q0 -59 19 -77.5t77 -18.5h43v-180h-532v141q-135 -178 -358 -178q-185 0 -261.5 80t-76.5 279v368q0 60 -19 78t-78 18h-32zM317 1100l242 393h196l242 -393 h-107l-233 182l-233 -182h-107z" />
<glyph unicode="&#xfc;" horiz-adv-x="1413" d="M25 786v181h532v-625q0 -166 131 -166q70 0 111 53t41 144v317q0 61 -18.5 78.5t-76.5 17.5h-40v181h538v-691q0 -59 19 -77.5t77 -18.5h43v-180h-532v141q-135 -178 -358 -178q-185 0 -261.5 80t-76.5 279v368q0 60 -19 78t-78 18h-32zM276 1312q0 66 49 114.5 t114.5 48.5t112 -46.5t46.5 -115.5t-45.5 -114.5t-114 -45.5t-115.5 46.5t-47 112.5zM714 1312q0 66 48 114.5t113.5 48.5t113 -47t47.5 -115t-46 -114t-115 -46t-115 46.5t-46 112.5z" />
<glyph unicode="&#xfd;" horiz-adv-x="1186" d="M-43 -170q0 86 55.5 140.5t138 54.5t131 -41.5t48.5 -106.5q0 -119 -129 -145q29 -35 82 -35t109.5 51.5t101.5 147.5l-322 735q-2 4 -6 13q-63 142 -133 142h-37v181h631v-181q-60 -1 -74 -9t-14 -26t6 -33l147 -360l129 338q2 6 7.5 20t5.5 19q0 27 -25.5 38t-99.5 14 v180h493v-181q-63 0 -96.5 -20.5t-61.5 -87.5l-309 -760q-144 -358 -450 -358q-150 0 -239 73.5t-89 196.5zM369 1102l295 313q54 58 90 79.5t80.5 21.5t77 -33t32.5 -76.5t-25.5 -73.5t-82.5 -59l-346 -172h-121z" />
<glyph unicode="&#xfe;" horiz-adv-x="1323" d="M33 -260h47q56 0 74 18.5t18 77.5v1262q0 58 -19 77t-77 19h-43v180h540v-512q119 137 307.5 137t293 -130.5t104.5 -375.5t-108 -386.5t-293.5 -141.5t-303.5 144v-273q0 -57 21.5 -76.5t85.5 -19.5h29v-180h-676v180zM575 487q0 -159 33 -233t103 -74q133 0 133 306.5 t-127 306.5q-142 0 -142 -306z" />
<glyph unicode="&#xff;" horiz-adv-x="1186" d="M-43 -170q0 86 55.5 140.5t138 54.5t131 -41.5t48.5 -106.5q0 -119 -129 -145q29 -35 82 -35t109.5 51.5t101.5 147.5l-322 735q-2 4 -6 13q-63 142 -133 142h-37v181h631v-181q-60 -1 -74 -9t-14 -26t6 -33l147 -360l129 338q2 6 7.5 20t5.5 19q0 27 -25.5 38t-99.5 14 v180h493v-181q-63 0 -96.5 -20.5t-61.5 -87.5l-309 -760q-144 -358 -450 -358q-150 0 -239 73.5t-89 196.5zM213 1312q0 66 49 114.5t114.5 48.5t112 -46.5t46.5 -115.5t-45.5 -114.5t-114 -45.5t-115.5 46.5t-47 112.5zM651 1312q0 66 48 114.5t113.5 48.5t113 -47 t47.5 -115t-46 -114t-115 -46t-115 46.5t-46 112.5z" />
<glyph unicode="&#x152;" horiz-adv-x="2468" d="M66 682.5q0 335.5 208 534t557 198.5q71 0 255.5 -20.5t297.5 -20.5h969v-512h-211q-34 180 -100 248q-37 38 -91 54t-175 16h-211v-377h51q91 0 127.5 44.5t36.5 160.5v12h166v-627h-166q-4 143 -36.5 186.5t-125.5 43.5h-53v-428h237q135 0 186.5 17t81.5 61 q59 86 72 294h219v-567h-888q-108 0 -312 -20.5t-301 -20.5q-371 0 -582.5 194t-211.5 529.5zM598 686.5q0 -273.5 68 -396t210.5 -122.5t195 71.5t52.5 278.5v338q0 209 -51.5 279.5t-194 70.5t-211.5 -123t-69 -396.5z" />
<glyph unicode="&#x153;" horiz-adv-x="1917" d="M45 486q0 240 155.5 379t428.5 139q190 0 358 -107q170 109 340 109q245 0 377.5 -140.5t132.5 -400.5v-39h-641v-20q0 -122 51 -187t138 -65q173 0 206 182h250q-69 -373 -497 -373q-215 0 -349 113q-194 -113 -385 -113q-258 0 -411.5 141.5t-153.5 381.5zM481 482 q0 -188 34 -258t117 -70t116.5 70.5t33.5 259t-33.5 259t-116.5 70.5t-117 -71.5t-34 -259.5zM1196 606h295v15q0 96 -39 148t-109.5 52t-108.5 -55.5t-38 -159.5z" />
<glyph unicode="&#x178;" horiz-adv-x="1413" d="M-49 1180v194h801v-194h-47q-93 0 -93 -50q0 -20 21 -55l162 -264l162 267q20 31 20 67q0 35 -84 35h-51v194h616v-194h-43q-47 0 -84.5 -28t-89.5 -110l-307 -491v-238q0 -79 21 -98.5t94 -19.5h75v-195h-835v195h78q68 0 90 16.5t22 101.5v238l-301 500 q-78 129 -188 129h-39zM326 1724q0 66 49 114.5t114.5 48.5t112 -46.5t46.5 -115.5t-45.5 -114.5t-114 -45.5t-115.5 46.5t-47 112.5zM764 1724q0 66 48 114.5t113.5 48.5t113 -47t47.5 -115t-46 -114t-115 -46t-115 46.5t-46 112.5z" />
<glyph unicode="&#x2c6;" horiz-adv-x="1024" d="M172 1100l242 393h196l242 -393h-107l-233 182l-233 -182h-107z" />
<glyph unicode="&#x2dc;" horiz-adv-x="1024" d="M164 1133q52 282 246 282q36 0 84 -12l127 -33q35 -8 61 -8q58 0 88 98h88q-55 -282 -242 -282q-28 0 -74 10l-122 35q-36 8 -62 8q-84 0 -106 -98h-88z" />
<glyph unicode="&#x2000;" horiz-adv-x="986" />
<glyph unicode="&#x2001;" horiz-adv-x="1972" />
<glyph unicode="&#x2002;" horiz-adv-x="986" />
<glyph unicode="&#x2003;" horiz-adv-x="1972" />
<glyph unicode="&#x2004;" horiz-adv-x="657" />
<glyph unicode="&#x2005;" horiz-adv-x="493" />
<glyph unicode="&#x2006;" horiz-adv-x="328" />
<glyph unicode="&#x2007;" horiz-adv-x="328" />
<glyph unicode="&#x2008;" horiz-adv-x="246" />
<glyph unicode="&#x2009;" horiz-adv-x="394" />
<glyph unicode="&#x200a;" horiz-adv-x="109" />
<glyph unicode="&#x2010;" horiz-adv-x="735" d="M63 317v326h599v-326h-599z" />
<glyph unicode="&#x2011;" horiz-adv-x="735" d="M63 317v326h599v-326h-599z" />
<glyph unicode="&#x2012;" horiz-adv-x="735" d="M63 317v326h599v-326h-599z" />
<glyph unicode="&#x2013;" horiz-adv-x="1024" d="M0 352v256h1024v-256h-1024z" />
<glyph unicode="&#x2014;" horiz-adv-x="2048" d="M0 352v256h2048v-256h-2048z" />
<glyph unicode="&#x2018;" horiz-adv-x="559" d="M74 1036q0 144 112 252.5t285 126.5v-129q-149 -16 -186 -129l39 4q73 0 117 -46t44 -125.5t-55 -133t-145.5 -53.5t-150.5 64.5t-60 168.5z" />
<glyph unicode="&#x2019;" horiz-adv-x="559" d="M74 1236.5q0 79.5 55 133t145.5 53.5t150.5 -64.5t60 -168.5q0 -144 -112 -252.5t-285 -126.5v129q149 15 186 127l-38 -4q-72 0 -117 47t-45 126.5z" />
<glyph unicode="&#x201a;" horiz-adv-x="559" d="M74 155q0 79 55 133t145.5 54t150.5 -64.5t60 -168.5q0 -145 -112 -253.5t-285 -125.5v129q147 14 186 129q-4 -4 -38 -4q-74 0 -118 46t-44 125z" />
<glyph unicode="&#x201c;" horiz-adv-x="1042" d="M61 1049q0 144 111.5 252.5t284.5 125.5v-129q-148 -13 -187 -129q4 2 39 5q74 0 119 -46.5t45 -125.5t-55 -133t-145.5 -54t-151 64.5t-60.5 169.5zM543 1049q0 144 112 252.5t285 125.5v-129q-149 -14 -186 -129q2 2 39 5q73 0 117 -46.5t44 -126t-54 -133 t-144.5 -53.5t-151.5 65t-61 169z" />
<glyph unicode="&#x201d;" horiz-adv-x="1042" d="M74 1236.5q0 79.5 55 133t145.5 53.5t150.5 -64.5t60 -168.5q0 -144 -112 -252.5t-285 -126.5v129q149 15 186 127l-38 -4q-72 0 -117 47t-45 126.5zM555 1236.5q0 79.5 55 133t146 53.5t152 -64.5t61 -168.5q0 -144 -112.5 -252.5t-285.5 -126.5v129q148 15 187 127 l-39 -4q-73 0 -118.5 47t-45.5 126.5z" />
<glyph unicode="&#x201e;" horiz-adv-x="1042" d="M74 155q0 79 55 133t145.5 54t150.5 -64.5t60 -168.5q0 -145 -112 -253.5t-285 -125.5v129q147 14 186 129q-4 -4 -38 -4q-74 0 -118 46t-44 125zM555 155q0 79 55 133t146 54t152 -64.5t61 -168.5q0 -145 -112.5 -253.5t-285.5 -125.5v129q148 14 187 129q-8 -4 -39 -4 q-74 0 -119 46t-45 125z" />
<glyph unicode="&#x2022;" horiz-adv-x="1208" d="M307 762q0 123 87 209t209.5 86t209 -86.5t86.5 -208.5t-87.5 -209.5t-210 -87.5t-208.5 87t-86 210z" />
<glyph unicode="&#x2026;" horiz-adv-x="2048" d="M153 153.5q0 79.5 54.5 134t134.5 54.5t134 -54.5t54 -134t-54 -134t-134 -54.5t-134.5 54.5t-54.5 134zM835 153.5q0 79.5 54.5 134t134.5 54.5t134 -54.5t54 -134t-54 -134t-134 -54.5t-134.5 54.5t-54.5 134zM1519 153.5q0 79.5 54.5 134t134.5 54.5t134 -54.5 t54 -134t-54 -134t-134 -54.5t-134.5 54.5t-54.5 134z" />
<glyph unicode="&#x202f;" horiz-adv-x="394" />
<glyph unicode="&#x2039;" horiz-adv-x="592" d="M80 483q0 67 213 353h204l-3 -9q-115 -273 -115 -339t135 -351h-221q-137 186 -175 250.5t-38 95.5z" />
<glyph unicode="&#x203a;" horiz-adv-x="592" d="M80 137q133 280 133 334t-21.5 122t-95.5 243h205q213 -286 213 -349t-215 -350h-219z" />
<glyph unicode="&#x205f;" horiz-adv-x="493" />
<glyph unicode="&#x2122;" horiz-adv-x="1683" d="M207 1262l12 206h461l12 -206h-39q-12 151 -118 153v-416q0 -41 25 -47l30 -8v-37h-281v37l33 8q25 6 25 47v416q-109 0 -121 -153h-39zM731 907v37l34 8q32 8 32 47v377q0 41 -31 47l-35 9v36h236l120 -342l111 342h221v-28l-21 -9q-16 -5 -22 -14t-6 -33v-385 q0 -23 6 -32t23 -15l20 -8v-37h-268v37l30 8q29 9 29 47v340l-135 -432h-53l-162 447v-355q0 -41 29 -47l37 -8v-37h-195z" />
<glyph unicode="&#xe000;" horiz-adv-x="965" d="M0 0v965h965v-965h-965z" />
</font>
</defs>
</svg>
