<?xml version="1.0" standalone="no"?>
<!DOCTYPE svg PUBLIC "-//W3C//DTD SVG 1.1//EN" "http://www.w3.org/Graphics/SVG/1.1/DTD/svg11.dtd" >
<svg xmlns="http://www.w3.org/2000/svg">
<metadata></metadata>
<defs>
<font id="ClarendonBTRoman" horiz-adv-x="1024" >
<font-face units-per-em="2048" ascent="1638" descent="-410" />
<missing-glyph horiz-adv-x="639" />
<glyph horiz-adv-x="0" />
<glyph horiz-adv-x="2048" />
<glyph unicode="&#xd;" horiz-adv-x="639" />
<glyph unicode=" "  horiz-adv-x="639" />
<glyph unicode="&#x09;" horiz-adv-x="639" />
<glyph unicode="&#xa0;" horiz-adv-x="639" />
<glyph unicode="!" horiz-adv-x="639" d="M166 116.5q0 63.5 44.5 107.5t109 44t108 -43.5t43.5 -108t-43.5 -108t-108 -43.5t-109 44t-44.5 107.5zM172 1245q0 89 36.5 129.5t115.5 40.5t115 -40.5t36 -129.5q0 -35 -35.5 -317.5t-56.5 -536.5h-127q-18 253 -51 535.5t-33 318.5z" />
<glyph unicode="&#x22;" horiz-adv-x="694" d="M84 1367.5q0 38.5 24.5 66.5t69.5 28q96 0 96 -108q0 -26 -2 -40l-73 -458h-39l-74 459q-2 14 -2 52.5zM420 1367.5q0 37.5 25.5 66t70.5 28.5t70.5 -28t25.5 -78l-4 -41l-73 -459h-39l-74 458q-2 16 -2 53.5z" />
<glyph unicode="#" horiz-adv-x="1575" d="M70 428l59 168h301l92 262h-319l61 166h318l155 436h183l-156 -436h268l156 436h182l-156 -436h291l-59 -166h-291l-92 -262h307l-59 -168h-307l-154 -434h-184l155 434h-268l-154 -434h-184l156 434h-301zM608 594h275l94 264h-275z" />
<glyph unicode="$" horiz-adv-x="1280" d="M102 324q0 71 44.5 116t111 45t107.5 -36.5t41 -92.5t-34.5 -88t-95.5 -32h-14q102 -102 291 -104v380q-227 54 -326.5 140t-99.5 230t113.5 243.5t312.5 121.5v156h139v-156q181 -8 298.5 -93t117.5 -198q0 -68 -41.5 -111.5t-104.5 -43.5t-104 34.5t-41 85t35.5 80.5 t97.5 33q-94 86 -258 86v-368q248 -44 361.5 -134.5t113.5 -249.5t-123.5 -257t-351.5 -113v-213h-139v215q-216 14 -333.5 98.5t-117.5 225.5zM354 944q0 -66 48 -105.5t151 -58.5v336q-199 -24 -199 -172zM692 485l1 -350q245 10 245 174q0 72 -56.5 113t-189.5 63z" />
<glyph unicode="%" horiz-adv-x="1972" d="M63 887q0 175 109 285t282.5 110t283.5 -110t110 -285t-109.5 -284t-283.5 -109t-283 109t-109 284zM293 887q0 -136 39 -199t123.5 -63t123.5 62.5t39 199.5t-39.5 201.5t-123.5 64.5q-162 0 -162 -266zM518 -35l770 1317h164l-768 -1317h-166zM1126 358.5 q0 175.5 109 285.5t282.5 110t283.5 -110.5t110 -285t-109.5 -284t-283.5 -109.5t-283 109t-109 284.5zM1356 358q0 -135 39 -199.5t123 -64.5t122.5 63t38.5 201t-39 201.5t-122 63.5q-162 0 -162 -265z" />
<glyph unicode="&#x26;" horiz-adv-x="1731" d="M74 377q0 144 85 251t269 195q-55 124 -55 258t99 234t245.5 100t227.5 -70.5t81 -193.5q0 -219 -264 -379q118 -202 262 -383q73 72 114.5 142.5t41.5 121.5q0 26 -27.5 36.5t-97.5 10.5h-62v156h654v-156h-72q-77 0 -120 -22q-51 -26 -98 -117q-93 -171 -216 -313 q70 -72 158.5 -72t135 71t54.5 226h158v-39q0 -230 -101 -352.5t-289 -122.5q-150 0 -321 117q-198 -117 -395.5 -117t-332 120.5t-134.5 297.5zM365 443q0 -126 74 -204.5t192 -78.5q76 0 172 49q-153 180 -291 442q-147 -82 -147 -208zM592 1132q0 -97 76 -200 q176 87 176 207q0 52 -34 85t-90.5 33t-92 -36.5t-35.5 -88.5z" />
<glyph unicode="'" horiz-adv-x="358" d="M84 1367.5q0 38.5 24.5 66.5t69.5 28q96 0 96 -108q0 -26 -2 -40l-73 -458h-39l-74 459q-2 14 -2 52.5z" />
<glyph unicode="(" horiz-adv-x="793" d="M80 510q0 361 165.5 593t477.5 312v-129q-354 -143 -354 -772q0 -327 86.5 -518.5t267.5 -263.5v-129q-315 81 -479 313.5t-164 593.5z" />
<glyph unicode=")" horiz-adv-x="793" d="M68 -268q181 72 268.5 264t87.5 518q0 629 -356 772v129q311 -80 477 -312t166 -593t-164 -593.5t-479 -313.5v129z" />
<glyph unicode="*" d="M119 824q0 44 31 72q33 30 144.5 36.5t184.5 46.5q-88 47 -253 55q-49 3 -78 30.5t-29 74t33 82.5t83.5 36t107.5 -86l14 -21q68 -95 138 -140q-4 86 -49 181.5t-45 131t30.5 64t80.5 28.5t80.5 -28.5t30.5 -62.5t-44.5 -130t-52.5 -184q76 42 142 141q64 106 133 106 q41 0 72.5 -37t31.5 -85.5t-29.5 -71.5t-115.5 -31q-145 -12 -215 -49q73 -42 185 -50.5t143.5 -33t31.5 -75t-33 -85t-83 -34.5q-51 0 -122 107q-69 102 -136 140q3 -87 48.5 -183t45.5 -130t-31 -62t-82 -28t-80 27.5t-29 62.5t45.5 132t50.5 181q-92 -54 -154 -161 q-56 -86 -122 -86q-40 0 -72 37.5t-32 81.5z" />
<glyph unicode="+" horiz-adv-x="1706" d="M254 528v166h514v527h170v-527h514v-166h-514v-528h-170v528h-514z" />
<glyph unicode="," horiz-adv-x="639" d="M143 129q0 61 42 100t119.5 39t131 -59.5t53.5 -155.5q0 -137 -88 -230.5t-241 -117.5v90q190 50 194 233q-50 -32 -96.5 -32t-80.5 36t-34 97z" />
<glyph unicode="-" horiz-adv-x="707" d="M76 381v217h555v-217h-555z" />
<glyph unicode="." horiz-adv-x="639" d="M166 116.5q0 63.5 44.5 107.5t109 44t108 -43.5t43.5 -108t-43.5 -108t-108 -43.5t-109 44t-44.5 107.5z" />
<glyph unicode="/" horiz-adv-x="606" d="M-49 -190l504 1605h151l-504 -1605h-151z" />
<glyph unicode="0" horiz-adv-x="1280" d="M63 623q0 293 160.5 476t415.5 183t416.5 -183.5t161.5 -476t-161.5 -475t-416.5 -182.5t-415.5 182.5t-160.5 475.5zM381 622q0 -257 62 -377t196 -120t197 120.5t63 377.5t-63 378t-196.5 121t-196 -121.5t-62.5 -378.5z" />
<glyph unicode="1" horiz-adv-x="1280" d="M289 0v147h92q105 0 132.5 22.5t27.5 98.5v656h-252v145q148 6 230 50.5t126 140.5h166v-996q0 -76 23 -96.5t120 -20.5h105v-147h-770z" />
<glyph unicode="2" horiz-adv-x="1280" d="M90 47q0 161 70 276t221 201q63 37 162 83.5t129 62.5q63 34 99 95.5t36 151t-79 156t-186 66.5q-200 0 -274 -158q32 10 83 10t89.5 -36.5t38.5 -103.5t-45.5 -112t-124.5 -45t-134.5 60.5t-55.5 154.5q0 154 138.5 263.5t357.5 109.5t360 -111t141 -279.5t-87 -255 t-311 -143.5l-6 -1q-361 -90 -446 -265q82 54 171 54t230 -33t210 -33t108 52.5t47 178.5h117v-28q0 -215 -83.5 -334t-234.5 -119q-132 0 -334 107q-112 59 -167.5 59t-83 -33.5t-35.5 -105.5h-119q-2 20 -2 55z" />
<glyph unicode="3" horiz-adv-x="1280" d="M96 311q0 89 52.5 144t130 55t121.5 -43t44 -111.5t-42.5 -109.5t-112.5 -41h-15q105 -99 257.5 -99t232.5 66t80 178q0 240 -301 240h-39v149h20q155 0 228 49t73 148t-68 157t-182 58q-130 0 -229 -76q59 -6 92 -41.5t33 -96t-45 -101.5t-117.5 -41t-120 47t-47.5 121 q0 134 140 226.5t357 92.5t349.5 -88t132.5 -217.5t-75.5 -201.5t-231.5 -103q167 -29 254.5 -112t87.5 -212q0 -174 -153 -278.5t-391 -104.5t-376.5 98.5t-138.5 247.5z" />
<glyph unicode="4" horiz-adv-x="1280" d="M74 346v156l682 758h198v-738h240v-176h-240v-88q0 -65 27 -88t98 -23h115v-147h-725v147h74q102 0 127.5 19t25.5 92v88h-622zM297 522h399l6 449z" />
<glyph unicode="5" horiz-adv-x="1280" d="M98 309q0 79 53 132t130 53t124.5 -41t47.5 -109.5t-46.5 -109.5t-125.5 -41q109 -87 257.5 -87t230 82t81.5 232t-78.5 234.5t-224 84.5t-254.5 -131l-139 6l63 664q202 -66 428 -66q240 0 442 64q-81 -293 -514 -293q-80 0 -225 20l-16 -188q160 74 315 74 q220 0 362 -125.5t142 -333t-143.5 -336.5t-383.5 -129t-383 96.5t-143 247.5z" />
<glyph unicode="6" horiz-adv-x="1280" d="M111 599.5q0 310.5 159.5 496.5t436.5 186q182 0 298.5 -77.5t116.5 -192.5q0 -70 -47 -115t-118 -45t-113.5 37.5t-42.5 97.5q0 87 96 119q-77 51 -156 51q-155 0 -231 -112t-86 -356q150 108 329 108t304 -116.5t125 -301t-143.5 -301.5t-392.5 -117t-392 164 t-143 474.5zM432 366q0 -122 58 -187.5t162.5 -65.5t162 65t57.5 180q0 263 -225 263q-102 0 -158.5 -66.5t-56.5 -188.5z" />
<glyph unicode="7" horiz-adv-x="1280" d="M174 682v569h150v-145q58 83 122.5 119.5t151.5 36.5t219.5 -50.5t175.5 -50.5q84 0 117 86h131q-9 -133 -178 -378q-79 -115 -139 -217q-138 -233 -138 -564q0 -60 2 -96h-280l-2 84q0 276 68.5 417.5t291.5 383.5q83 90 125 139q-92 -43 -167.5 -43t-174 20.5 t-135.5 20.5q-106 0 -152.5 -73.5t-46.5 -246.5v-12h-141z" />
<glyph unicode="8" horiz-adv-x="1280" d="M80 309q0 200 260 291q-209 128 -209 315q0 162 139 264.5t363.5 102.5t363 -86.5t138.5 -224.5q0 -174 -222 -271q271 -113 271 -340q0 -183 -146.5 -289t-401 -106t-405.5 94.5t-151 249.5zM311 324q0 -92 83 -144.5t231 -52.5q303 0 303 166q0 56 -37.5 93t-122.5 65 l-276 88q-181 -69 -181 -215zM381 988q0 -126 156 -169l233 -63q143 68 143 205q0 83 -72.5 131.5t-196.5 48.5t-193.5 -43.5t-69.5 -109.5z" />
<glyph unicode="9" horiz-adv-x="1280" d="M88 858.5q0 183.5 143 303.5t393.5 120t394.5 -167.5t144 -478.5t-160 -493t-440 -182q-174 0 -286.5 76t-112.5 188q0 70 48 114t119 44t112.5 -37.5t41.5 -95.5q0 -84 -92 -117q74 -47 158 -47q152 0 225.5 116.5t75.5 360.5q-153 -117 -334 -117t-305.5 114.5 t-124.5 298zM395 877.5q0 -123.5 60 -189t164.5 -65.5t160.5 66t56 186t-57.5 187.5t-164 67.5t-163 -64.5t-56.5 -188z" />
<glyph unicode=":" horiz-adv-x="639" d="M166 116.5q0 63.5 44.5 107.5t109 44t108 -43.5t43.5 -108t-43.5 -108t-108 -43.5t-109 44t-44.5 107.5zM166 770q0 63 44.5 107.5t109 44.5t108 -43.5t43.5 -108t-43.5 -108.5t-108 -44t-109 44.5t-44.5 107.5z" />
<glyph unicode=";" horiz-adv-x="639" d="M141 129q0 61 43 100t120.5 39t131 -59.5t53.5 -155.5q0 -137 -88 -230.5t-241 -117.5v90q188 48 192 233q-106 -69 -176 4q-35 36 -35 97zM166 770q0 63 44.5 107.5t109 44.5t108 -43.5t43.5 -108t-43.5 -108.5t-108 -44t-109 44.5t-44.5 107.5z" />
<glyph unicode="&#x3c;" horiz-adv-x="1706" d="M264 530v160l1178 486v-185l-934 -381l934 -381v-182z" />
<glyph unicode="=" horiz-adv-x="1706" d="M254 322v165h1198v-165h-1198zM254 733v168h1198v-168h-1198z" />
<glyph unicode="&#x3e;" horiz-adv-x="1706" d="M264 47v182l934 381l-934 381v185l1178 -486v-160z" />
<glyph unicode="?" horiz-adv-x="1026" d="M43 1034q0 165 129 273t334.5 108t340 -104t134.5 -262q0 -101 -50.5 -177t-191.5 -177.5t-178 -159.5t-37 -136v-10h-131l-4 72q0 80 26 143.5t91 136.5q18 22 55 61q127 136 127 236t-71 163t-183 63t-182.5 -66t-73.5 -171q60 48 115.5 48t93 -38.5t37.5 -100.5 t-50 -108t-130.5 -46t-140.5 71.5t-60 180.5zM301 116.5q0 63.5 44.5 107.5t109 44t108 -43.5t43.5 -108t-43.5 -108t-108 -43.5t-109 44t-44.5 107.5z" />
<glyph unicode="@" horiz-adv-x="2019" d="M139 539.5q0 200.5 86 378.5t235 301q289 237 647.5 237t567.5 -188.5t209 -501.5q0 -159 -59 -297.5t-168 -237.5q-126 -110 -262 -110q-98 0 -152.5 52.5t-60.5 152.5q-124 -203 -303 -203q-134 0 -212.5 92t-78.5 226q0 254 190 436q139 133 315.5 133t211.5 -187 l51 170h172l-172 -616q-17 -51 -17 -98t22 -74t58 -27t86 22t92 56q110 88 169 222t59 296q0 279 -191 450t-504 171q-173 0 -328.5 -65t-275.5 -188q-243 -248 -243 -640q0 -342 239 -541q219 -182 549.5 -182t624.5 209l37 -47q-299 -224 -662 -224q-383 0 -622 181 q-151 113 -230.5 277t-79.5 364.5zM772 367q0 -83 36.5 -133t96.5 -50q118 0 221 174q56 96 89.5 210t33.5 200.5t-37.5 136t-100.5 49.5t-116 -45t-108 -149q-115 -219 -115 -393z" />
<glyph unicode="A" horiz-adv-x="1475" d="M-29 0v156h43q78 0 116.5 27.5t66.5 105.5l383 1085h288l410 -1085q35 -95 64.5 -114t101.5 -19h41v-156h-711v156h111q67 0 90.5 11.5t23.5 32.5q0 30 -18 76l-59 162h-453l-59 -173q-2 -7 -9.5 -28.5t-7.5 -41t19.5 -29.5t91.5 -10h106v-156h-639zM526 600h340 l-178 475z" />
<glyph unicode="B" horiz-adv-x="1495" d="M47 0v156h80q91 0 113 21.5t22 105.5v809q0 84 -22 105.5t-113 21.5h-80v155h793q258 0 383 -84t125 -258q0 -120 -67.5 -193.5t-209.5 -109.5q332 -68 332 -356q0 -201 -137 -287t-465 -86h-754zM551 154h227q176 0 251 56t75 185t-77.5 183.5t-266.5 54.5h-209v-479z M551 791h197q167 0 239 49.5t72 163.5t-66 163.5t-223 49.5h-219v-426z" />
<glyph unicode="C" horiz-adv-x="1450" d="M74 688q0 318 213 531q196 196 475 196q215 0 399 -141l41 123h148v-563h-158q-24 197 -126.5 305t-278 108t-283 -151t-107.5 -411.5t107 -399t301 -138.5q151 0 245 98.5t124 286.5h176q-20 -274 -168.5 -423.5t-401.5 -149.5q-302 0 -491 191q-215 213 -215 538z" />
<glyph unicode="D" horiz-adv-x="1661" d="M47 0v156h80q91 0 113 21.5t22 105.5v809q0 84 -22 105.5t-113 21.5h-80v155h780q360 0 544.5 -174t184.5 -512t-185 -513t-544 -175h-780zM551 156h180q161 0 241 25q168 53 230 257q33 112 33 250t-33 249q-62 203 -230 257q-80 25 -241 25h-180v-1063z" />
<glyph unicode="E" horiz-adv-x="1546" d="M47 0v156h80q91 0 113 21.5t22 105.5v809q0 84 -22 105.5t-113 21.5h-80v155h1352v-547h-156q-6 235 -76.5 313.5t-285.5 78.5h-330v-422h78q129 0 169 44.5t50 204.5l156 1v-689l-156 1q-9 177 -49 228.5t-168 51.5h-80v-483h360q180 0 247 83.5t85 342.5h156v-582 h-1352z" />
<glyph unicode="F" horiz-adv-x="1421" d="M47 0v156h80q91 0 113 21.5t22 105.5v809q0 84 -22 105.5t-113 21.5h-80v155h1278v-569h-158q0 207 -57 311q-30 55 -98 79t-205 24h-256v-422h35q129 0 169 44.5t50 204.5l156 1v-689l-156 1q-9 177 -49.5 228.5t-167.5 51.5h-37v-356q0 -83 22.5 -105t114.5 -22h96 v-156h-737z" />
<glyph unicode="G" horiz-adv-x="1616" d="M74 688q0 324 213 535q196 192 479 192q230 0 397 -151l58 118h145v-536h-158q-40 190 -149 295.5t-262 105.5q-183 0 -291.5 -151t-108.5 -410t108.5 -402t305.5 -143q142 0 223.5 66.5t81.5 181.5v78q0 72 -22 92.5t-133 20.5h-87v155h728v-155h-89q-71 0 -91.5 -23 t-20.5 -106v-459h-150l-73 114q-184 -147 -418 -147q-286 0 -479 197q-207 209 -207 532z" />
<glyph unicode="H" horiz-adv-x="1698" d="M47 0v156h80q91 0 113 21.5t22 105.5v809q0 84 -22 105.5t-113 21.5h-80v155h737v-155h-96q-92 0 -114.5 -22t-22.5 -105v-304h594v304q0 84 -22 105.5t-113 21.5h-97v155h738v-155h-80q-92 0 -114.5 -22t-22.5 -105v-809q0 -83 22.5 -105t114.5 -22h80v-156h-738v156h97 q91 0 113 21.5t22 105.5v340h-594v-340q0 -83 22.5 -105t114.5 -22h96v-156h-737z" />
<glyph unicode="I" horiz-adv-x="844" d="M51 0v156h88q91 0 113 21.5t22 105.5v809q0 84 -22 105.5t-113 21.5h-88v155h742v-155h-88q-92 0 -114 -21.5t-22 -105.5v-809q0 -84 22 -105.5t114 -21.5h88v-156h-742z" />
<glyph unicode="J" horiz-adv-x="1184" d="M49 301q0 96 51.5 150.5t132.5 54.5t127 -45t46 -115q0 -134 -138 -168q74 -61 177.5 -61t151.5 60.5t48 221.5v693q0 84 -22 105.5t-113 21.5h-96v155h723v-155h-62q-91 0 -113 -21.5t-22 -105.5v-654q0 -148 -24 -224q-51 -163 -228 -224q-92 -31 -203 -31 q-192 0 -314 96.5t-122 245.5z" />
<glyph unicode="K" horiz-adv-x="1591" d="M47 0v156h80q91 0 113 21.5t22 105.5v809q0 84 -22 105.5t-113 21.5h-80v155h698v-155h-65q-91 0 -113 -21.5t-22 -105.5v-387l463 434q34 36 34 53q0 27 -81 27h-91v155h693v-155h-47q-81 0 -159.5 -40.5t-189.5 -142.5l-200 -184l417 -592q45 -63 82 -83.5t115 -20.5 h70v-156h-764v156h110q54 0 70 8t16 25q0 30 -30 73l-283 406l-225 -197v-188q0 -84 22 -105.5t113 -21.5h55v-156h-688z" />
<glyph unicode="L" horiz-adv-x="1421" d="M47 0v156h80q91 0 113 21.5t22 105.5v809q0 84 -22 105.5t-113 21.5h-80v155h737v-155h-96q-92 0 -114.5 -22t-22.5 -105v-936h256q137 0 205 23.5t98 77.5q57 105 57 312v25h158v-594h-1278z" />
<glyph unicode="M" horiz-adv-x="1995" d="M47 0v156h74q91 0 113 21.5t22 105.5v809q0 84 -22 105.5t-113 21.5h-74v155h641l305 -891l340 891h613v-155h-78q-92 0 -114.5 -22t-22.5 -105v-809q0 -83 22.5 -105t114.5 -22h78v-156h-707v156h92q91 0 113 21.5t22 105.5v888l-442 -1171h-135l-416 1194v-911 q0 -84 22 -105.5t113 -21.5h82v-156h-643z" />
<glyph unicode="N" horiz-adv-x="1683" d="M25 0v156h96q91 0 113 21.5t22 105.5v809q0 84 -22 105.5t-113 21.5h-88v155h588l608 -997v715q0 84 -22 105.5t-113 21.5h-97v155h650v-155h-66q-92 0 -114.5 -22t-22.5 -105v-1092h-289l-682 1120v-837q0 -84 22 -105.5t113 -21.5h94v-156h-677z" />
<glyph unicode="O" horiz-adv-x="1661" d="M74 688q0 326 208.5 525.5t549 199.5t548 -199.5t207.5 -526t-208 -526.5t-548 -200t-548.5 200.5t-208.5 526.5zM397 688q0 -266 115 -414.5t319 -148.5t318.5 148t114.5 414.5t-114 414t-318.5 147.5t-319.5 -147.5t-115 -413.5z" />
<glyph unicode="P" horiz-adv-x="1403" d="M47 0v156h80q91 0 113 21.5t22 105.5v809q0 84 -22 105.5t-113 21.5h-80v155h723q561 0 561 -377q0 -202 -155 -307q-56 -37 -156 -53t-279 -16h-190v-338q0 -83 22.5 -105t114.5 -22h96v-156h-737zM551 776h137q189 0 265.5 50.5t76.5 172t-73.5 171t-284.5 49.5h-121 v-443z" />
<glyph unicode="Q" horiz-adv-x="1712" d="M74 688q0 326 208.5 525.5t548 199.5t548 -199.5t208.5 -526.5t-219 -523q64 -82 115.5 -82t71 39t24.5 147h133v-30q0 -379 -285 -379q-72 0 -137.5 35.5t-146.5 119.5q-155 -53 -314 -53q-339 0 -547 200.5t-208 526.5zM393 688q0 -321 156 -436q-2 16 -2 49 q0 122 68.5 190t191.5 68q200 0 405 -209q68 132 68 322q0 272 -116 424.5t-325 152.5t-327.5 -148t-118.5 -413zM662 249.5q0 -58.5 43.5 -96.5t108.5 -38q126 0 210 63q-103 199 -240 199q-55 0 -88.5 -34.5t-33.5 -93z" />
<glyph unicode="R" horiz-adv-x="1583" d="M47 0v156h80q91 0 113 21.5t22 105.5v809q0 84 -22 105.5t-113 21.5h-80v155h821q258 0 383 -81t125 -239q0 -311 -393 -358q147 -22 205.5 -83.5t68.5 -213.5l9 -123q5 -72 18 -94t43 -22q60 0 64 225v6h130q3 -19 3 -69q0 -189 -68.5 -276t-203.5 -87t-204 67t-73 186 l-6 161q-6 161 -71.5 218.5t-248.5 57.5h-98v-366q0 -83 22.5 -105t114.5 -22h96v-156h-737zM551 805h242q146 0 214 49.5t68 159t-65 157.5t-224 48h-235v-414z" />
<glyph unicode="S" horiz-adv-x="1319" d="M86 987q0 194 135 311t357.5 117t402.5 -141l72 100h123v-520h-156q-35 187 -147.5 290t-282.5 103q-124 0 -192 -46.5t-68 -123t48 -118.5t154 -66l277 -64q438 -100 438 -428q0 -195 -143 -318.5t-371 -123.5t-457 170l-45 -129h-141v567h160q33 -205 152 -313.5 t309 -108.5q137 0 209.5 46t72.5 128.5t-55.5 131.5t-177.5 77l-223 52q-240 56 -345.5 151.5t-105.5 255.5z" />
<glyph unicode="T" horiz-adv-x="1389" d="M47 805v569h1294v-569h-157q-2 218 -77 318t-239 100h-30v-940q0 -83 22.5 -105t114.5 -22h117v-156h-797v156h119q91 0 113 21.5t22 105.5v940h-27q-165 0 -240 -98.5t-78 -319.5h-157z" />
<glyph unicode="U" horiz-adv-x="1565" d="M43 1219v155h715v-155h-88q-93 0 -115.5 -22t-22.5 -105v-658q0 -144 67 -208t216 -64q285 0 285 272v658q0 84 -22 105.5t-113 21.5h-80v155h637v-155h-64q-91 0 -113 -21.5t-22 -105.5v-658q0 -232 -139 -353.5t-403 -121.5t-400.5 121t-136.5 354v658q0 84 -22 105.5 t-113 21.5h-66z" />
<glyph unicode="V" horiz-adv-x="1460" d="M-25 1219v155h719v-155h-106q-109 0 -109 -60q0 -33 25 -104l254 -713l272 729q21 50 21 86.5t-25.5 49t-103.5 12.5h-91v155h654v-155h-41q-73 0 -109 -25.5t-67 -110.5l-406 -1083h-284l-385 1087q-27 76 -61.5 104t-96.5 28h-60z" />
<glyph unicode="W" horiz-adv-x="2007" d="M18 1219v155h586v-155h-65q-84 0 -84 -64q0 -23 6 -43l215 -776l246 708q-18 94 -54 134.5t-102 40.5h-51v155h602v-155h-76q-53 0 -74.5 -12.5t-21.5 -35t5.5 -42t6.5 -23.5l232 -750l204 699q19 61 19 102q0 62 -115 62h-67v155h563v-155h-45q-52 0 -84.5 -32.5 t-55.5 -107.5l-313 -1079h-270l-215 735l-248 -735h-260l-291 1034q-33 118 -66 151.5t-94 33.5h-33z" />
<glyph unicode="X" horiz-adv-x="1620" d="M2 0v156h68q60 0 96.5 18t91.5 82l393 446l-323 406q-52 65 -96 88t-107 23h-70v155h727v-155h-94q-59 0 -59 -41q0 -26 33 -64l180 -219l219 229q33 33 33 58q0 37 -90 37h-80v155h645v-155h-74q-79 0 -215 -150l-305 -334l348 -434q82 -102 124.5 -123.5t121.5 -21.5 h61v-156h-788v156h94q96 0 96 37q0 33 -24 63l-224 283l-196 -226q-64 -72 -64 -103.5t20 -42.5t77 -11h96v-156h-715z" />
<glyph unicode="Y" horiz-adv-x="1501" d="M0 1219v155h727v-155h-100q-90 0 -90 -43q0 -26 28 -68l232 -322l245 334q27 38 27 62q0 37 -74 37h-121v155h637v-155h-47q-54 0 -87.5 -18.5t-71.5 -72.5l-410 -553v-292q0 -83 22.5 -105t114.5 -22h119v-156h-799v156h119q91 0 113 21.5t22 105.5v292l-340 502 q-54 80 -98 111t-100 31h-68z" />
<glyph unicode="Z" horiz-adv-x="1350" d="M86 0v166l821 1053h-233q-155 0 -220.5 -24t-99.5 -79q-65 -103 -67 -317h-158v575h1118v-176l-813 -1042h219q161 0 242.5 26t114.5 84q62 109 80 357h157v-623h-1161z" />
<glyph unicode="[" horiz-adv-x="793" d="M188 -356v1730h512v-137h-245v-1454h245v-139h-512z" />
<glyph unicode="\" horiz-adv-x="606" d="M-49 1415h151l504 -1605h-151z" />
<glyph unicode="]" horiz-adv-x="793" d="M90 -217h248v1454h-248v137h512v-1730h-512v139z" />
<glyph unicode="^" horiz-adv-x="2048" d="M412 897l503 565h215l502 -565h-104l-506 397l-506 -397h-104z" />
<glyph unicode="_" d="M0 -311h1024v-172h-1024v172z" />
<glyph unicode="`" d="M180 1397q0 45 32 76.5t73 31.5t76.5 -21.5t84.5 -74.5l279 -295h-115l-325 162q-105 52 -105 121z" />
<glyph unicode="a" horiz-adv-x="1165" d="M55 224.5q0 113.5 70 182.5q88 87 370 156q90 22 123 43q64 42 64 123q0 162 -211 162q-125 0 -195 -60h7q60 0 94.5 -29.5t34.5 -85.5t-39.5 -92t-108 -36t-114.5 44.5t-46 115.5q0 114 108.5 185t289.5 71q328 0 396 -169q24 -60 24 -200v-430q0 -70 47 -70q37 0 50 39 t13 186h125v-43q0 -188 -59.5 -271t-194.5 -83q-178 0 -223 154q-119 -154 -332 -154q-129 0 -211 74t-82 187.5zM332 252q0 -56 33 -86.5t94 -30.5q100 0 158.5 67.5t58.5 186.5v117q-42 -20 -116 -51q-228 -99 -228 -203z" />
<glyph unicode="b" horiz-adv-x="1223" d="M0 1237v137h408v-559q57 98 137.5 143.5t195.5 45.5q190 0 301 -138.5t111 -378.5t-113 -381t-318 -141t-345 160l-82 -135h-135v1124q0 79 -23 101t-94 22h-43zM408 481q0 -162 62.5 -254t170.5 -92q233 0 233 346q0 344 -233 344q-109 0 -171 -91t-62 -253z" />
<glyph unicode="c" horiz-adv-x="1053" d="M57 479.5q0 234.5 148.5 379.5t386.5 145q177 0 290 -85t113 -214q0 -80 -44.5 -127.5t-115.5 -47.5t-111 38.5t-40 95t33 91t86 40.5q-88 73 -207 73t-189.5 -101t-70.5 -282q0 -335 256 -335q206 0 235 251h158q-22 -436 -432 -436q-229 0 -362.5 140t-133.5 374.5z " />
<glyph unicode="d" horiz-adv-x="1276" d="M70 487q0 245 109.5 381t305.5 136q231 0 330 -199v309q0 79 -23.5 101t-93.5 22h-86v137h451v-1114q0 -79 23.5 -101t93.5 -22h59v-137h-424v168q-98 -197 -330 -197q-196 0 -305.5 135.5t-109.5 380.5zM348 481q0 -346 234 -346q108 0 170.5 92t62.5 254t-62.5 253 t-170.5 91q-234 0 -234 -344z" />
<glyph unicode="e" horiz-adv-x="1092" d="M57 481.5q0 235.5 140.5 379t367.5 143.5t344 -138.5t117 -402.5h-690q6 -164 69.5 -250t180 -86t177 50.5t85.5 168.5h172q-22 -178 -142.5 -280.5t-308.5 -102.5q-234 0 -373 141.5t-139 377zM346 608h409q-9 134 -54.5 196t-134.5 62t-145.5 -65.5t-74.5 -192.5z" />
<glyph unicode="f" horiz-adv-x="766" d="M47 0v137h59q77 0 101 22t24 101v561h-184v144h184v30q0 416 351 416q134 0 216.5 -59.5t82.5 -142.5t-38 -124t-98 -41t-96.5 33.5t-36.5 85.5q0 89 88 113q-35 29 -97.5 29t-93 -45t-30.5 -158v-137h209v-144h-209v-561q0 -79 23.5 -101t93.5 -22h92v-137h-641z" />
<glyph unicode="g" horiz-adv-x="1358" d="M74 -201q0 123 190 174q-80 20 -123 68t-43 117q0 138 183 202q-140 121 -140 282.5t126 261.5t327 100t342 -95q89 95 197 95t168.5 -55t60.5 -134.5t-38 -120.5t-96.5 -41t-96 35t-37.5 88q0 86 98 113q-37 29 -71 29q-69 0 -132 -87q55 -98 55 -204 q0 -162 -121.5 -258.5t-328.5 -96.5q-106 0 -225 37q-52 -35 -52 -71.5t30 -53t104 -16.5h280q234 0 341.5 -67.5t107.5 -220t-149.5 -236.5t-417.5 -84t-403.5 62t-135.5 177zM252 -184q0 -140 328.5 -140t328.5 152q0 68 -65 94.5t-257.5 26.5t-263.5 -30t-71 -103z M412 642.5q0 -124.5 42.5 -182t137 -57.5t138.5 56.5t44 180.5t-44 183.5t-137.5 59.5t-137 -58t-43.5 -182.5z" />
<glyph unicode="h" horiz-adv-x="1327" d="M47 0v137h53q71 0 95 22.5t24 100.5v854q0 78 -24 100.5t-95 22.5h-53v137h418v-577q160 200 332 200t244.5 -82t72.5 -274v-381q0 -78 24 -100.5t95 -22.5h57v-137h-581v137h41q71 0 94.5 22.5t23.5 100.5v381q0 107 -35.5 153t-115.5 46q-118 0 -185 -89.5t-67 -248.5 v-242q0 -78 24 -100.5t95 -22.5h41v-137h-578z" />
<glyph unicode="i" horiz-adv-x="721" d="M51 0v137h76q70 0 93.5 22t23.5 101v447q0 79 -23.5 100.5t-93.5 21.5h-76v138h443v-707q0 -78 23.5 -100.5t94.5 -22.5h62v-137h-623zM199 1239q0 64 43.5 108t108 44t109 -44t44.5 -108t-44.5 -109t-108.5 -45t-108 45t-44 109z" />
<glyph unicode="j" horiz-adv-x="653" d="M-135 -229q0 61 41 101t100 40t93 -32.5t34 -84.5q0 -97 -108 -110q52 -23 86 -23q65 0 92.5 48.5t27.5 170.5v826q0 79 -23 100.5t-93 21.5h-82v138h448v-1020q0 -204 -80 -295.5t-256 -91.5q-124 0 -202 59t-78 152zM186 1239q0 64 44 108t108.5 44t109 -44t44.5 -108 t-45 -109t-109 -45t-108 45t-44 109z" />
<glyph unicode="k" horiz-adv-x="1311" d="M47 0v137h53q71 0 95 22.5t24 100.5v854q0 78 -24 100.5t-95 22.5h-53v137h418v-876l311 254q37 30 37 49q0 28 -74 28h-110v138h612v-138h-41q-85 0 -177 -77h-1l-191 -156l242 -342q84 -117 191 -117h47v-137h-594v137h69q27 0 43.5 9t16.5 20q0 21 -25 57l-162 238 l-194 -154v-47q0 -78 24 -100.5t95 -22.5h24v-137h-561z" />
<glyph unicode="l" horiz-adv-x="696" d="M43 0v137h61q72 0 95.5 22.5t23.5 100.5v854q0 78 -23.5 100.5t-95.5 22.5h-61v137h430v-1114q0 -78 24 -100.5t95 -22.5h61v-137h-610z" />
<glyph unicode="m" horiz-adv-x="1907" d="M47 0v137h68q70 0 93 22t23 101v447q0 79 -23 100.5t-93 21.5h-68v138h428v-164q79 102 158.5 148t175.5 46q198 0 266 -196q92 104 172 150t157 46q149 0 224 -77q37 -40 52.5 -94.5t15.5 -184.5v-381q0 -79 23 -101t93 -22h58v-137h-559v137h22q71 0 95 22.5t24 100.5 v381q0 118 -30.5 158.5t-116.5 40.5t-153 -77t-67 -192v-311q0 -79 23.5 -101t93.5 -22h25v-137h-527v137h23q71 0 95 22.5t24 100.5v381q0 118 -31 158.5t-117 40.5t-152.5 -77t-66.5 -192v-311q0 -79 23.5 -101t93.5 -22h24v-137h-569z" />
<glyph unicode="n" horiz-adv-x="1341" d="M47 0v137h68q70 0 93 22t23 101v447q0 79 -23 100.5t-93 21.5h-68v138h432v-170q160 200 331.5 200t244.5 -82t73 -274v-381q0 -79 23.5 -101t93.5 -22h60v-137h-582v137h41q70 0 93.5 22t23.5 101v381q0 107 -35.5 153t-116.5 46q-116 0 -183 -88t-67 -242v-250 q0 -79 23.5 -101t93.5 -22h41v-137h-590z" />
<glyph unicode="o" horiz-adv-x="1206" d="M57 484q0 235 149 377.5t396.5 142.5t397 -143t149.5 -377.5t-149.5 -376.5t-397 -142t-396.5 142t-149 377zM336 484.5q0 -373.5 266 -373.5q268 0 268 373.5t-267 373.5t-267 -373.5z" />
<glyph unicode="p" horiz-adv-x="1284" d="M25 -303h59q71 0 95 22.5t24 100.5v887q0 78 -24 100t-95 22h-51v138h416v-168q97 196 329 196q198 0 308 -135.5t110 -380t-110 -379.5t-308 -135q-231 0 -329 197v-342q0 -78 23.5 -100.5t94.5 -22.5h92v-137h-634v137zM449 486q0 -161 63 -253t172 -92q234 0 234 345 t-234 345q-109 0 -172 -92t-63 -253z" />
<glyph unicode="q" horiz-adv-x="1294" d="M88 479.5q0 244.5 110 380t308 135.5q119 0 199 -47.5t131 -148.5v168h415v-138h-51q-71 0 -95 -22t-24 -100v-887q0 -78 24 -100.5t95 -22.5h64v-137h-639v137h92q71 0 95 22.5t24 100.5v342q-99 -197 -330 -197q-198 0 -308 135t-110 379.5zM367 486q0 -345 235 -345 q109 0 171.5 91.5t62.5 253t-63 253.5t-171 92q-235 0 -235 -345z" />
<glyph unicode="r" horiz-adv-x="1018" d="M47 0v137h68q70 0 93 22t23 101v447q0 79 -23 100.5t-93 21.5h-68v138h432v-146q96 172 256 172q110 0 179 -61.5t69 -149t-46 -136t-114.5 -48.5t-107.5 35.5t-39 91.5q0 104 125 139q-48 21 -84 21q-102 0 -170 -102.5t-68 -262.5v-260q0 -79 23.5 -101t93.5 -22h102 v-137h-651z" />
<glyph unicode="s" horiz-adv-x="1018" d="M63 -12v395h150q29 -132 113.5 -202t212.5 -70q78 0 125 34.5t47 86.5t-38 80.5t-134 52.5l-152 36q-159 39 -236 112.5t-77 198t103 208.5t266 84t298 -99l45 76h117v-358h-139q-31 111 -110 173t-170 62q-175 0 -175 -115q0 -77 115 -104l186 -43q180 -43 262 -119 t82 -210t-104 -218t-282 -84t-332 109l-37 -86h-136z" />
<glyph unicode="t" horiz-adv-x="829" d="M35 825v133q137 23 202.5 112.5t77.5 277.5h131v-381h267v-142h-271v-551q0 -71 16 -95.5t63 -24.5t67 49t20 200v54h133q2 -32 2 -88q0 -213 -69.5 -308.5t-213.5 -95.5t-204.5 81t-60.5 257v522h-160z" />
<glyph unicode="u" horiz-adv-x="1327" d="M47 829v138h412v-641q0 -107 35.5 -153t115.5 -46q116 0 184 88t68 242v250q0 78 -23.5 100t-95.5 22h-94v138h459v-707q0 -78 24 -100.5t95 -22.5h53v-137h-418v170q-160 -201 -332 -201t-244.5 82t-72.5 275v381q0 78 -24 100t-95 22h-47z" />
<glyph unicode="v" horiz-adv-x="1133" d="M14 829v138h533v-138h-33q-80 0 -80 -51q0 -31 19 -88l151 -446l164 465q14 36 14 65q0 55 -92 55h-49v138h477v-138h-51q-82 0 -125 -124l-248 -705h-260l-250 725q-20 56 -46 80t-64 24h-60z" />
<glyph unicode="w" horiz-adv-x="1694" d="M25 829v138h507v-138h-49q-67 0 -67 -49q0 -21 18 -81l139 -476l172 481q15 39 15 69t-20 43t-72 13h-39v138h495v-138h-61q-64 0 -64 -47q0 -26 13 -63l164 -506l151 465q21 61 21 92q0 59 -66 59h-51v138h426v-138h-45q-39 0 -64.5 -29t-50.5 -104l-231 -696h-242 l-174 541l-184 -541h-246l-232 711q-24 74 -49 96t-71 22h-43z" />
<glyph unicode="x" horiz-adv-x="1321" d="M10 0v137h49q82 0 174 84l285 254l-242 256q-50 55 -92 76.5t-92 21.5h-41v138h592v-138h-45q-57 0 -57 -28q0 -17 31 -48l116 -128l125 114q45 43 45 60q0 30 -67 30h-43v138h518v-138h-43q-44 0 -87.5 -22t-109.5 -82l-225 -207l262 -272q103 -109 190 -109h43v-137 h-608v137h43q78 0 78 29q0 20 -29 49l-147 152l-170 -154q-37 -34 -37 -46.5t16 -21t41 -8.5h80v-137h-553z" />
<glyph unicode="y" horiz-adv-x="1196" d="M-10 -197.5q0 95.5 46.5 146.5t115 51t108 -38t39.5 -96.5t-36 -91t-101 -32.5h-12q39 -49 111.5 -49t135.5 70.5t127 236.5l-315 705q-30 68 -65.5 96t-88.5 28h-61v138h594v-138h-72q-70 0 -70 -49q2 -25 11 -45l190 -446l168 428q14 37 14 63t-19.5 37.5t-70.5 11.5 h-55v138h494v-138h-45q-94 0 -152 -145l-227 -569q-136 -339 -235.5 -447t-233 -108t-214.5 73.5t-81 169z" />
<glyph unicode="z" horiz-adv-x="1032" d="M41 0v150l623 679h-215q-130 0 -175 -58t-47 -232h-145v428h864v-154l-612 -676h178q180 0 231.5 59.5t59.5 264.5h143v-461h-905z" />
<glyph unicode="{" d="M178 602v68q159 15 216 76t57 223v200q0 200 84.5 273.5t314.5 73.5v-57q-128 -2 -175.5 -55t-47.5 -210v-137q0 -225 -56.5 -307.5t-208.5 -114.5q152 -32 208.5 -114.5t56.5 -307.5v-137q0 -157 47 -209t176 -54v-57h-10q-222 0 -305.5 74t-83.5 272v201 q0 161 -58 223.5t-215 75.5z" />
<glyph unicode="|" d="M424 -483v2048h178v-2048h-178z" />
<glyph unicode="}" d="M174 -187q129 2 176 54t47 209v137q0 227 56.5 308.5t208.5 113.5q-151 32 -208 113.5t-57 308.5v137q0 157 -47.5 210t-175.5 55v57h10q223 0 307 -74.5t84 -272.5v-200q0 -162 57 -223t216 -76v-68q-157 -13 -215 -74.5t-58 -224.5v-201q0 -197 -84 -271.5t-307 -74.5 h-10v57z" />
<glyph unicode="~" horiz-adv-x="1706" d="M178 434v187q211 143 387 143q138 0 336 -75q164 -58 250 -58q166 0 379 153v-184q-205 -141 -381 -141q-94 0 -191 35q-25 8 -76 26q-212 74 -319 74q-158 0 -385 -160z" />
<glyph unicode="&#xa1;" horiz-adv-x="639" d="M166 135q0 36 35.5 317.5t56.5 534.5h127q18 -253 51 -535t33 -319q0 -88 -36.5 -129t-115 -41t-115 41.5t-36.5 130.5zM170 1263.5q0 64.5 43.5 108t108 43.5t109 -44t44.5 -107.5t-45 -108.5t-109 -45t-107.5 44.5t-43.5 109z" />
<glyph unicode="&#xa2;" horiz-adv-x="1280" d="M154 518q0 233 148.5 377.5t389.5 144.5q119 0 221 -49l93 180h120l-122 -237q88 -94 88 -182.5t-45.5 -138.5t-107 -50t-110.5 35l-208 -407q33 -7 69 -7q202 0 234 254h161q-12 -213 -122.5 -325.5t-307.5 -112.5q-62 0 -126 10l-111 -215h-121l127 250 q-270 137 -270 473zM432 522q0 -202 92 -282l277 532q37 49 98 57q-87 74 -206.5 74t-190 -100t-70.5 -281z" />
<glyph unicode="&#xa3;" horiz-adv-x="1280" d="M90 137q112 76 162.5 165.5t50.5 209.5q0 33 -2 49h-203v115h168q-84 166 -84 256q0 158 137 254t354 96t353.5 -89t136.5 -218q0 -79 -48.5 -128.5t-120 -49.5t-115 38.5t-43.5 96.5q0 92 106 131q-96 90 -211.5 90t-181.5 -55.5t-66 -129.5t87 -284q2 -5 4 -8h257v-115 h-243q-10 -188 -178 -295l8 -16q116 55 191 55t194 -52t155 -52q113 0 119 200h111l2 -47q0 -186 -76.5 -288.5t-216.5 -102.5q-77 0 -208 57q-22 10 -30.5 13.5t-17.5 7.5q-136 55 -213 55q-137 0 -260 -125z" />
<glyph unicode="&#xa4;" horiz-adv-x="1241" d="M76 432l203 205q-80 106 -80 247t80 249l-203 204l92 93l203 -203q110 82 250 82q143 0 251 -82l203 203l94 -93l-204 -204q79 -109 79 -249t-79 -247l204 -205l-94 -92l-203 205q-111 -82 -252 -82t-249 82l-203 -205zM332 884.5q0 -119.5 84.5 -204t206 -84.5t206 84.5 t84.5 204t-85.5 205.5t-205 86t-205 -86t-85.5 -205.5z" />
<glyph unicode="&#xa5;" horiz-adv-x="1372" d="M-27 1098v141h674v-141h-94q-84 0 -84 -37q0 -21 27 -62l213 -309l241 319q23 34 23 56q0 33 -66 33h-114v141h598v-141h-43q-50 0 -82 -16.5t-70 -65.5l-123 -160h250v-119h-342l-119 -151h461v-119h-510v-211q0 -74 21.5 -94.5t105.5 -20.5h113v-141h-750v141h111 q86 0 107.5 20t21.5 95v211h-494v119h449l-109 151h-340v119h254l-80 115q-50 71 -92 99t-94 28h-64z" />
<glyph unicode="&#xa6;" d="M424 -350v758h178v-758h-178zM424 674v758h178v-758h-178z" />
<glyph unicode="&#xa7;" horiz-adv-x="1214" d="M96 500q0 218 258 317q-174 116 -174 265t125.5 241t314.5 92t295.5 -67t106.5 -170q0 -66 -39.5 -109t-99 -43t-100 37.5t-40.5 97t70 109.5q-99 37 -198 37t-168.5 -49.5t-69.5 -121t38.5 -109.5t157.5 -83l254 -94q142 -53 217.5 -138t75.5 -190q0 -196 -254 -309 q97 -55 142 -120.5t45 -151.5q0 -170 -132 -276.5t-329 -106.5t-318.5 79t-121.5 191q0 67 44.5 113.5t107 46.5t102.5 -36.5t40 -88t-21 -80.5t-73 -51q102 -58 220.5 -58t196 59t77.5 161q0 70 -43.5 113.5t-157.5 82.5l-166 60q-226 78 -304.5 157t-78.5 193zM291 572.5 q0 -65.5 31.5 -102t107.5 -67.5l293 -116q201 35 201 174q0 65 -39.5 108.5t-126.5 75.5l-260 96q-99 -10 -153 -56.5t-54 -112z" />
<glyph unicode="&#xa8;" d="M172 1297q0 59 43.5 102t102 43t100 -42t41.5 -103t-40 -101.5t-101 -40.5t-103.5 41.5t-42.5 100.5zM563 1297q0 59 43 102t101.5 43t100.5 -42.5t42 -103t-40.5 -101t-102 -40.5t-103 41.5t-41.5 100.5z" />
<glyph unicode="&#xa9;" horiz-adv-x="1683" d="M121 678q0 297 211 510q102 102 235 157.5t275 55.5t274.5 -55.5t233.5 -156.5t157 -234.5t56 -276t-55.5 -274.5t-157.5 -235q-206 -210 -508 -210q-297 0 -508 209q-213 213 -213 510zM219 678q0 -258 184 -442q183 -183 439 -183q259 0 438 183q88 89 136 204.5 t48 238.5t-48 240.5t-135 204t-201 134t-238 47.5t-239 -48t-203 -137q-181 -186 -181 -442zM416 671q0 183 119.5 308t295.5 125q80 0 154 -33t78 -33q28 0 41.5 14t19.5 48h41l2 -320h-47q-32 134 -102 203.5t-179 69.5t-169 -94t-60 -276.5t65 -280t189 -97.5 q163 0 277 174l43 -26q-124 -213 -350 -213q-177 0 -297.5 124t-120.5 307z" />
<glyph unicode="&#xaa;" horiz-adv-x="874" d="M41 855.5q0 79.5 53 128.5q68 62 278 109q67 15 92 31q48 29 48 88q0 111 -158 111q-96 0 -147 -43h6q46 0 71 -20.5t25 -59.5t-29.5 -64.5t-81.5 -25.5t-86 31.5t-34 81.5q0 80 81.5 129t188.5 49q275 0 326 -118q18 -42 18 -140v-301q0 -49 35 -49q27 0 37 26.5 t10 130.5h94v-28q0 -133 -45 -191.5t-145 -58.5q-135 0 -168 108q-90 -108 -248 -108q-98 0 -159.5 52t-61.5 131.5zM250 874q0 -81 94 -81q75 0 119.5 47.5t44.5 130.5v82q-30 -13 -82 -34q-176 -71 -176 -145z" />
<glyph unicode="&#xab;" horiz-adv-x="995" d="M127 489q0 70 109 226l81 116h148l-59 -139q-60 -139 -60 -203q0 -63 60 -202l59 -140h-148l-81 119q-109 158 -109 223zM528 489q0 67 109 226l82 116h147l-57 -139q-59 -137 -59 -203q0 -65 59 -202l57 -140h-147l-82 119q-109 158 -109 223z" />
<glyph unicode="&#xac;" horiz-adv-x="1706" d="M254 696v166h1198v-502h-166v336h-1032z" />
<glyph unicode="&#xad;" horiz-adv-x="707" d="M76 381v217h555v-217h-555z" />
<glyph unicode="&#xae;" horiz-adv-x="1683" d="M121 678q0 143 54.5 275t156.5 234.5t235 158t277 55.5t279 -57t234 -159.5t152.5 -236t53.5 -275t-59.5 -276t-163.5 -237.5q-204 -201 -513 -201q-135 0 -264 54.5t-231 156.5q-211 209 -211 508zM219 678q0 -258 184 -442q183 -183 439 -183q259 0 440.5 184.5 t181.5 440.5q0 122 -48.5 240t-135 205t-200.5 134.5t-238 47.5t-239 -48t-203 -137q-181 -185 -181 -442zM467 287v46q64 4 88.5 24.5t24.5 72.5v520q0 52 -23.5 72t-89.5 25v49h399q145 0 232.5 -55t87.5 -140.5t-65.5 -134.5t-217.5 -76q96 -25 147 -73q68 -63 80 -194 q9 -91 54 -91q59 0 59 133h49v-23q0 -174 -170 -174q-95 0 -133 58q-24 39 -27 111.5t-8 93.5q-31 145 -182 145h-24v-246q0 -49 22.5 -69.5t85.5 -26.5v-47h-389zM748 723q28 -2 53 -2q100 0 154.5 44t54.5 120t-46.5 120t-131 44t-84.5 -68v-258z" />
<glyph unicode="&#xaf;" d="M205 1214v168h614v-168h-614z" />
<glyph unicode="&#xb0;" horiz-adv-x="674" d="M43 1163.5q0 124.5 86 210.5t209 86t209 -87t86 -209t-87 -209t-210 -87t-208 85.5t-85 210zM152 1165.5q0 -76.5 54.5 -131.5t131.5 -55t130.5 54.5t53.5 131.5t-53.5 131t-130.5 54t-131.5 -54t-54.5 -130.5z" />
<glyph unicode="&#xb1;" horiz-adv-x="1706" d="M254 14v168h1198v-168h-1198zM254 707v165h514v334h170v-334h514v-165h-514v-334h-170v334h-514z" />
<glyph unicode="&#xb2;" horiz-adv-x="846" d="M59 528q0 97 46.5 166t146.5 121q42 22 106.5 49.5t95.5 42t54.5 52t23.5 91t-52 94t-122 40.5q-131 0 -181 -96q16 6 52.5 6t61 -21.5t24.5 -62t-29.5 -68t-81.5 -27.5t-89 36.5t-37 92.5q0 93 92 159.5t236.5 66.5t237.5 -66.5t93 -168.5t-58 -154t-204 -84l-3 -1 q-239 -55 -296 -159q56 31 113.5 31t151 -19.5t138.5 -19.5q92 0 103 139h76v-18q0 -129 -55.5 -200t-153.5 -71q-87 0 -190 49.5t-144 49.5q-66 0 -76 -82h-78q-2 12 -2 32z" />
<glyph unicode="&#xb3;" horiz-adv-x="846" d="M63 686q0 53 34.5 86t86 33t80.5 -25.5t29 -66.5t-28 -65.5t-75 -24.5h-10q72 -60 172 -60t152.5 39.5t52.5 108.5q0 143 -199 143h-26v90h14q199 0 199 119q0 58 -45 92.5t-106 34.5q-103 0 -164 -45q37 -3 59 -25t22 -58.5t-29.5 -60.5t-77.5 -24t-79 28t-31 72 q0 81 92.5 137t235 56t230 -53t87.5 -138q0 -139 -202 -176q225 -36 225 -194q0 -105 -101 -167.5t-258 -62.5t-248.5 59t-91.5 148z" />
<glyph unicode="&#xb4;" d="M299 1114l279 295q89 96 145.5 96t88.5 -31.5t32 -72t-24.5 -69t-80.5 -56.5l-325 -162h-115z" />
<glyph unicode="&#xb5;" horiz-adv-x="1184" d="M-109 -317q0 50 69 280.5t108 409.5l108 512h207l-100 -467q-21 -97 -21 -150t37 -90t113 -37q157 0 204 221l111 523h209l-113 -533q-18 -90 -18 -128.5t22.5 -62.5t62.5 -24q78 0 130 90q9 17 28.5 63t43.5 46t24 -29.5t-17 -87t-49 -115t-86.5 -93.5t-131 -36t-122 55 t-47.5 156q-85 -211 -266 -211q-99 0 -156.5 58t-68.5 168q-23 -124 -48 -315q-39 -306 -134 -306q-47 0 -73 26.5t-26 76.5z" />
<glyph unicode="&#xb6;" d="M55 1134q0 154 107 249.5t284 95.5h523v-99h-117v-1380h-129v1380h-168v-1380h-131v784q-168 6 -268.5 101t-100.5 249z" />
<glyph unicode="&#xb7;" horiz-adv-x="639" d="M166 724.5q0 63.5 44.5 108t109 44.5t108 -43.5t43.5 -108.5t-43.5 -109.5t-107.5 -44.5t-109 45t-45 108.5z" />
<glyph unicode="&#xb8;" d="M209 -379l47 103q134 -78 244 -78q35 0 57.5 21t22.5 54q0 82 -93 82q-29 0 -61 -8v203h88v-114q45 5 68 5q86 0 135 -45t49 -127t-59 -134t-141.5 -52t-158.5 19.5t-198 70.5z" />
<glyph unicode="&#xb9;" horiz-adv-x="844" d="M190 500v88h62q68 0 86 13.5t18 60.5v393h-166l1 86q99 5 152.5 31t82.5 83h109v-598q0 -44 15 -56.5t79 -12.5h69v-88h-508z" />
<glyph unicode="&#xba;" horiz-adv-x="905" d="M43 1037q0 165 112 264.5t297.5 99.5t297.5 -100t112 -264t-112 -263.5t-297.5 -99.5t-297.5 99t-112 264zM252 1037q0 -261 200.5 -261t200.5 261t-200.5 261t-200.5 -261z" />
<glyph unicode="&#xbb;" horiz-adv-x="995" d="M127 147l57 140q60 139 60 202q0 64 -60 203l-57 139h147l80 -116q111 -160 111 -226q0 -64 -111 -223l-80 -119h-147zM528 147l58 140q61 148 61 188q0 69 -61 217l-58 139h148l82 -116q108 -158 108 -226q0 -66 -108 -223l-82 -119h-148z" />
<glyph unicode="&#xbc;" horiz-adv-x="1954" d="M182 549v82h58q65 0 82.5 12t17.5 55v369h-158l1 80q94 5 145 29.5t78 76.5h104v-557q0 -42 15 -53.5t77 -11.5h66v-82h-486zM463 -35l862 1317h162l-869 -1317h-155zM1194 195v86l428 424h127v-412h149v-98h-149v-50q0 -37 17 -50t61 -13h71v-82h-456v82h47 q63 0 79.5 10.5t16.5 52.5v50h-391zM1333 293h252l4 250z" />
<glyph unicode="&#xbd;" horiz-adv-x="1954" d="M182 549v82h58q65 0 82.5 12t17.5 55v369h-158l1 80q94 5 145 29.5t78 76.5h104v-557q0 -42 15 -53.5t77 -11.5h66v-82h-486zM463 -35l862 1317h162l-869 -1317h-155zM1204 -4v31q0 91 44 155t138 111q41 21 103.5 47t91.5 40t51.5 49t22.5 84.5t-49.5 86.5t-117.5 37 q-128 0 -171 -88q20 6 51 6t55.5 -21t24.5 -58t-28.5 -62t-78.5 -25t-84 34t-34 87q0 86 86.5 147.5t224.5 61.5t226.5 -62t88.5 -157.5t-55 -143.5q-59 -53 -205 -82q-222 -51 -274 -147q54 31 108.5 31t143.5 -18.5t132 -18.5q88 0 99 129h72v-17q0 -120 -52.5 -186.5 t-146.5 -66.5q-90 0 -210 60q-73 34 -109 34q-62 0 -72 -78h-76z" />
<glyph unicode="&#xbe;" horiz-adv-x="1956" d="M61 723q0 50 33 80.5t82.5 30.5t77 -24t27.5 -62t-27.5 -61t-71.5 -23h-10q66 -56 163 -56t147 37t50 100q0 134 -190 134h-25v84h13q98 0 144 27t46 82.5t-43.5 88.5t-100.5 33q-97 0 -158 -43q37 -3 58 -23t21 -54t-29 -57.5t-74.5 -23.5t-75.5 26.5t-30 67.5 q0 76 88.5 128.5t225 52.5t221 -50t84.5 -128q0 -130 -195 -164q215 -34 215 -183q0 -97 -96 -156t-246 -59t-237 56t-87 139zM465 -35l862 1317h162l-868 -1317h-156zM1196 195v86l428 424h127v-412h150v-98h-150v-50q0 -37 17 -50t61 -13h72v-82h-457v82h47 q63 0 79.5 10.5t16.5 52.5v50h-391zM1335 293h252l4 250z" />
<glyph unicode="&#xbf;" horiz-adv-x="1026" d="M45 332q0 100 50.5 176.5t191.5 177.5t178 158.5t37 134.5v10h131q4 -60 4 -69q0 -80 -26.5 -144t-68.5 -112t-78 -87q-126 -135 -126 -234.5t71 -163.5t183 -64t182 66t74 173q-59 -49 -115 -49t-93.5 38t-37.5 100t50 108.5t130.5 46.5t140.5 -72.5t60 -181.5 q0 -164 -128.5 -271.5t-334.5 -107.5t-340.5 104t-134.5 263zM420 1263.5q0 64.5 43.5 108t108 43.5t109 -44t44.5 -107.5t-45 -108.5t-109 -45t-107.5 44.5t-43.5 109z" />
<glyph unicode="&#xc0;" horiz-adv-x="1475" d="M-29 0v156h43q78 0 116.5 27.5t66.5 105.5l383 1085h288l410 -1085q35 -95 64.5 -114t101.5 -19h41v-156h-711v156h111q67 0 90.5 11.5t23.5 32.5q0 30 -18 76l-59 162h-453l-59 -173q-2 -7 -9.5 -28.5t-7.5 -41t19.5 -29.5t91.5 -10h106v-156h-639zM405 1809 q0 45 32 76.5t73 31.5t76.5 -21.5t84.5 -74.5l279 -295h-115l-325 162q-105 52 -105 121zM526 600h340l-178 475z" />
<glyph unicode="&#xc1;" horiz-adv-x="1475" d="M-29 0v156h43q78 0 116.5 27.5t66.5 105.5l383 1085h288l410 -1085q35 -95 64.5 -114t101.5 -19h41v-156h-711v156h111q67 0 90.5 11.5t23.5 32.5q0 30 -18 76l-59 162h-453l-59 -173q-2 -7 -9.5 -28.5t-7.5 -41t19.5 -29.5t91.5 -10h106v-156h-639zM524 1526l279 295 q89 96 145.5 96t88.5 -31.5t32 -72t-24.5 -69t-80.5 -56.5l-325 -162h-115zM526 600h340l-178 475z" />
<glyph unicode="&#xc2;" horiz-adv-x="1475" d="M-29 0v156h43q78 0 116.5 27.5t66.5 105.5l383 1085h288l410 -1085q35 -95 64.5 -114t101.5 -19h41v-156h-711v156h111q67 0 90.5 11.5t23.5 32.5q0 30 -18 76l-59 162h-453l-59 -173q-2 -7 -9.5 -28.5t-7.5 -41t19.5 -29.5t91.5 -10h106v-156h-639zM415 1526l230 371 h184l230 -371h-101l-221 170l-221 -170h-101zM526 600h340l-178 475z" />
<glyph unicode="&#xc3;" horiz-adv-x="1475" d="M-29 0v156h43q78 0 116.5 27.5t66.5 105.5l383 1085h288l410 -1085q35 -95 64.5 -114t101.5 -19h41v-156h-711v156h111q67 0 90.5 11.5t23.5 32.5q0 30 -18 76l-59 162h-453l-59 -173q-2 -7 -9.5 -28.5t-7.5 -41t19.5 -29.5t91.5 -10h106v-156h-639zM409 1557 q27 134 83.5 199t148.5 65q41 0 77 -10l121 -31q5 -1 20.5 -4.5t39.5 -3.5q54 0 82 92h82q-53 -266 -228 -266q-27 0 -69 10l-117 33q-40 10 -57 10q-79 0 -99 -94h-84zM526 600h340l-178 475z" />
<glyph unicode="&#xc4;" horiz-adv-x="1475" d="M-29 0v156h43q78 0 116.5 27.5t66.5 105.5l383 1085h288l410 -1085q35 -95 64.5 -114t101.5 -19h41v-156h-711v156h111q67 0 90.5 11.5t23.5 32.5q0 30 -18 76l-59 162h-453l-59 -173q-2 -7 -9.5 -28.5t-7.5 -41t19.5 -29.5t91.5 -10h106v-156h-639zM397 1709 q0 59 43.5 102t102 43t100 -42t41.5 -103t-40 -101.5t-101 -40.5t-103.5 41.5t-42.5 100.5zM526 600h340l-178 475zM788 1709q0 59 43 102t101.5 43t100.5 -42.5t42 -103t-40.5 -101t-102 -40.5t-103 41.5t-41.5 100.5z" />
<glyph unicode="&#xc5;" horiz-adv-x="1475" d="M-29 0v156h43q78 0 116.5 27.5t66.5 105.5l383 1085h288l410 -1085q35 -95 64.5 -114t101.5 -19h41v-156h-711v156h111q67 0 90.5 11.5t23.5 32.5q0 30 -18 76l-59 162h-453l-59 -173q-2 -7 -9.5 -28.5t-7.5 -41t19.5 -29.5t91.5 -10h106v-156h-639zM459 1705.5 q0 112.5 76.5 189.5t187.5 77t188.5 -77.5t77.5 -189t-77 -188.5t-189 -77t-188 76.5t-76 189zM526 600h340l-178 475zM590 1706q0 -57 38 -96t95 -39t96 39t39 96t-39 96t-95.5 39t-95 -39t-38.5 -96z" />
<glyph unicode="&#xc6;" horiz-adv-x="2263" d="M-35 0v156h33q132 0 205 133l434 803q1 2 16 27.5t15 51.5t-24.5 37t-98.5 11h-96v155h1652v-547h-157q-6 236 -76.5 314t-284.5 78h-330v-422h78q128 0 168 44t49 206h158v-689l-158 1q-9 178 -48.5 229t-166.5 51h-80v-483h359q179 0 246.5 83.5t85.5 342.5h157v-582 h-1362v156h97q91 0 113 21.5t22 105.5v200h-424q-101 -193 -122.5 -234.5t-21.5 -55.5q0 -37 91 -37h96v-156h-625zM629 639h342v580h-41z" />
<glyph unicode="&#xc7;" horiz-adv-x="1450" d="M74 688q0 318 213 531q196 196 475 196q215 0 399 -141l41 123h148v-563h-158q-24 197 -126.5 305t-278 108t-283 -151t-107.5 -411.5t107 -399t301 -138.5q151 0 245 98.5t124 286.5h176q-20 -274 -168.5 -423.5t-401.5 -149.5q-302 0 -491 191q-215 213 -215 538z M432 -379l47 103q134 -78 244 -78q35 0 57.5 21t22.5 54q0 82 -93 82q-29 0 -61 -8v203h88v-114q45 5 68 5q86 0 135 -45t49 -127t-59 -134t-141.5 -52t-158.5 19.5t-198 70.5z" />
<glyph unicode="&#xc8;" horiz-adv-x="1546" d="M47 0v156h80q91 0 113 21.5t22 105.5v809q0 84 -22 105.5t-113 21.5h-80v155h1352v-547h-156q-6 235 -76.5 313.5t-285.5 78.5h-330v-422h78q129 0 169 44.5t50 204.5l156 1v-689l-156 1q-9 177 -49 228.5t-168 51.5h-80v-483h360q180 0 247 83.5t85 342.5h156v-582 h-1352zM432 1809q0 45 32 76.5t73 31.5t76.5 -21.5t84.5 -74.5l279 -295h-115l-325 162q-105 52 -105 121z" />
<glyph unicode="&#xc9;" horiz-adv-x="1546" d="M47 0v156h80q91 0 113 21.5t22 105.5v809q0 84 -22 105.5t-113 21.5h-80v155h1352v-547h-156q-6 235 -76.5 313.5t-285.5 78.5h-330v-422h78q129 0 169 44.5t50 204.5l156 1v-689l-156 1q-9 177 -49 228.5t-168 51.5h-80v-483h360q180 0 247 83.5t85 342.5h156v-582 h-1352zM551 1526l279 295q89 96 145.5 96t88.5 -31.5t32 -72t-24.5 -69t-80.5 -56.5l-325 -162h-115z" />
<glyph unicode="&#xca;" horiz-adv-x="1546" d="M47 0v156h80q91 0 113 21.5t22 105.5v809q0 84 -22 105.5t-113 21.5h-80v155h1352v-547h-156q-6 235 -76.5 313.5t-285.5 78.5h-330v-422h78q129 0 169 44.5t50 204.5l156 1v-689l-156 1q-9 177 -49 228.5t-168 51.5h-80v-483h360q180 0 247 83.5t85 342.5h156v-582 h-1352zM442 1526l230 371h184l230 -371h-101l-221 170l-221 -170h-101z" />
<glyph unicode="&#xcb;" horiz-adv-x="1546" d="M47 0v156h80q91 0 113 21.5t22 105.5v809q0 84 -22 105.5t-113 21.5h-80v155h1352v-547h-156q-6 235 -76.5 313.5t-285.5 78.5h-330v-422h78q129 0 169 44.5t50 204.5l156 1v-689l-156 1q-9 177 -49 228.5t-168 51.5h-80v-483h360q180 0 247 83.5t85 342.5h156v-582 h-1352zM424 1709q0 59 43.5 102t102 43t100 -42t41.5 -103t-40 -101.5t-101 -40.5t-103.5 41.5t-42.5 100.5zM815 1709q0 59 43 102t101.5 43t100.5 -42.5t42 -103t-40.5 -101t-102 -40.5t-103 41.5t-41.5 100.5z" />
<glyph unicode="&#xcc;" horiz-adv-x="844" d="M51 0v156h88q91 0 113 21.5t22 105.5v809q0 84 -22 105.5t-113 21.5h-88v155h742v-155h-88q-92 0 -114 -21.5t-22 -105.5v-809q0 -84 22 -105.5t114 -21.5h88v-156h-742zM90 1809q0 45 32 76.5t73 31.5t76.5 -21.5t84.5 -74.5l279 -295h-115l-325 162q-105 52 -105 121z " />
<glyph unicode="&#xcd;" horiz-adv-x="844" d="M51 0v156h88q91 0 113 21.5t22 105.5v809q0 84 -22 105.5t-113 21.5h-88v155h742v-155h-88q-92 0 -114 -21.5t-22 -105.5v-809q0 -84 22 -105.5t114 -21.5h88v-156h-742zM209 1526l279 295q89 96 145.5 96t88.5 -31.5t32 -72t-24.5 -69t-80.5 -56.5l-325 -162h-115z" />
<glyph unicode="&#xce;" horiz-adv-x="844" d="M51 0v156h88q91 0 113 21.5t22 105.5v809q0 84 -22 105.5t-113 21.5h-88v155h742v-155h-88q-92 0 -114 -21.5t-22 -105.5v-809q0 -84 22 -105.5t114 -21.5h88v-156h-742zM100 1526l230 371h184l230 -371h-101l-221 170l-221 -170h-101z" />
<glyph unicode="&#xcf;" horiz-adv-x="844" d="M51 0v156h88q91 0 113 21.5t22 105.5v809q0 84 -22 105.5t-113 21.5h-88v155h742v-155h-88q-92 0 -114 -21.5t-22 -105.5v-809q0 -84 22 -105.5t114 -21.5h88v-156h-742zM82 1709q0 59 43.5 102t102 43t100 -42t41.5 -103t-40 -101.5t-101 -40.5t-103.5 41.5t-42.5 100.5 zM473 1709q0 59 43 102t101.5 43t100.5 -42.5t42 -103t-40.5 -101t-102 -40.5t-103 41.5t-41.5 100.5z" />
<glyph unicode="&#xd0;" horiz-adv-x="1671" d="M2 635v141h270v316q0 84 -22 105.5t-113 21.5h-80v155h781q359 0 544 -174t185 -512t-185 -513t-544 -175h-781v156h80q91 0 113 21.5t22 105.5v352h-270zM561 156h178q162 0 243 25t138.5 84.5t90 171.5t32.5 251t-32.5 250t-90 170.5t-138.5 85t-243 25.5h-178v-443 h346v-141h-346v-479z" />
<glyph unicode="&#xd1;" horiz-adv-x="1683" d="M25 0v156h96q91 0 113 21.5t22 105.5v809q0 84 -22 105.5t-113 21.5h-88v155h588l608 -997v715q0 84 -22 105.5t-113 21.5h-97v155h650v-155h-66q-92 0 -114.5 -22t-22.5 -105v-1092h-289l-682 1120v-837q0 -84 22 -105.5t113 -21.5h94v-156h-677zM514 1557 q27 134 83.5 199t148.5 65q41 0 77 -10l121 -31q5 -1 20.5 -4.5t39.5 -3.5q54 0 82 92h82q-53 -266 -228 -266q-27 0 -69 10l-117 33q-40 10 -57 10q-79 0 -99 -94h-84z" />
<glyph unicode="&#xd2;" horiz-adv-x="1661" d="M74 688q0 326 208.5 525.5t549 199.5t548 -199.5t207.5 -526t-208 -526.5t-548 -200t-548.5 200.5t-208.5 526.5zM397 688q0 -266 115 -414.5t319 -148.5t318.5 148t114.5 414.5t-114 414t-318.5 147.5t-319.5 -147.5t-115 -413.5zM499 1809q0 45 32 76.5t73 31.5 t76.5 -21.5t84.5 -74.5l279 -295h-115l-325 162q-105 52 -105 121z" />
<glyph unicode="&#xd3;" horiz-adv-x="1661" d="M74 688q0 326 208.5 525.5t549 199.5t548 -199.5t207.5 -526t-208 -526.5t-548 -200t-548.5 200.5t-208.5 526.5zM397 688q0 -266 115 -414.5t319 -148.5t318.5 148t114.5 414.5t-114 414t-318.5 147.5t-319.5 -147.5t-115 -413.5zM618 1526l279 295q89 96 145.5 96 t88.5 -31.5t32 -72t-24.5 -69t-80.5 -56.5l-325 -162h-115z" />
<glyph unicode="&#xd4;" horiz-adv-x="1661" d="M74 688q0 326 208.5 525.5t549 199.5t548 -199.5t207.5 -526t-208 -526.5t-548 -200t-548.5 200.5t-208.5 526.5zM397 688q0 -266 115 -414.5t319 -148.5t318.5 148t114.5 414.5t-114 414t-318.5 147.5t-319.5 -147.5t-115 -413.5zM509 1526l230 371h184l230 -371h-101 l-221 170l-221 -170h-101z" />
<glyph unicode="&#xd5;" horiz-adv-x="1661" d="M74 688q0 326 208.5 525.5t549 199.5t548 -199.5t207.5 -526t-208 -526.5t-548 -200t-548.5 200.5t-208.5 526.5zM397 688q0 -266 115 -414.5t319 -148.5t318.5 148t114.5 414.5t-114 414t-318.5 147.5t-319.5 -147.5t-115 -413.5zM503 1557q27 134 83.5 199t148.5 65 q41 0 77 -10l121 -31q5 -1 20.5 -4.5t39.5 -3.5q54 0 82 92h82q-53 -266 -228 -266q-27 0 -69 10l-117 33q-40 10 -57 10q-79 0 -99 -94h-84z" />
<glyph unicode="&#xd6;" horiz-adv-x="1661" d="M74 688q0 326 208.5 525.5t549 199.5t548 -199.5t207.5 -526t-208 -526.5t-548 -200t-548.5 200.5t-208.5 526.5zM397 688q0 -266 115 -414.5t319 -148.5t318.5 148t114.5 414.5t-114 414t-318.5 147.5t-319.5 -147.5t-115 -413.5zM491 1709q0 59 43.5 102t102 43 t100 -42t41.5 -103t-40 -101.5t-101 -40.5t-103.5 41.5t-42.5 100.5zM882 1709q0 59 43 102t101.5 43t100.5 -42.5t42 -103t-40.5 -101t-102 -40.5t-103 41.5t-41.5 100.5z" />
<glyph unicode="&#xd7;" horiz-adv-x="1706" d="M287 152l458 458l-458 461l116 117l459 -459l461 459l117 -117l-459 -461l459 -458l-117 -119l-461 461l-459 -461z" />
<glyph unicode="&#xd8;" horiz-adv-x="1661" d="M74 707q0 311 223 518q204 188 534 188q253 0 453 -131l150 162l98 -98l-139 -150q194 -221 194 -508q0 -327 -208 -527t-548 -200q-264 0 -460 135l-152 -162l-98 99l143 153q-190 241 -190 521zM397 711q0 -152 49 -326l687 735q-133 129 -317.5 129t-301.5 -144.5 t-117 -393.5zM524 262q123 -137 316.5 -137t308.5 146.5t115 406.5q0 186 -54 323z" />
<glyph unicode="&#xd9;" horiz-adv-x="1565" d="M43 1219v155h715v-155h-88q-93 0 -115.5 -22t-22.5 -105v-658q0 -144 67 -208t216 -64q285 0 285 272v658q0 84 -22 105.5t-113 21.5h-80v155h637v-155h-64q-91 0 -113 -21.5t-22 -105.5v-658q0 -232 -139 -353.5t-403 -121.5t-400.5 121t-136.5 354v658q0 84 -22 105.5 t-113 21.5h-66zM502 1809q0 45 32 76.5t73 31.5t76.5 -21.5t84.5 -74.5l279 -295h-115l-325 162q-105 52 -105 121z" />
<glyph unicode="&#xda;" horiz-adv-x="1565" d="M43 1219v155h715v-155h-88q-93 0 -115.5 -22t-22.5 -105v-658q0 -144 67 -208t216 -64q285 0 285 272v658q0 84 -22 105.5t-113 21.5h-80v155h637v-155h-64q-91 0 -113 -21.5t-22 -105.5v-658q0 -232 -139 -353.5t-403 -121.5t-400.5 121t-136.5 354v658q0 84 -22 105.5 t-113 21.5h-66zM621 1526l279 295q89 96 145.5 96t88.5 -31.5t32 -72t-24.5 -69t-80.5 -56.5l-325 -162h-115z" />
<glyph unicode="&#xdb;" horiz-adv-x="1565" d="M43 1219v155h715v-155h-88q-93 0 -115.5 -22t-22.5 -105v-658q0 -144 67 -208t216 -64q285 0 285 272v658q0 84 -22 105.5t-113 21.5h-80v155h637v-155h-64q-91 0 -113 -21.5t-22 -105.5v-658q0 -232 -139 -353.5t-403 -121.5t-400.5 121t-136.5 354v658q0 84 -22 105.5 t-113 21.5h-66zM512 1526l230 371h184l230 -371h-101l-221 170l-221 -170h-101z" />
<glyph unicode="&#xdc;" horiz-adv-x="1565" d="M43 1219v155h715v-155h-88q-93 0 -115.5 -22t-22.5 -105v-658q0 -144 67 -208t216 -64q285 0 285 272v658q0 84 -22 105.5t-113 21.5h-80v155h637v-155h-64q-91 0 -113 -21.5t-22 -105.5v-658q0 -232 -139 -353.5t-403 -121.5t-400.5 121t-136.5 354v658q0 84 -22 105.5 t-113 21.5h-66zM494 1709q0 59 43.5 102t102 43t100 -42t41.5 -103t-40 -101.5t-101 -40.5t-103.5 41.5t-42.5 100.5zM885 1709q0 59 43 102t101.5 43t100.5 -42.5t42 -103t-40.5 -101t-102 -40.5t-103 41.5t-41.5 100.5z" />
<glyph unicode="&#xdd;" horiz-adv-x="1501" d="M0 1219v155h727v-155h-100q-90 0 -90 -43q0 -26 28 -68l232 -322l245 334q27 38 27 62q0 37 -74 37h-121v155h637v-155h-47q-54 0 -87.5 -18.5t-71.5 -72.5l-410 -553v-292q0 -83 22.5 -105t114.5 -22h119v-156h-799v156h119q91 0 113 21.5t22 105.5v292l-340 502 q-54 80 -98 111t-100 31h-68zM539 1526l279 295q89 96 145.5 96t88.5 -31.5t32 -72t-24.5 -69t-80.5 -56.5l-325 -162h-115z" />
<glyph unicode="&#xde;" horiz-adv-x="1403" d="M47 0v156h80q91 0 113 22t22 105v809q0 82 -23 104.5t-112 22.5h-80v155h721v-155h-80q-91 0 -114 -22.5t-23 -104.5v-27h219q306 0 414 -74q68 -46 107.5 -127.5t39.5 -179.5q0 -204 -155 -303q-110 -72 -435 -72h-190v-26q0 -83 22.5 -105t114.5 -22h80v-156h-721z M551 467h137q189 0 265.5 50.5t76.5 171.5t-72.5 169.5t-285.5 48.5h-121v-440z" />
<glyph unicode="&#xdf;" horiz-adv-x="1290" d="M43 0v137h53q70 0 93.5 22t23.5 101v709q0 218 113 330t326 112t336.5 -84t123.5 -221q0 -178 -252 -256q322 -76 322 -416q0 -217 -97 -343t-264 -126q-136 0 -198 78.5t-62 251.5l2 55h151q3 -136 21 -181.5t69.5 -45.5t74 59t22.5 245.5t-63 258.5t-236 72h-24v147h10 q134 0 195 44.5t61 133.5t-48 136t-143 47q-192 0 -192 -269v-997h-418z" />
<glyph unicode="&#xe0;" horiz-adv-x="1165" d="M55 224.5q0 113.5 70 182.5q88 87 370 156q90 22 123 43q64 42 64 123q0 162 -211 162q-125 0 -195 -60h7q60 0 94.5 -29.5t34.5 -85.5t-39.5 -92t-108 -36t-114.5 44.5t-46 115.5q0 114 108.5 185t289.5 71q328 0 396 -169q24 -60 24 -200v-430q0 -70 47 -70q37 0 50 39 t13 186h125v-43q0 -188 -59.5 -271t-194.5 -83q-178 0 -223 154q-119 -154 -332 -154q-129 0 -211 74t-82 187.5zM200 1397q0 45 32 76.5t73 31.5t76.5 -21.5t84.5 -74.5l279 -295h-115l-325 162q-105 52 -105 121zM332 252q0 -56 33 -86.5t94 -30.5q100 0 158.5 67.5 t58.5 186.5v117q-42 -20 -116 -51q-228 -99 -228 -203z" />
<glyph unicode="&#xe1;" horiz-adv-x="1165" d="M55 224.5q0 113.5 70 182.5q88 87 370 156q90 22 123 43q64 42 64 123q0 162 -211 162q-125 0 -195 -60h7q60 0 94.5 -29.5t34.5 -85.5t-39.5 -92t-108 -36t-114.5 44.5t-46 115.5q0 114 108.5 185t289.5 71q328 0 396 -169q24 -60 24 -200v-430q0 -70 47 -70q37 0 50 39 t13 186h125v-43q0 -188 -59.5 -271t-194.5 -83q-178 0 -223 154q-119 -154 -332 -154q-129 0 -211 74t-82 187.5zM319 1114l279 295q89 96 145.5 96t88.5 -31.5t32 -72t-24.5 -69t-80.5 -56.5l-325 -162h-115zM332 252q0 -56 33 -86.5t94 -30.5q100 0 158.5 67.5t58.5 186.5 v117q-42 -20 -116 -51q-228 -99 -228 -203z" />
<glyph unicode="&#xe2;" horiz-adv-x="1165" d="M55 224.5q0 113.5 70 182.5q88 87 370 156q90 22 123 43q64 42 64 123q0 162 -211 162q-125 0 -195 -60h7q60 0 94.5 -29.5t34.5 -85.5t-39.5 -92t-108 -36t-114.5 44.5t-46 115.5q0 114 108.5 185t289.5 71q328 0 396 -169q24 -60 24 -200v-430q0 -70 47 -70q37 0 50 39 t13 186h125v-43q0 -188 -59.5 -271t-194.5 -83q-178 0 -223 154q-119 -154 -332 -154q-129 0 -211 74t-82 187.5zM210 1114l230 371h184l230 -371h-101l-221 170l-221 -170h-101zM332 252q0 -56 33 -86.5t94 -30.5q100 0 158.5 67.5t58.5 186.5v117q-42 -20 -116 -51 q-228 -99 -228 -203z" />
<glyph unicode="&#xe3;" horiz-adv-x="1165" d="M55 224.5q0 113.5 70 182.5q88 87 370 156q90 22 123 43q64 42 64 123q0 162 -211 162q-125 0 -195 -60h7q60 0 94.5 -29.5t34.5 -85.5t-39.5 -92t-108 -36t-114.5 44.5t-46 115.5q0 114 108.5 185t289.5 71q328 0 396 -169q24 -60 24 -200v-430q0 -70 47 -70q37 0 50 39 t13 186h125v-43q0 -188 -59.5 -271t-194.5 -83q-178 0 -223 154q-119 -154 -332 -154q-129 0 -211 74t-82 187.5zM204 1145q27 134 83.5 199t148.5 65q41 0 77 -10l121 -31q5 -1 20.5 -4.5t39.5 -3.5q54 0 82 92h82q-53 -266 -228 -266q-27 0 -69 10l-117 33q-40 10 -57 10 q-79 0 -99 -94h-84zM332 252q0 -56 33 -86.5t94 -30.5q100 0 158.5 67.5t58.5 186.5v117q-42 -20 -116 -51q-228 -99 -228 -203z" />
<glyph unicode="&#xe4;" horiz-adv-x="1165" d="M55 224.5q0 113.5 70 182.5q88 87 370 156q90 22 123 43q64 42 64 123q0 162 -211 162q-125 0 -195 -60h7q60 0 94.5 -29.5t34.5 -85.5t-39.5 -92t-108 -36t-114.5 44.5t-46 115.5q0 114 108.5 185t289.5 71q328 0 396 -169q24 -60 24 -200v-430q0 -70 47 -70q37 0 50 39 t13 186h125v-43q0 -188 -59.5 -271t-194.5 -83q-178 0 -223 154q-119 -154 -332 -154q-129 0 -211 74t-82 187.5zM192 1297q0 59 43.5 102t102 43t100 -42t41.5 -103t-40 -101.5t-101 -40.5t-103.5 41.5t-42.5 100.5zM332 252q0 -56 33 -86.5t94 -30.5q100 0 158.5 67.5 t58.5 186.5v117q-42 -20 -116 -51q-228 -99 -228 -203zM583 1297q0 59 43 102t101.5 43t100.5 -42.5t42 -103t-40.5 -101t-102 -40.5t-103 41.5t-41.5 100.5z" />
<glyph unicode="&#xe5;" horiz-adv-x="1165" d="M55 224.5q0 113.5 70 182.5q88 87 370 156q90 22 123 43q64 42 64 123q0 162 -211 162q-125 0 -195 -60h7q60 0 94.5 -29.5t34.5 -85.5t-39.5 -92t-108 -36t-114.5 44.5t-46 115.5q0 114 108.5 185t289.5 71q328 0 396 -169q24 -60 24 -200v-430q0 -38 10.5 -54t41.5 -16 t44.5 39.5t13.5 185.5h125v-43q0 -188 -59.5 -271t-194.5 -83q-178 0 -223 154q-119 -154 -332 -154q-129 0 -211 74t-82 187.5zM258 1337q0 112 77.5 189.5t189 77.5t189 -77.5t77.5 -189.5t-77.5 -189t-189.5 -77t-189 77t-77 189zM332 252q0 -56 33 -86.5t94 -30.5 q100 0 158.5 67.5t58.5 186.5v117q-42 -20 -116 -51q-228 -99 -228 -203zM389 1337.5q0 -56.5 39 -96t96 -39.5t96 39.5t39 96t-39 96t-95.5 39.5t-96 -39.5t-39.5 -96z" />
<glyph unicode="&#xe6;" horiz-adv-x="1741" d="M55 223.5q0 117.5 75 186.5q89 83 382 151q215 48 215 162q0 82 -60.5 126t-172.5 44t-222 -62h7q61 0 96 -30t35 -85t-40.5 -91.5t-109 -36.5t-113.5 44.5t-45 115.5q0 115 110.5 185.5t313 70.5t361.5 -121q149 121 305 121q223 0 340 -138.5t117 -402.5h-691 q0 -336 261 -336q206 0 251 219h172q-26 -183 -139.5 -283t-296.5 -100q-135 0 -235.5 53t-182.5 166q-149 -219 -411 -219q-147 0 -234.5 71.5t-87.5 189zM330 254q0 -59 37.5 -93t101.5 -34q119 0 184.5 68.5t65.5 193.5v117q-59 -26 -159 -64q-230 -90 -230 -188z M967 608h409q-11 140 -56.5 199t-141.5 59q-187 0 -211 -258z" />
<glyph unicode="&#xe7;" horiz-adv-x="1053" d="M57 479.5q0 234.5 148.5 379.5t386.5 145q177 0 290 -85t113 -214q0 -80 -44.5 -127.5t-115.5 -47.5t-111 38.5t-40 95t33 91t86 40.5q-88 73 -207 73t-189.5 -101t-70.5 -282q0 -335 256 -335q206 0 235 251h158q-22 -436 -432 -436q-229 0 -362.5 140t-133.5 374.5z M223 -379l47 103q134 -78 244 -78q35 0 57.5 21t22.5 54q0 82 -93 82q-29 0 -61 -8v203h88v-114q45 5 68 5q86 0 135 -45t49 -127t-59 -134t-141.5 -52t-158.5 19.5t-198 70.5z" />
<glyph unicode="&#xe8;" horiz-adv-x="1092" d="M57 481.5q0 235.5 140.5 379t367.5 143.5t344 -138.5t117 -402.5h-690q6 -164 69.5 -250t180 -86t177 50.5t85.5 168.5h172q-22 -178 -142.5 -280.5t-308.5 -102.5q-234 0 -373 141.5t-139 377zM215 1397q0 45 32 76.5t73 31.5t76.5 -21.5t84.5 -74.5l279 -295h-115 l-325 162q-105 52 -105 121zM346 608h409q-9 134 -54.5 196t-134.5 62t-145.5 -65.5t-74.5 -192.5z" />
<glyph unicode="&#xe9;" horiz-adv-x="1092" d="M57 481.5q0 235.5 140.5 379t367.5 143.5t344 -138.5t117 -402.5h-690q6 -164 69.5 -250t180 -86t177 50.5t85.5 168.5h172q-22 -178 -142.5 -280.5t-308.5 -102.5q-234 0 -373 141.5t-139 377zM334 1114l279 295q89 96 145.5 96t88.5 -31.5t32 -72t-24.5 -69 t-80.5 -56.5l-325 -162h-115zM346 608h409q-9 134 -54.5 196t-134.5 62t-145.5 -65.5t-74.5 -192.5z" />
<glyph unicode="&#xea;" horiz-adv-x="1092" d="M57 481.5q0 235.5 140.5 379t367.5 143.5t344 -138.5t117 -402.5h-690q6 -164 69.5 -250t180 -86t177 50.5t85.5 168.5h172q-22 -178 -142.5 -280.5t-308.5 -102.5q-234 0 -373 141.5t-139 377zM225 1114l230 371h184l230 -371h-101l-221 170l-221 -170h-101zM346 608 h409q-9 134 -54.5 196t-134.5 62t-145.5 -65.5t-74.5 -192.5z" />
<glyph unicode="&#xeb;" horiz-adv-x="1092" d="M57 481.5q0 235.5 140.5 379t367.5 143.5t344 -138.5t117 -402.5h-690q6 -164 69.5 -250t180 -86t177 50.5t85.5 168.5h172q-22 -178 -142.5 -280.5t-308.5 -102.5q-234 0 -373 141.5t-139 377zM207 1297q0 59 43.5 102t102 43t100 -42t41.5 -103t-40 -101.5t-101 -40.5 t-103.5 41.5t-42.5 100.5zM346 608h409q-9 134 -54.5 196t-134.5 62t-145.5 -65.5t-74.5 -192.5zM598 1297q0 59 43 102t101.5 43t100.5 -42.5t42 -103t-40.5 -101t-102 -40.5t-103 41.5t-41.5 100.5z" />
<glyph unicode="&#xec;" horiz-adv-x="721" d="M14 1397q0 45 32 76.5t73 31.5t76.5 -21.5t84.5 -74.5l279 -295h-115l-325 162q-105 52 -105 121zM51 0v137h76q70 0 93.5 22t23.5 101v447q0 79 -23.5 100.5t-93.5 21.5h-76v138h443v-707q0 -78 23.5 -100.5t94.5 -22.5h62v-137h-623z" />
<glyph unicode="&#xed;" horiz-adv-x="721" d="M51 0v137h76q70 0 93.5 22t23.5 101v447q0 79 -23.5 100.5t-93.5 21.5h-76v138h443v-707q0 -78 23.5 -100.5t94.5 -22.5h62v-137h-623zM133 1114l279 295q89 96 145.5 96t88.5 -31.5t32 -72t-24.5 -69t-80.5 -56.5l-325 -162h-115z" />
<glyph unicode="&#xee;" horiz-adv-x="721" d="M24 1114l230 371h184l230 -371h-101l-221 170l-221 -170h-101zM51 0v137h76q70 0 93.5 22t23.5 101v447q0 79 -23.5 100.5t-93.5 21.5h-76v138h443v-707q0 -78 23.5 -100.5t94.5 -22.5h62v-137h-623z" />
<glyph unicode="&#xef;" horiz-adv-x="721" d="M6 1297q0 59 43.5 102t102 43t100 -42t41.5 -103t-40 -101.5t-101 -40.5t-103.5 41.5t-42.5 100.5zM51 0v137h76q70 0 93.5 22t23.5 101v447q0 79 -23.5 100.5t-93.5 21.5h-76v138h443v-707q0 -78 23.5 -100.5t94.5 -22.5h62v-137h-623zM397 1297q0 59 43 102t101.5 43 t100.5 -42.5t42 -103t-40.5 -101t-102 -40.5t-103 41.5t-41.5 100.5z" />
<glyph unicode="&#xf0;" horiz-adv-x="1206" d="M57 453q0 226 162 364q67 58 159.5 91.5t165.5 33.5q127 0 218 -33q-53 100 -162 232l-313 -150l-47 101l282 131q-81 81 -145 135l84 76q135 -89 205 -142l315 150l47 -99l-270 -129q391 -342 391 -733q0 -242 -145 -379t-397.5 -137t-401 133t-148.5 355zM336 461 q0 -361 266 -361q268 0 268 361q0 358 -268 358q-266 0 -266 -358z" />
<glyph unicode="&#xf1;" horiz-adv-x="1341" d="M47 0v137h68q70 0 93 22t23 101v447q0 79 -23 100.5t-93 21.5h-68v138h432v-170q160 200 331.5 200t244.5 -82t73 -274v-381q0 -79 23.5 -101t93.5 -22h60v-137h-582v137h41q70 0 93.5 22t23.5 101v381q0 107 -35.5 153t-116.5 46q-116 0 -183 -88t-67 -242v-250 q0 -79 23.5 -101t93.5 -22h41v-137h-590zM344 1145q27 134 83.5 199t148.5 65q41 0 77 -10l121 -31q5 -1 20.5 -4.5t39.5 -3.5q54 0 82 92h82q-53 -266 -228 -266q-27 0 -69 10l-117 33q-40 10 -57 10q-79 0 -99 -94h-84z" />
<glyph unicode="&#xf2;" horiz-adv-x="1206" d="M57 484q0 235 149 377.5t396.5 142.5t397 -143t149.5 -377.5t-149.5 -376.5t-397 -142t-396.5 142t-149 377zM272 1397q0 45 32 76.5t73 31.5t76.5 -21.5t84.5 -74.5l279 -295h-115l-325 162q-105 52 -105 121zM336 484.5q0 -373.5 266 -373.5q268 0 268 373.5 t-267 373.5t-267 -373.5z" />
<glyph unicode="&#xf3;" horiz-adv-x="1206" d="M57 484q0 235 149 377.5t396.5 142.5t397 -143t149.5 -377.5t-149.5 -376.5t-397 -142t-396.5 142t-149 377zM336 484.5q0 -373.5 266 -373.5q268 0 268 373.5t-267 373.5t-267 -373.5zM391 1114l279 295q89 96 145.5 96t88.5 -31.5t32 -72t-24.5 -69t-80.5 -56.5 l-325 -162h-115z" />
<glyph unicode="&#xf4;" horiz-adv-x="1206" d="M57 484q0 235 149 377.5t396.5 142.5t397 -143t149.5 -377.5t-149.5 -376.5t-397 -142t-396.5 142t-149 377zM282 1114l230 371h184l230 -371h-101l-221 170l-221 -170h-101zM336 484.5q0 -373.5 266 -373.5q268 0 268 373.5t-267 373.5t-267 -373.5z" />
<glyph unicode="&#xf5;" horiz-adv-x="1206" d="M57 484q0 235 149 377.5t396.5 142.5t397 -143t149.5 -377.5t-149.5 -376.5t-397 -142t-396.5 142t-149 377zM276 1145q27 134 83.5 199t148.5 65q41 0 77 -10l121 -31q5 -1 20.5 -4.5t39.5 -3.5q54 0 82 92h82q-53 -266 -228 -266q-27 0 -69 10l-117 33q-40 10 -57 10 q-79 0 -99 -94h-84zM336 484.5q0 -373.5 266 -373.5q268 0 268 373.5t-267 373.5t-267 -373.5z" />
<glyph unicode="&#xf6;" horiz-adv-x="1206" d="M57 484q0 235 149 377.5t396.5 142.5t397 -143t149.5 -377.5t-149.5 -376.5t-397 -142t-396.5 142t-149 377zM264 1297q0 59 43.5 102t102 43t100 -42t41.5 -103t-40 -101.5t-101 -40.5t-103.5 41.5t-42.5 100.5zM336 484.5q0 -373.5 266 -373.5q268 0 268 373.5 t-267 373.5t-267 -373.5zM655 1297q0 59 43 102t101.5 43t100.5 -42.5t42 -103t-40.5 -101t-102 -40.5t-103 41.5t-41.5 100.5z" />
<glyph unicode="&#xf7;" horiz-adv-x="1706" d="M254 528v166h1198v-166h-1198zM717 229q0 57 40.5 97.5t97 40.5t96.5 -40.5t40 -97t-39.5 -96t-97.5 -39.5t-97.5 39t-39.5 96zM717 989q0 57 40.5 98t97 41t96.5 -41t40 -97.5t-39.5 -96t-97.5 -39.5t-97.5 39t-39.5 96z" />
<glyph unicode="&#xf8;" horiz-adv-x="1206" d="M49 16l125 127q-117 152 -117 340q0 236 149 378.5t396 142.5q178 0 336 -95l129 131l90 -86l-129 -127q121 -144 121 -361t-149.5 -359t-397.5 -142q-193 0 -338 94l-131 -133zM336 483q0 -75 16 -161l449 448q-92 88 -213 88t-186.5 -92.5t-65.5 -282.5zM403 199 q92 -88 199 -88q268 0 268 378q0 82 -18 160z" />
<glyph unicode="&#xf9;" horiz-adv-x="1327" d="M47 829v138h412v-641q0 -107 35.5 -153t115.5 -46q116 0 184 88t68 242v250q0 78 -23.5 100t-95.5 22h-94v138h459v-707q0 -78 24 -100.5t95 -22.5h53v-137h-418v170q-160 -201 -332 -201t-244.5 82t-72.5 275v381q0 78 -24 100t-95 22h-47zM286 1397q0 45 32 76.5 t73 31.5t76.5 -21.5t84.5 -74.5l279 -295h-115l-325 162q-105 52 -105 121z" />
<glyph unicode="&#xfa;" horiz-adv-x="1327" d="M47 829v138h412v-641q0 -107 35.5 -153t115.5 -46q116 0 184 88t68 242v250q0 78 -23.5 100t-95.5 22h-94v138h459v-707q0 -78 24 -100.5t95 -22.5h53v-137h-418v170q-160 -201 -332 -201t-244.5 82t-72.5 275v381q0 78 -24 100t-95 22h-47zM405 1114l279 295 q89 96 145.5 96t88.5 -31.5t32 -72t-24.5 -69t-80.5 -56.5l-325 -162h-115z" />
<glyph unicode="&#xfb;" horiz-adv-x="1327" d="M47 829v138h412v-641q0 -107 35.5 -153t115.5 -46q116 0 184 88t68 242v250q0 78 -23.5 100t-95.5 22h-94v138h459v-707q0 -78 24 -100.5t95 -22.5h53v-137h-418v170q-160 -201 -332 -201t-244.5 82t-72.5 275v381q0 78 -24 100t-95 22h-47zM296 1114l230 371h184 l230 -371h-101l-221 170l-221 -170h-101z" />
<glyph unicode="&#xfc;" horiz-adv-x="1327" d="M47 829v138h412v-641q0 -107 35.5 -153t115.5 -46q116 0 184 88t68 242v250q0 78 -23.5 100t-95.5 22h-94v138h459v-707q0 -78 24 -100.5t95 -22.5h53v-137h-418v170q-160 -201 -332 -201t-244.5 82t-72.5 275v381q0 78 -24 100t-95 22h-47zM278 1297q0 59 43.5 102 t102 43t100 -42t41.5 -103t-40 -101.5t-101 -40.5t-103.5 41.5t-42.5 100.5zM669 1297q0 59 43 102t101.5 43t100.5 -42.5t42 -103t-40.5 -101t-102 -40.5t-103 41.5t-41.5 100.5z" />
<glyph unicode="&#xfd;" horiz-adv-x="1196" d="M-10 -197.5q0 95.5 46.5 146.5t115 51t108 -38t39.5 -96.5t-36 -91t-101 -32.5h-12q39 -49 111.5 -49t135.5 70.5t127 236.5l-315 705q-30 68 -65.5 96t-88.5 28h-61v138h594v-138h-72q-70 0 -70 -49q2 -25 11 -45l190 -446l168 428q14 37 14 63t-19.5 37.5t-70.5 11.5 h-55v138h494v-138h-45q-94 0 -152 -145l-227 -569q-136 -339 -235.5 -447t-233 -108t-214.5 73.5t-81 169zM385 1114l279 295q89 96 145.5 96t88.5 -31.5t32 -72t-24.5 -69t-80.5 -56.5l-325 -162h-115z" />
<glyph unicode="&#xfe;" horiz-adv-x="1284" d="M23 1237v137h426v-575q97 196 329 196q198 0 308 -135.5t110 -380t-110 -379.5t-308 -135q-231 0 -329 197v-342q0 -78 23.5 -100.5t94.5 -22.5h92v-137h-634v137h59q71 0 95 22.5t24 100.5v1294q0 78 -24 100.5t-95 22.5h-61zM449 483.5q0 -163.5 63.5 -253t177.5 -89.5 q228 0 228 345t-234 345q-109 0 -172 -92t-63 -255.5z" />
<glyph unicode="&#xff;" horiz-adv-x="1196" d="M-10 -197.5q0 95.5 46.5 146.5t115 51t108 -38t39.5 -96.5t-36 -91t-101 -32.5h-12q39 -49 111.5 -49t135.5 70.5t127 236.5l-315 705q-30 68 -65.5 96t-88.5 28h-61v138h594v-138h-72q-70 0 -70 -49q2 -25 11 -45l190 -446l168 428q14 37 14 63t-19.5 37.5t-70.5 11.5 h-55v138h494v-138h-45q-94 0 -152 -145l-227 -569q-136 -339 -235.5 -447t-233 -108t-214.5 73.5t-81 169zM258 1297q0 59 43.5 102t102 43t100 -42t41.5 -103t-40 -101.5t-101 -40.5t-103.5 41.5t-42.5 100.5zM649 1297q0 59 43 102t101.5 43t100.5 -42.5t42 -103 t-40.5 -101t-102 -40.5t-103 41.5t-41.5 100.5z" />
<glyph unicode="&#x152;" horiz-adv-x="2548" d="M74 688q0 329 212.5 527t565.5 198q116 0 329 -19.5t310 -19.5h909v-547h-155q-6 235 -77 313.5t-286 78.5h-328v-422h76q129 0 169.5 45t49.5 204l156 1v-689l-156 1q-9 177 -49 228.5t-168 51.5h-78v-483h359q179 0 246.5 83.5t85.5 342.5h155v-582h-909 q-97 0 -310 -19.5t-329 -19.5q-353 0 -565.5 199t-212.5 528zM397 688q0 -289 131 -430t400 -141q194 0 299 49q20 10 28.5 33.5t8.5 83.5v809q0 81 -21 104t-112 42t-203 19q-269 0 -400 -140t-131 -429z" />
<glyph unicode="&#x153;" horiz-adv-x="1882" d="M57 483q0 231 148.5 376t377 145t414.5 -148q158 148 374 148t332 -140.5t116 -400.5h-691v-6q0 -159 67.5 -245.5t188.5 -86.5q214 0 256 221h172q-26 -183 -138.5 -282t-295.5 -99q-241 0 -381 172q-144 -172 -393.5 -172t-398 143.5t-148.5 374.5zM336 483.5 q0 -374.5 267 -374.5t267 374.5t-267 374.5t-267 -374.5zM1139 608h409q-11 140 -56.5 199t-142 59t-146.5 -61t-64 -197z" />
<glyph unicode="&#x178;" horiz-adv-x="1501" d="M0 1219v155h727v-155h-100q-90 0 -90 -43q0 -26 28 -68l232 -322l245 334q27 38 27 62q0 37 -74 37h-121v155h637v-155h-47q-54 0 -87.5 -18.5t-71.5 -72.5l-410 -553v-292q0 -83 22.5 -105t114.5 -22h119v-156h-799v156h119q91 0 113 21.5t22 105.5v292l-340 502 q-54 80 -98 111t-100 31h-68zM412 1709q0 59 43.5 102t102 43t100 -42t41.5 -103t-40 -101.5t-101 -40.5t-103.5 41.5t-42.5 100.5zM803 1709q0 59 43 102t101.5 43t100.5 -42.5t42 -103t-40.5 -101t-102 -40.5t-103 41.5t-41.5 100.5z" />
<glyph unicode="&#x2c6;" d="M190 1114l230 371h184l230 -371h-101l-221 170l-221 -170h-101z" />
<glyph unicode="&#x2dc;" d="M184 1145q27 134 83.5 199t148.5 65q41 0 77 -10l121 -31q5 -1 20.5 -4.5t39.5 -3.5q54 0 82 92h82q-53 -266 -228 -266q-27 0 -69 10l-117 33q-40 10 -57 10q-79 0 -99 -94h-84z" />
<glyph unicode="&#x2000;" horiz-adv-x="986" />
<glyph unicode="&#x2001;" horiz-adv-x="1972" />
<glyph unicode="&#x2002;" horiz-adv-x="986" />
<glyph unicode="&#x2003;" horiz-adv-x="1972" />
<glyph unicode="&#x2004;" horiz-adv-x="657" />
<glyph unicode="&#x2005;" horiz-adv-x="493" />
<glyph unicode="&#x2006;" horiz-adv-x="328" />
<glyph unicode="&#x2007;" horiz-adv-x="328" />
<glyph unicode="&#x2008;" horiz-adv-x="246" />
<glyph unicode="&#x2009;" horiz-adv-x="394" />
<glyph unicode="&#x200a;" horiz-adv-x="109" />
<glyph unicode="&#x2010;" horiz-adv-x="707" d="M76 381v217h555v-217h-555z" />
<glyph unicode="&#x2011;" horiz-adv-x="707" d="M76 381v217h555v-217h-555z" />
<glyph unicode="&#x2012;" horiz-adv-x="707" d="M76 381v217h555v-217h-555z" />
<glyph unicode="&#x2013;" d="M0 403v172h1024v-172h-1024z" />
<glyph unicode="&#x2014;" horiz-adv-x="2048" d="M0 403v172h2048v-172h-2048z" />
<glyph unicode="&#x2018;" horiz-adv-x="494" d="M100 1067q0 137 88.5 230.5t241.5 117.5v-90q-192 -48 -194 -233q46 30 94.5 30t82 -35t33.5 -96t-41.5 -100t-119 -39t-131.5 59.5t-54 155.5z" />
<glyph unicode="&#x2019;" horiz-adv-x="494" d="M53 1274q0 61 42 101t119.5 40t131 -60.5t53.5 -156.5q0 -136 -88 -229t-241 -117v90q190 50 194 231q-46 -30 -95 -30t-82.5 35t-33.5 96z" />
<glyph unicode="&#x201a;" horiz-adv-x="494" d="M53 129q0 61 42 100t119.5 39t131 -59.5t53.5 -155.5q0 -137 -88 -230.5t-241 -117.5v90q190 51 194 233q-50 -32 -96.5 -32t-80.5 36t-34 97z" />
<glyph unicode="&#x201c;" horiz-adv-x="979" d="M100 1067q0 137 88.5 230.5t241.5 117.5v-90q-192 -48 -194 -233q46 30 94.5 30t82 -35t33.5 -96t-41.5 -100t-119 -39t-131.5 59.5t-54 155.5zM586 1067q0 137 88 230.5t241 117.5v-90q-190 -48 -194 -233q46 30 95 30t82.5 -35t33.5 -96t-42 -100t-119.5 -39t-131 59.5 t-53.5 155.5z" />
<glyph unicode="&#x201d;" horiz-adv-x="979" d="M53 1274q0 61 42 101t119.5 40t131 -60.5t53.5 -156.5q0 -136 -88 -229t-241 -117v90q190 50 194 231q-46 -30 -95 -30t-82.5 35t-33.5 96zM539 1274q0 61 42 101t119 40t131 -60.5t54 -156.5q0 -136 -88 -229t-242 -117v90q192 51 194 231q-46 -30 -94.5 -30t-82 35 t-33.5 96z" />
<glyph unicode="&#x201e;" horiz-adv-x="979" d="M53 129q0 61 43 100t120.5 39t131 -59.5t53.5 -155.5q0 -136 -89 -230t-242 -118v90q190 51 194 233q-106 -69 -176 4q-35 36 -35 97zM539 129q0 61 41.5 100t119 39t131.5 -59.5t54 -155.5q0 -137 -88.5 -230.5t-241.5 -117.5v90q192 51 194 233q-50 -32 -96.5 -32 t-80 36t-33.5 97z" />
<glyph unicode="&#x2022;" horiz-adv-x="1208" d="M307 762q0 123 87 209t209.5 86t209 -86.5t86.5 -208.5t-87.5 -209.5t-210 -87.5t-208.5 87t-86 210z" />
<glyph unicode="&#x2026;" horiz-adv-x="2048" d="M189 116.5q0 63.5 44.5 107.5t109 44t108 -43.5t43.5 -108t-43.5 -108t-108 -43.5t-109 44t-44.5 107.5zM871 116.5q0 63.5 44.5 107.5t109 44t108 -43.5t43.5 -108t-43.5 -108t-108 -43.5t-109 44t-44.5 107.5zM1555 116.5q0 63.5 44.5 107.5t109 44t108 -43.5 t43.5 -108t-43.5 -108t-108 -43.5t-109 44t-44.5 107.5z" />
<glyph unicode="&#x202f;" horiz-adv-x="394" />
<glyph unicode="&#x2039;" horiz-adv-x="592" d="M127 489q0 70 109 226l81 116h148l-57 -139q-62 -145 -62 -187q0 -73 62 -218l57 -140h-148l-81 119q-109 158 -109 223z" />
<glyph unicode="&#x203a;" horiz-adv-x="592" d="M127 147l57 140q60 139 60 202q0 64 -60 203l-57 139h147l82 -116q109 -156 109 -226q0 -65 -109 -223l-82 -119h-147z" />
<glyph unicode="&#x205f;" horiz-adv-x="493" />
<glyph unicode="&#x2122;" horiz-adv-x="1683" d="M233 1260l11 188h448l10 -188h-30q-8 80 -40 116.5t-93 36.5h-11v-422q0 -49 39 -53l31 -4v-29h-260v29l32 4q38 4 38 53v422h-15q-115 0 -131 -153h-29zM770 905v29l33 4q41 4 41 51v373q0 49 -41 53l-33 2v31h199l135 -381l137 381h189v-27l-28 -2q-40 -6 -40 -53v-375 q0 -47 41 -53l27 -4v-29h-246v29l30 4q39 4 39 53v375l-163 -463h-27l-170 469v-381q0 -51 39 -53l35 -4v-29h-197z" />
<glyph unicode="&#xe000;" horiz-adv-x="965" d="M0 0v965h965v-965h-965z" />
</font>
</defs>
</svg>
