<?xml version="1.0" standalone="no"?>
<!DOCTYPE svg PUBLIC "-//W3C//DTD SVG 1.1//EN" "http://www.w3.org/Graphics/SVG/1.1/DTD/svg11.dtd" >
<svg xmlns="http://www.w3.org/2000/svg">
<metadata></metadata>
<defs>
<font id="PenumbraHalfSerifStdRegular" horiz-adv-x="1814" >
<font-face units-per-em="2048" ascent="1604" descent="-444" />
<missing-glyph horiz-adv-x="602" />
<glyph horiz-adv-x="0" />
<glyph horiz-adv-x="2048" />
<glyph unicode=" "  horiz-adv-x="602" />
<glyph unicode="&#x09;" horiz-adv-x="602" />
<glyph unicode="&#xa0;" horiz-adv-x="602" />
<glyph unicode="!" horiz-adv-x="561" d="M164 96q0 50 33.5 85.5t85.5 35.5h2q53 0 87 -33.5t34 -87.5q0 -51 -34 -83.5t-87 -32.5t-87 32.5t-34 83.5zM184 1597h195q-4 -121 -8.5 -364.5t-9 -517t-5.5 -322.5h-151q-4 435 -21 1204z" />
<glyph unicode="&#x22;" horiz-adv-x="671" d="M82 1587l192 21l-51 -457l-84 -18zM395 1587l195 21l-53 -457l-84 -18z" />
<glyph unicode="#" horiz-adv-x="1187" d="M86 522l12 113h230l61 317h-221l10 111h240l74 369h102l-76 -369h273l75 369h101l-74 -369h207l-13 -111h-221l-65 -317h217l-12 -113h-232l-80 -389h-100l80 389h-273l-79 -389h-103l78 389h-211zM428 635h272l66 317h-274z" />
<glyph unicode="$" horiz-adv-x="894" d="M86 115q10 109 14 239h27q20 -76 77 -108.5t156 -32.5q108 0 180 62.5t72 164.5q0 62 -24 109t-76 96q-35 29 -109.5 86t-101.5 78q-89 77 -135.5 152.5t-46.5 179.5q0 146 93 248t243 127q1 19 5.5 71.5t7.5 93.5t3 56v6h127v-6q-19 -167 -23 -213q113 -6 195 -33 q-8 -105 -12 -234h-27q-10 63 -57 91q-58 28 -127 28q-102 0 -171 -58.5t-69 -162.5q0 -92 90 -182q65 -62 224 -185q184 -149 184 -331v-2q0 -142 -91 -248t-257 -133q-1 -22 -5 -70.5t-8.5 -95.5t-5.5 -55v-5h-127v5q1 13 11 101.5t12 111.5q-152 3 -248 49z" />
<glyph unicode="%" horiz-adv-x="1538" d="M66 1253q0 139 101 244t255 105h2q158 0 256 -103t98 -246q0 -89 -40.5 -169.5t-123 -134.5t-190.5 -54q-106 0 -189.5 53t-126 133.5t-42.5 171.5zM156 -39q174 264 545.5 844t515.5 815h149q-178 -273 -545.5 -849t-511.5 -810h-153zM207 1253q0 -97 58.5 -169 t158.5 -72h2q99 0 156 72t57 169q0 98 -59.5 167t-155.5 69q-98 0 -157.5 -70.5t-59.5 -165.5zM756 350q0 139 102 244.5t258 105.5h2q105 0 187.5 -50.5t125 -130t42.5 -169.5q0 -66 -24 -129t-68 -115t-113 -84t-152 -32q-107 0 -191 54.5t-126.5 136t-42.5 169.5z M899 350q0 -100 59 -172t158 -72h2q97 0 155 72.5t58 171.5q0 93 -59 163.5t-156 70.5t-157 -70t-60 -164z" />
<glyph unicode="&#x26;" horiz-adv-x="1439" d="M66 385q0 146 82.5 264.5t242.5 229.5v4q-34 43 -56 75t-50.5 83t-43 108t-14.5 117q0 140 111 245t268 105q151 0 246.5 -92t95.5 -234q0 -149 -129 -282q-62 -65 -190 -156v-2q159 -206 356 -412h4q68 109 127 273q21 57 37 120q43 -2 113 -2q21 0 63 1t60 1v-24 q-28 -11 -49 -33.5t-32 -44.5t-30 -67q-84 -204 -178 -340q130 -134 209 -205q45 -43 74 -64t63 -26v-29q-27 2 -131 2q-21 0 -55 -1t-50 -1q-8 0 -15 3.5t-17 12.5l-9 9q-96 89 -176 176h-2q-213 -228 -473 -228h-2q-134 0 -238 57t-158 150.5t-54 206.5zM250 395 q0 -113 80 -189.5t202 -76.5h3q200 0 346 180q-100 103 -210 228t-188 221q-76 -56 -125 -108t-78.5 -117t-29.5 -138zM408 1268q0 -77 41 -164q22 -52 88 -135h2q107 80 155 135q78 84 78 178q0 73 -48 126.5t-128 53.5h-2q-52 0 -95 -27t-67 -71.5t-24 -95.5z" />
<glyph unicode="'" horiz-adv-x="356" d="M82 1587l192 21l-51 -457l-84 -18z" />
<glyph unicode="(" horiz-adv-x="684" d="M154 791q0 279 107 531t274 419h112q-69 -92 -133 -210t-102 -224q-88 -250 -88 -516q0 -275 86 -519q37 -105 100.5 -223.5t132.5 -210.5h-113q-75 76 -144.5 181.5t-115.5 211.5q-61 136 -88.5 268t-27.5 292z" />
<glyph unicode=")" horiz-adv-x="684" d="M39 1741h115q74 -75 143.5 -181.5t114.5 -209.5q60 -141 89 -273t29 -284q0 -292 -114 -555q-46 -108 -117 -216t-147 -184h-111q69 92 133.5 212.5t99.5 223.5q88 259 88 521q0 258 -92 516q-37 103 -99.5 219.5t-131.5 210.5z" />
<glyph unicode="*" horiz-adv-x="692" d="M59 1409l62 102q143 -104 180 -133l4 2q-16 160 -22 226h123q-3 -38 -11.5 -119.5t-11.5 -106.5l4 -2q35 26 98.5 74.5t79.5 60.5l62 -104q-48 -27 -199 -98v-4q27 -12 97.5 -43t103.5 -47l-62 -105q-112 76 -178 127l-4 -2q3 -41 10.5 -115t10.5 -104h-123q8 92 22 219 l-4 2q-122 -90 -180 -129l-60 102q16 9 199 95v4q-127 57 -201 98z" />
<glyph unicode="+" horiz-adv-x="1103" d="M94 647v131h391v383h136v-383h391v-131h-391v-422h-136v422h-391z" />
<glyph unicode="," horiz-adv-x="438" d="M100 92q0 54 35.5 89.5t81.5 35.5h2q52 0 86.5 -39t34.5 -108q0 -103 -76 -209q-56 -75 -129 -121l-33 35q33 29 66 89t33 101q0 18 -21 21q-32 6 -56 36t-24 70z" />
<glyph unicode="-" horiz-adv-x="622" d="M61 700q2 18 2 74q0 58 -2 74h500q-2 -16 -2 -70v-2q0 -58 2 -76q-70 2 -248 2q-180 0 -252 -2z" />
<glyph unicode="." horiz-adv-x="438" d="M98 96q0 51 35.5 87t85.5 36h2q51 0 86 -36t35 -87q0 -50 -35.5 -84.5t-87.5 -34.5q-50 0 -85.5 35t-35.5 84z" />
<glyph unicode="/" horiz-adv-x="1005" d="M-27 -41q568 1027 908 1667h145q-559 -1014 -905 -1667h-148z" />
<glyph unicode="0" horiz-adv-x="1323" d="M90 807q0 117 19 229t63 219t109 186.5t163.5 128t219.5 48.5h2q119 0 216 -48.5t161 -128.5t108 -186.5t63 -218t19 -227.5q0 -117 -17 -228.5t-59.5 -222.5t-105.5 -193t-163.5 -133.5t-225.5 -51.5q-105 0 -192 35t-148.5 97t-107.5 141.5t-72.5 174t-39 188.5 t-12.5 191zM289 807q0 -71 6.5 -140.5t21.5 -147t43.5 -142.5t68 -118t99.5 -83.5t134 -30.5h2q63 0 116 23t90 62t66.5 93t47.5 112.5t29.5 125.5t16 127t4.5 121q0 64 -6.5 130t-21.5 141.5t-43.5 140t-68 118t-99.5 84.5t-133 31t-133 -30.5t-99.5 -84t-68 -118t-44 -140 t-22 -142t-6.5 -132.5z" />
<glyph unicode="1" horiz-adv-x="806" d="M18 1368q124 49 445 229h78q-4 -340 -4 -587v-383q0 -413 16.5 -504.5t101.5 -95.5v-29q-23 0 -97.5 1t-113.5 1q-38 0 -120.5 -1t-114.5 -1v29q100 4 118.5 94.5t18.5 505.5v690q0 53 -3.5 64t-18.5 8q-22 -6 -129 -46.5t-144 -52.5z" />
<glyph unicode="2" horiz-adv-x="1142" d="M43 0v113q104 94 179 165t169.5 168.5t170.5 194.5t130 190q94 151 94 312q0 133 -86.5 221t-240.5 88q-160 0 -262 -74q-64 -49 -80 -112h-23q0 26 -6 254q82 48 192.5 74t217.5 26h2q116 0 210.5 -36t155 -97t93 -141t32.5 -170q0 -91 -24 -180.5t-69.5 -174 t-97 -156.5t-120.5 -153q-75 -87 -174 -185.5t-172 -160.5h477q89 0 133 17t60 73h28q-6 -135 -6 -258q-133 2 -420 2h-563z" />
<glyph unicode="3" horiz-adv-x="1069" d="M63 82q2 27 7.5 127t7.5 127h22q19 -64 64 -109q105 -84 276 -84q139 0 235.5 82.5t96.5 220.5q0 56 -24 111t-66 96q-64 55 -162 77t-239 22v145q137 4 213 25q108 26 173.5 93.5t65.5 178.5q0 121 -83.5 191.5t-213.5 70.5q-126 0 -215 -61q-49 -36 -69 -109h-25 q0 136 -6 256q152 76 338 76q91 0 172.5 -22.5t136.5 -61.5q166 -123 166 -320q0 -140 -85.5 -241.5t-215.5 -138.5v-3q98 -18 198 -96q146 -119 146 -301q0 -107 -40.5 -194t-111 -143t-163.5 -85.5t-201 -29.5q-226 0 -398 100z" />
<glyph unicode="4" horiz-adv-x="1243" d="M16 362v78q495 691 844 1166h94l-2 -1092h240v-152h-238q0 -219 11.5 -275t68.5 -60v-29q-32 0 -92 1t-80 1q-25 0 -91 -1t-95 -1v29q65 10 77.5 60.5t12.5 274.5h-750zM266 514h502q0 613 4 721h-2q-56 -83 -270.5 -386.5t-233.5 -330.5v-4z" />
<glyph unicode="5" horiz-adv-x="1095" d="M61 51q2 15 8 69t11.5 104t9.5 83h25q16 -69 59 -100q70 -51 211 -51q161 0 268 73q60 41 101 114t41 159q0 107 -57 182t-150 113q-98 39 -246 39q-100 0 -211 -15q64 477 98 776h181q446 0 567 2q-11 -228 -12 -264h-25q-10 59 -55 78t-158 19h-340l-61 -445 q206 13 374 -45q130 -46 213.5 -156.5t83.5 -271.5v-2q0 -121 -60.5 -230.5t-152.5 -172.5q-161 -115 -405 -115q-178 0 -318 57z" />
<glyph unicode="6" horiz-adv-x="1257" d="M76 510q0 148 65 299q58 141 203 354q135 199 332 434h225q-189 -213 -338 -411q-101 -135 -170 -252l2 -4q116 92 277 92q148 0 264 -68.5t178 -182t62 -249.5v-2q0 -154 -75.5 -279t-202 -193t-277.5 -68q-247 0 -396 150t-149 380zM268 512q0 -162 102.5 -265.5 t256.5 -103.5h2q145 0 249.5 105t104.5 264q0 151 -96.5 253.5t-251.5 106.5q-167 0 -267 -99t-100 -261z" />
<glyph unicode="7" horiz-adv-x="1114" d="M61 1599q54 0 235.5 -1t281.5 -1h495q-1 -5 0 -26t0 -25q-330 -685 -743 -1546h-205q105 214 339.5 690t362.5 740h-526q-103 0 -150 -21t-59 -80h-26q0 55 -5 270z" />
<glyph unicode="8" horiz-adv-x="1208" d="M92 424q0 146 85 254t216 151q-112 44 -180 138t-68 219q0 182 134 305t339 123q195 0 320 -117.5t125 -290.5q0 -127 -67.5 -223t-180.5 -143q129 -33 215 -140.5t86 -248.5q0 -138 -69 -245.5t-186 -164.5t-261 -57h-2q-140 0 -254.5 53.5t-183 154.5t-68.5 232z M289 436q0 -130 91.5 -213.5t225.5 -83.5q130 0 221 86t91 217q0 136 -91.5 218.5t-222.5 82.5h-2q-132 0 -222.5 -83t-90.5 -224zM336 1184q0 -122 79 -199.5t191 -77.5q110 0 187 78t77 199q0 118 -72.5 196t-191.5 78h-2q-123 0 -195.5 -78t-72.5 -196z" />
<glyph unicode="9" horiz-adv-x="1259" d="M82 1075q0 107 38.5 205.5t108.5 171.5q163 166 414 166q164 0 287.5 -70t187.5 -190t64 -271v-2q0 -161 -80 -335q-77 -160 -211 -349q-113 -160 -311 -401h-228q147 161 336 408q92 122 170 249l-4 5q-116 -87 -270 -87q-140 0 -255.5 66.5t-181 181t-65.5 252.5z M274 1087q0 -156 100.5 -260t256.5 -104q158 0 257 101.5t99 265.5q0 157 -101 260.5t-255 103.5h-2q-152 0 -253.5 -107.5t-101.5 -259.5z" />
<glyph unicode=":" horiz-adv-x="438" d="M98 96q0 51 35.5 87t85.5 36h2q51 0 86 -36t35 -87q0 -50 -35.5 -84.5t-87.5 -34.5q-50 0 -85.5 35t-35.5 84zM98 801q0 49 36 85t85 36h2q51 0 86 -35.5t35 -85.5q0 -51 -35 -85t-88 -34q-50 0 -85.5 34.5t-35.5 84.5z" />
<glyph unicode=";" horiz-adv-x="438" d="M98 801q0 49 36.5 85t86.5 36h2q50 0 84.5 -35.5t34.5 -85.5q0 -51 -34.5 -85t-86.5 -34q-50 0 -86.5 34.5t-36.5 84.5zM102 92q0 55 35.5 90t81.5 35h2q52 0 86.5 -39t34.5 -108q0 -99 -76 -207q-56 -79 -129 -121l-33 33q30 30 56 69q43 70 43 121q0 20 -23 23 q-31 6 -54.5 36t-23.5 68z" />
<glyph unicode="&#x3c;" horiz-adv-x="1103" d="M121 645v117l864 401v-137l-709 -315v-15l709 -315v-139z" />
<glyph unicode="=" horiz-adv-x="1103" d="M94 461v131h918v-131h-918zM94 825v131h918v-131h-918z" />
<glyph unicode="&#x3e;" horiz-adv-x="1103" d="M121 242v139l706 315v15l-706 315v137l864 -401v-117z" />
<glyph unicode="?" horiz-adv-x="960" d="M82 1540q171 76 330 76h2q157 0 268 -68q88 -57 134 -144t46 -187q0 -50 -10.5 -98t-28 -89t-45.5 -84t-57.5 -79.5t-69.5 -78.5q-104 -117 -140.5 -197t-37.5 -206h-160q-1 96 15 167.5t54 141t110 154.5q42 50 69.5 87.5t53.5 81.5t38.5 87t12.5 86q0 117 -80.5 190.5 t-204.5 73.5q-223 0 -264 -168h-25q-3 135 -10 254zM272 98q0 51 36 86t87 35h2q51 0 85 -35t34 -86t-34.5 -86t-86.5 -35q-51 0 -87 35t-36 86z" />
<glyph unicode="@" horiz-adv-x="1771" d="M96 575q0 227 111.5 412.5t305 291t427.5 105.5q119 0 227.5 -28.5t197 -83.5t153.5 -131t101 -176.5t36 -214.5q0 -105 -36 -198t-94.5 -157t-135 -101.5t-156.5 -37.5q-73 0 -125.5 49t-56.5 141h-7q-55 -88 -136 -138t-179 -50q-107 0 -178.5 76t-71.5 205 q0 206 148 351.5t368 145.5q142 0 262 -49l-77 -393q-22 -115 0.5 -176.5t76.5 -61.5q107 -1 193 117.5t86 263.5q0 117 -41 218t-117.5 176t-193.5 118t-260 43q-98 0 -199 -33t-190.5 -96.5t-160 -148t-112 -195.5t-41.5 -231q0 -138 48.5 -252t133 -189.5t198.5 -117 t245 -41.5q188 0 342 82l31 -90q-182 -89 -392 -89q-167 0 -305.5 52t-231 143.5t-143.5 217t-51 271.5zM623 559q0 -80 40 -133t121 -53q89 0 172 97t103 204l47 229q-79 19 -133 19q-143 0 -246.5 -109.5t-103.5 -253.5z" />
<glyph unicode="A" horiz-adv-x="1419" d="M-12 -2v27q25 2 43 18t57 92.5t83.5 182t141.5 341.5l394 965h30l381 -967q172 -430 220.5 -529t93.5 -103v-27q-35 2 -164 2q-144 0 -195 -2v27q44 3 48 34q1 4 1 9q0 47 -55 194q-15 40 -74 193h-575q-114 -281 -129 -346q-4 -20 -4 -35q0 -33 21 -43q10 -5 28 -6v-27 q-51 2 -178 2q-131 0 -168 -2zM477 610h457v6q-203 543 -221 607h-2q-13 -41 -232 -607z" />
<glyph unicode="B" horiz-adv-x="1159" d="M125 4v25q42 2 58 34q23 47 27 258l1 336v320q0 409 -10.5 498.5t-65.5 93.5v26q19 0 73 1t77 1t92.5 2.5t105.5 2.5q139 0 240 -33q47 -15 90 -43t83.5 -71.5t64.5 -111t24 -149.5q0 -136 -81.5 -235t-198.5 -123v-5q149 -21 248.5 -124.5t99.5 -257.5v-3 q0 -115 -52.5 -207t-144.5 -151q-142 -92 -397 -92q-3 0 -180 6q-14 0 -67 1t-87 1zM395 207q0 -24 2.5 -30t12.5 -9q29 -8 92 -8q106 0 182 37q70 29 120 94t50 164v2q0 102 -59 170t-144 94q-73 24 -176 24q-60 0 -80 -2v-536zM395 901q7 0 27 -1t29 -1q80 0 141 19 q83 25 141 90.5t58 169.5v2q0 127 -81.5 195.5t-211.5 68.5q-63 0 -103 -4v-539z" />
<glyph unicode="C" horiz-adv-x="1427" d="M86 801v2q0 189 69 344.5t189 257.5t281.5 157.5t347.5 55.5q184 0 348 -35q-4 -64 -12 -274h-25q-19 72 -82 104q-79 37 -229 37q-308 0 -494 -175.5t-186 -475.5q0 -145 50.5 -268t138.5 -207.5t210 -131.5t262 -47q139 0 224 37q72 33 96 107h22q0 -192 2 -260 q-178 -54 -358 -54q-142 0 -271 36t-235 106.5t-184 169.5t-121 230.5t-43 283.5z" />
<glyph unicode="D" horiz-adv-x="1517" d="M121 0v29q44 3 61 35q24 48 28 255q1 85 1 338v320q0 409 -11.5 497.5t-74.5 92.5v26q159 6 205 6q190 5 237 5q332 0 537 -127q156 -93 243 -263.5t87 -377.5v-2q0 -425 -297 -662q-217 -178 -594 -178q-12 0 -228 6h-194zM403 203q0 -18 5 -24.5t18 -8.5q52 -8 145 -8 q302 0 481 180.5t179 484.5v2q0 155 -64 286t-174 212q-75 53 -185 82t-233 29q-89 0 -172 -6v-1229z" />
<glyph unicode="E" horiz-adv-x="1107" d="M131 -2v27q58 4 69 99t11 533v320q0 411 -10.5 501.5t-65.5 94.5v26q27 0 159 -1t226 -1q89 0 244 1t203 1q-9 -193 -9 -260h-24q-7 60 -53 79.5t-158 19.5h-320v-541h281q118 0 156.5 8t48.5 43h22q-2 -45 -2 -129q0 -92 2 -143h-22q-9 41 -46.5 51t-152.5 10h-287v-524 q0 -33 6 -40.5t35 -8.5h357q81 0 119 16.5t49 73.5h24q-8 -148 -8 -256q-58 0 -209.5 1t-232.5 1q-102 0 -244.5 -1t-167.5 -1z" />
<glyph unicode="F" horiz-adv-x="1075" d="M131 -2v29q58 7 69 100t11 530v320q0 408 -10.5 495.5t-65.5 94.5v32q11 0 145.5 -1t239.5 -1q90 0 246 1t201 1q-9 -216 -9 -260h-28q-7 61 -51 80t-154 19h-322v-572h277q116 0 153.5 9t47.5 45h26q-4 -90 -4 -132q0 -35 4 -141h-26q-10 41 -47 51.5t-148 10.5h-283 v-123q0 -373 11 -452q10 -79 44 -97q13 -7 34 -10v-29q-57 2 -181 2q-127 0 -180 -2z" />
<glyph unicode="G" horiz-adv-x="1538" d="M86 799v2q0 153 45 284.5t126.5 229t192 166.5t244 104t281.5 35q186 0 383 -43q-9 -131 -12 -277h-25q-17 75 -82 107q-95 45 -260 45q-309 0 -497.5 -177t-188.5 -474q0 -196 85 -346t233 -230t335 -80q135 0 230 25q0 28 1 85t1 75q0 238 -15 311.5t-78 79.5v27 q132 -5 177 -5q38 0 176 5v-27q-52 -6 -62 -63t-10 -310v-80q0 -184 2 -233q-180 -60 -428 -60q-184 0 -341 57t-270.5 161t-178 260t-64.5 346z" />
<glyph unicode="H" horiz-adv-x="1617" d="M121 -2v27q44 3 61 36q24 48 28 257q1 85 1 339v320q0 411 -12 501.5t-74 94.5v26q16 0 79.5 -1t102.5 -1q41 0 100 1t78 1v-26q-59 -4 -70.5 -91t-11.5 -478v-107h811v109q0 384 -9 462q-9 81 -41 98q-12 6 -31 7v26q19 0 79 -1t99 -1q38 0 97 1t77 1v-26 q-58 -4 -69 -94.5t-11 -501.5v-320q0 -419 10 -508q10 -94 45 -114q14 -8 41 -10v-27q-22 0 -82.5 1t-99.5 1q-40 0 -106.5 -1t-92.5 -1v27q47 3 64 36q25 48 29 247q1 79 1 308v117h-811v-117q0 -405 12.5 -496t78.5 -95v-27q-23 0 -84.5 1t-100.5 1q-41 0 -106.5 -1 t-81.5 -1z" />
<glyph unicode="I" horiz-adv-x="614" d="M123 -2v27q43 5 59 37q24 48 28 257q1 85 1 336v322q0 409 -11.5 498.5t-74.5 95.5v28q19 0 79 -1t101 -1q37 0 99.5 1t80.5 1v-26q-60 -7 -71 -96t-11 -500v-320q0 -421 11 -511q10 -90 44 -110q13 -8 38 -11v-27q-23 0 -86.5 1t-102.5 1q-44 0 -105 -1t-79 -1z" />
<glyph unicode="J" horiz-adv-x="991" d="M47 31v266h25q27 -154 239 -154q101 0 172 50q28 18 53 51t37 71q17 49 23 111t6 180v369q0 410 -11.5 499t-74.5 99v26q63 -2 191 -2q124 0 167 2v-26q-59 -10 -70 -96t-11 -481v-6.5v-6v-6.5v-373q0 -143 -11 -229t-39 -152q-48 -118 -158 -183t-263 -65 q-149 0 -275 56z" />
<glyph unicode="K" horiz-adv-x="1318" d="M123 -2v27q43 8 59 39q24 48 27 251q2 86 2 342v320q0 401 -12 492.5t-74 101.5v28q20 0 80 -1t102 -1q37 0 94.5 1t83.5 1v-26q-58 -10 -70 -100t-12 -461v-140h5l333 404q168 200 190 252q16 38 -19 46q-3 0 -7 1v24q72 -2 185 -2q125 0 174 2v-26q-41 -4 -82 -42.5 t-157 -174.5q-50 -58 -79 -92l-364 -426l379 -443q198 -234 262.5 -298.5t113.5 -71.5v-27q-51 2 -188 2q-131 0 -203 -2v25q40 4 33 34q-10 38 -132 186q-30 37 -116 140l-325 387h-3v-154q0 -393 10 -477q11 -83 44 -103q14 -7 37 -11v-27q-28 0 -86.5 1t-94.5 1 q-41 0 -106.5 -1t-83.5 -1z" />
<glyph unicode="L" horiz-adv-x="1040" d="M123 -2v29q44 6 60 37q23 47 27 246q1 78 1 347v320q0 409 -11.5 497.5t-74.5 98.5v26q18 0 79.5 -1t102.5 -1q38 0 99.5 1t80.5 1v-26q-61 -10 -72.5 -98.5t-11.5 -497.5v-782q0 -19 6 -25t23 -6h367q76 0 116.5 20.5t49.5 77.5h24q-1 -40 -3 -123t-3 -141 q-113 2 -442 2q-371 0 -418 -2z" />
<glyph unicode="M" horiz-adv-x="1935" d="M31 -2v27q57 4 79.5 100.5t75.5 531.5l115 955h29q402 -795 493 -976.5t135 -281.5h5q35 82 117.5 245t337.5 655q37 71 59 112.5t58.5 112t68.5 133.5h30l109 -955q49 -436 70.5 -532t76.5 -100v-27q-45 2 -170 2q-145 0 -196 -2v27q49 3 64 38q11 25 11 90q0 59 -9 150 q-6 72 -27 260q-48 426 -52 549h-2q-26 -61 -57.5 -127t-51 -106t-72 -145t-77.5 -156q-151 -296 -286 -547h-29q-192 369 -283 549q-193 396 -250 534h-2q-5 -108 -53 -551q-36 -342 -36 -423q0 -86 35 -106q14 -7 38 -9v-27q-22 0 -87 1t-101 1q-40 0 -94.5 -1t-71.5 -1z " />
<glyph unicode="N" horiz-adv-x="1630" d="M111 -2v25q43 4 59 38q24 49 28 264q1 84 1 332v957h30q217 -255 467 -549t312 -367q128 -147 249 -303h5v586q0 395 -11 480q-10 87 -45 105q-14 7 -35 9v24q22 0 81 -1t91 -1q38 0 93.5 1t74.5 1v-24q-56 -6 -66.5 -94.5t-10.5 -485.5v-20v-995h-31 q-195 228 -444.5 519t-321.5 375q-169 196 -264 318h-2v-541q0 -433 12 -527.5t76 -98.5v-27q-55 2 -183 2q-118 0 -165 -2z" />
<glyph unicode="O" d="M86 788q0 237 110 427t302.5 296.5t429.5 106.5q226 0 409.5 -104t287.5 -288t104 -411v-2q0 -233 -105.5 -424t-296.5 -302.5t-430 -111.5q-167 0 -317.5 63.5t-258.5 171.5t-171.5 259t-63.5 319zM293 799q0 -183 81 -333t221.5 -234.5t311.5 -84.5q173 0 314 84 t222 235t81 339v2q0 135 -48 254t-130 204t-196 134t-243 49t-242.5 -49.5t-195 -135.5t-129 -206.5t-47.5 -257.5z" />
<glyph unicode="P" horiz-adv-x="1157" d="M127 1571v24q30 0 90 1t88 1q18 1 67 3t68.5 2h67.5q175 -3 291 -54q122 -53 194 -161.5t72 -262.5q0 -126 -59 -239q-52 -101 -155 -166.5t-239 -87.5q-73 -15 -215 -15v-73q0 -351 12 -429.5t74 -88.5v-27q-27 0 -86 1t-94 1q-39 0 -95.5 -1t-78.5 -1v27q60 10 71 97.5 t11 496.5v12.5v12v13.5v320q0 399 -10 481q-9 83 -41 102q-12 8 -33 11zM397 778q23 -2 88 -2q233 7 326 148q57 83 57 196v2q0 94 -42.5 167.5t-120.5 111.5q-78 41 -207 41q-54 0 -101 -6v-658z" />
<glyph unicode="Q" d="M86 786q0 177 64.5 332t176.5 264.5t268.5 172.5t334.5 63q169 0 317.5 -61t254 -167.5t166.5 -256.5t61 -322v-2q0 -112 -30 -219t-78.5 -190.5t-111.5 -145.5q-97 -113 -229 -174v-6q50 -28 113 -57t141 -59t135 -42q16 -4 33 -4q21 0 45 6l14 -16q-68 -78 -145 -131 q-14 -5 -30 -5t-34 5q-181 63 -448 227q-104 -25 -205 -25q-169 0 -320 63.5t-259 172t-171 259t-63 318.5zM293 799q0 -136 47 -257.5t128.5 -208.5t195.5 -137.5t243 -50.5q132 0 246 50t195 137t127.5 209.5t46.5 263.5v2q0 135 -47.5 254t-129 204.5t-196 135 t-244.5 49.5q-128 0 -241.5 -50t-194.5 -136.5t-128.5 -207.5t-47.5 -257z" />
<glyph unicode="R" horiz-adv-x="1222" d="M127 -2v27q61 4 72.5 99t11.5 533v320q0 402 -10 486q-10 85 -42 101q-12 6 -32 7v24q25 0 77 1t85 1q17 1 58.5 3t75.5 3t58 1q172 0 283 -43q49 -17 93 -48.5t84 -79.5t63.5 -119t23.5 -155q0 -134 -55.5 -228.5t-134.5 -150.5q-68 -50 -146 -73v-5q51 -71 391 -530 q103 -139 172 -147v-27q-21 0 -66 1t-71 1q-19 0 -47 -1t-45 -1q-42 0 -74 29q-42 60 -125 179.5t-163.5 234.5t-163.5 231h-103v-86q0 -385 11 -471t69 -90v-27q-21 0 -78 1t-92 1q-40 0 -98 -1t-82 -1zM397 823q23 -2 80 -2q116 0 199 47q67 38 111 108t44 171v2 q0 136 -86.5 214.5t-240.5 78.5q-67 0 -107 -4v-615z" />
<glyph unicode="S" horiz-adv-x="956" d="M80 31q7 101 10 272h27q28 -160 252 -160q126 0 209.5 69t83.5 183q0 71 -31 130.5t-101 117.5q-35 28 -100.5 79.5t-99.5 78.5q-113 90 -167 181.5t-54 211.5q0 84 33 159.5t92 132.5t148.5 90.5t195.5 33.5q124 0 229 -33q-8 -183 -10 -262h-25q-21 131 -190 131 q-120 0 -197.5 -65.5t-77.5 -174.5q0 -118 99 -211q25 -25 54 -49t81 -64.5t77 -60.5q79 -61 128 -114t82.5 -131t33.5 -170v-3q0 -85 -32.5 -160.5t-93 -134.5t-155.5 -93.5t-212 -34.5q-76 0 -156.5 15t-132.5 36z" />
<glyph unicode="T" horiz-adv-x="1245" d="M23 1333v266q164 -2 512 -2h176q365 0 512 2v-266h-27q-13 64 -48.5 85.5t-117.5 21.5h-311v-783q0 -423 10 -513q10 -91 43 -110q15 -8 39 -9v-27q-51 2 -186 2q-144 0 -189 -2v27q45 4 62 36q25 47 28 250q2 86 2 346v783h-311q-86 0 -120.5 -21t-47.5 -86h-26z" />
<glyph unicode="U" horiz-adv-x="1576" d="M92 1573v26q21 0 84.5 -1t104.5 -1q39 0 99.5 1t80.5 1v-26q-65 -4 -77.5 -94.5t-12.5 -501.5v-309q0 -134 24.5 -221.5t77.5 -153.5q51 -66 136 -101.5t184 -35.5q201 0 311 131q108 122 108 389v301q0 395 -9 477q-9 91 -42 110q-15 9 -39 11v24q24 0 83.5 -1t94.5 -1 q41 0 100 1t77 1v-24q-58 -6 -69 -96.5t-11 -501.5v-303q0 -174 -37 -294.5t-111 -207.5q-74 -89 -193.5 -143t-264.5 -54q-160 0 -284.5 56t-201.5 162q-68 85 -98.5 194.5t-30.5 267.5v322q0 411 -11.5 501.5t-72.5 94.5z" />
<glyph unicode="V" horiz-adv-x="1437" d="M-25 1573v26q11 0 72 -1t107 -1q44 0 112.5 1t87.5 1v-26q-48 -3 -55 -32q-2 -6 -2 -15q0 -51 55 -194q28 -73 117 -290v-1l1 -1v-1l1 -1v-1l1 -1v-1v-1l1 -2q203 -512 250 -655h4q69 199 250 655q141 350 163 425q11 40 11 65q0 30 -15 40q-13 9 -38 11v26q49 -2 194 -2 q131 0 162 2v-26q-48 -4 -94.5 -94.5t-216.5 -501.5l-410 -1000h-31l-411 1000q-89 217 -132.5 318t-80.5 172.5t-56.5 87.5t-46.5 18z" />
<glyph unicode="W" horiz-adv-x="2009" d="M-14 1573v26q45 -2 176 -2q130 0 200 2v-26q-54 -4 -65 -36q-5 -13 -5 -36q0 -56 29 -175q16 -68 68 -263q109 -396 164 -633h4q45 134 234 625q32 79 107.5 260t107.5 258h26q41 -99 113.5 -275t101.5 -245q206 -558 226 -617h2q56 251 159 623q86 326 95 401q2 19 2 35 q0 52 -25 67q-16 9 -45 11v26q32 0 94 -1t100 -1q42 0 92 1t70 1v-26q-48 -6 -81.5 -95t-141.5 -483l-281 -1028h-30q-409 1035 -471 1221h-2q-55 -166 -482 -1221h-32l-285 1028q-112 405 -139 476q-30 81 -62 96q-10 4 -24 6z" />
<glyph unicode="X" horiz-adv-x="1316" d="M6 -2v27q14 2 26 6t27 16t29 27.5t36.5 46.5t45 65.5t59 92.5t74 119t94.5 153q7 12 11 18l141 238l-164 276q-208 340 -243 390q-54 78 -91 93q-11 5 -26 7v26q9 0 70 -1t108 -1q37 0 105.5 1t97.5 1v-26q-47 -4 -47 -35q0 -39 81 -179q19 -33 97 -165q60 -100 120 -213 h5q22 42 122 211q141 243 163 294q14 34 14 54q0 19 -13 26q-9 5 -26 7v26q68 -2 198 -2q123 0 152 2v-26q-48 -7 -98 -78t-254 -410l-156 -262l145 -250q17 -28 48 -80q202 -336 248 -398q44 -58 79 -67q6 -2 14 -3v-27q-35 2 -184 2q-146 0 -201 -2v27q48 3 48 35 q0 42 -82 191q-26 49 -101 181q-83 141 -127 221h-4q-19 -35 -121 -215q-155 -266 -180 -330q-11 -28 -11 -47q0 -24 18 -31q9 -4 24 -5v-27q-23 0 -89 1t-106 1q-44 0 -102.5 -1t-73.5 -1z" />
<glyph unicode="Y" horiz-adv-x="1259" d="M-25 1573v26q6 0 64 -1t102 -1q38 0 107.5 1t97.5 1v-26q-52 -4 -52 -39q0 -42 69 -182q22 -43 86 -168q110 -208 182 -355h4q38 82 180 353q132 250 151 312q7 22 7 38q0 28 -22 36q-10 4 -27 5v26q63 -2 196 -2q119 0 152 2v-26q-14 -2 -25.5 -9t-27 -24.5t-37.5 -53 t-51.5 -87.5t-75.5 -136t-104 -192q-35 -65 -54 -100l-174 -324v-72v-29q0 -354 12.5 -434.5t79.5 -86.5v-27q-49 2 -184 2q-154 0 -191 -2v27q65 6 77.5 90.5t12.5 457.5v60l-178 340q-231 433 -271 498q-50 81 -82 96q-10 4 -24 6z" />
<glyph unicode="Z" horiz-adv-x="1247" d="M47 0v18q26 45 84.5 147.5t129 224.5t161.5 278l176 301q36 62 94 163t100.5 175t75.5 133l2 4h-530q-98 0 -145.5 -21.5t-61.5 -85.5h-27q0 98 -4 262q177 0 395 -1t277 -1h391v-18q-134 -248 -348 -610l-176 -303q-246 -420 -293 -502v-4h596q86 0 132.5 20t60.5 76h24 q-6 -123 -6 -258q-223 0 -451.5 1t-267.5 1h-389z" />
<glyph unicode="[" horiz-adv-x="589" d="M186 -127q0 31 1 115.5t2 250t1 392.5v311q0 147 -0.5 276t-1 210t-1 140t-1 91t-0.5 37v45q28 0 94.5 -1t84.5 -1q102 0 184 2v-72h-164q-19 0 -28 -10.5t-9 -24.5q-6 -117 -6 -692v-309q0 -606 6 -692q0 -17 11 -28t30 -11h158v-72q-50 0 -115.5 1t-77.5 1 q-18 0 -80.5 -1t-87.5 -1v43z" />
<glyph unicode="\" horiz-adv-x="993" d="M-33 1626h144q302 -565 907 -1665h-146q-401 748 -905 1665z" />
<glyph unicode="]" horiz-adv-x="589" d="M43 -100h158q40 0 43 43q4 160 4 690v309q0 632 -6 690q0 15 -9 26t-28 11h-162v72q88 -2 182 -2q13 0 78 1t100 1v-47q0 -5 -0.5 -37t-1 -90.5t-1 -139.5t-1 -209.5t-0.5 -275.5v-311q0 -227 1 -392.5t2 -250t1 -115.5v-43q-27 0 -91.5 1t-78.5 1q-7 0 -75 -1t-115 -1 v70z" />
<glyph unicode="^" horiz-adv-x="1105" d="M68 766l417 831h133l420 -831h-159l-330 672l-326 -672h-155z" />
<glyph unicode="_" horiz-adv-x="1024" d="M0 -154h1024v-102h-1024v102z" />
<glyph unicode="`" horiz-adv-x="899" d="M262 1866l70 108l282 -243l-36 -50z" />
<glyph unicode="a" horiz-adv-x="1419" d="M-12 -2v27q25 2 43 18t57 92.5t83.5 182t141.5 341.5l394 965h30l381 -967q172 -430 220.5 -529t93.5 -103v-27q-35 2 -164 2q-144 0 -195 -2v27q44 3 48 34q1 4 1 9q0 47 -55 194q-15 40 -74 193h-575q-114 -281 -129 -346q-4 -20 -4 -35q0 -33 21 -43q10 -5 28 -6v-27 q-51 2 -178 2q-131 0 -168 -2zM477 610h457v6q-203 543 -221 607h-2q-13 -41 -232 -607z" />
<glyph unicode="b" horiz-adv-x="1159" d="M125 4v25q42 2 58 34q23 47 27 258l1 336v320q0 409 -10.5 498.5t-65.5 93.5v26q19 0 73 1t77 1t92.5 2.5t105.5 2.5q139 0 240 -33q47 -15 90 -43t83.5 -71.5t64.5 -111t24 -149.5q0 -136 -81.5 -235t-198.5 -123v-5q149 -21 248.5 -124.5t99.5 -257.5v-3 q0 -115 -52.5 -207t-144.5 -151q-142 -92 -397 -92q-3 0 -180 6q-14 0 -67 1t-87 1zM395 207q0 -24 2.5 -30t12.5 -9q29 -8 92 -8q106 0 182 37q70 29 120 94t50 164v2q0 102 -59 170t-144 94q-73 24 -176 24q-60 0 -80 -2v-536zM395 901q7 0 27 -1t29 -1q80 0 141 19 q83 25 141 90.5t58 169.5v2q0 127 -81.5 195.5t-211.5 68.5q-63 0 -103 -4v-539z" />
<glyph unicode="c" horiz-adv-x="1427" d="M86 801v2q0 189 69 344.5t189 257.5t281.5 157.5t347.5 55.5q184 0 348 -35q-4 -64 -12 -274h-25q-19 72 -82 104q-79 37 -229 37q-308 0 -494 -175.5t-186 -475.5q0 -145 50.5 -268t138.5 -207.5t210 -131.5t262 -47q139 0 224 37q72 33 96 107h22q0 -192 2 -260 q-178 -54 -358 -54q-142 0 -271 36t-235 106.5t-184 169.5t-121 230.5t-43 283.5z" />
<glyph unicode="d" horiz-adv-x="1517" d="M121 0v29q44 3 61 35q24 48 28 255q1 85 1 338v320q0 409 -11.5 497.5t-74.5 92.5v26q159 6 205 6q190 5 237 5q332 0 537 -127q156 -93 243 -263.5t87 -377.5v-2q0 -425 -297 -662q-217 -178 -594 -178q-12 0 -228 6h-194zM403 203q0 -18 5 -24.5t18 -8.5q52 -8 145 -8 q302 0 481 180.5t179 484.5v2q0 155 -64 286t-174 212q-75 53 -185 82t-233 29q-89 0 -172 -6v-1229z" />
<glyph unicode="e" horiz-adv-x="1107" d="M131 -2v27q58 4 69 99t11 533v320q0 411 -10.5 501.5t-65.5 94.5v26q27 0 159 -1t226 -1q89 0 244 1t203 1q-9 -193 -9 -260h-24q-7 60 -53 79.5t-158 19.5h-320v-541h281q118 0 156.5 8t48.5 43h22q-2 -45 -2 -129q0 -92 2 -143h-22q-9 41 -46.5 51t-152.5 10h-287v-524 q0 -33 6 -40.5t35 -8.5h357q81 0 119 16.5t49 73.5h24q-8 -148 -8 -256q-58 0 -209.5 1t-232.5 1q-102 0 -244.5 -1t-167.5 -1z" />
<glyph unicode="f" horiz-adv-x="1075" d="M131 -2v29q58 7 69 100t11 530v320q0 408 -10.5 495.5t-65.5 94.5v32q11 0 145.5 -1t239.5 -1q90 0 246 1t201 1q-9 -216 -9 -260h-28q-7 61 -51 80t-154 19h-322v-572h277q116 0 153.5 9t47.5 45h26q-4 -90 -4 -132q0 -35 4 -141h-26q-10 41 -47 51.5t-148 10.5h-283 v-123q0 -373 11 -452q10 -79 44 -97q13 -7 34 -10v-29q-57 2 -181 2q-127 0 -180 -2z" />
<glyph unicode="g" horiz-adv-x="1538" d="M86 799v2q0 153 45 284.5t126.5 229t192 166.5t244 104t281.5 35q186 0 383 -43q-9 -131 -12 -277h-25q-17 75 -82 107q-95 45 -260 45q-309 0 -497.5 -177t-188.5 -474q0 -196 85 -346t233 -230t335 -80q135 0 230 25q0 28 1 85t1 75q0 238 -15 311.5t-78 79.5v27 q132 -5 177 -5q38 0 176 5v-27q-52 -6 -62 -63t-10 -310v-80q0 -184 2 -233q-180 -60 -428 -60q-184 0 -341 57t-270.5 161t-178 260t-64.5 346z" />
<glyph unicode="h" horiz-adv-x="1617" d="M121 -2v27q44 3 61 36q24 48 28 257q1 85 1 339v320q0 411 -12 501.5t-74 94.5v26q16 0 79.5 -1t102.5 -1q41 0 100 1t78 1v-26q-59 -4 -70.5 -91t-11.5 -478v-107h811v109q0 384 -9 462q-9 81 -41 98q-12 6 -31 7v26q19 0 79 -1t99 -1q38 0 97 1t77 1v-26 q-58 -4 -69 -94.5t-11 -501.5v-320q0 -419 10 -508q10 -94 45 -114q14 -8 41 -10v-27q-22 0 -82.5 1t-99.5 1q-40 0 -106.5 -1t-92.5 -1v27q47 3 64 36q25 48 29 247q1 79 1 308v117h-811v-117q0 -405 12.5 -496t78.5 -95v-27q-23 0 -84.5 1t-100.5 1q-41 0 -106.5 -1 t-81.5 -1z" />
<glyph unicode="i" horiz-adv-x="614" d="M123 -2v27q43 5 59 37q24 48 28 257q1 85 1 336v322q0 409 -11.5 498.5t-74.5 95.5v28q19 0 79 -1t101 -1q37 0 99.5 1t80.5 1v-26q-60 -7 -71 -96t-11 -500v-320q0 -421 11 -511q10 -90 44 -110q13 -8 38 -11v-27q-23 0 -86.5 1t-102.5 1q-44 0 -105 -1t-79 -1z" />
<glyph unicode="j" horiz-adv-x="991" d="M47 31v266h25q27 -154 239 -154q101 0 172 50q28 18 53 51t37 71q17 49 23 111t6 180v369q0 410 -11.5 499t-74.5 99v26q63 -2 191 -2q124 0 167 2v-26q-59 -10 -70 -96t-11 -481v-6.5v-6v-6.5v-373q0 -143 -11 -229t-39 -152q-48 -118 -158 -183t-263 -65 q-149 0 -275 56z" />
<glyph unicode="k" horiz-adv-x="1318" d="M123 -2v27q43 8 59 39q24 48 27 251q2 86 2 342v320q0 401 -12 492.5t-74 101.5v28q20 0 80 -1t102 -1q37 0 94.5 1t83.5 1v-26q-58 -10 -70 -100t-12 -461v-140h5l333 404q168 200 190 252q16 38 -19 46q-3 0 -7 1v24q72 -2 185 -2q125 0 174 2v-26q-41 -4 -82 -42.5 t-157 -174.5q-50 -58 -79 -92l-364 -426l379 -443q198 -234 262.5 -298.5t113.5 -71.5v-27q-51 2 -188 2q-131 0 -203 -2v25q40 4 33 34q-10 38 -132 186q-30 37 -116 140l-325 387h-3v-154q0 -393 10 -477q11 -83 44 -103q14 -7 37 -11v-27q-28 0 -86.5 1t-94.5 1 q-41 0 -106.5 -1t-83.5 -1z" />
<glyph unicode="l" horiz-adv-x="1040" d="M123 -2v29q44 6 60 37q23 47 27 246q1 78 1 347v320q0 409 -11.5 497.5t-74.5 98.5v26q18 0 79.5 -1t102.5 -1q38 0 99.5 1t80.5 1v-26q-61 -10 -72.5 -98.5t-11.5 -497.5v-782q0 -19 6 -25t23 -6h367q76 0 116.5 20.5t49.5 77.5h24q-1 -40 -3 -123t-3 -141 q-113 2 -442 2q-371 0 -418 -2z" />
<glyph unicode="m" horiz-adv-x="1935" d="M31 -2v27q57 4 79.5 100.5t75.5 531.5l115 955h29q402 -795 493 -976.5t135 -281.5h5q35 82 117.5 245t337.5 655q37 71 59 112.5t58.5 112t68.5 133.5h30l109 -955q49 -436 70.5 -532t76.5 -100v-27q-45 2 -170 2q-145 0 -196 -2v27q49 3 64 38q11 25 11 90q0 59 -9 150 q-6 72 -27 260q-48 426 -52 549h-2q-26 -61 -57.5 -127t-51 -106t-72 -145t-77.5 -156q-151 -296 -286 -547h-29q-192 369 -283 549q-193 396 -250 534h-2q-5 -108 -53 -551q-36 -342 -36 -423q0 -86 35 -106q14 -7 38 -9v-27q-22 0 -87 1t-101 1q-40 0 -94.5 -1t-71.5 -1z " />
<glyph unicode="n" horiz-adv-x="1630" d="M111 -2v25q43 4 59 38q24 49 28 264q1 84 1 332v957h30q217 -255 467 -549t312 -367q128 -147 249 -303h5v586q0 395 -11 480q-10 87 -45 105q-14 7 -35 9v24q22 0 81 -1t91 -1q38 0 93.5 1t74.5 1v-24q-56 -6 -66.5 -94.5t-10.5 -485.5v-20v-995h-31 q-195 228 -444.5 519t-321.5 375q-169 196 -264 318h-2v-541q0 -433 12 -527.5t76 -98.5v-27q-55 2 -183 2q-118 0 -165 -2z" />
<glyph unicode="o" d="M86 788q0 237 110 427t302.5 296.5t429.5 106.5q226 0 409.5 -104t287.5 -288t104 -411v-2q0 -233 -105.5 -424t-296.5 -302.5t-430 -111.5q-167 0 -317.5 63.5t-258.5 171.5t-171.5 259t-63.5 319zM293 799q0 -183 81 -333t221.5 -234.5t311.5 -84.5q173 0 314 84 t222 235t81 339v2q0 135 -48 254t-130 204t-196 134t-243 49t-242.5 -49.5t-195 -135.5t-129 -206.5t-47.5 -257.5z" />
<glyph unicode="p" horiz-adv-x="1157" d="M127 1571v24q30 0 90 1t88 1q18 1 67 3t68.5 2h67.5q175 -3 291 -54q122 -53 194 -161.5t72 -262.5q0 -126 -59 -239q-52 -101 -155 -166.5t-239 -87.5q-73 -15 -215 -15v-73q0 -351 12 -429.5t74 -88.5v-27q-27 0 -86 1t-94 1q-39 0 -95.5 -1t-78.5 -1v27q60 10 71 97.5 t11 496.5v12.5v12v13.5v320q0 399 -10 481q-9 83 -41 102q-12 8 -33 11zM397 778q23 -2 88 -2q233 7 326 148q57 83 57 196v2q0 94 -42.5 167.5t-120.5 111.5q-78 41 -207 41q-54 0 -101 -6v-658z" />
<glyph unicode="q" d="M86 786q0 177 64.5 332t176.5 264.5t268.5 172.5t334.5 63q169 0 317.5 -61t254 -167.5t166.5 -256.5t61 -322v-2q0 -112 -30 -219t-78.5 -190.5t-111.5 -145.5q-97 -113 -229 -174v-6q50 -28 113 -57t141 -59t135 -42q16 -4 33 -4q21 0 45 6l14 -16q-68 -78 -145 -131 q-14 -5 -30 -5t-34 5q-181 63 -448 227q-104 -25 -205 -25q-169 0 -320 63.5t-259 172t-171 259t-63 318.5zM293 799q0 -136 47 -257.5t128.5 -208.5t195.5 -137.5t243 -50.5q132 0 246 50t195 137t127.5 209.5t46.5 263.5v2q0 135 -47.5 254t-129 204.5t-196 135 t-244.5 49.5q-128 0 -241.5 -50t-194.5 -136.5t-128.5 -207.5t-47.5 -257z" />
<glyph unicode="r" horiz-adv-x="1222" d="M127 -2v27q61 4 72.5 99t11.5 533v320q0 402 -10 486q-10 85 -42 101q-12 6 -32 7v24q25 0 77 1t85 1q17 1 58.5 3t75.5 3t58 1q172 0 283 -43q49 -17 93 -48.5t84 -79.5t63.5 -119t23.5 -155q0 -134 -55.5 -228.5t-134.5 -150.5q-68 -50 -146 -73v-5q51 -71 391 -530 q103 -139 172 -147v-27q-21 0 -66 1t-71 1q-19 0 -47 -1t-45 -1q-42 0 -74 29q-42 60 -125 179.5t-163.5 234.5t-163.5 231h-103v-86q0 -385 11 -471t69 -90v-27q-21 0 -78 1t-92 1q-40 0 -98 -1t-82 -1zM397 823q23 -2 80 -2q116 0 199 47q67 38 111 108t44 171v2 q0 136 -86.5 214.5t-240.5 78.5q-67 0 -107 -4v-615z" />
<glyph unicode="s" horiz-adv-x="956" d="M80 31q7 101 10 272h27q28 -160 252 -160q126 0 209.5 69t83.5 183q0 71 -31 130.5t-101 117.5q-35 28 -100.5 79.5t-99.5 78.5q-113 90 -167 181.5t-54 211.5q0 84 33 159.5t92 132.5t148.5 90.5t195.5 33.5q124 0 229 -33q-8 -183 -10 -262h-25q-21 131 -190 131 q-120 0 -197.5 -65.5t-77.5 -174.5q0 -118 99 -211q25 -25 54 -49t81 -64.5t77 -60.5q79 -61 128 -114t82.5 -131t33.5 -170v-3q0 -85 -32.5 -160.5t-93 -134.5t-155.5 -93.5t-212 -34.5q-76 0 -156.5 15t-132.5 36z" />
<glyph unicode="t" horiz-adv-x="1245" d="M23 1333v266q164 -2 512 -2h176q365 0 512 2v-266h-27q-13 64 -48.5 85.5t-117.5 21.5h-311v-783q0 -423 10 -513q10 -91 43 -110q15 -8 39 -9v-27q-51 2 -186 2q-144 0 -189 -2v27q45 4 62 36q25 47 28 250q2 86 2 346v783h-311q-86 0 -120.5 -21t-47.5 -86h-26z" />
<glyph unicode="u" horiz-adv-x="1576" d="M92 1573v26q21 0 84.5 -1t104.5 -1q39 0 99.5 1t80.5 1v-26q-65 -4 -77.5 -94.5t-12.5 -501.5v-309q0 -134 24.5 -221.5t77.5 -153.5q51 -66 136 -101.5t184 -35.5q201 0 311 131q108 122 108 389v301q0 395 -9 477q-9 91 -42 110q-15 9 -39 11v24q24 0 83.5 -1t94.5 -1 q41 0 100 1t77 1v-24q-58 -6 -69 -96.5t-11 -501.5v-303q0 -174 -37 -294.5t-111 -207.5q-74 -89 -193.5 -143t-264.5 -54q-160 0 -284.5 56t-201.5 162q-68 85 -98.5 194.5t-30.5 267.5v322q0 411 -11.5 501.5t-72.5 94.5z" />
<glyph unicode="v" horiz-adv-x="1437" d="M-25 1573v26q11 0 72 -1t107 -1q44 0 112.5 1t87.5 1v-26q-48 -3 -55 -32q-2 -6 -2 -15q0 -51 55 -194q28 -73 117 -290v-1l1 -1v-1l1 -1v-1l1 -1v-1v-1l1 -2q203 -512 250 -655h4q69 199 250 655q141 350 163 425q11 40 11 65q0 30 -15 40q-13 9 -38 11v26q49 -2 194 -2 q131 0 162 2v-26q-48 -4 -94.5 -94.5t-216.5 -501.5l-410 -1000h-31l-411 1000q-89 217 -132.5 318t-80.5 172.5t-56.5 87.5t-46.5 18z" />
<glyph unicode="w" horiz-adv-x="2009" d="M-14 1573v26q45 -2 176 -2q130 0 200 2v-26q-54 -4 -65 -36q-5 -13 -5 -36q0 -56 29 -175q16 -68 68 -263q109 -396 164 -633h4q45 134 234 625q32 79 107.5 260t107.5 258h26q41 -99 113.5 -275t101.5 -245q206 -558 226 -617h2q56 251 159 623q86 326 95 401q2 19 2 35 q0 52 -25 67q-16 9 -45 11v26q32 0 94 -1t100 -1q42 0 92 1t70 1v-26q-48 -6 -81.5 -95t-141.5 -483l-281 -1028h-30q-409 1035 -471 1221h-2q-55 -166 -482 -1221h-32l-285 1028q-112 405 -139 476q-30 81 -62 96q-10 4 -24 6z" />
<glyph unicode="x" horiz-adv-x="1316" d="M6 -2v27q14 2 26 6t27 16t29 27.5t36.5 46.5t45 65.5t59 92.5t74 119t94.5 153q7 12 11 18l141 238l-164 276q-208 340 -243 390q-54 78 -91 93q-11 5 -26 7v26q9 0 70 -1t108 -1q37 0 105.5 1t97.5 1v-26q-47 -4 -47 -35q0 -39 81 -179q19 -33 97 -165q60 -100 120 -213 h5q22 42 122 211q141 243 163 294q14 34 14 54q0 19 -13 26q-9 5 -26 7v26q68 -2 198 -2q123 0 152 2v-26q-48 -7 -98 -78t-254 -410l-156 -262l145 -250q17 -28 48 -80q202 -336 248 -398q44 -58 79 -67q6 -2 14 -3v-27q-35 2 -184 2q-146 0 -201 -2v27q48 3 48 35 q0 42 -82 191q-26 49 -101 181q-83 141 -127 221h-4q-19 -35 -121 -215q-155 -266 -180 -330q-11 -28 -11 -47q0 -24 18 -31q9 -4 24 -5v-27q-23 0 -89 1t-106 1q-44 0 -102.5 -1t-73.5 -1z" />
<glyph unicode="y" horiz-adv-x="1259" d="M-25 1573v26q6 0 64 -1t102 -1q38 0 107.5 1t97.5 1v-26q-52 -4 -52 -39q0 -42 69 -182q22 -43 86 -168q110 -208 182 -355h4q38 82 180 353q132 250 151 312q7 22 7 38q0 28 -22 36q-10 4 -27 5v26q63 -2 196 -2q119 0 152 2v-26q-14 -2 -25.5 -9t-27 -24.5t-37.5 -53 t-51.5 -87.5t-75.5 -136t-104 -192q-35 -65 -54 -100l-174 -324v-72v-29q0 -354 12.5 -434.5t79.5 -86.5v-27q-49 2 -184 2q-154 0 -191 -2v27q65 6 77.5 90.5t12.5 457.5v60l-178 340q-231 433 -271 498q-50 81 -82 96q-10 4 -24 6z" />
<glyph unicode="z" horiz-adv-x="1247" d="M47 0v18q26 45 84.5 147.5t129 224.5t161.5 278l176 301q36 62 94 163t100.5 175t75.5 133l2 4h-530q-98 0 -145.5 -21.5t-61.5 -85.5h-27q0 98 -4 262q177 0 395 -1t277 -1h391v-18q-134 -248 -348 -610l-176 -303q-246 -420 -293 -502v-4h596q86 0 132.5 20t60.5 76h24 q-6 -123 -6 -258q-223 0 -451.5 1t-267.5 1h-389z" />
<glyph unicode="{" horiz-adv-x="630" d="M14 750v55q91 2 136.5 41t62.5 137q13 55 3.5 246t-3.5 248q7 66 30.5 115t59 77.5t72.5 43t80 20.5q62 9 120 6v-62q-73 0 -114 -12q-41 -16 -68 -56t-35 -122q-3 -47 7.5 -239t-0.5 -234q-12 -66 -41.5 -116.5t-68.5 -79t-85 -36.5v-6q45 -9 84 -38.5t69 -80.5t42 -116 q8 -70 4.5 -144.5t-9 -179t-2.5 -149.5q4 -35 10.5 -62.5t15.5 -47.5t23 -34t29.5 -23.5t38 -14.5t45.5 -7t55 -2v-61q-75 -4 -120 4q-35 6 -65 16t-61 29.5t-53.5 47t-39.5 70t-23 95.5q-6 51 -0.5 157t9.5 181.5t-9 154.5q-20 98 -64.5 137.5t-134.5 41.5z" />
<glyph unicode="|" horiz-adv-x="573" d="M223 -512v2048h127v-2048h-127z" />
<glyph unicode="}" horiz-adv-x="630" d="M53 -123q78 0 115 12q90 33 102 179q4 50 -5 239.5t1 233.5q17 98 70.5 158t124.5 73v6q-70 14 -123.5 76t-71.5 160q-10 44 -1 233.5t5 239.5q-7 82 -33 122.5t-69 55.5q-39 12 -115 12v62q66 4 123 -4q218 -37 242 -258q5 -53 -6 -248.5t4 -245.5q22 -98 65.5 -137.5 t134.5 -40.5v-55q-92 -3 -137 -42t-63 -137q-13 -53 -3 -246t5 -247q-25 -227 -242 -256q-65 -9 -123 -6v61z" />
<glyph unicode="~" horiz-adv-x="1103" d="M98 664q47 79 118.5 126.5t152.5 47.5q47 0 90.5 -13.5t105.5 -45t78 -38.5q58 -34 113 -34q54 0 95 32t77 99l82 -78q-53 -85 -113 -129.5t-139 -44.5h-2q-37 0 -78 10.5t-66 21t-73 34t-68 32.5q-61 33 -111 33q-29 0 -55.5 -10.5t-49 -32t-39 -41.5t-36.5 -49z" />
<glyph unicode="&#xa1;" horiz-adv-x="561" d="M156 1501q0 51 34 84t86 33q54 0 88.5 -33t34.5 -84q0 -50 -34 -85.5t-86 -35.5h-3q-52 0 -86 34t-34 87zM184 0q17 759 21 1204h151q1 -115 10 -603t11 -601h-193z" />
<glyph unicode="&#xa2;" horiz-adv-x="946" d="M84 801v2q0 195 125 324t332 151q10 140 22 281v6h127v-6q-3 -56 -26 -277q78 0 174 -25q-1 -12 -6 -81.5t-9 -112.5h-22q-25 78 -174 78q-161 0 -261 -92.5t-100 -245.5q0 -159 99.5 -251.5t246.5 -92.5q64 0 114 20.5t67 61.5h20q3 -74 12 -187q-98 -39 -250 -39 q-22 -231 -22 -284v-4h-131v4q1 21 33 303q-165 38 -268 162t-103 305z" />
<glyph unicode="&#xa3;" horiz-adv-x="1128" d="M51 -2v98q56 7 95.5 43t64 102.5t38 152.5t19.5 208q6 74 6 141q-26 0 -87 -1t-81 -1v111q20 0 84.5 -1t88.5 -1q9 235 30 354q34 192 157 300t316 108h2q122 0 215 -35q-11 -146 -16 -252h-27q-10 72 -61 98q-43 25 -113 25q-117 0 -190 -67t-96 -181q-23 -127 -31 -350 q325 0 364 2q-2 -12 -2 -55q0 -6 1 -27.5t1 -28.5q-11 0 -153 1t-215 1q-5 -116 -8 -155q-14 -152 -43 -252.5t-82 -169.5q-7 -10 6 -10q104 2 571 2q70 1 99 20.5t38 69.5h25q-1 -50 -3.5 -130t-2.5 -120q-125 2 -475 2q-414 0 -535 -2z" />
<glyph unicode="&#xa4;" horiz-adv-x="1236" d="M139 279l144 147q-101 127 -101 285q0 77 28 153t75 127l-146 144l90 86l140 -160q48 44 116 66t131 22q160 0 254 -86l140 158l88 -86l-146 -142q48 -50 75.5 -127t27.5 -155q0 -74 -30 -152.5t-77 -130.5l150 -149l-90 -89l-142 166q-104 -84 -250 -84q-152 0 -249 80 l-138 -162zM326 711q0 -144 83 -234t207 -90t209.5 91t85.5 233q0 135 -82.5 228t-212.5 93h-2q-122 0 -205 -91t-83 -230z" />
<glyph unicode="&#xa5;" horiz-adv-x="1210" d="M29 1573v26q14 0 67 -1t88 -1q37 0 102 1t79 1v-26q-38 -6 -41 -34q-3 -42 78 -215q30 -63 104 -212q103 -210 108 -223h2q29 67 103 219q158 311 180 385q19 64 -12 76q-8 3 -19 4v26q22 0 85 -1t91 -1q30 0 81 1t61 1v-28q-42 -7 -95 -95.5t-249 -469.5l-123 -240 q117 2 295 2v-92q-11 0 -125 1t-187 1v-139q75 0 190 1t122 1v-92q-12 0 -130 1t-182 1v-187q0 -102 10 -152.5t27.5 -66.5t55.5 -20v-27q-17 0 -81.5 1t-107.5 1q-44 0 -108.5 -1t-77.5 -1v27q36 4 53.5 20t27 66.5t9.5 152.5v187q-109 -2 -313 -2v92q11 0 126.5 -1 t188.5 -1v139q-74 0 -186.5 -1t-128.5 -1v92q25 0 131 -1t166 -1l-121 238q-17 33 -49 94q-170 325 -213 396t-82 79z" />
<glyph unicode="&#xa6;" horiz-adv-x="573" d="M223 358h127v-716h-127v716zM223 666v716h127v-716h-127z" />
<glyph unicode="&#xa7;" horiz-adv-x="1159" d="M96 727q0 73 42 142t126 118q-37 32 -61.5 81.5t-24.5 107.5v2q0 149 126 236t317 87q195 0 383 -90q-16 -57 -48 -217l-26 4q-5 50 -47 84t-90 47q-86 35 -170 35q-119 0 -196 -48.5t-77 -127.5q0 -80 72.5 -125t269.5 -107q202 -62 291.5 -145t89.5 -213 q0 -162 -143 -262q43 -36 66.5 -90t23.5 -105q0 -91 -40.5 -160.5t-109 -109.5t-149 -60t-170.5 -20q-208 0 -406 105q23 79 58 219l24 -4q20 -63 58.5 -95.5t97.5 -52.5q84 -31 166 -31q133 0 214 56.5t81 138.5q0 83 -72 134.5t-250 105.5q-111 35 -182 65t-130.5 72 t-86.5 96.5t-27 126.5zM252 748q0 -28 10 -53t23.5 -43t40.5 -36.5t47 -29.5t58 -25t59 -21t63 -20q174 -55 264 -102q44 28 70 72.5t26 93.5q0 78 -58.5 129.5t-201.5 95.5q-189 60 -282 98q-119 -59 -119 -157v-2z" />
<glyph unicode="&#xa8;" horiz-adv-x="899" d="M199 1776v2q0 32 25.5 56t62.5 24q35 0 58.5 -24.5t23.5 -57.5q0 -35 -23.5 -60.5t-58.5 -25.5q-37 0 -62.5 25.5t-25.5 60.5zM520 1776v2q0 32 25 56t61 24q35 0 59.5 -24.5t24.5 -57.5q0 -34 -24.5 -60t-59.5 -26q-36 0 -61 26t-25 60z" />
<glyph unicode="&#xa9;" horiz-adv-x="1601" d="M86 811q0 145 58 277.5t155 228.5t230 152.5t278 56.5h2q143 0 273.5 -54.5t225.5 -148.5t151.5 -227t56.5 -283q0 -143 -55 -274t-150 -228.5t-231 -155.5t-289 -59q-195 0 -357.5 96.5t-255 260.5t-92.5 358zM195 809q0 -168 81 -310t220 -224t303 -82h2 q124 0 236 48.5t193 130.5t129 196t48 241q0 131 -49 247.5t-131.5 198t-194 129.5t-233.5 48q-121 0 -232 -48.5t-192.5 -130.5t-130.5 -198.5t-49 -245.5zM444 809q0 77 22.5 143t63 114t95.5 82.5t120 51.5t136 17h2q97 0 170 -19q-5 -52 -11 -149h-18q-20 69 -137 69 q-134 0 -220.5 -80.5t-86.5 -218.5q0 -145 87.5 -227t209.5 -82q52 0 90.5 17.5t50.5 52.5h18q0 -54 4 -144q-78 -26 -170 -26q-121 0 -217.5 48.5t-152.5 140t-56 210.5z" />
<glyph unicode="&#xaa;" horiz-adv-x="663" d="M51 1065q0 140 166 213q75 31 215 61q0 75 -36.5 118.5t-110.5 43.5q-121 0 -156 -84h-23q0 29 -2 78.5t-2 58.5q92 43 205 43h2q110 0 174 -53q74 -63 74 -221v-213q0 -84 16 -125t48 -57v-23q-132 -4 -162 -4q0 1 -3.5 12.5t-8 31t-7.5 34.5h-6q-32 -42 -82 -66 t-106 -24q-83 0 -139 46.5t-56 129.5zM176 1077q0 -38 27.5 -62t70.5 -24q56 0 99.5 31.5t52.5 77.5q6 41 6 147h-4q-121 -23 -174 -55q-78 -43 -78 -113v-2z" />
<glyph unicode="&#xab;" horiz-adv-x="903" d="M61 799q206 210 361 383l51 -39q-44 -72 -123 -197t-88 -139q1 -2 84 -138.5t127 -215.5l-51 -41q-113 132 -361 387zM412 799q243 254 358 383l51 -39q-44 -72 -123 -197t-88 -139q1 -2 84 -138.5t127 -215.5l-51 -41q-98 115 -358 387z" />
<glyph unicode="&#xac;" horiz-adv-x="1103" d="M94 721v131h918v-481h-135v350h-783z" />
<glyph unicode="&#xad;" horiz-adv-x="622" d="M61 700q2 18 2 74q0 58 -2 74h500q-2 -16 -2 -70v-2q0 -58 2 -76q-70 2 -248 2q-180 0 -252 -2z" />
<glyph unicode="&#xae;" horiz-adv-x="813" d="M57 1245q0 142 104.5 247t252.5 105q142 0 242 -102.5t100 -245.5v-2q0 -143 -103.5 -246.5t-253.5 -103.5q-144 0 -243 102.5t-99 245.5zM133 1247q0 -118 79.5 -200t195.5 -82t194 81.5t78 200.5v2q0 117 -80 199t-197 82q-113 0 -191.5 -82.5t-78.5 -200.5zM276 1065 v12q14 2 17.5 27t3.5 123v78q0 90 -3 111.5t-15 23.5v14h36q16 2 68 2q46 0 76 -10t51.5 -36t21.5 -64v-3q0 -75 -77 -106q3 -6 7.5 -13t12.5 -18t15.5 -21.5t23.5 -32.5t31 -42q18 -27 35 -33v-10h-80q-10 0 -13 6q-70 104 -104 150h-18v-23q0 -45 0.5 -67t2.5 -35.5 t5 -16.5t10 -4v-12h-107zM365 1278h18q76 0 76 63v2q0 26 -18.5 40t-51.5 14q-4 0 -12.5 -1t-11.5 -1v-117z" />
<glyph unicode="&#xaf;" horiz-adv-x="899" d="M233 1722q3 15 3 52q0 29 -3 41h435q-2 -8 -2 -39v-2q0 -42 2 -52h-435z" />
<glyph unicode="&#xb0;" horiz-adv-x="761" d="M82 1145q0 125 83 207t208 82h2q122 0 203 -82t81 -207q0 -130 -82 -207.5t-206 -77.5q-123 0 -206 77.5t-83 207.5zM188 1147q0 -89 52 -148t133 -59q83 0 131.5 55.5t48.5 147.5q0 91 -48 150t-138 59h-2q-76 0 -126.5 -56.5t-50.5 -148.5z" />
<glyph unicode="&#xb1;" horiz-adv-x="1103" d="M94 66v131h918v-131h-918zM94 674v133h391v377h136v-377h391v-133h-391v-416h-136v416h-391z" />
<glyph unicode="&#xb2;" horiz-adv-x="747" d="M90 834v73q103 77 211 176q72 67 127 142q47 70 47 135q0 62 -41.5 97.5t-109.5 35.5q-88 0 -140 -37q-36 -28 -45 -55l-20 -2q0 12 -1 69.5t-1 77.5q89 51 231 51q126 0 196 -60.5t70 -156.5q0 -83 -42 -156t-123 -151q-80 -77 -156 -133h211q51 0 73 8t29 35h21 q0 -6 -1 -66t-1 -83h-535z" />
<glyph unicode="&#xb3;" horiz-adv-x="722" d="M96 860q1 14 4 72t4 72h21q16 -36 39 -50q47 -36 143 -36q38 0 70.5 9.5t58 37.5t25.5 71q0 41 -22 69.5t-60 42t-78 18.5t-88 3v97q28 0 51 1.5t51 5.5t48.5 13t39 22t28 34.5t9.5 48.5q0 52 -39 78t-94 26q-132 0 -155 -78h-21q0 60 -4 146q75 34 199 34q62 0 116 -18 t93.5 -62.5t39.5 -109.5q0 -71 -44.5 -119.5t-110.5 -64.5v-2q74 -10 127 -60t53 -129q0 -55 -24.5 -98.5t-66 -69t-90.5 -38.5t-102 -13q-132 0 -221 47z" />
<glyph unicode="&#xb4;" horiz-adv-x="899" d="M285 1731l280 243l70 -106l-316 -187z" />
<glyph unicode="&#xb5;" horiz-adv-x="1181" d="M125 -268q31 165 37 270q16 229 16 367v594h160v-394q0 -195 37 -288q26 -64 77.5 -108t122.5 -44q76 0 128.5 43.5t78.5 110.5q56 133 56 409v271h157v-271q0 -261 17 -434q20 -173 63 -258h-149q-24 50 -33 111q-12 62 -12 133h-4q-33 -120 -112.5 -192t-201.5 -72 q-181 0 -256 165h-6v-67q-1 -82 -13.5 -187.5t-25.5 -158.5h-137z" />
<glyph unicode="&#xb6;" horiz-adv-x="1126" d="M115 1030q0 77 19 144.5t63.5 128.5t112.5 104t172 68.5t235 25.5q153 0 231 -16v-1628h-100v1556h-148v-1556h-100v768h-22q-70 0 -136 15t-126 47t-104.5 78.5t-70.5 114.5t-26 150z" />
<glyph unicode="&#xb7;" horiz-adv-x="438" d="M98 797q0 49 36 85t85 36h2q51 0 86 -35.5t35 -85.5t-35.5 -84.5t-87.5 -34.5q-50 0 -85.5 35t-35.5 84z" />
<glyph unicode="&#xb8;" horiz-adv-x="899" d="M270 -397l17 63q33 -8 71 -8q54 0 88.5 25.5t34.5 70.5q0 42 -36 63t-89 23v4l90 158h86l-63 -104v-4q63 -13 93 -49t30 -85q0 -59 -39 -99t-89.5 -55.5t-105.5 -15.5q-49 0 -88 13z" />
<glyph unicode="&#xb9;" horiz-adv-x="542" d="M39 1481q127 48 254 108h65q-2 -82 -2 -278v-166q0 -200 9.5 -242t60.5 -45v-24h-276v24q53 1 63 42.5t10 234.5v10v289q0 21 -2.5 26.5t-11.5 3.5q-11 -3 -68.5 -21.5t-79.5 -23.5z" />
<glyph unicode="&#xba;" horiz-adv-x="817" d="M53 1247q0 90 45 170t128.5 130t185.5 50h2q155 0 251.5 -102t96.5 -244q0 -66 -24 -129.5t-68 -115.5t-112.5 -83.5t-149.5 -31.5q-106 0 -189 52t-124.5 132t-41.5 172zM190 1247q0 -99 59 -173.5t161 -74.5h2q100 0 157.5 74t57.5 174q0 102 -59.5 173t-157.5 71 q-99 0 -159.5 -72t-60.5 -172z" />
<glyph unicode="&#xbb;" horiz-adv-x="903" d="M82 453q53 91 207 338q-22 40 -94.5 161t-112.5 193l49 39q155 -178 354 -387q-241 -252 -354 -383zM426 453q45 75 209 338q-26 46 -98 166t-111 188l49 39q135 -155 356 -387q-241 -252 -354 -383z" />
<glyph unicode="&#xbc;" horiz-adv-x="1517" d="M96 1481q134 51 252 108h66q0 -34 -1 -117.5t-1 -160.5v-166v-9q0 -176 10 -223t59 -55v-24h-274v24q51 10 61.5 57.5t10.5 229.5v289q0 21 -2.5 26.5t-10.5 3.5q-9 -3 -39 -12.5l-60 -19t-48 -13.5zM201 -43l944 1679h106l-944 -1679h-106zM715 170v57q244 304 434 533 h100v-498h125v-92h-125q0 -71 8.5 -102t42.5 -43v-25h-237v25q38 16 47.5 46.5t9.5 98.5h-405zM866 262h254q0 280 2 320h-4q-24 -32 -78 -99.5t-108 -135.5t-66 -83v-2z" />
<glyph unicode="&#xbd;" horiz-adv-x="1517" d="M78 1481q162 64 252 108h65q0 -34 -1 -117.5t-1 -160.5v-166q0 -200 9.5 -242t60.5 -45v-24h-275v24q52 1 62 44t10 243v289q0 21 -2.5 26.5t-11.5 3.5q-123 -39 -146 -45zM180 -43l944 1679h107l-944 -1679h-107zM854 0v74q248 190 336 317q47 65 47 135 q0 62 -41.5 97.5t-110.5 35.5q-67 0 -116.5 -23t-67.5 -69l-18 -2q0 70 -4 148q92 51 233 51q126 0 195 -60.5t69 -156.5q0 -82 -42 -155t-122 -152q-102 -95 -155 -134h211q49 0 71.5 8.5t28.5 35.5h23q0 -6 -2.5 -66.5t-2.5 -83.5h-532z" />
<glyph unicode="&#xbe;" horiz-adv-x="1517" d="M115 860q0 6 3 66.5t5 77.5h20q16 -36 37 -50q49 -36 144 -36q39 0 72 9.5t58 37.5t25 71q0 41 -22 69.5t-60.5 42t-79 18.5t-88.5 3v97q44 0 78.5 4t72 15.5t58.5 38.5t21 67q0 51 -40 77.5t-93 26.5q-58 0 -101 -19.5t-55 -58.5h-23q0 103 -2 146q75 34 199 34 q62 0 116.5 -18t94 -62.5t39.5 -109.5q0 -71 -45 -119.5t-113 -64.5v-2q74 -10 127 -60t53 -129q0 -73 -43 -124.5t-104 -73t-133 -21.5q-132 0 -221 47zM262 -43l944 1679h107l-944 -1679h-107zM770 170v57q255 317 436 533h101l-2 -498h125v-92h-123q0 -39 1 -56t5 -39 t14.5 -32.5t28.5 -17.5v-25h-238v25q38 14 48 45t10 100h-406zM922 262h256q0 280 2 320h-6q-138 -180 -252 -318v-2z" />
<glyph unicode="&#xbf;" horiz-adv-x="960" d="M100 379q0 120 52.5 217.5t156.5 210.5q104 117 140.5 196.5t37.5 206.5h160q2 -143 -35.5 -240.5t-142.5 -221.5q-87 -105 -130.5 -183.5t-43.5 -158.5q0 -118 80.5 -191.5t204.5 -73.5q223 0 264 168h24q3 -102 11 -254q-65 -33 -158 -55q-94 -23 -172 -23h-2 q-154 0 -268 70q-88 55 -133.5 143.5t-45.5 188.5zM444 1497q0 50 34.5 85.5t86.5 35.5q51 0 87 -35.5t36 -85.5q0 -51 -36 -87t-87 -36h-2q-51 0 -85 36t-34 87z" />
<glyph unicode="&#xc0;" horiz-adv-x="1419" d="M-12 -2v27q25 2 43 18t57 92.5t83.5 182t141.5 341.5l394 965h30l381 -967q172 -430 220.5 -529t93.5 -103v-27q-35 2 -164 2q-144 0 -195 -2v27q44 3 48 34q7 39 -54 203q-15 40 -74 193h-575q-114 -281 -129 -346q-14 -64 17 -78q10 -5 28 -6v-27q-51 2 -178 2 q-131 0 -168 -2zM440 1870l70 108l281 -245l-35 -47zM477 610h457v6q-203 543 -221 607h-2q-13 -41 -232 -607z" />
<glyph unicode="&#xc1;" horiz-adv-x="1419" d="M-12 -2v27q25 2 43 18t57 92.5t83.5 182t141.5 341.5l394 965h30l381 -967q172 -430 220.5 -529t93.5 -103v-27q-35 2 -164 2q-144 0 -195 -2v27q44 3 48 34q7 39 -54 203q-15 40 -74 193h-575q-114 -281 -129 -346q-14 -64 17 -78q10 -5 28 -6v-27q-51 2 -178 2 q-131 0 -168 -2zM477 610h457v6q-203 543 -221 607h-2q-13 -41 -232 -607zM641 1735l283 243l69 -108l-315 -184z" />
<glyph unicode="&#xc2;" horiz-adv-x="1419" d="M-12 -2v27q25 2 43 18t57 92.5t83.5 182t141.5 341.5l394 965h30l381 -967q172 -430 220.5 -529t93.5 -103v-27q-35 2 -164 2q-144 0 -195 -2v27q44 3 48 34q7 39 -54 203q-15 40 -74 193h-575q-114 -281 -129 -346q-14 -64 17 -78q10 -5 28 -6v-27q-51 2 -178 2 q-131 0 -168 -2zM477 610h457v6q-203 543 -221 607h-2q-13 -41 -232 -607zM483 1692l244 233l234 -235l-43 -45l-195 131l-201 -131z" />
<glyph unicode="&#xc3;" horiz-adv-x="1419" d="M-12 -2v27q25 2 43 18t57 92.5t83.5 182t141.5 341.5l394 965h30l381 -967q172 -430 220.5 -529t93.5 -103v-27q-35 2 -164 2q-144 0 -195 -2v27q44 3 48 34q7 39 -54 203q-15 40 -74 193h-575q-114 -281 -129 -346q-14 -64 17 -78q10 -5 28 -6v-27q-51 2 -178 2 q-131 0 -168 -2zM473 1704q16 75 57.5 122.5t102.5 47.5q52 0 115 -47q20 -15 30.5 -21.5t27.5 -13t34 -6.5q62 0 88 78l57 -11q-13 -70 -55 -120t-99 -50q-51 0 -112 41q-58 45 -103 45q-54 0 -86 -73zM477 610h457v6q-203 543 -221 607h-2q-13 -41 -232 -607z" />
<glyph unicode="&#xc4;" horiz-adv-x="1419" d="M-12 -2v27q25 2 43 18t57 92.5t83.5 182t141.5 341.5l394 965h30l381 -967q172 -430 220.5 -529t93.5 -103v-27q-35 2 -164 2q-144 0 -195 -2v27q44 3 48 34q7 39 -54 203q-15 40 -74 193h-575q-114 -281 -129 -346q-14 -64 17 -78q10 -5 28 -6v-27q-51 2 -178 2 q-131 0 -168 -2zM477 610h457v6q-203 543 -221 607h-2q-13 -41 -232 -607zM479 1765v2q0 31 26 55.5t62 24.5q35 0 58.5 -24.5t23.5 -57.5q0 -35 -23.5 -60.5t-58.5 -25.5q-36 0 -62 26t-26 60zM801 1765v2q0 32 25 56t61 24q35 0 59.5 -24.5t24.5 -57.5q0 -34 -24.5 -60 t-59.5 -26q-36 0 -61 26t-25 60z" />
<glyph unicode="&#xc5;" horiz-adv-x="1419" d="M-12 -2v27q25 2 43 18t57 92.5t83.5 182t141.5 341.5l394 965h30l381 -967q172 -430 220.5 -529t93.5 -103v-27q-35 2 -164 2q-144 0 -195 -2v27q44 3 48 34q7 39 -54 203q-15 40 -74 193h-575q-114 -281 -129 -346q-14 -64 17 -78q10 -5 28 -6v-27q-51 2 -178 2 q-131 0 -168 -2zM477 610h457v6q-203 543 -221 607h-2q-13 -41 -232 -607zM573 1806v2q0 58 45.5 99t110.5 41q57 0 101 -39.5t44 -96.5q0 -59 -43.5 -98t-107.5 -39t-107 37t-43 94zM653 1808q2 -30 21 -50.5t49 -20.5q32 0 51 20t19 53v2q0 30 -19 52t-49 22 q-32 0 -52 -22.5t-20 -55.5z" />
<glyph unicode="&#xc6;" horiz-adv-x="1763" d="M-27 -2v27q64 35 139.5 169t247.5 488q132 267 349 711q45 86 53 114q12 50 -27 64v28q76 -2 451 -2q93 0 229.5 1t204.5 1q-1 -25 -4 -104.5t-4 -155.5h-25q-10 58 -59 78.5t-174 20.5h-267v-541h236q108 0 159.5 10t59.5 41h25q-4 -94 -4 -135q0 -35 4 -137h-25 q-10 36 -59.5 48.5t-155.5 12.5h-240v-534q0 -25 7.5 -32t31.5 -7h328q75 2 115.5 21.5t50.5 68.5h27q-1 -44 -4 -130.5t-3 -125.5q-164 2 -391 2q-150 0 -280.5 -1t-147.5 -1v27q31 3 45.5 15.5t23.5 54t9 124.5q2 86 2 285h-432q-15 -30 -52.5 -107t-56.5 -116 q-47 -101 -62 -153t-5 -73t45 -30v-27q-41 0 -112 1t-101 1q-42 0 -90.5 -1t-61.5 -1zM541 659h366v789q-172 -378 -364 -784z" />
<glyph unicode="&#xc7;" horiz-adv-x="1433" d="M78 801q0 191 68.5 346.5t188.5 257.5t282 157.5t350 55.5q182 0 346 -35q-7 -118 -10 -274h-27q-19 66 -94 108q-74 33 -213 33q-310 0 -496 -175.5t-186 -475.5q0 -145 50.5 -268t138.5 -207.5t210 -131.5t262 -47q123 0 207 33q40 16 67 41t46 70h22q-3 -151 0 -260 q-178 -54 -356 -54q-18 0 -68 5l-49 -82v-4q63 -13 93 -49t30 -85q0 -59 -39 -99t-89.5 -55.5t-106.5 -15.5q-48 0 -87 13l17 63q31 -8 72 -8q54 0 88 25.5t34 70.5q0 43 -35.5 63.5t-88.5 22.5v4l81 144q-152 21 -281 86t-224 167.5t-149 246.5t-54 313z" />
<glyph unicode="&#xc8;" horiz-adv-x="1107" d="M131 -2v27q58 4 69 99t11 533v320q0 411 -10.5 501.5t-65.5 94.5v26q27 0 159 -1t226 -1q89 0 244 1t203 1q-9 -193 -9 -260h-24q-7 60 -53 79.5t-158 19.5h-320v-541h281q118 0 156.5 8t48.5 43h22q-2 -45 -2 -129q0 -92 2 -143h-22q-9 41 -46.5 51t-152.5 10h-287v-524 q0 -33 6 -40.5t35 -8.5h357q81 0 119 16.5t49 73.5h24q-8 -148 -8 -256q-58 0 -209.5 1t-232.5 1q-102 0 -244.5 -1t-167.5 -1zM340 1866l68 108l282 -243l-35 -50z" />
<glyph unicode="&#xc9;" horiz-adv-x="1107" d="M131 -2v27q58 4 69 99t11 533v320q0 411 -10.5 501.5t-65.5 94.5v26q27 0 159 -1t226 -1q89 0 244 1t203 1q-9 -193 -9 -260h-24q-7 60 -53 79.5t-158 19.5h-320v-541h281q118 0 156.5 8t48.5 43h22q-2 -45 -2 -129q0 -92 2 -143h-22q-9 41 -46.5 51t-152.5 10h-287v-524 q0 -33 6 -40.5t35 -8.5h357q81 0 119 16.5t49 73.5h24q-8 -148 -8 -256q-58 0 -209.5 1t-232.5 1q-102 0 -244.5 -1t-167.5 -1zM453 1731l282 243l68 -106l-314 -187z" />
<glyph unicode="&#xca;" horiz-adv-x="1107" d="M131 -2v27q58 4 69 99t11 533v320q0 411 -10.5 501.5t-65.5 94.5v26q27 0 159 -1t226 -1q89 0 244 1t203 1q-9 -193 -9 -260h-24q-7 60 -53 79.5t-158 19.5h-320v-541h281q118 0 156.5 8t48.5 43h22q-2 -45 -2 -129q0 -92 2 -143h-22q-9 41 -46.5 51t-152.5 10h-287v-524 q0 -33 6 -40.5t35 -8.5h357q81 0 119 16.5t49 73.5h24q-8 -148 -8 -256q-58 0 -209.5 1t-232.5 1q-102 0 -244.5 -1t-167.5 -1zM356 1718l244 232l231 -234l-40 -45l-195 131l-203 -131z" />
<glyph unicode="&#xcb;" horiz-adv-x="1107" d="M131 -2v27q58 4 69 99t11 533v320q0 411 -10.5 501.5t-65.5 94.5v26q27 0 159 -1t226 -1q89 0 244 1t203 1q-9 -193 -9 -260h-24q-7 60 -53 79.5t-158 19.5h-320v-541h281q118 0 156.5 8t48.5 43h22q-2 -45 -2 -129q0 -92 2 -143h-22q-9 41 -46.5 51t-152.5 10h-287v-524 q0 -33 6 -40.5t35 -8.5h357q81 0 119 16.5t49 73.5h24q-8 -148 -8 -256q-58 0 -209.5 1t-232.5 1q-102 0 -244.5 -1t-167.5 -1zM322 1776v2q0 32 25 56t61 24q35 0 59.5 -24.5t24.5 -57.5q0 -34 -24.5 -60t-59.5 -26q-36 0 -61 26t-25 60zM641 1776v2q0 32 25 56t61 24 q35 0 59.5 -24.5t24.5 -57.5q0 -34 -24.5 -60t-59.5 -26q-36 0 -61 26t-25 60z" />
<glyph unicode="&#xcc;" horiz-adv-x="614" d="M47 1866l68 108l282 -243l-35 -50zM123 -2v27q43 5 59 37q24 48 28 257q1 85 1 336v322q0 409 -11.5 498.5t-74.5 95.5v28q19 0 79 -1t101 -1q37 0 99.5 1t80.5 1v-26q-60 -7 -71 -96t-11 -500v-320q0 -421 11 -511q10 -90 44 -110q13 -8 38 -11v-27q-23 0 -86.5 1 t-102.5 1q-44 0 -105 -1t-79 -1z" />
<glyph unicode="&#xcd;" horiz-adv-x="614" d="M123 -2v27q43 5 59 37q24 48 28 257q1 85 1 336v322q0 409 -11.5 498.5t-74.5 95.5v28q19 0 79 -1t101 -1q37 0 99.5 1t80.5 1v-26q-60 -7 -71 -96t-11 -500v-320q0 -421 11 -511q10 -90 44 -110q13 -8 38 -11v-27q-23 0 -86.5 1t-102.5 1q-44 0 -105 -1t-79 -1z M215 1731l283 243l67 -106l-313 -187z" />
<glyph unicode="&#xce;" horiz-adv-x="614" d="M66 1718l241 232l234 -234l-43 -45l-193 131l-203 -131zM123 -2v27q43 5 59 37q24 48 28 257q1 85 1 336v322q0 409 -11.5 498.5t-74.5 95.5v28q19 0 79 -1t101 -1q37 0 99.5 1t80.5 1v-26q-60 -7 -71 -96t-11 -500v-320q0 -421 11 -511q10 -90 44 -110q13 -8 38 -11v-27 q-23 0 -86.5 1t-102.5 1q-44 0 -105 -1t-79 -1z" />
<glyph unicode="&#xcf;" horiz-adv-x="614" d="M57 1776v2q0 31 26 55.5t62 24.5q35 0 58.5 -24.5t23.5 -57.5q0 -35 -23.5 -60.5t-58.5 -25.5q-36 0 -62 26t-26 60zM123 -2v27q43 5 59 37q24 48 28 257q1 85 1 336v322q0 409 -11.5 498.5t-74.5 95.5v28q19 0 79 -1t101 -1q37 0 99.5 1t80.5 1v-26q-60 -7 -71 -96 t-11 -500v-320q0 -421 11 -511q10 -90 44 -110q13 -8 38 -11v-27q-23 0 -86.5 1t-102.5 1q-44 0 -105 -1t-79 -1zM379 1776v2q0 32 25 56t61 24q35 0 59.5 -24.5t24.5 -57.5q0 -34 -24.5 -60t-59.5 -26q-36 0 -61 26t-25 60z" />
<glyph unicode="&#xd0;" horiz-adv-x="1540" d="M43 762q2 12 2 55t-2 55q122 0 190 -2v111q0 396 -10 477q-10 83 -42 101q-14 7 -36 10v24q71 0 216 6.5t214 6.5q179 0 311.5 -32.5t241.5 -100.5q152 -92 239 -261t87 -374v-2q0 -198 -65.5 -355t-180.5 -264q-128 -123 -283 -173t-364 -50q-33 0 -67 1t-75 2.5 t-67 2.5h-211v29q44 4 61 33q25 46 29 244q2 92 2 347v111q-39 0 -108 -1t-82 -1zM424 215q0 -31 7 -37q5 -5 18 -8q46 -8 135 -8q311 0 489 184q178 183 178 481v2q0 174 -71 301.5t-174 198.5q-157 109 -428 109q-84 0 -154 -6v-562q70 0 220 1t161 1q-2 -12 -2 -53 q0 -43 2 -57q-11 0 -161.5 1t-219.5 1v-549z" />
<glyph unicode="&#xd1;" horiz-adv-x="1630" d="M111 -2v25q43 4 59 38q24 49 28 264q1 84 1 332v957h30q217 -255 467 -549t312 -367q128 -147 249 -303h5v586q0 395 -11 480q-10 87 -45 105q-14 7 -35 9v24q22 0 81 -1t91 -1q38 0 93.5 1t74.5 1v-24q-56 -6 -66.5 -94.5t-10.5 -485.5v-20v-995h-31 q-195 228 -444.5 519t-321.5 375q-169 196 -264 318h-2v-541q0 -433 12 -527.5t76 -98.5v-27q-55 2 -183 2q-118 0 -165 -2zM582 1686q16 73 57.5 120t101.5 47q53 0 115 -45q51 -41 92 -43q65 0 88 78l58 -10q-11 -69 -53 -118.5t-101 -49.5q-56 0 -111 39q-62 45 -104 45 q-57 0 -84 -74z" />
<glyph unicode="&#xd2;" d="M86 788q0 237 110 427t302.5 296.5t429.5 106.5q226 0 409.5 -104t287.5 -288t104 -411v-2q0 -233 -105.5 -424t-296.5 -302.5t-430 -111.5q-167 0 -317.5 63.5t-258.5 171.5t-171.5 259t-63.5 319zM293 799q0 -183 81 -333t221.5 -234.5t311.5 -84.5q173 0 314 84 t222 235t81 339v2q0 135 -48 254t-130 204t-196 134t-243 49t-242.5 -49.5t-195 -135.5t-129 -206.5t-47.5 -257.5zM653 1876l70 109l283 -244l-37 -49z" />
<glyph unicode="&#xd3;" d="M86 788q0 237 110 427t302.5 296.5t429.5 106.5q226 0 409.5 -104t287.5 -288t104 -411v-2q0 -233 -105.5 -424t-296.5 -302.5t-430 -111.5q-167 0 -317.5 63.5t-258.5 171.5t-171.5 259t-63.5 319zM293 799q0 -183 81 -333t221.5 -234.5t311.5 -84.5q173 0 314 84 t222 235t81 339v2q0 135 -48 254t-130 204t-196 134t-243 49t-242.5 -49.5t-195 -135.5t-129 -206.5t-47.5 -257.5zM813 1741l283 244l67 -107l-313 -186z" />
<glyph unicode="&#xd4;" d="M86 788q0 237 110 427t302.5 296.5t429.5 106.5q226 0 409.5 -104t287.5 -288t104 -411v-2q0 -233 -105.5 -424t-296.5 -302.5t-430 -111.5q-167 0 -317.5 63.5t-258.5 171.5t-171.5 259t-63.5 319zM293 799q0 -183 81 -333t221.5 -234.5t311.5 -84.5q173 0 314 84 t222 235t81 339v2q0 135 -48 254t-130 204t-196 134t-243 49t-242.5 -49.5t-195 -135.5t-129 -206.5t-47.5 -257.5zM676 1726l244 232l233 -234l-43 -45l-195 129l-200 -129z" />
<glyph unicode="&#xd5;" d="M86 788q0 237 110 427t302.5 296.5t429.5 106.5q226 0 409.5 -104t287.5 -288t104 -411v-2q0 -233 -105.5 -424t-296.5 -302.5t-430 -111.5q-167 0 -317.5 63.5t-258.5 171.5t-171.5 259t-63.5 319zM293 799q0 -183 81 -333t221.5 -234.5t311.5 -84.5q173 0 314 84 t222 235t81 339v2q0 135 -48 254t-130 204t-196 134t-243 49t-242.5 -49.5t-195 -135.5t-129 -206.5t-47.5 -257.5zM659 1718q19 75 60 121.5t102 46.5q50 0 115 -45q51 -41 92 -41q63 0 88 76l58 -10q-13 -69 -55 -118.5t-99 -49.5q-55 0 -113 39q-25 18 -35.5 25 t-29.5 14.5t-37 7.5q-54 0 -86 -76z" />
<glyph unicode="&#xd6;" d="M86 788q0 237 110 427t302.5 296.5t429.5 106.5q226 0 409.5 -104t287.5 -288t104 -411v-2q0 -233 -105.5 -424t-296.5 -302.5t-430 -111.5q-167 0 -317.5 63.5t-258.5 171.5t-171.5 259t-63.5 319zM293 799q0 -183 81 -333t221.5 -234.5t311.5 -84.5q173 0 314 84 t222 235t81 339v2q0 135 -48 254t-130 204t-196 134t-243 49t-242.5 -49.5t-195 -135.5t-129 -206.5t-47.5 -257.5zM672 1776v2q0 32 25 56t61 24t60 -24.5t24 -57.5q0 -35 -24 -60.5t-60 -25.5t-61 26t-25 60zM991 1776v2q0 31 26 55.5t62 24.5q35 0 59.5 -24.5t24.5 -57.5 q0 -34 -24.5 -60t-59.5 -26q-36 0 -62 26t-26 60z" />
<glyph unicode="&#xd7;" horiz-adv-x="1103" d="M133 383l328 328l-328 329l92 93l328 -330l330 327l90 -88l-330 -327l330 -332l-92 -92l-330 332l-328 -330z" />
<glyph unicode="&#xd8;" d="M76 -2q24 26 105.5 112.5t119.5 125.5q-102 108 -157.5 252t-55.5 300q0 141 41 269t117 229.5t178.5 176.5t230.5 115t269 40h2q143 0 274 -45t232 -125q19 21 70 75t71 76h164q-193 -203 -217 -231q101 -106 156 -253t55 -302q0 -233 -105 -424t-297 -302.5 t-434 -111.5q-145 0 -278.5 49.5t-231.5 131.5q-25 -26 -145 -158h-164zM295 793q0 -242 139 -420q170 185 457 491.5t416 446.5q-153 137 -402 137h-2q-172 0 -311 -85t-218 -235t-79 -335zM510 291q166 -144 395 -144h2q127 0 240 47.5t197 131.5t133 209t49 272 q0 234 -140 422q-157 -168 -876 -938z" />
<glyph unicode="&#xd9;" horiz-adv-x="1576" d="M92 1573v26q21 0 84.5 -1t104.5 -1q39 0 99.5 1t80.5 1v-26q-65 -4 -77.5 -94.5t-12.5 -501.5v-309q0 -134 24.5 -221.5t77.5 -153.5q51 -66 136 -101.5t184 -35.5q201 0 311 131q108 122 108 389v301q0 395 -9 477q-9 91 -42 110q-15 9 -39 11v24q24 0 83.5 -1t94.5 -1 q41 0 100 1t77 1v-24q-58 -6 -69 -96.5t-11 -501.5v-303q0 -174 -37 -294.5t-111 -207.5q-74 -89 -193.5 -143t-264.5 -54q-160 0 -284.5 56t-201.5 162q-68 85 -98.5 194.5t-30.5 267.5v322q0 411 -11.5 501.5t-72.5 94.5zM532 1845l68 109l283 -244l-35 -49z" />
<glyph unicode="&#xda;" horiz-adv-x="1576" d="M92 1573v26q21 0 84.5 -1t104.5 -1q39 0 99.5 1t80.5 1v-26q-65 -4 -77.5 -94.5t-12.5 -501.5v-309q0 -134 24.5 -221.5t77.5 -153.5q51 -66 136 -101.5t184 -35.5q201 0 311 131q108 122 108 389v301q0 395 -9 477q-9 91 -42 110q-15 9 -39 11v24q24 0 83.5 -1t94.5 -1 q41 0 100 1t77 1v-24q-58 -6 -69 -96.5t-11 -501.5v-303q0 -174 -37 -294.5t-111 -207.5q-74 -89 -193.5 -143t-264.5 -54q-160 0 -284.5 56t-201.5 162q-68 85 -98.5 194.5t-30.5 267.5v322q0 411 -11.5 501.5t-72.5 94.5zM723 1710l281 244l69 -107l-315 -186z" />
<glyph unicode="&#xdb;" horiz-adv-x="1576" d="M92 1573v26q21 0 84.5 -1t104.5 -1q39 0 99.5 1t80.5 1v-26q-65 -4 -77.5 -94.5t-12.5 -501.5v-309q0 -134 24.5 -221.5t77.5 -153.5q51 -66 136 -101.5t184 -35.5q201 0 311 131q108 122 108 389v301q0 395 -9 477q-9 91 -42 110q-15 9 -39 11v24q24 0 83.5 -1t94.5 -1 q41 0 100 1t77 1v-24q-58 -6 -69 -96.5t-11 -501.5v-303q0 -174 -37 -294.5t-111 -207.5q-74 -89 -193.5 -143t-264.5 -54q-160 0 -284.5 56t-201.5 162q-68 85 -98.5 194.5t-30.5 267.5v322q0 411 -11.5 501.5t-72.5 94.5zM567 1718l242 232l233 -234l-41 -45l-194 131 l-203 -131z" />
<glyph unicode="&#xdc;" horiz-adv-x="1576" d="M92 1573v26q21 0 84.5 -1t104.5 -1q39 0 99.5 1t80.5 1v-26q-65 -4 -77.5 -94.5t-12.5 -501.5v-309q0 -134 24.5 -221.5t77.5 -153.5q51 -66 136 -101.5t184 -35.5q201 0 311 131q108 122 108 389v301q0 395 -9 477q-9 91 -42 110q-15 9 -39 11v24q24 0 83.5 -1t94.5 -1 q41 0 100 1t77 1v-24q-58 -6 -69 -96.5t-11 -501.5v-303q0 -174 -37 -294.5t-111 -207.5q-74 -89 -193.5 -143t-264.5 -54q-160 0 -284.5 56t-201.5 162q-68 85 -98.5 194.5t-30.5 267.5v322q0 411 -11.5 501.5t-72.5 94.5zM555 1776v2q0 32 25.5 56t62.5 24 q35 0 58.5 -24.5t23.5 -57.5q0 -35 -23.5 -60.5t-58.5 -25.5q-37 0 -62.5 25.5t-25.5 60.5zM874 1776v2q0 31 26.5 55.5t62.5 24.5q35 0 59.5 -24.5t24.5 -57.5q0 -34 -24.5 -60t-59.5 -26q-36 0 -62.5 26t-26.5 60z" />
<glyph unicode="&#xdd;" horiz-adv-x="1259" d="M-25 1573v26q6 0 64 -1t102 -1q38 0 107.5 1t97.5 1v-26q-48 -4 -52 -35q-4 -38 69 -186q22 -43 86 -168q110 -208 182 -355h4q38 82 180 353q132 250 151 312q19 61 -15 74q-10 4 -27 5v26q63 -2 196 -2q119 0 152 2v-26q-14 -2 -25.5 -9t-27 -24.5t-37.5 -53 t-51.5 -87.5t-75.5 -136t-104 -192q-35 -65 -54 -100l-174 -324v-72v-29q0 -354 12.5 -434.5t79.5 -86.5v-27q-49 2 -184 2q-154 0 -191 -2v27q65 6 77.5 90.5t12.5 457.5v60l-178 340q-231 433 -271 498q-50 81 -82 96q-10 4 -24 6zM586 1706l280 246l70 -109l-315 -184z " />
<glyph unicode="&#xde;" horiz-adv-x="1122" d="M123 -2v29q43 5 59 37q24 47 28 253q1 85 1 338v322q0 409 -11.5 498t-74.5 96v28q25 0 88.5 -1t91.5 -1q27 0 93 1t89 1v-28q-56 -7 -68.5 -64t-12.5 -229q81 6 163 0q190 -11 301 -94q70 -54 118 -141t48 -205v-2q0 -88 -29.5 -166.5t-74.5 -132.5q-43 -52 -111 -94.5 t-139 -61.5q-122 -28 -279 -25q2 -199 18 -260.5t75 -68.5v-29q-29 0 -96 1t-93 1q-27 0 -93 -1t-91 -1zM403 504q11 0 38.5 -1t39.5 -1q192 0 291 119q68 82 68 206v2q0 74 -31.5 136.5t-87.5 101.5q-82 59 -221 59q-51 0 -97 -4v-618z" />
<glyph unicode="&#xdf;" horiz-adv-x="1984" d="M80 31q7 101 10 272h27q28 -160 252 -160q126 0 209.5 69t83.5 183q0 71 -31 130.5t-101 117.5q-35 28 -100.5 79.5t-99.5 78.5q-113 90 -167 181.5t-54 211.5q0 84 33 159.5t92 132.5t148.5 90.5t195.5 33.5q124 0 229 -33q-8 -183 -10 -262h-25q-21 131 -190 131 q-120 0 -197.5 -65.5t-77.5 -174.5q0 -118 99 -211q25 -25 54 -49t81 -64.5t77 -60.5q79 -61 128 -114t82.5 -131t33.5 -170v-3q0 -85 -32.5 -160.5t-93 -134.5t-155.5 -93.5t-212 -34.5q-76 0 -156.5 15t-132.5 36zM1034 31q11 164 13 272h26q15 -86 79 -123t173 -37 q125 0 209 69t84 183q0 137 -131 248q-15 12 -203 158q-112 90 -165.5 181.5t-53.5 211.5q0 175 128 295.5t341 120.5q124 0 229 -33q-6 -94 -10 -262h-24q-21 131 -191 131q-120 0 -198 -65.5t-78 -174.5q0 -122 100 -211q25 -25 54.5 -49.5t80.5 -63.5t78 -61 q79 -61 128 -114t82.5 -131t33.5 -170v-3q0 -85 -32.5 -160.5t-93 -134.5t-156 -93.5t-212.5 -34.5q-76 0 -157.5 15t-133.5 36z" />
<glyph unicode="&#xe0;" horiz-adv-x="1419" d="M-12 -2v27q25 2 43 18t57 92.5t83.5 182t141.5 341.5l394 965h30l381 -967q172 -430 220.5 -529t93.5 -103v-27q-35 2 -164 2q-144 0 -195 -2v27q44 3 48 34q7 39 -54 203q-15 40 -74 193h-575q-114 -281 -129 -346q-14 -64 17 -78q10 -5 28 -6v-27q-51 2 -178 2 q-131 0 -168 -2zM440 1870l70 108l281 -245l-35 -47zM477 610h457v6q-203 543 -221 607h-2q-13 -41 -232 -607z" />
<glyph unicode="&#xe1;" horiz-adv-x="1419" d="M-12 -2v27q25 2 43 18t57 92.5t83.5 182t141.5 341.5l394 965h30l381 -967q172 -430 220.5 -529t93.5 -103v-27q-35 2 -164 2q-144 0 -195 -2v27q44 3 48 34q7 39 -54 203q-15 40 -74 193h-575q-114 -281 -129 -346q-14 -64 17 -78q10 -5 28 -6v-27q-51 2 -178 2 q-131 0 -168 -2zM477 610h457v6q-203 543 -221 607h-2q-13 -41 -232 -607zM641 1735l283 243l69 -108l-315 -184z" />
<glyph unicode="&#xe2;" horiz-adv-x="1419" d="M-12 -2v27q25 2 43 18t57 92.5t83.5 182t141.5 341.5l394 965h30l381 -967q172 -430 220.5 -529t93.5 -103v-27q-35 2 -164 2q-144 0 -195 -2v27q44 3 48 34q7 39 -54 203q-15 40 -74 193h-575q-114 -281 -129 -346q-14 -64 17 -78q10 -5 28 -6v-27q-51 2 -178 2 q-131 0 -168 -2zM477 610h457v6q-203 543 -221 607h-2q-13 -41 -232 -607zM483 1692l244 233l234 -235l-43 -45l-195 131l-201 -131z" />
<glyph unicode="&#xe3;" horiz-adv-x="1419" d="M-12 -2v27q25 2 43 18t57 92.5t83.5 182t141.5 341.5l394 965h30l381 -967q172 -430 220.5 -529t93.5 -103v-27q-35 2 -164 2q-144 0 -195 -2v27q44 3 48 34q7 39 -54 203q-15 40 -74 193h-575q-114 -281 -129 -346q-14 -64 17 -78q10 -5 28 -6v-27q-51 2 -178 2 q-131 0 -168 -2zM473 1704q16 75 57.5 122.5t102.5 47.5q52 0 115 -47q20 -15 30.5 -21.5t27.5 -13t34 -6.5q62 0 88 78l57 -11q-13 -70 -55 -120t-99 -50q-51 0 -112 41q-58 45 -103 45q-54 0 -86 -73zM477 610h457v6q-203 543 -221 607h-2q-13 -41 -232 -607z" />
<glyph unicode="&#xe4;" horiz-adv-x="1419" d="M-12 -2v27q25 2 43 18t57 92.5t83.5 182t141.5 341.5l394 965h30l381 -967q172 -430 220.5 -529t93.5 -103v-27q-35 2 -164 2q-144 0 -195 -2v27q44 3 48 34q7 39 -54 203q-15 40 -74 193h-575q-114 -281 -129 -346q-14 -64 17 -78q10 -5 28 -6v-27q-51 2 -178 2 q-131 0 -168 -2zM477 610h457v6q-203 543 -221 607h-2q-13 -41 -232 -607zM479 1765v2q0 31 26 55.5t62 24.5q35 0 58.5 -24.5t23.5 -57.5q0 -35 -23.5 -60.5t-58.5 -25.5q-36 0 -62 26t-26 60zM801 1765v2q0 32 25 56t61 24q35 0 59.5 -24.5t24.5 -57.5q0 -34 -24.5 -60 t-59.5 -26q-36 0 -61 26t-25 60z" />
<glyph unicode="&#xe5;" horiz-adv-x="1419" d="M-12 -2v27q25 2 43 18t57 92.5t83.5 182t141.5 341.5l394 965h30l381 -967q172 -430 220.5 -529t93.5 -103v-27q-35 2 -164 2q-144 0 -195 -2v27q44 3 48 34q7 39 -54 203q-15 40 -74 193h-575q-114 -281 -129 -346q-14 -64 17 -78q10 -5 28 -6v-27q-51 2 -178 2 q-131 0 -168 -2zM477 610h457v6q-203 543 -221 607h-2q-13 -41 -232 -607zM573 1806v2q0 58 45.5 99t110.5 41q57 0 101 -39.5t44 -96.5q0 -59 -43.5 -98t-107.5 -39t-107 37t-43 94zM653 1808q2 -30 21 -50.5t49 -20.5q32 0 51 20t19 53v2q0 30 -19 52t-49 22 q-32 0 -52 -22.5t-20 -55.5z" />
<glyph unicode="&#xe6;" horiz-adv-x="1763" d="M-27 -2v27q64 35 139.5 169t247.5 488q132 267 349 711q45 86 53 114q12 50 -27 64v28q76 -2 451 -2q93 0 229.5 1t204.5 1q-1 -25 -4 -104.5t-4 -155.5h-25q-10 58 -59 78.5t-174 20.5h-267v-541h236q108 0 159.5 10t59.5 41h25q-4 -94 -4 -135q0 -35 4 -137h-25 q-10 36 -59.5 48.5t-155.5 12.5h-240v-534q0 -25 7.5 -32t31.5 -7h328q75 2 115.5 21.5t50.5 68.5h27q-1 -44 -4 -130.5t-3 -125.5q-164 2 -391 2q-150 0 -280.5 -1t-147.5 -1v27q31 3 45.5 15.5t23.5 54t9 124.5q2 86 2 285h-432q-15 -30 -52.5 -107t-56.5 -116 q-47 -101 -62 -153t-5 -73t45 -30v-27q-41 0 -112 1t-101 1q-42 0 -90.5 -1t-61.5 -1zM541 659h366v789q-172 -378 -364 -784z" />
<glyph unicode="&#xe7;" horiz-adv-x="1433" d="M78 801q0 191 68.5 346.5t188.5 257.5t282 157.5t350 55.5q182 0 346 -35q-7 -118 -10 -274h-27q-19 66 -94 108q-74 33 -213 33q-310 0 -496 -175.5t-186 -475.5q0 -145 50.5 -268t138.5 -207.5t210 -131.5t262 -47q123 0 207 33q40 16 67 41t46 70h22q-3 -151 0 -260 q-178 -54 -356 -54q-18 0 -68 5l-49 -82v-4q63 -13 93 -49t30 -85q0 -59 -39 -99t-89.5 -55.5t-106.5 -15.5q-48 0 -87 13l17 63q31 -8 72 -8q54 0 88 25.5t34 70.5q0 43 -35.5 63.5t-88.5 22.5v4l81 144q-152 21 -281 86t-224 167.5t-149 246.5t-54 313z" />
<glyph unicode="&#xe8;" horiz-adv-x="1107" d="M131 -2v27q58 4 69 99t11 533v320q0 411 -10.5 501.5t-65.5 94.5v26q27 0 159 -1t226 -1q89 0 244 1t203 1q-9 -193 -9 -260h-24q-7 60 -53 79.5t-158 19.5h-320v-541h281q118 0 156.5 8t48.5 43h22q-2 -45 -2 -129q0 -92 2 -143h-22q-9 41 -46.5 51t-152.5 10h-287v-524 q0 -33 6 -40.5t35 -8.5h357q81 0 119 16.5t49 73.5h24q-8 -148 -8 -256q-58 0 -209.5 1t-232.5 1q-102 0 -244.5 -1t-167.5 -1zM340 1866l68 108l282 -243l-35 -50z" />
<glyph unicode="&#xe9;" horiz-adv-x="1107" d="M131 -2v27q58 4 69 99t11 533v320q0 411 -10.5 501.5t-65.5 94.5v26q27 0 159 -1t226 -1q89 0 244 1t203 1q-9 -193 -9 -260h-24q-7 60 -53 79.5t-158 19.5h-320v-541h281q118 0 156.5 8t48.5 43h22q-2 -45 -2 -129q0 -92 2 -143h-22q-9 41 -46.5 51t-152.5 10h-287v-524 q0 -33 6 -40.5t35 -8.5h357q81 0 119 16.5t49 73.5h24q-8 -148 -8 -256q-58 0 -209.5 1t-232.5 1q-102 0 -244.5 -1t-167.5 -1zM453 1731l282 243l68 -106l-314 -187z" />
<glyph unicode="&#xea;" horiz-adv-x="1107" d="M131 -2v27q58 4 69 99t11 533v320q0 411 -10.5 501.5t-65.5 94.5v26q27 0 159 -1t226 -1q89 0 244 1t203 1q-9 -193 -9 -260h-24q-7 60 -53 79.5t-158 19.5h-320v-541h281q118 0 156.5 8t48.5 43h22q-2 -45 -2 -129q0 -92 2 -143h-22q-9 41 -46.5 51t-152.5 10h-287v-524 q0 -33 6 -40.5t35 -8.5h357q81 0 119 16.5t49 73.5h24q-8 -148 -8 -256q-58 0 -209.5 1t-232.5 1q-102 0 -244.5 -1t-167.5 -1zM356 1718l244 232l231 -234l-40 -45l-195 131l-203 -131z" />
<glyph unicode="&#xeb;" horiz-adv-x="1107" d="M131 -2v27q58 4 69 99t11 533v320q0 411 -10.5 501.5t-65.5 94.5v26q27 0 159 -1t226 -1q89 0 244 1t203 1q-9 -193 -9 -260h-24q-7 60 -53 79.5t-158 19.5h-320v-541h281q118 0 156.5 8t48.5 43h22q-2 -45 -2 -129q0 -92 2 -143h-22q-9 41 -46.5 51t-152.5 10h-287v-524 q0 -33 6 -40.5t35 -8.5h357q81 0 119 16.5t49 73.5h24q-8 -148 -8 -256q-58 0 -209.5 1t-232.5 1q-102 0 -244.5 -1t-167.5 -1zM322 1776v2q0 32 25 56t61 24q35 0 59.5 -24.5t24.5 -57.5q0 -34 -24.5 -60t-59.5 -26q-36 0 -61 26t-25 60zM641 1776v2q0 32 25 56t61 24 q35 0 59.5 -24.5t24.5 -57.5q0 -34 -24.5 -60t-59.5 -26q-36 0 -61 26t-25 60z" />
<glyph unicode="&#xec;" horiz-adv-x="614" d="M47 1866l68 108l282 -243l-35 -50zM123 -2v27q43 5 59 37q24 48 28 257q1 85 1 336v322q0 409 -11.5 498.5t-74.5 95.5v28q19 0 79 -1t101 -1q37 0 99.5 1t80.5 1v-26q-60 -7 -71 -96t-11 -500v-320q0 -421 11 -511q10 -90 44 -110q13 -8 38 -11v-27q-23 0 -86.5 1 t-102.5 1q-44 0 -105 -1t-79 -1z" />
<glyph unicode="&#xed;" horiz-adv-x="614" d="M123 -2v27q43 5 59 37q24 48 28 257q1 85 1 336v322q0 409 -11.5 498.5t-74.5 95.5v28q19 0 79 -1t101 -1q37 0 99.5 1t80.5 1v-26q-60 -7 -71 -96t-11 -500v-320q0 -421 11 -511q10 -90 44 -110q13 -8 38 -11v-27q-23 0 -86.5 1t-102.5 1q-44 0 -105 -1t-79 -1z M215 1731l283 243l67 -106l-313 -187z" />
<glyph unicode="&#xee;" horiz-adv-x="614" d="M66 1718l241 232l234 -234l-43 -45l-193 131l-203 -131zM123 -2v27q43 5 59 37q24 48 28 257q1 85 1 336v322q0 409 -11.5 498.5t-74.5 95.5v28q19 0 79 -1t101 -1q37 0 99.5 1t80.5 1v-26q-60 -7 -71 -96t-11 -500v-320q0 -421 11 -511q10 -90 44 -110q13 -8 38 -11v-27 q-23 0 -86.5 1t-102.5 1q-44 0 -105 -1t-79 -1z" />
<glyph unicode="&#xef;" horiz-adv-x="614" d="M57 1776v2q0 31 26 55.5t62 24.5q35 0 58.5 -24.5t23.5 -57.5q0 -35 -23.5 -60.5t-58.5 -25.5q-36 0 -62 26t-26 60zM123 -2v27q43 5 59 37q24 48 28 257q1 85 1 336v322q0 409 -11.5 498.5t-74.5 95.5v28q19 0 79 -1t101 -1q37 0 99.5 1t80.5 1v-26q-60 -7 -71 -96 t-11 -500v-320q0 -421 11 -511q10 -90 44 -110q13 -8 38 -11v-27q-23 0 -86.5 1t-102.5 1q-44 0 -105 -1t-79 -1zM379 1776v2q0 32 25 56t61 24q35 0 59.5 -24.5t24.5 -57.5q0 -34 -24.5 -60t-59.5 -26q-36 0 -61 26t-25 60z" />
<glyph unicode="&#xf0;" horiz-adv-x="1540" d="M43 762q2 12 2 55t-2 55q122 0 190 -2v111q0 396 -10 477q-10 83 -42 101q-14 7 -36 10v24q71 0 216 6.5t214 6.5q179 0 311.5 -32.5t241.5 -100.5q152 -92 239 -261t87 -374v-2q0 -198 -65.5 -355t-180.5 -264q-128 -123 -283 -173t-364 -50q-33 0 -67 1t-75 2.5 t-67 2.5h-211v29q44 4 61 33q25 46 29 244q2 92 2 347v111q-39 0 -108 -1t-82 -1zM424 215q0 -31 7 -37q5 -5 18 -8q46 -8 135 -8q311 0 489 184q178 183 178 481v2q0 174 -71 301.5t-174 198.5q-157 109 -428 109q-84 0 -154 -6v-562q70 0 220 1t161 1q-2 -12 -2 -53 q0 -43 2 -57q-11 0 -161.5 1t-219.5 1v-549z" />
<glyph unicode="&#xf1;" horiz-adv-x="1630" d="M111 -2v25q43 4 59 38q24 49 28 264q1 84 1 332v957h30q217 -255 467 -549t312 -367q128 -147 249 -303h5v586q0 395 -11 480q-10 87 -45 105q-14 7 -35 9v24q22 0 81 -1t91 -1q38 0 93.5 1t74.5 1v-24q-56 -6 -66.5 -94.5t-10.5 -485.5v-20v-995h-31 q-195 228 -444.5 519t-321.5 375q-169 196 -264 318h-2v-541q0 -433 12 -527.5t76 -98.5v-27q-55 2 -183 2q-118 0 -165 -2zM582 1686q16 73 57.5 120t101.5 47q53 0 115 -45q51 -41 92 -43q65 0 88 78l58 -10q-11 -69 -53 -118.5t-101 -49.5q-56 0 -111 39q-62 45 -104 45 q-57 0 -84 -74z" />
<glyph unicode="&#xf2;" d="M86 788q0 237 110 427t302.5 296.5t429.5 106.5q226 0 409.5 -104t287.5 -288t104 -411v-2q0 -233 -105.5 -424t-296.5 -302.5t-430 -111.5q-167 0 -317.5 63.5t-258.5 171.5t-171.5 259t-63.5 319zM293 799q0 -183 81 -333t221.5 -234.5t311.5 -84.5q173 0 314 84 t222 235t81 339v2q0 135 -48 254t-130 204t-196 134t-243 49t-242.5 -49.5t-195 -135.5t-129 -206.5t-47.5 -257.5zM653 1876l70 109l283 -244l-37 -49z" />
<glyph unicode="&#xf3;" d="M86 788q0 237 110 427t302.5 296.5t429.5 106.5q226 0 409.5 -104t287.5 -288t104 -411v-2q0 -233 -105.5 -424t-296.5 -302.5t-430 -111.5q-167 0 -317.5 63.5t-258.5 171.5t-171.5 259t-63.5 319zM293 799q0 -183 81 -333t221.5 -234.5t311.5 -84.5q173 0 314 84 t222 235t81 339v2q0 135 -48 254t-130 204t-196 134t-243 49t-242.5 -49.5t-195 -135.5t-129 -206.5t-47.5 -257.5zM813 1741l283 244l67 -107l-313 -186z" />
<glyph unicode="&#xf4;" d="M86 788q0 237 110 427t302.5 296.5t429.5 106.5q226 0 409.5 -104t287.5 -288t104 -411v-2q0 -233 -105.5 -424t-296.5 -302.5t-430 -111.5q-167 0 -317.5 63.5t-258.5 171.5t-171.5 259t-63.5 319zM293 799q0 -183 81 -333t221.5 -234.5t311.5 -84.5q173 0 314 84 t222 235t81 339v2q0 135 -48 254t-130 204t-196 134t-243 49t-242.5 -49.5t-195 -135.5t-129 -206.5t-47.5 -257.5zM676 1726l244 232l233 -234l-43 -45l-195 129l-200 -129z" />
<glyph unicode="&#xf5;" d="M86 788q0 237 110 427t302.5 296.5t429.5 106.5q226 0 409.5 -104t287.5 -288t104 -411v-2q0 -233 -105.5 -424t-296.5 -302.5t-430 -111.5q-167 0 -317.5 63.5t-258.5 171.5t-171.5 259t-63.5 319zM293 799q0 -183 81 -333t221.5 -234.5t311.5 -84.5q173 0 314 84 t222 235t81 339v2q0 135 -48 254t-130 204t-196 134t-243 49t-242.5 -49.5t-195 -135.5t-129 -206.5t-47.5 -257.5zM659 1718q19 75 60 121.5t102 46.5q50 0 115 -45q51 -41 92 -41q63 0 88 76l58 -10q-13 -69 -55 -118.5t-99 -49.5q-55 0 -113 39q-25 18 -35.5 25 t-29.5 14.5t-37 7.5q-54 0 -86 -76z" />
<glyph unicode="&#xf6;" d="M86 788q0 237 110 427t302.5 296.5t429.5 106.5q226 0 409.5 -104t287.5 -288t104 -411v-2q0 -233 -105.5 -424t-296.5 -302.5t-430 -111.5q-167 0 -317.5 63.5t-258.5 171.5t-171.5 259t-63.5 319zM293 799q0 -183 81 -333t221.5 -234.5t311.5 -84.5q173 0 314 84 t222 235t81 339v2q0 135 -48 254t-130 204t-196 134t-243 49t-242.5 -49.5t-195 -135.5t-129 -206.5t-47.5 -257.5zM672 1776v2q0 32 25 56t61 24q35 0 59.5 -24.5t24.5 -57.5q0 -34 -24.5 -60t-59.5 -26q-36 0 -61 26t-25 60zM991 1776v2q0 32 25 56t61 24q35 0 59.5 -24.5 t24.5 -57.5q0 -34 -24.5 -60t-59.5 -26q-36 0 -61 26t-25 60z" />
<glyph unicode="&#xf7;" horiz-adv-x="1103" d="M94 647v131h918v-131h-918zM457 365v2q0 40 30 69t70 29q41 0 70.5 -29.5t29.5 -70.5t-30 -70t-70 -29t-70 29.5t-30 69.5zM457 1065v2q0 40 30 69t70 29q41 0 70.5 -29.5t29.5 -70.5t-29.5 -68.5t-70.5 -27.5q-40 0 -70 28.5t-30 67.5z" />
<glyph unicode="&#xf8;" d="M76 -2q24 26 105.5 112.5t119.5 125.5q-102 108 -157.5 252t-55.5 300q0 141 41 269t117 229.5t178.5 176.5t230.5 115t269 40h2q143 0 274 -45t232 -125q19 21 70 75t71 76h164q-193 -203 -217 -231q101 -106 156 -253t55 -302q0 -233 -105 -424t-297 -302.5 t-434 -111.5q-145 0 -278.5 49.5t-231.5 131.5q-25 -26 -145 -158h-164zM295 793q0 -242 139 -420q170 185 457 491.5t416 446.5q-153 137 -402 137h-2q-172 0 -311 -85t-218 -235t-79 -335zM510 291q166 -144 395 -144h2q127 0 240 47.5t197 131.5t133 209t49 272 q0 234 -140 422q-157 -168 -876 -938z" />
<glyph unicode="&#xf9;" horiz-adv-x="1576" d="M92 1573v26q21 0 84.5 -1t104.5 -1q39 0 99.5 1t80.5 1v-26q-65 -4 -77.5 -94.5t-12.5 -501.5v-309q0 -134 24.5 -221.5t77.5 -153.5q51 -66 136 -101.5t184 -35.5q201 0 311 131q108 122 108 389v301q0 395 -9 477q-9 91 -42 110q-15 9 -39 11v24q24 0 83.5 -1t94.5 -1 q41 0 100 1t77 1v-24q-58 -6 -69 -96.5t-11 -501.5v-303q0 -174 -37 -294.5t-111 -207.5q-74 -89 -193.5 -143t-264.5 -54q-160 0 -284.5 56t-201.5 162q-68 85 -98.5 194.5t-30.5 267.5v322q0 411 -11.5 501.5t-72.5 94.5zM532 1845l68 109l283 -244l-35 -49z" />
<glyph unicode="&#xfa;" horiz-adv-x="1576" d="M92 1573v26q21 0 84.5 -1t104.5 -1q39 0 99.5 1t80.5 1v-26q-65 -4 -77.5 -94.5t-12.5 -501.5v-309q0 -134 24.5 -221.5t77.5 -153.5q51 -66 136 -101.5t184 -35.5q201 0 311 131q108 122 108 389v301q0 395 -9 477q-9 91 -42 110q-15 9 -39 11v24q24 0 83.5 -1t94.5 -1 q41 0 100 1t77 1v-24q-58 -6 -69 -96.5t-11 -501.5v-303q0 -174 -37 -294.5t-111 -207.5q-74 -89 -193.5 -143t-264.5 -54q-160 0 -284.5 56t-201.5 162q-68 85 -98.5 194.5t-30.5 267.5v322q0 411 -11.5 501.5t-72.5 94.5zM723 1710l281 244l69 -107l-315 -186z" />
<glyph unicode="&#xfb;" horiz-adv-x="1576" d="M92 1573v26q21 0 84.5 -1t104.5 -1q39 0 99.5 1t80.5 1v-26q-65 -4 -77.5 -94.5t-12.5 -501.5v-309q0 -134 24.5 -221.5t77.5 -153.5q51 -66 136 -101.5t184 -35.5q201 0 311 131q108 122 108 389v301q0 395 -9 477q-9 91 -42 110q-15 9 -39 11v24q24 0 83.5 -1t94.5 -1 q41 0 100 1t77 1v-24q-58 -6 -69 -96.5t-11 -501.5v-303q0 -174 -37 -294.5t-111 -207.5q-74 -89 -193.5 -143t-264.5 -54q-160 0 -284.5 56t-201.5 162q-68 85 -98.5 194.5t-30.5 267.5v322q0 411 -11.5 501.5t-72.5 94.5zM567 1718l242 232l233 -234l-41 -45l-194 131 l-203 -131z" />
<glyph unicode="&#xfc;" horiz-adv-x="1576" d="M92 1573v26q21 0 84.5 -1t104.5 -1q39 0 99.5 1t80.5 1v-26q-65 -4 -77.5 -94.5t-12.5 -501.5v-309q0 -134 24.5 -221.5t77.5 -153.5q51 -66 136 -101.5t184 -35.5q201 0 311 131q108 122 108 389v301q0 395 -9 477q-9 91 -42 110q-15 9 -39 11v24q24 0 83.5 -1t94.5 -1 q41 0 100 1t77 1v-24q-58 -6 -69 -96.5t-11 -501.5v-303q0 -174 -37 -294.5t-111 -207.5q-74 -89 -193.5 -143t-264.5 -54q-160 0 -284.5 56t-201.5 162q-68 85 -98.5 194.5t-30.5 267.5v322q0 411 -11.5 501.5t-72.5 94.5zM555 1776v2q0 32 25.5 56t62.5 24 q35 0 58.5 -24.5t23.5 -57.5q0 -35 -23.5 -60.5t-58.5 -25.5q-37 0 -62.5 25.5t-25.5 60.5zM874 1776v2q0 31 26.5 55.5t62.5 24.5q35 0 59.5 -24.5t24.5 -57.5q0 -34 -24.5 -60t-59.5 -26q-36 0 -62.5 26t-26.5 60z" />
<glyph unicode="&#xfd;" horiz-adv-x="1259" d="M-25 1573v26q6 0 64 -1t102 -1q38 0 107.5 1t97.5 1v-26q-48 -4 -52 -35q-4 -38 69 -186q22 -43 86 -168q110 -208 182 -355h4q38 82 180 353q132 250 151 312q19 61 -15 74q-10 4 -27 5v26q63 -2 196 -2q119 0 152 2v-26q-14 -2 -25.5 -9t-27 -24.5t-37.5 -53 t-51.5 -87.5t-75.5 -136t-104 -192q-35 -65 -54 -100l-174 -324v-72v-29q0 -354 12.5 -434.5t79.5 -86.5v-27q-49 2 -184 2q-154 0 -191 -2v27q65 6 77.5 90.5t12.5 457.5v60l-178 340q-231 433 -271 498q-50 81 -82 96q-10 4 -24 6zM586 1706l280 246l70 -109l-315 -184z " />
<glyph unicode="&#xfe;" horiz-adv-x="1122" d="M123 -2v29q43 5 59 37q24 47 28 253q1 85 1 338v322q0 409 -11.5 498t-74.5 96v28q25 0 88.5 -1t91.5 -1q27 0 93 1t89 1v-28q-56 -7 -68.5 -64t-12.5 -229q81 6 163 0q190 -11 301 -94q70 -54 118 -141t48 -205v-2q0 -88 -29.5 -166.5t-74.5 -132.5q-43 -52 -111 -94.5 t-139 -61.5q-122 -28 -279 -25q2 -199 18 -260.5t75 -68.5v-29q-29 0 -96 1t-93 1q-27 0 -93 -1t-91 -1zM403 504q11 0 38.5 -1t39.5 -1q192 0 291 119q68 82 68 206v2q0 74 -31.5 136.5t-87.5 101.5q-82 59 -221 59q-51 0 -97 -4v-618z" />
<glyph unicode="&#xff;" horiz-adv-x="1259" d="M-25 1573v26q6 0 64 -1t102 -1q38 0 107.5 1t97.5 1v-26q-48 -4 -52 -35q-4 -38 69 -186q22 -43 86 -168q110 -208 182 -355h4q38 82 180 353q132 250 151 312q19 61 -15 74q-10 4 -27 5v26q63 -2 196 -2q119 0 152 2v-26q-14 -2 -25.5 -9t-27 -24.5t-37.5 -53 t-51.5 -87.5t-75.5 -136t-104 -192q-35 -65 -54 -100l-174 -324v-72v-29q0 -354 12.5 -434.5t79.5 -86.5v-27q-49 2 -184 2q-154 0 -191 -2v27q65 6 77.5 90.5t12.5 457.5v60l-178 340q-231 433 -271 498q-50 81 -82 96q-10 4 -24 6zM399 1776v2q0 32 25.5 56t62.5 24 q35 0 58.5 -24.5t23.5 -57.5q0 -35 -23.5 -60.5t-58.5 -25.5q-37 0 -62.5 25.5t-25.5 60.5zM719 1776v2q0 31 26 55.5t62 24.5q35 0 59.5 -24.5t24.5 -57.5q0 -34 -24.5 -60t-59.5 -26q-36 0 -62 26t-26 60z" />
<glyph unicode="&#x152;" horiz-adv-x="2082" d="M86 788v3q0 193 68 349.5t187.5 259t280 157.5t347.5 55q54 0 150.5 -6t111.5 -7q45 -2 332 -2q100 0 225 1t154 1q-9 -166 -9 -260h-26q-9 59 -47 79t-136 20h-338v-541h277q111 0 150.5 11t50.5 40h22q-4 -90 -4 -127q0 -59 4 -145h-24q-9 35 -47 48t-148 13h-281v-536 q0 -24 7.5 -30.5t33.5 -6.5h324q90 0 133.5 18.5t57.5 71.5h24q0 -22 -3 -120.5t-3 -135.5q-38 0 -133.5 1t-186.5 1q-376 0 -403 -2q-192 -16 -303 -16q-172 0 -325 54.5t-269.5 155t-185 255t-68.5 341.5zM297 788q0 -149 53 -271t143.5 -201t209.5 -121.5t253 -42.5 q136 0 238 22q0 39 1 211.5t1 249.5v788q-108 19 -223 19q-147 0 -271.5 -45t-214 -127.5t-140 -205.5t-50.5 -273v-3z" />
<glyph unicode="&#x153;" horiz-adv-x="2082" d="M86 788v3q0 193 68 349.5t187.5 259t280 157.5t347.5 55q54 0 150.5 -6t111.5 -7q45 -2 332 -2q100 0 225 1t154 1q-9 -166 -9 -260h-26q-9 59 -47 79t-136 20h-338v-541h277q111 0 150.5 11t50.5 40h22q-4 -90 -4 -127q0 -59 4 -145h-24q-9 35 -47 48t-148 13h-281v-536 q0 -24 7.5 -30.5t33.5 -6.5h324q90 0 133.5 18.5t57.5 71.5h24q0 -22 -3 -120.5t-3 -135.5q-38 0 -133.5 1t-186.5 1q-376 0 -403 -2q-192 -16 -303 -16q-172 0 -325 54.5t-269.5 155t-185 255t-68.5 341.5zM297 788q0 -149 53 -271t143.5 -201t209.5 -121.5t253 -42.5 q136 0 238 22q0 39 1 211.5t1 249.5v788q-108 19 -223 19q-147 0 -271.5 -45t-214 -127.5t-140 -205.5t-50.5 -273v-3z" />
<glyph unicode="&#x178;" horiz-adv-x="1259" d="M-25 1573v26q6 0 64 -1t102 -1q38 0 107.5 1t97.5 1v-26q-48 -4 -52 -35q-4 -38 69 -186q22 -43 86 -168q110 -208 182 -355h4q38 82 180 353q132 250 151 312q19 61 -15 74q-10 4 -27 5v26q63 -2 196 -2q119 0 152 2v-26q-14 -2 -25.5 -9t-27 -24.5t-37.5 -53 t-51.5 -87.5t-75.5 -136t-104 -192q-35 -65 -54 -100l-174 -324v-72v-29q0 -354 12.5 -434.5t79.5 -86.5v-27q-49 2 -184 2q-154 0 -191 -2v27q65 6 77.5 90.5t12.5 457.5v60l-178 340q-231 433 -271 498q-50 81 -82 96q-10 4 -24 6zM399 1776v2q0 32 25.5 56t62.5 24 q35 0 58.5 -24.5t23.5 -57.5q0 -35 -23.5 -60.5t-58.5 -25.5q-37 0 -62.5 25.5t-25.5 60.5zM719 1776v2q0 31 26 55.5t62 24.5q35 0 59.5 -24.5t24.5 -57.5q0 -34 -24.5 -60t-59.5 -26q-36 0 -62 26t-26 60z" />
<glyph unicode="&#x2c6;" horiz-adv-x="899" d="M207 1718l242 232l233 -234l-41 -45l-195 131l-202 -131z" />
<glyph unicode="&#x2dc;" horiz-adv-x="899" d="M195 1708q16 74 57 121t102 47q32 0 56.5 -10.5t58.5 -34.5q51 -41 92 -41q63 0 88 76l58 -11q-13 -69 -54.5 -118t-99.5 -49q-57 0 -113 38q-22 17 -34.5 25.5t-31 15.5t-36.5 7q-54 0 -86 -76z" />
<glyph unicode="&#x2000;" horiz-adv-x="992" />
<glyph unicode="&#x2001;" horiz-adv-x="1985" />
<glyph unicode="&#x2002;" horiz-adv-x="992" />
<glyph unicode="&#x2003;" horiz-adv-x="1985" />
<glyph unicode="&#x2004;" horiz-adv-x="661" />
<glyph unicode="&#x2005;" horiz-adv-x="496" />
<glyph unicode="&#x2006;" horiz-adv-x="330" />
<glyph unicode="&#x2007;" horiz-adv-x="330" />
<glyph unicode="&#x2008;" horiz-adv-x="248" />
<glyph unicode="&#x2009;" horiz-adv-x="397" />
<glyph unicode="&#x200a;" horiz-adv-x="110" />
<glyph unicode="&#x2010;" horiz-adv-x="622" d="M61 700q2 18 2 74q0 58 -2 74h500q-2 -16 -2 -70v-2q0 -58 2 -76q-70 2 -248 2q-180 0 -252 -2z" />
<glyph unicode="&#x2011;" horiz-adv-x="622" d="M61 700q2 18 2 74q0 58 -2 74h500q-2 -16 -2 -70v-2q0 -58 2 -76q-70 2 -248 2q-180 0 -252 -2z" />
<glyph unicode="&#x2012;" horiz-adv-x="622" d="M61 700q2 18 2 74q0 58 -2 74h500q-2 -16 -2 -70v-2q0 -58 2 -76q-70 2 -248 2q-180 0 -252 -2z" />
<glyph unicode="&#x2013;" horiz-adv-x="1021" d="M61 700v150q72 -2 455 -2q377 0 447 2q-2 -16 -2 -72v-2q0 -58 2 -76q-25 0 -192 1t-253 1t-258.5 -1t-198.5 -1z" />
<glyph unicode="&#x2014;" horiz-adv-x="2045" d="M61 700v148h1926q-2 -16 -2 -70v-2q0 -58 2 -76q-70 2 -959 2q-895 0 -967 -2z" />
<glyph unicode="&#x2018;" horiz-adv-x="409" d="M86 1284q0 101 76 207q63 85 127 119l30 -31q-25 -25 -55 -70q-43 -70 -43 -123q0 -17 23 -20q31 -6 54.5 -36t23.5 -68q0 -53 -35.5 -88t-81.5 -35h-2q-51 0 -84 38.5t-33 106.5z" />
<glyph unicode="&#x2019;" horiz-adv-x="409" d="M90 1165q32 29 65 89.5t33 101.5q0 17 -20 20q-32 6 -55 36t-23 69q0 54 34.5 89.5t80.5 35.5h2q51 0 84 -39.5t33 -106.5q0 -105 -76 -207q-51 -76 -127 -120z" />
<glyph unicode="&#x201a;" horiz-adv-x="409" d="M90 92q0 54 34.5 89.5t80.5 35.5h2q51 0 84 -39t33 -106q0 -105 -76 -207q-24 -36 -59 -69t-68 -52l-31 33q32 29 65 89t33 101q0 17 -20 23q-32 6 -55 35t-23 67z" />
<glyph unicode="&#x201c;" horiz-adv-x="739" d="M84 1284q0 101 76 207q61 82 127 119l30 -31q-25 -25 -55 -70q-41 -66 -41 -123q0 -17 21 -20q31 -6 54 -36t23 -68q0 -54 -34.5 -88.5t-81.5 -34.5h-2q-50 0 -83.5 38.5t-33.5 106.5zM418 1284q0 101 76 207q25 36 60 69t67 50l30 -31q-32 -29 -65 -91t-33 -102 q0 -17 20 -20q32 -6 55 -35.5t23 -68.5q0 -54 -34 -88.5t-80 -34.5h-2q-51 0 -84 38.5t-33 106.5z" />
<glyph unicode="&#x201d;" horiz-adv-x="739" d="M90 1165q32 29 65 89.5t33 101.5q0 17 -20 20q-32 6 -55 36t-23 69q0 54 34.5 89.5t80.5 35.5h2q51 0 84 -39.5t33 -106.5q0 -105 -76 -207q-51 -76 -127 -120zM418 1481q0 54 35 89.5t82 35.5h2q51 0 83.5 -39.5t32.5 -106.5q0 -106 -75 -207q-56 -79 -127 -120l-31 32 q25 25 55 70q43 67 43 121q0 17 -22 20q-31 6 -54.5 36.5t-23.5 68.5z" />
<glyph unicode="&#x201e;" horiz-adv-x="739" d="M88 92q0 54 34.5 89.5t80.5 35.5h2q51 0 85 -39t34 -106q0 -99 -76 -207q-56 -79 -129 -121l-29 33q21 21 53 69q43 67 43 121q0 18 -20 23q-31 6 -54.5 35t-23.5 67zM420 92q0 54 35.5 89.5t81.5 35.5h2q51 0 83.5 -39t32.5 -106q0 -106 -75 -207q-58 -81 -127 -121 l-31 33q27 27 55 69q43 67 43 121q0 17 -22 23q-31 6 -54.5 35t-23.5 67z" />
<glyph unicode="&#x2022;" horiz-adv-x="573" d="M92 797q0 80 57.5 137t139.5 57h2q77 0 132.5 -56.5t55.5 -133.5q0 -82 -55.5 -138.5t-138.5 -56.5q-79 0 -136 56t-57 135z" />
<glyph unicode="&#x2026;" horiz-adv-x="2048" d="M221 96q0 51 35.5 87t85.5 36h2q51 0 85 -36t34 -87q0 -50 -34.5 -84.5t-86.5 -34.5q-50 0 -85.5 35t-35.5 84zM903 96q0 51 35.5 87t85.5 36h2q51 0 85 -36t34 -87q0 -50 -34.5 -84.5t-86.5 -34.5q-50 0 -85.5 35t-35.5 84zM1585 96q0 51 36 87t87 36h2q51 0 85 -36 t34 -87q0 -50 -34.5 -84.5t-86.5 -34.5q-51 0 -87 35t-36 84z" />
<glyph unicode="&#x202f;" horiz-adv-x="397" />
<glyph unicode="&#x2039;" horiz-adv-x="555" d="M61 799q206 210 361 383l51 -39q-44 -72 -123 -197t-88 -139q1 -2 84 -138.5t127 -215.5l-51 -41q-113 132 -361 387z" />
<glyph unicode="&#x203a;" horiz-adv-x="555" d="M82 453q53 91 207 338q-22 40 -94.5 161t-112.5 193l49 39q155 -178 354 -387q-241 -252 -354 -383z" />
<glyph unicode="&#x205f;" horiz-adv-x="496" />
<glyph unicode="&#x20ac;" horiz-adv-x="1228" d="M0 637q14 35 27 100h129q-2 20 -2 64q0 51 2 76h-115q12 23 27 100h100q24 153 89.5 275t160.5 201t213.5 121t251.5 42q120 0 282 -35q-3 -57 -4.5 -145t-3.5 -127h-27q-21 72 -77 104q-66 39 -170 39q-204 0 -339 -126.5t-175 -348.5h645q-5 -13 -27 -100l-633 2 q-2 -27 -2 -80q0 -42 2 -62h617q-7 -16 -16 -54t-11 -46l-577 2q37 -222 171.5 -357t327.5 -135q107 0 176 37q30 17 48.5 40t31.5 67h27v-258q-115 -51 -295 -51q-128 0 -243 43.5t-206.5 124.5t-154 206t-84.5 281h-166z" />
<glyph unicode="&#x2122;" horiz-adv-x="960" d="M29 1505v92h356q0 -15 -1 -48t-1 -44h-14q-6 33 -41 33h-80v-227q0 -91 4.5 -115t19.5 -27v-14h-129v14q15 3 20 28t5 114v227h-82q-36 0 -41 -33h-16zM371 1155v14q17 1 24 26t19 128l37 279h16q136 -231 174 -318h6q39 90 170 318h17l38 -277q13 -101 20.5 -127 t22.5 -29v-14h-122v14q11 2 14.5 22.5t1 52t-7 62.5t-9.5 63t-6 44h-2q-75 -154 -137 -250h-14q-67 113 -105 189q-30 57 -32 63h-2q0 -4 -5.5 -42.5t-8.5 -65t-5 -61.5t2 -55t15 -22v-14h-121z" />
<glyph unicode="&#xe000;" horiz-adv-x="1597" d="M0 0v1597h1597v-1597h-1597z" />
<glyph unicode="&#xfb01;" horiz-adv-x="1775" d="M131 -2v29q58 7 69 100t11 530v320q0 408 -10.5 495.5t-65.5 94.5v32q11 0 145.5 -1t239.5 -1q90 0 246 1t201 1q-9 -216 -9 -260h-28q-7 61 -51 80t-154 19h-322v-572h277q116 0 153.5 9t47.5 45h26q-4 -90 -4 -132q0 -35 4 -141h-26q-10 41 -47 51.5t-148 10.5h-283 v-123q0 -373 11 -452q10 -79 44 -97q13 -7 34 -10v-29q-57 2 -181 2q-127 0 -180 -2zM1196 -2v27q66 7 78 101t12 529v322q0 409 -11.5 498.5t-74.5 95.5v28q18 0 78.5 -1t101.5 -1q37 0 100 1t81 1v-26q-60 -7 -71 -96t-11 -500v-320q0 -421 10 -510q10 -90 43 -111 q15 -8 39 -11v-27q-23 0 -86.5 1t-102.5 1q-44 0 -105.5 -1t-80.5 -1z" />
<glyph unicode="&#xfb02;" horiz-adv-x="2183" d="M131 -2v29q58 7 69 100t11 530v320q0 408 -10.5 495.5t-65.5 94.5v32q11 0 145.5 -1t239.5 -1q90 0 246 1t201 1q-9 -216 -9 -260h-28q-7 61 -51 80t-154 19h-322v-572h277q116 0 153.5 9t47.5 45h26q-4 -90 -4 -132q0 -35 4 -141h-26q-10 41 -47 51.5t-148 10.5h-283 v-123q0 -373 11 -452q10 -79 44 -97q13 -7 34 -10v-29q-57 2 -181 2q-127 0 -180 -2zM1198 -2v29q44 6 60 37q23 47 27 246q1 78 1 347v320q0 409 -11.5 497.5t-74.5 98.5v26q18 0 79 -1t101 -1q39 0 101.5 1t81.5 1v-26q-62 -10 -74 -100.5t-12 -495.5v-782q0 -19 6.5 -25 t23.5 -6h367q77 0 117 20.5t49 77.5h24q-1 -40 -3 -123t-3 -141q-113 2 -442 2q-371 0 -418 -2z" />
</font>
</defs>
</svg>
