<?xml version="1.0" standalone="no"?>
<!DOCTYPE svg PUBLIC "-//W3C//DTD SVG 1.1//EN" "http://www.w3.org/Graphics/SVG/1.1/DTD/svg11.dtd" >
<svg xmlns="http://www.w3.org/2000/svg">
<metadata></metadata>
<defs>
<font id="PenumbraFlareStdLightRegular" horiz-adv-x="1775" >
<font-face units-per-em="2048" ascent="1604" descent="-444" />
<missing-glyph horiz-adv-x="598" />
<glyph horiz-adv-x="0" />
<glyph horiz-adv-x="2048" />
<glyph unicode=" "  horiz-adv-x="598" />
<glyph unicode="&#x09;" horiz-adv-x="598" />
<glyph unicode="&#xa0;" horiz-adv-x="598" />
<glyph unicode="!" horiz-adv-x="522" d="M168 76q0 37 26 67.5t68 30.5h2q45 0 73 -27t28 -73q0 -41 -27 -67.5t-72 -26.5q-43 0 -70.5 26.5t-27.5 69.5zM203 1597h116q0 -144 -1 -648t-1 -601h-112q0 97 -1 601t-1 648z" />
<glyph unicode="&#x22;" horiz-adv-x="577" d="M84 1593l141 15l-41 -420l-61 -12zM352 1593l142 15l-41 -420l-62 -12z" />
<glyph unicode="#" horiz-adv-x="1130" d="M86 535v81h215l57 342h-221v80h236l65 396h92l-65 -396h283l67 396h92l-67 -396h204v-80h-217l-59 -342h223v-81h-235l-70 -404h-92l70 404h-285l-68 -404h-90l66 404h-201zM393 616h283l59 342h-284z" />
<glyph unicode="$" horiz-adv-x="794" d="M74 96q0 3 6 54.5t8 74.5h10q59 -65 224 -65q115 0 195.5 74.5t80.5 199.5q0 60 -19 106.5t-69 102.5q-36 37 -116.5 100.5t-96.5 77.5q-47 42 -73 69t-57.5 70t-46 91.5t-14.5 105.5q0 133 78.5 229.5t216.5 126.5q1 24 4.5 73t8 98.5t4.5 54.5v6h102v-6q-2 -25 -9 -108 t-9 -107q106 0 186 -25q-3 -30 -6 -69.5t-4 -53.5h-10q-41 51 -172 51q-115 0 -193 -67.5t-78 -188.5q0 -98 76 -188q33 -40 254 -223q74 -68 119 -144t45 -176v-2q0 -129 -81 -231t-226 -133q-1 -20 -6 -72t-9 -94.5t-4 -54.5v-5h-104v5q1 12 9.5 100t10.5 108 q-139 0 -235 35z" />
<glyph unicode="%" horiz-adv-x="1462" d="M63 1262q0 85 41.5 162.5t122 128.5t179.5 51h2q148 0 244 -102.5t96 -237.5q0 -62 -22.5 -123.5t-64 -113.5t-108.5 -84t-147 -32q-103 0 -183 53.5t-120 132.5t-40 165zM129 -39q56 85 535.5 829.5t531.5 827.5h115q-52 -79 -530 -824t-533 -833h-119zM164 1262 q0 -102 67 -179t175 -77h2q109 0 174 77.5t65 180.5q0 102 -65 174.5t-176 72.5q-109 0 -175.5 -74t-66.5 -175zM707 344q0 85 43 163t123.5 128.5t179.5 50.5h2q101 0 181.5 -51t121.5 -128.5t41 -162.5q0 -61 -23 -122.5t-65 -113t-109 -84t-147 -32.5q-79 0 -146.5 32 t-110.5 83.5t-67 113t-24 123.5zM807 344q0 -104 69.5 -181t178.5 -77h2q108 0 173.5 76t65.5 182q0 96 -67 172t-176 76q-108 0 -177 -75t-69 -173z" />
<glyph unicode="&#x26;" horiz-adv-x="1347" d="M61 367q0 150 83 270.5t251 247.5v4q-2 3 -21.5 28t-24.5 31.5t-23.5 32t-25 37t-21.5 37t-21.5 42t-16.5 42.5t-14.5 47.5t-8 48t-3.5 53.5q0 129 102 227.5t246 98.5q134 0 221.5 -87t87.5 -220q0 -138 -120 -271q-62 -67 -197 -166v-4q151 -195 412 -473h2 q51 86 82.5 158.5t70.5 183.5q20 56 33 105h129v-9q-23 -32 -63 -141q-79 -214 -181 -373q119 -126 215 -215q76 -73 113 -92v-10h-151q-5 0 -17 12q-148 138 -219 215h-2q-98 -117 -220.5 -188.5t-262.5 -71.5h-2q-191 0 -312 117.5t-121 282.5zM182 375q0 -128 93 -215.5 t229 -87.5h2q230 0 401 229q-188 191 -450 506q-91 -69 -149 -132t-92 -139t-34 -161zM334 1290q0 -97 41.5 -176t116.5 -172h2q123 93 184 168q78 94 78 193q0 82 -55.5 145t-147.5 63h-2q-94 0 -155.5 -66.5t-61.5 -154.5z" />
<glyph unicode="'" horiz-adv-x="309" d="M84 1593l141 15l-41 -420l-61 -12z" />
<glyph unicode="(" horiz-adv-x="626" d="M139 797q0 273 105 526.5t266 417.5h86q-73 -95 -140.5 -213.5t-103.5 -218.5q-98 -260 -98 -512q0 -258 96 -514q38 -102 104.5 -219.5t137.5 -210.5h-90q-159 180 -261 423t-102 521z" />
<glyph unicode=")" horiz-adv-x="626" d="M33 1741h90q160 -174 262 -422.5t102 -521.5q0 -289 -116 -555q-43 -103 -110 -208.5t-138 -180.5h-86q161 215 239 423q99 272 99 521q0 244 -101 520q-38 101 -103 215.5t-138 208.5z" />
<glyph unicode="*" horiz-adv-x="647" d="M61 1421l50 82q31 -23 91.5 -67t84.5 -62l4 2q-17 185 -19 221h99q-2 -32 -8.5 -109t-8.5 -112l4 -2q68 49 172 129l52 -80q-24 -14 -91 -49.5t-100 -54.5v-4q31 -15 98.5 -45t94.5 -43l-52 -84q-26 19 -87 59.5t-87 59.5l-4 -2q6 -86 17 -211h-97q2 39 8 116.5t7 94.5 l-2 2q-78 -57 -176 -121l-48 82q18 9 86 41t105 51v4q-128 63 -193 102z" />
<glyph unicode="+" horiz-adv-x="1089" d="M106 659v91h392v383h94v-383h391v-91h-391v-421h-94v421h-392z" />
<glyph unicode="," horiz-adv-x="385" d="M94 -207q17 14 49 62q39 62 39 110q0 21 -20 23q-24 3 -45 28t-21 56q0 45 28 74.5t66 29.5h3q44 0 71 -34t27 -91q0 -87 -70 -186q-49 -69 -102 -98z" />
<glyph unicode="-" horiz-adv-x="569" d="M63 725v102h443v-102h-443z" />
<glyph unicode="." horiz-adv-x="385" d="M94 76q0 41 29.5 70.5t69.5 29.5h2q41 0 68.5 -29t27.5 -71q0 -41 -28 -70t-70 -29q-40 0 -69.5 29.5t-29.5 69.5z" />
<glyph unicode="/" horiz-adv-x="978" d="M-33 -39q765 1372 926 1665h113q-119 -215 -427 -771.5t-495 -893.5h-117z" />
<glyph unicode="0" horiz-adv-x="1259" d="M92 809q0 75 7.5 150t25 156t45 152.5t70 137t96.5 112t128.5 74t162.5 27.5h2q88 0 163 -27.5t129 -73.5t97.5 -111t70.5 -136.5t45 -152.5t25.5 -156.5t7.5 -151.5q0 -75 -6.5 -149t-23 -157.5t-42.5 -157t-68.5 -141.5t-97 -117t-132 -78t-170.5 -29 q-91 0 -167.5 28.5t-130.5 76.5t-96.5 115.5t-68.5 140.5t-42.5 157t-23 159t-6.5 152zM213 809q0 -77 7 -152t23.5 -160t48 -155.5t76 -129.5t112 -92.5t151.5 -33.5h2q72 0 132 25.5t102 68t75 102.5t52.5 124t32.5 137t17.5 137t4.5 129q0 57 -4.5 115.5t-17 129 t-32.5 133.5t-53 123.5t-75 104t-103 70t-133 26.5q-73 0 -134 -26.5t-103 -70t-75 -104t-52.5 -123.5t-32 -133.5t-17 -129t-4.5 -115.5z" />
<glyph unicode="1" horiz-adv-x="708" d="M6 1368q38 19 112 61t167.5 96.5t124.5 71.5h51q-2 -180 -2 -655v-260q0 -456 5 -560.5t30 -111.5v-10h-191v10q30 7 35.5 112t5.5 560v696q0 63 -5 65q-2 1 -7 -1q-26 -12 -148.5 -74t-138.5 -70z" />
<glyph unicode="2" horiz-adv-x="1054" d="M23 0v72q254 231 477 471q62 69 111 133t97.5 145.5t75.5 170.5t27 177q0 145 -95 242.5t-270 97.5q-163 0 -286 -71q-61 -37 -88 -76h-6q0 62 -7 137q75 55 187.5 87t218.5 32h2q110 0 200 -35t147 -95t87.5 -137.5t30.5 -164.5q0 -315 -291 -645 q-100 -115 -225.5 -240.5t-208.5 -194.5h549q90 0 134 5t52 22h12v-133h-931z" />
<glyph unicode="3" horiz-adv-x="1003" d="M47 88q1 9 4.5 61t5.5 82h11q49 -69 144 -105t208 -36q74 0 145 28.5t125 80.5q92 86 92 235q0 63 -26 125.5t-74 110.5q-33 31 -82 58t-102 38q-85 20 -234 20v97q133 3 226 27.5t155 80.5q98 86 98 230q0 132 -89.5 211t-235.5 79q-89 0 -171 -28.5t-114 -83.5h-8 q0 12 -6 141q138 78 313 78q194 0 315 -112t121 -285q0 -142 -83 -239t-216 -142v-2q58 -10 115.5 -42.5t95.5 -68.5q129 -119 129 -295q0 -187 -137 -321q-62 -57 -154 -91t-194 -34q-210 0 -377 102z" />
<glyph unicode="4" horiz-adv-x="1157" d="M-4 387v14q58 79 393.5 544.5t484.5 670.5h9v-1124h235v-105h-235q0 -249 3 -309t19 -66v-12h-162v12q18 6 21.5 68.5t3.5 306.5h-772zM199 492h569q0 645 6 815h-2q-39 -58 -169 -241.5t-259 -365t-145 -204.5v-4z" />
<glyph unicode="5" horiz-adv-x="1015" d="M49 53q7 44 21 133h8q86 -86 280 -86q167 0 291 80q68 45 117 131t49 185q0 126 -68 208t-176 121q-101 37 -235 37q-115 0 -221 -18q24 169 104 753h690q-1 -16 -3 -66t-3 -71h-12q-7 19 -58 25t-171 6h-343l-77 -533q209 19 372 -30q143 -41 233.5 -151.5t90.5 -276.5 v-2q0 -123 -68 -238t-172 -176q-158 -88 -344 -88q-168 0 -305 57z" />
<glyph unicode="6" horiz-adv-x="1216" d="M66 494q0 141 73 299q56 119 213 366q108 160 299 438h137q-150 -206 -292 -415q-147 -223 -172 -264l2 -3q125 101 295 101q151 0 270.5 -72t181.5 -186.5t62 -247.5v-2q0 -101 -37 -196t-105 -169q-153 -166 -397 -166q-123 0 -224.5 42t-167.5 113.5t-102 165 t-36 196.5zM184 498q0 -179 119 -297.5t297 -118.5h2q106 0 199 51t152 148.5t59 220.5q0 180 -118.5 295.5t-303.5 115.5q-117 0 -195 -43q-85 -42 -139 -120q-72 -112 -72 -252z" />
<glyph unicode="7" horiz-adv-x="1054" d="M59 1597h971q3 -6 0 -16q-384 -770 -803 -1581h-127q125 247 375 734t385 757h-594q-177 0 -192 -33h-13q0 92 -2 139z" />
<glyph unicode="8" horiz-adv-x="1173" d="M92 424q0 145 87.5 257t221.5 155q-116 48 -181.5 141.5t-65.5 218.5q0 121 61 218t162.5 149.5t222.5 52.5q186 0 303 -114t117 -292q0 -131 -65 -225t-183 -145q136 -35 222.5 -141.5t86.5 -256.5q0 -135 -69 -242t-181 -163.5t-245 -56.5h-2q-209 0 -350.5 125.5 t-141.5 318.5zM221 428q0 -153 107.5 -248.5t261.5 -95.5q151 0 257.5 97.5t106.5 246.5q0 159 -105 253.5t-259 94.5h-2q-155 0 -261 -93.5t-106 -254.5zM279 1198q0 -136 90.5 -226.5t220.5 -90.5t218.5 90.5t88.5 224.5q0 138 -84.5 225.5t-222.5 87.5h-2 q-139 0 -224 -87.5t-85 -223.5z" />
<glyph unicode="9" horiz-adv-x="1220" d="M82 1083q0 107 37.5 204.5t105.5 166.5q154 164 412 164q119 0 218 -42t164 -112.5t100.5 -161.5t35.5 -190v-2q0 -153 -92 -342q-71 -137 -197 -324q-21 -33 -301 -444h-141q242 324 461 672l-4 4q-125 -94 -289 -94q-143 0 -261 69t-183.5 183.5t-65.5 248.5zM205 1100 q0 -119 53.5 -214.5t148.5 -148.5t214 -53q185 0 297 121q55 58 84.5 134t29.5 159q0 91 -33.5 169.5t-90 132.5t-132 85t-158.5 31h-2q-116 0 -210.5 -55.5t-147.5 -151t-53 -209.5z" />
<glyph unicode=":" horiz-adv-x="385" d="M94 76q0 41 29.5 70.5t69.5 29.5h2q41 0 68.5 -29t27.5 -71q0 -41 -28 -70t-70 -29q-40 0 -69.5 29.5t-29.5 69.5zM94 821q0 41 29.5 71t69.5 30h2q41 0 68.5 -29.5t27.5 -71.5q0 -40 -28 -69t-70 -29q-40 0 -69.5 29t-29.5 69z" />
<glyph unicode=";" horiz-adv-x="385" d="M94 -207q17 14 49 62q39 62 39 110q0 21 -20 23q-24 3 -45 28t-21 56q0 45 28 74.5t66 29.5h3q44 0 71 -34t27 -91q0 -87 -70 -186q-49 -69 -102 -98zM94 821q0 41 29.5 71t69.5 30h2q41 0 68.5 -29.5t27.5 -71.5q0 -40 -28 -69t-70 -29q-40 0 -69.5 29t-29.5 69z" />
<glyph unicode="&#x3c;" horiz-adv-x="1089" d="M131 657v78l827 398v-101l-702 -327v-17l702 -330v-102z" />
<glyph unicode="=" horiz-adv-x="1089" d="M106 481v90h877v-90h-877zM106 827v91h877v-91h-877z" />
<glyph unicode="&#x3e;" horiz-adv-x="1089" d="M131 256v102l703 330v17l-703 327v101l827 -398v-78z" />
<glyph unicode="?" horiz-adv-x="921" d="M61 1513q61 41 149.5 69t174.5 28h2q149 0 254 -66q88 -55 134 -142.5t46 -182.5q0 -63 -14 -119.5t-44 -110.5t-63.5 -99.5t-83.5 -103.5q-48 -54 -80.5 -97.5t-53 -81.5t-32 -80t-16.5 -81.5t-8 -97.5h-109q1 47 4.5 84t11 78t21.5 78t34.5 77t51.5 82.5t72 88.5 q37 42 64.5 77.5t51.5 73t38.5 72.5t23 73.5t8.5 77.5q0 132 -88.5 213.5t-230.5 81.5q-65 0 -110.5 -12.5t-94.5 -40.5q-63 -34 -94 -82h-10q-2 28 -4 60.5t-3.5 52t-1.5 30.5zM274 76q0 41 29.5 70.5t69.5 29.5h2q27 0 49 -13.5t34.5 -36.5t12.5 -50q0 -26 -12.5 -49 t-35 -36.5t-50.5 -13.5q-40 0 -69.5 29.5t-29.5 69.5z" />
<glyph unicode="@" horiz-adv-x="1732" d="M102 584q0 169 65 318t175.5 254.5t261.5 166.5t318 61q141 0 267 -43t221.5 -122t151.5 -199t56 -264q0 -136 -57 -250.5t-149.5 -179t-197.5 -64.5q-67 0 -116.5 53.5t-50.5 151.5h-7q-57 -92 -140 -146.5t-183 -54.5q-101 0 -169.5 75t-68.5 200q0 210 144.5 354.5 t357.5 144.5q124 0 248 -47l-82 -391q-28 -127 0 -196.5t88 -69.5q77 0 146.5 63t109 157.5t39.5 188.5q0 123 -41 227.5t-118 182t-196 121t-268 43.5q-126 0 -253.5 -56t-229 -151t-165.5 -233t-64 -289q0 -143 50 -261.5t135.5 -196t198.5 -119.5t240 -42q190 0 346 90 l29 -65q-178 -94 -387 -94q-152 0 -281.5 47.5t-223.5 134.5t-147 216t-53 284zM580 551q0 -84 44 -143.5t134 -59.5q67 0 135.5 55.5t113 130t58.5 142.5l55 264q-78 23 -157 23q-101 0 -189.5 -56.5t-141 -152t-52.5 -203.5z" />
<glyph unicode="A" horiz-adv-x="1331" d="M-4 0v8q9 4 22.5 27t46.5 98t86.5 205.5t145.5 359.5l373 926h14l360 -930q173 -445 221.5 -561t63.5 -125v-8h-168v8q7 3 7 16q0 23 -20 80q-31 89 -167 435h-633q-144 -355 -174 -439q-19 -52 -19 -75q0 -14 7 -17v-8h-166zM391 639h549l-2 8q-242 641 -264 709h-2 q-16 -46 -279 -709z" />
<glyph unicode="B" horiz-adv-x="1034" d="M160 10v10q19 1 22.5 101.5t3.5 572.5v248q0 442 -3 537t-19 104v10q8 0 32.5 1t36.5 1q94 4 166 4q139 0 228 -36q31 -12 60 -29t62 -48t57 -69.5t40 -95.5t16 -123q0 -142 -80 -238t-200 -124v-5q150 -20 249 -120t99 -256v-2q0 -250 -221 -379q-127 -74 -338 -74 q-12 0 -123 6q-26 0 -88 4zM301 125q0 -12 6 -14q39 -5 84 -5q122 0 209 35q25 10 50.5 26t54.5 42.5t51 58.5t36.5 78.5t14.5 97.5v2q0 115 -64.5 192t-164.5 110q-86 28 -193 28q-64 0 -84 -2v-649zM301 879q4 0 21.5 -1t27.5 -1q92 0 162 20q94 26 160.5 103.5 t66.5 193.5v2q0 145 -94.5 222t-238.5 77q-65 0 -105 -4v-612z" />
<glyph unicode="C" horiz-adv-x="1368" d="M84 805v2q0 154 44 285.5t123 228t186 165t233.5 102.5t265.5 34q102 0 180 -12q63 -5 152 -27q-2 -30 -3.5 -80.5t-2.5 -60.5h-13q-31 31 -88 47q-91 24 -217 24q-338 0 -536.5 -190.5t-198.5 -521.5q0 -157 56 -292t152.5 -227.5t228.5 -145t282 -52.5q117 0 219 25 q59 19 90 55h8q0 -98 2 -137q-154 -50 -336 -50q-166 0 -314.5 56t-263 158.5t-182 261.5t-67.5 352z" />
<glyph unicode="D" horiz-adv-x="1413" d="M160 2v14q19 7 22.5 107.5t3.5 570.5v248q0 443 -3 539t-21 102v10q214 11 321 11q310 0 521 -136q148 -94 236.5 -264t88.5 -373v-2q0 -405 -266 -643q-219 -192 -584 -192q-50 0 -161 4t-158 4zM301 117q0 -7 2 -9t8 -2q55 -8 172 -8q148 0 278.5 44.5t219.5 125.5 q227 204 227 557v2q0 172 -72.5 314t-201.5 235q-79 58 -200.5 90.5t-252.5 32.5q-101 0 -180 -6v-1376z" />
<glyph unicode="E" horiz-adv-x="985" d="M162 0v8q18 9 21 111t3 575v248q0 443 -3 540.5t-19 106.5v8h702q0 -26 -1 -75t-1 -60h-8q-10 19 -55 25t-144 6h-356v-623h348q95 0 128.5 3t43.5 14h8v-139h-8q-10 14 -41 17t-127 3h-352v-647q0 -11 2 -13t12 -2h420q72 0 105 5t43 24h10q-2 -14 -2 -135h-729z" />
<glyph unicode="F" horiz-adv-x="956" d="M162 0v12q18 13 21 112.5t3 569.5v248q0 438 -3 530.5t-19 106.5v18h702q0 -41 -1 -83.5t-1 -51.5h-14q-7 19 -49 25t-139 6h-361v-639h348q97 0 126.5 2.5t39.5 13.5h12v-139h-12q-10 13 -39 16t-121 3h-354v-56q0 -460 3.5 -562t23.5 -120v-12h-166z" />
<glyph unicode="G" horiz-adv-x="1470" d="M84 803v2q0 192 69 349.5t186.5 258t269.5 155t323 54.5q185 0 377 -49q-4 -88 -9 -148h-8q-26 37 -80 52q-119 36 -264 36q-219 0 -386.5 -85.5t-261 -248.5t-93.5 -382q0 -211 92 -374t256 -252t373 -89q169 0 278 33q2 33 2 98q0 306 -4.5 397.5t-23.5 100.5v10 q8 0 34.5 -1t45.5 -1q16 0 42 1t41 1v-10q-15 -9 -17.5 -73.5t-2.5 -361.5v-237q-186 -62 -414 -62q-141 0 -266.5 36t-227.5 106t-176 169t-114.5 230.5t-40.5 284.5z" />
<glyph unicode="H" horiz-adv-x="1490" d="M160 0v8q19 9 22.5 111.5t3.5 574.5v248q0 443 -3 540.5t-21 106.5v8h164v-8q-18 -9 -21.5 -110.5t-3.5 -536.5v-72h889v72q0 435 -3.5 536.5t-21.5 110.5v8h162v-8q-16 -9 -19 -106t-3 -541v-248q0 -472 3.5 -574.5t24.5 -111.5v-8h-170v8q20 9 23.5 115.5t3.5 570.5v72 h-889v-72q0 -464 3.5 -570.5t23.5 -115.5v-8h-168z" />
<glyph unicode="I" horiz-adv-x="487" d="M160 0v10q19 7 22.5 109.5t3.5 574.5v248q0 443 -3 540t-21 103v12h164v-10q-18 -7 -21.5 -108.5t-3.5 -536.5v-248q0 -464 3.5 -570.5t23.5 -115.5v-8h-168z" />
<glyph unicode="J" horiz-adv-x="882" d="M45 20v138h8q19 -38 80.5 -56t136.5 -18q103 0 176 41t105 119q35 92 35 297v399q0 432 -3.5 530t-21.5 119v8h164v-8q-18 -21 -21.5 -118.5t-3.5 -528.5v-403q0 -145 -13 -223.5t-46 -141.5q-46 -93 -144.5 -142.5t-230.5 -49.5q-135 0 -221 38z" />
<glyph unicode="K" horiz-adv-x="1128" d="M160 0v10q19 19 22.5 117.5t3.5 566.5v248q0 423 -3 524t-21 119v12h164v-8q-18 -18 -21.5 -125.5t-3.5 -521.5v-104h2l385 462q136 164 178 221q36 48 36 63q0 3 -1 5v8h172v-8q-5 -2 -11 -6.5t-14.5 -13t-17 -17.5t-22.5 -25.5t-27 -31.5t-33.5 -39.5t-38 -46t-46 -56 t-52.5 -63.5l-385 -463l319 -381q218 -261 290 -342t98 -96v-8h-191v8q2 1 2 4q0 16 -55 86q-65 84 -285 344l-301 355h-2v-103q0 -460 3.5 -562.5t23.5 -123.5v-8h-168z" />
<glyph unicode="L" horiz-adv-x="948" d="M160 0v14q19 13 22.5 114t3.5 566v248q0 439 -3 532t-21 111v12h164v-12q-18 -18 -21.5 -115t-3.5 -528v-817q0 -19 12 -19h424q39 0 61.5 1t49 8.5t33.5 21.5h12q-2 -27 -2 -137h-731z" />
<glyph unicode="M" horiz-adv-x="1880" d="M78 0v8q18 9 32 112t64 574l100 920h13q560 -1163 647 -1360h2q35 89 124.5 273t536.5 1087h13l90 -920q43 -450 58 -563.5t34 -122.5v-8h-168v8q15 14 15 76q0 19 -1 42q-6 100 -48 522q-1 10 -2 15.5t-1.5 14.5t-1.5 16q-42 424 -47 572h-4q-68 -165 -272 -570 q-44 -89 -156.5 -313.5t-171.5 -343.5h-16q-78 163 -187 385t-133 272q-9 19 -35.5 73.5t-35.5 74t-31.5 66t-32 68t-27.5 60.5t-28.5 63l-24.5 56t-24.5 59t-20.5 54h-4q-7 -149 -51 -576q-48 -454 -55 -560q-2 -26 -2 -48q0 -63 16 -78v-8h-164z" />
<glyph unicode="N" horiz-adv-x="1540" d="M156 0v8q19 9 22.5 112t3.5 574v926h13q306 -386 839 -1065q155 -198 215 -283h4v670q0 442 -3.5 540t-22.5 107v8h153v-8q-16 -9 -19 -106.5t-3 -540.5v-962h-12q-251 314 -517 650.5t-307 387.5q-161 207 -231 307h-4v-631q0 -471 3.5 -574t22.5 -112v-8h-157z" />
<glyph unicode="O" d="M84 788q0 174 63 328t172 264t263 174t329 64q165 0 311 -63t249.5 -170.5t163 -256.5t59.5 -317v-4q0 -168 -60.5 -320.5t-167 -265.5t-260 -179.5t-329.5 -66.5q-163 0 -310.5 64.5t-253 174t-167.5 259.5t-62 315zM211 799q0 -195 89.5 -359.5t245.5 -261t343 -96.5 q190 0 346 94.5t244 259.5t88 365v2q0 199 -89.5 361.5t-246 255.5t-348.5 93q-186 0 -340 -94t-243 -258.5t-89 -361.5z" />
<glyph unicode="P" horiz-adv-x="1052" d="M160 1583v8q170 11 250 11q165 0 264 -41q127 -46 203.5 -155.5t76.5 -266.5q0 -232 -166 -361q-95 -75 -213 -100q-82 -23 -274 -23v-55q0 -390 3.5 -480.5t21.5 -111.5v-8h-164v8q18 21 21 119.5t3 566.5v248q0 438 -3.5 531t-22.5 110zM301 760q8 0 37 -1t45 -1 q128 0 207 26q43 15 87 45t73 64q81 100 81 246v2q0 112 -53.5 196t-150.5 125q-77 35 -232 35q-40 0 -94 -4v-733z" />
<glyph unicode="Q" d="M84 786q0 173 63 327t172 265t263 175.5t329 64.5q219 0 398.5 -106.5t281 -291.5t101.5 -411v-2q0 -178 -70 -337t-184 -267q-97 -93 -224 -150v-4q33 -22 187 -92q91 -39 166 -57q27 -12 73 -17l5 -6q-33 -35 -93 -88q-4 -1 -9 -1t-11 1q-67 20 -215 88 q-56 28 -225 125q-90 -27 -215 -27q-166 0 -314 64.5t-252.5 174t-165.5 259t-61 313.5zM211 799q0 -193 87.5 -357t243.5 -262t345 -98q194 0 349.5 95.5t242 259.5t86.5 364v2q0 199 -88 361.5t-245 255.5t-351 93q-139 0 -264 -56.5t-213.5 -152t-140.5 -227.5t-52 -278z " />
<glyph unicode="R" horiz-adv-x="1073" d="M160 1585v8q31 0 112 4.5t109 4.5q168 0 276 -43q37 -15 74 -41t78.5 -70t67.5 -114t26 -154q0 -81 -22 -150t-59 -116.5t-72.5 -78t-75.5 -53.5q-59 -42 -150 -63v-4q6 -7 14.5 -18t36.5 -46.5t67.5 -86t124 -157.5t189.5 -241q111 -142 146 -158v-8h-131q-15 0 -43 8 q-92 120 -533 694h-94v-47q0 -435 3.5 -536.5t21.5 -110.5v-8h-164v8q18 9 21 111t3 575v248q0 443 -3.5 541t-22.5 102zM301 807q12 -2 68 -2q112 0 202 41q209 98 209 328v2q0 152 -104.5 236.5t-278.5 84.5q-68 0 -96 -4v-686z" />
<glyph unicode="S" horiz-adv-x="860" d="M68 14q2 30 8 144h8q45 -74 227 -74q135 0 234.5 83t99.5 216q0 85 -33.5 152.5t-113.5 136.5q-34 30 -100.5 85t-106.5 91q-102 96 -143.5 176t-41.5 188q0 78 31 150t86.5 126.5t139.5 87t182 32.5q99 0 178 -23q-1 -19 -4 -65t-4 -72h-8q-33 55 -158 55 q-140 0 -232 -77t-92 -203q0 -74 25.5 -132t79.5 -112q29 -31 63 -60t80 -65.5t76 -62.5q53 -47 88 -85.5t66 -87.5t46 -105.5t15 -123.5v-2q0 -58 -17.5 -114.5t-55 -110t-91.5 -93.5t-133.5 -64.5t-173.5 -24.5q-55 0 -118.5 10t-106.5 24z" />
<glyph unicode="T" horiz-adv-x="1157" d="M14 1462v135h1129v-135h-15q-16 21 -47 27t-96 6h-350v-801q0 -464 3.5 -570.5t23.5 -115.5v-8h-168v10q19 9 22.5 110.5t3.5 573.5v801h-354q-66 0 -93 -6t-44 -27h-15z" />
<glyph unicode="U" horiz-adv-x="1490" d="M137 1589v8h168v-8q-21 -9 -25 -110.5t-4 -536.5v-283q0 -140 23 -236.5t74 -168.5q55 -81 153 -125.5t205 -44.5q247 0 369 154q112 144 112 442v262q0 443 -3.5 540.5t-22.5 106.5v8h160v-8q-17 -9 -20 -110.5t-3 -536.5v-272q0 -336 -152 -510q-75 -89 -190 -136 t-254 -47q-291 0 -440 201q-66 86 -95.5 194.5t-29.5 274.5v295q0 435 -3.5 536.5t-21.5 110.5z" />
<glyph unicode="V" horiz-adv-x="1316" d="M-6 1589v8h174v-8q-7 -2 -7 -17q1 -27 25 -98q38 -108 205 -532q194 -488 266 -698h2q104 283 269 700q170 428 207 532q25 71 25 97q0 12 -5 16v8h164v-8q-15 -8 -49.5 -88t-171.5 -424q-11 -28 -17.5 -44t-17 -42t-19.5 -49l-382 -960h-15l-379 960q-216 545 -241 599 q-21 42 -33 48z" />
<glyph unicode="W" horiz-adv-x="1910" d="M25 1589v8h172v-8q-12 -4 -12 -34q0 -17 4 -42q13 -80 128 -538q112 -443 168 -692h2q43 138 240 680q22 64 57.5 156.5t91.5 233.5t89 226h12q127 -327 231 -621q182 -501 236 -669h2q71 326 162 686q53 215 77 317q25 100 39 176q13 66 12 90v6q-2 20 -14 23v10h164 v-10q-17 -7 -46 -111t-126 -501l-246 -1014h-16q-440 1198 -485 1350h-2q-45 -150 -496 -1350h-16l-258 1012q-30 119 -73 292q-52 209 -67.5 262.5t-29.5 61.5z" />
<glyph unicode="X" horiz-adv-x="1150" d="M18 0v8q19 9 61.5 77t222.5 371q18 30 28 47t27 45.5t32 53.5l121 205l-139 240q-202 347 -259.5 439.5t-78.5 102.5v8h180v-8q-4 -3 -4 -10q0 -19 27 -71q38 -72 206 -358q14 -24 22 -38t21.5 -36.5t24.5 -41.5q11 -20 35.5 -60t32.5 -54h2q10 20 32 57.5t31 54.5 q263 447 287 495q21 40 21 55q0 5 -3 7v8h170v-8q-19 -11 -69.5 -91t-268.5 -439l-141 -240l113 -196q298 -519 332 -570q25 -38 40 -45v-8h-184v8q4 2 4 9q0 21 -37 93q-48 94 -243 443q-62 109 -91 156h-2q-41 -69 -82 -146q-209 -361 -259 -453q-39 -72 -38 -94 q0 -6 3 -8v-8h-177z" />
<glyph unicode="Y" horiz-adv-x="1142" d="M-8 1589v8h178v-8q-7 -3 -7 -15q0 -25 26 -84q39 -90 186 -374q32 -62 99.5 -193t94.5 -186h6q25 54 191 381q48 96 81.5 164t58.5 121.5t39 86.5t20.5 55t5.5 31.5t-8 12.5v8h170v-8q-10 -6 -36.5 -54t-107.5 -207q-125 -244 -227 -441l-137 -262v-35q0 -385 3.5 -479.5 t22.5 -102.5v-8h-170v10q19 7 23 104.5t4 473.5v33l-143 274q-98 186 -220 422q-94 180 -117.5 223t-35.5 49z" />
<glyph unicode="Z" horiz-adv-x="1132" d="M43 0v8q180 320 385 688l139 246q206 360 312 553l2 6h-588q-77 0 -120.5 -7t-59.5 -28h-15q0 22 -1 65t-1 66h967v-6q-41 -72 -162 -291.5t-201 -359.5l-141 -246q-292 -513 -332 -585l-2 -7h627q153 0 184 31h13q-2 -39 -2 -133h-1004z" />
<glyph unicode="[" horiz-adv-x="532" d="M188 -111q0 31 0.5 116t1 251t0.5 393v293v276t-0.5 210t-1 140t-0.5 91v37v45h301v-64h-167q-23 0 -23 -24q-2 -33 -2 -711v-291q0 -230 0.5 -388.5t1 -232.5t0.5 -98q0 -26 25 -26h165v-62q-57 0 -105.5 1t-53.5 1q-16 0 -68.5 -1t-73.5 -1v45z" />
<glyph unicode="\" horiz-adv-x="974" d="M-35 1626h113q155 -280 455 -818.5t471 -846.5h-117q-516 928 -922 1665z" />
<glyph unicode="]" horiz-adv-x="532" d="M43 -94h166q20 0 24 26v1010v711q0 24 -24 24h-166v64h301v-45v-37t-0.5 -91t-1 -140t-0.5 -210v-276v-293q0 -227 0.5 -393t1 -251t0.5 -116v-45q-18 0 -74.5 1t-72.5 1q-9 0 -62.5 -1t-91.5 -1v62z" />
<glyph unicode="^" horiz-adv-x="1091" d="M86 778l410 819h96l412 -819h-115l-348 709l-344 -709h-111z" />
<glyph unicode="_" horiz-adv-x="1024" d="M0 -154h1024v-102h-1024v102z" />
<glyph unicode="`" horiz-adv-x="808" d="M240 1841l57 94l248 -213l-33 -45z" />
<glyph unicode="a" horiz-adv-x="1331" d="M-4 0v8q9 4 22.5 27t46.5 98t86.5 205.5t145.5 359.5l373 926h14l360 -930q173 -445 221.5 -561t63.5 -125v-8h-168v8q7 3 7 16q0 23 -20 80q-31 89 -167 435h-633q-144 -355 -174 -439q-19 -52 -19 -75q0 -14 7 -17v-8h-166zM391 639h549l-2 8q-242 641 -264 709h-2 q-16 -46 -279 -709z" />
<glyph unicode="b" horiz-adv-x="1034" d="M160 10v10q19 1 22.5 101.5t3.5 572.5v248q0 442 -3 537t-19 104v10q8 0 32.5 1t36.5 1q94 4 166 4q139 0 228 -36q31 -12 60 -29t62 -48t57 -69.5t40 -95.5t16 -123q0 -142 -80 -238t-200 -124v-5q150 -20 249 -120t99 -256v-2q0 -250 -221 -379q-127 -74 -338 -74 q-12 0 -123 6q-26 0 -88 4zM301 125q0 -12 6 -14q39 -5 84 -5q122 0 209 35q25 10 50.5 26t54.5 42.5t51 58.5t36.5 78.5t14.5 97.5v2q0 115 -64.5 192t-164.5 110q-86 28 -193 28q-64 0 -84 -2v-649zM301 879q4 0 21.5 -1t27.5 -1q92 0 162 20q94 26 160.5 103.5 t66.5 193.5v2q0 145 -94.5 222t-238.5 77q-65 0 -105 -4v-612z" />
<glyph unicode="c" horiz-adv-x="1368" d="M84 805v2q0 154 44 285.5t123 228t186 165t233.5 102.5t265.5 34q102 0 180 -12q63 -5 152 -27q-2 -30 -3.5 -80.5t-2.5 -60.5h-13q-31 31 -88 47q-91 24 -217 24q-338 0 -536.5 -190.5t-198.5 -521.5q0 -157 56 -292t152.5 -227.5t228.5 -145t282 -52.5q117 0 219 25 q59 19 90 55h8q0 -98 2 -137q-154 -50 -336 -50q-166 0 -314.5 56t-263 158.5t-182 261.5t-67.5 352z" />
<glyph unicode="d" horiz-adv-x="1413" d="M160 2v14q19 7 22.5 107.5t3.5 570.5v248q0 443 -3 539t-21 102v10q214 11 321 11q310 0 521 -136q148 -94 236.5 -264t88.5 -373v-2q0 -405 -266 -643q-219 -192 -584 -192q-50 0 -161 4t-158 4zM301 117q0 -7 2 -9t8 -2q55 -8 172 -8q148 0 278.5 44.5t219.5 125.5 q227 204 227 557v2q0 172 -72.5 314t-201.5 235q-79 58 -200.5 90.5t-252.5 32.5q-101 0 -180 -6v-1376z" />
<glyph unicode="e" horiz-adv-x="985" d="M162 0v8q18 9 21 111t3 575v248q0 443 -3 540.5t-19 106.5v8h702q0 -26 -1 -75t-1 -60h-8q-10 19 -55 25t-144 6h-356v-623h348q95 0 128.5 3t43.5 14h8v-139h-8q-10 14 -41 17t-127 3h-352v-647q0 -11 2 -13t12 -2h420q72 0 105 5t43 24h10q-2 -14 -2 -135h-729z" />
<glyph unicode="f" horiz-adv-x="956" d="M162 0v12q18 13 21 112.5t3 569.5v248q0 438 -3 530.5t-19 106.5v18h702q0 -41 -1 -83.5t-1 -51.5h-14q-7 19 -49 25t-139 6h-361v-639h348q97 0 126.5 2.5t39.5 13.5h12v-139h-12q-10 13 -39 16t-121 3h-354v-56q0 -460 3.5 -562t23.5 -120v-12h-166z" />
<glyph unicode="g" horiz-adv-x="1470" d="M84 803v2q0 192 69 349.5t186.5 258t269.5 155t323 54.5q185 0 377 -49q-4 -88 -9 -148h-8q-26 37 -80 52q-119 36 -264 36q-219 0 -386.5 -85.5t-261 -248.5t-93.5 -382q0 -211 92 -374t256 -252t373 -89q169 0 278 33q2 33 2 98q0 306 -4.5 397.5t-23.5 100.5v10 q8 0 34.5 -1t45.5 -1q16 0 42 1t41 1v-10q-15 -9 -17.5 -73.5t-2.5 -361.5v-237q-186 -62 -414 -62q-141 0 -266.5 36t-227.5 106t-176 169t-114.5 230.5t-40.5 284.5z" />
<glyph unicode="h" horiz-adv-x="1490" d="M160 0v8q19 9 22.5 111.5t3.5 574.5v248q0 443 -3 540.5t-21 106.5v8h164v-8q-18 -9 -21.5 -110.5t-3.5 -536.5v-72h889v72q0 435 -3.5 536.5t-21.5 110.5v8h162v-8q-16 -9 -19 -106t-3 -541v-248q0 -472 3.5 -574.5t24.5 -111.5v-8h-170v8q20 9 23.5 115.5t3.5 570.5v72 h-889v-72q0 -464 3.5 -570.5t23.5 -115.5v-8h-168z" />
<glyph unicode="i" horiz-adv-x="487" d="M160 0v10q19 7 22.5 109.5t3.5 574.5v248q0 443 -3 540t-21 103v12h164v-10q-18 -7 -21.5 -108.5t-3.5 -536.5v-248q0 -464 3.5 -570.5t23.5 -115.5v-8h-168z" />
<glyph unicode="j" horiz-adv-x="882" d="M45 20v138h8q19 -38 80.5 -56t136.5 -18q103 0 176 41t105 119q35 92 35 297v399q0 432 -3.5 530t-21.5 119v8h164v-8q-18 -21 -21.5 -118.5t-3.5 -528.5v-403q0 -145 -13 -223.5t-46 -141.5q-46 -93 -144.5 -142.5t-230.5 -49.5q-135 0 -221 38z" />
<glyph unicode="k" horiz-adv-x="1128" d="M160 0v10q19 19 22.5 117.5t3.5 566.5v248q0 423 -3 524t-21 119v12h164v-8q-18 -18 -21.5 -125.5t-3.5 -521.5v-104h2l385 462q136 164 178 221q36 48 36 63q0 3 -1 5v8h172v-8q-5 -2 -11 -6.5t-14.5 -13t-17 -17.5t-22.5 -25.5t-27 -31.5t-33.5 -39.5t-38 -46t-46 -56 t-52.5 -63.5l-385 -463l319 -381q218 -261 290 -342t98 -96v-8h-191v8q2 1 2 4q0 16 -55 86q-65 84 -285 344l-301 355h-2v-103q0 -460 3.5 -562.5t23.5 -123.5v-8h-168z" />
<glyph unicode="l" horiz-adv-x="948" d="M160 0v14q19 13 22.5 114t3.5 566v248q0 439 -3 532t-21 111v12h164v-12q-18 -18 -21.5 -115t-3.5 -528v-817q0 -19 12 -19h424q39 0 61.5 1t49 8.5t33.5 21.5h12q-2 -27 -2 -137h-731z" />
<glyph unicode="m" horiz-adv-x="1880" d="M78 0v8q18 9 32 112t64 574l100 920h13q560 -1163 647 -1360h2q35 89 124.5 273t536.5 1087h13l90 -920q43 -450 58 -563.5t34 -122.5v-8h-168v8q15 14 15 76q0 19 -1 42q-6 100 -48 522q-1 10 -2 15.5t-1.5 14.5t-1.5 16q-42 424 -47 572h-4q-68 -165 -272 -570 q-44 -89 -156.5 -313.5t-171.5 -343.5h-16q-78 163 -187 385t-133 272q-9 19 -35.5 73.5t-35.5 74t-31.5 66t-32 68t-27.5 60.5t-28.5 63l-24.5 56t-24.5 59t-20.5 54h-4q-7 -149 -51 -576q-48 -454 -55 -560q-2 -26 -2 -48q0 -63 16 -78v-8h-164z" />
<glyph unicode="n" horiz-adv-x="1540" d="M156 0v8q19 9 22.5 112t3.5 574v926h13q306 -386 839 -1065q155 -198 215 -283h4v670q0 442 -3.5 540t-22.5 107v8h153v-8q-16 -9 -19 -106.5t-3 -540.5v-962h-12q-251 314 -517 650.5t-307 387.5q-161 207 -231 307h-4v-631q0 -471 3.5 -574t22.5 -112v-8h-157z" />
<glyph unicode="o" d="M84 788q0 174 63 328t172 264t263 174t329 64q165 0 311 -63t249.5 -170.5t163 -256.5t59.5 -317v-4q0 -168 -60.5 -320.5t-167 -265.5t-260 -179.5t-329.5 -66.5q-163 0 -310.5 64.5t-253 174t-167.5 259.5t-62 315zM211 799q0 -195 89.5 -359.5t245.5 -261t343 -96.5 q190 0 346 94.5t244 259.5t88 365v2q0 199 -89.5 361.5t-246 255.5t-348.5 93q-186 0 -340 -94t-243 -258.5t-89 -361.5z" />
<glyph unicode="p" horiz-adv-x="1052" d="M160 1583v8q170 11 250 11q165 0 264 -41q127 -46 203.5 -155.5t76.5 -266.5q0 -232 -166 -361q-95 -75 -213 -100q-82 -23 -274 -23v-55q0 -390 3.5 -480.5t21.5 -111.5v-8h-164v8q18 21 21 119.5t3 566.5v248q0 438 -3.5 531t-22.5 110zM301 760q8 0 37 -1t45 -1 q128 0 207 26q43 15 87 45t73 64q81 100 81 246v2q0 112 -53.5 196t-150.5 125q-77 35 -232 35q-40 0 -94 -4v-733z" />
<glyph unicode="q" d="M84 786q0 173 63 327t172 265t263 175.5t329 64.5q219 0 398.5 -106.5t281 -291.5t101.5 -411v-2q0 -178 -70 -337t-184 -267q-97 -93 -224 -150v-4q33 -22 187 -92q91 -39 166 -57q27 -12 73 -17l5 -6q-33 -35 -93 -88q-4 -1 -9 -1t-11 1q-67 20 -215 88 q-56 28 -225 125q-90 -27 -215 -27q-166 0 -314 64.5t-252.5 174t-165.5 259t-61 313.5zM211 799q0 -193 87.5 -357t243.5 -262t345 -98q194 0 349.5 95.5t242 259.5t86.5 364v2q0 199 -88 361.5t-245 255.5t-351 93q-139 0 -264 -56.5t-213.5 -152t-140.5 -227.5t-52 -278z " />
<glyph unicode="r" horiz-adv-x="1073" d="M160 1585v8q31 0 112 4.5t109 4.5q168 0 276 -43q37 -15 74 -41t78.5 -70t67.5 -114t26 -154q0 -81 -22 -150t-59 -116.5t-72.5 -78t-75.5 -53.5q-59 -42 -150 -63v-4q6 -7 14.5 -18t36.5 -46.5t67.5 -86t124 -157.5t189.5 -241q111 -142 146 -158v-8h-131q-15 0 -43 8 q-92 120 -533 694h-94v-47q0 -435 3.5 -536.5t21.5 -110.5v-8h-164v8q18 9 21 111t3 575v248q0 443 -3.5 541t-22.5 102zM301 807q12 -2 68 -2q112 0 202 41q209 98 209 328v2q0 152 -104.5 236.5t-278.5 84.5q-68 0 -96 -4v-686z" />
<glyph unicode="s" horiz-adv-x="860" d="M68 14q2 30 8 144h8q45 -74 227 -74q135 0 234.5 83t99.5 216q0 85 -33.5 152.5t-113.5 136.5q-34 30 -100.5 85t-106.5 91q-102 96 -143.5 176t-41.5 188q0 78 31 150t86.5 126.5t139.5 87t182 32.5q99 0 178 -23q-1 -19 -4 -65t-4 -72h-8q-33 55 -158 55 q-140 0 -232 -77t-92 -203q0 -74 25.5 -132t79.5 -112q29 -31 63 -60t80 -65.5t76 -62.5q53 -47 88 -85.5t66 -87.5t46 -105.5t15 -123.5v-2q0 -58 -17.5 -114.5t-55 -110t-91.5 -93.5t-133.5 -64.5t-173.5 -24.5q-55 0 -118.5 10t-106.5 24z" />
<glyph unicode="t" horiz-adv-x="1157" d="M14 1462v135h1129v-135h-15q-16 21 -47 27t-96 6h-350v-801q0 -464 3.5 -570.5t23.5 -115.5v-8h-168v10q19 9 22.5 110.5t3.5 573.5v801h-354q-66 0 -93 -6t-44 -27h-15z" />
<glyph unicode="u" horiz-adv-x="1490" d="M137 1589v8h168v-8q-21 -9 -25 -110.5t-4 -536.5v-283q0 -140 23 -236.5t74 -168.5q55 -81 153 -125.5t205 -44.5q247 0 369 154q112 144 112 442v262q0 443 -3.5 540.5t-22.5 106.5v8h160v-8q-17 -9 -20 -110.5t-3 -536.5v-272q0 -336 -152 -510q-75 -89 -190 -136 t-254 -47q-291 0 -440 201q-66 86 -95.5 194.5t-29.5 274.5v295q0 435 -3.5 536.5t-21.5 110.5z" />
<glyph unicode="v" horiz-adv-x="1316" d="M-6 1589v8h174v-8q-7 -2 -7 -17q1 -27 25 -98q38 -108 205 -532q194 -488 266 -698h2q104 283 269 700q170 428 207 532q25 71 25 97q0 12 -5 16v8h164v-8q-15 -8 -49.5 -88t-171.5 -424q-11 -28 -17.5 -44t-17 -42t-19.5 -49l-382 -960h-15l-379 960q-216 545 -241 599 q-21 42 -33 48z" />
<glyph unicode="w" horiz-adv-x="1910" d="M25 1589v8h172v-8q-12 -4 -12 -34q0 -17 4 -42q13 -80 128 -538q112 -443 168 -692h2q43 138 240 680q22 64 57.5 156.5t91.5 233.5t89 226h12q127 -327 231 -621q182 -501 236 -669h2q71 326 162 686q53 215 77 317q25 100 39 176q13 66 12 90v6q-2 20 -14 23v10h164 v-10q-17 -7 -46 -111t-126 -501l-246 -1014h-16q-440 1198 -485 1350h-2q-45 -150 -496 -1350h-16l-258 1012q-30 119 -73 292q-52 209 -67.5 262.5t-29.5 61.5z" />
<glyph unicode="x" horiz-adv-x="1150" d="M18 0v8q19 9 61.5 77t222.5 371q18 30 28 47t27 45.5t32 53.5l121 205l-139 240q-202 347 -259.5 439.5t-78.5 102.5v8h180v-8q-4 -3 -4 -10q0 -19 27 -71q38 -72 206 -358q14 -24 22 -38t21.5 -36.5t24.5 -41.5q11 -20 35.5 -60t32.5 -54h2q10 20 32 57.5t31 54.5 q263 447 287 495q21 40 21 55q0 5 -3 7v8h170v-8q-19 -11 -69.5 -91t-268.5 -439l-141 -240l113 -196q298 -519 332 -570q25 -38 40 -45v-8h-184v8q4 2 4 9q0 21 -37 93q-48 94 -243 443q-62 109 -91 156h-2q-41 -69 -82 -146q-209 -361 -259 -453q-39 -72 -38 -94 q0 -6 3 -8v-8h-177z" />
<glyph unicode="y" horiz-adv-x="1142" d="M-8 1589v8h178v-8q-7 -3 -7 -15q0 -25 26 -84q39 -90 186 -374q32 -62 99.5 -193t94.5 -186h6q25 54 191 381q48 96 81.5 164t58.5 121.5t39 86.5t20.5 55t5.5 31.5t-8 12.5v8h170v-8q-10 -6 -36.5 -54t-107.5 -207q-125 -244 -227 -441l-137 -262v-35q0 -385 3.5 -479.5 t22.5 -102.5v-8h-170v10q19 7 23 104.5t4 473.5v33l-143 274q-98 186 -220 422q-94 180 -117.5 223t-35.5 49z" />
<glyph unicode="z" horiz-adv-x="1132" d="M43 0v8q180 320 385 688l139 246q206 360 312 553l2 6h-588q-77 0 -120.5 -7t-59.5 -28h-15q0 22 -1 65t-1 66h967v-6q-41 -72 -162 -291.5t-201 -359.5l-141 -246q-292 -513 -332 -585l-2 -7h627q153 0 184 31h13q-2 -39 -2 -133h-1004z" />
<glyph unicode="{" horiz-adv-x="602" d="M8 752v59q62 -1 100 15t61.5 55.5t35.5 111.5q10 56 1 245.5t-3 248.5q6 61 24 106t47 72t61 42.5t73 23.5q49 10 110 10v-60q-65 0 -104 -14q-93 -34 -105 -174q-4 -52 5 -241.5t-1 -241.5q-14 -95 -63 -155.5t-103 -68.5v-6q52 -10 101 -71t65 -156q9 -76 5.5 -151.5 t-8.5 -179t-1 -150.5q5 -57 20 -95t43 -59t62 -29t84 -8v-59q-79 0 -110 8q-43 11 -74.5 26.5t-60.5 43t-46.5 71.5t-23.5 105q-5 54 6 248t-4 245q-20 106 -62.5 145t-134.5 38z" />
<glyph unicode="|" horiz-adv-x="542" d="M223 -512v2048h94v-2048h-94z" />
<glyph unicode="}" horiz-adv-x="602" d="M82 -119q65 0 104 15q93 34 105 176q4 51 -4 240t2 241q16 96 63.5 155.5t100.5 67.5v6q-51 10 -98.5 71t-65.5 157q-12 50 -3 241.5t5 241.5q-10 109 -59 148.5t-150 39.5v60q72 0 111 -8q90 -23 141.5 -76.5t62.5 -169.5q5 -55 -5 -248.5t3 -245.5q22 -106 62.5 -143 t134.5 -39v-59q-94 -2 -137 -40t-60 -143q-10 -56 -1 -245t3 -248q-11 -117 -64.5 -172t-139.5 -72q-65 -10 -111 -10v59z" />
<glyph unicode="~" horiz-adv-x="1089" d="M113 651q98 164 249 164q49 0 98.5 -17t112 -49.5t89.5 -43.5q46 -17 86 -17q53 0 92.5 31t74.5 96l64 -51q-44 -77 -97 -119.5t-134 -42.5h-3q-52 0 -99 14t-119.5 50t-88.5 43q-45 20 -86 20q-29 0 -53.5 -10t-48 -32.5t-37 -38.5t-37.5 -48z" />
<glyph unicode="&#xa1;" horiz-adv-x="522" d="M158 1524q0 41 26.5 67.5t71.5 26.5q43 0 70.5 -26.5t27.5 -69.5q0 -36 -26.5 -67.5t-67.5 -31.5h-2q-45 0 -72.5 27t-27.5 74zM203 0q2 272 2 1249h112q0 -97 1 -601t1 -648h-116z" />
<glyph unicode="&#xa2;" horiz-adv-x="897" d="M88 803v2q0 191 122 319.5t322 145.5q13 134 23 268v6h102v-6q0 -13 -4.5 -62.5t-11 -113t-8.5 -92.5q49 0 162 -25q-2 -35 -15 -121h-10q-58 45 -178 45q-176 0 -278.5 -101.5t-102.5 -264.5q0 -116 51.5 -202t134 -127.5t181.5 -41.5q127 0 182 55h8q1 -12 4 -33.5 t7 -47.5t5 -35q-103 -41 -237 -41q-23 -241 -23 -281v-4h-104v4q0 13 6 67t14 124t11 102q-157 37 -260 158.5t-103 302.5z" />
<glyph unicode="&#xa3;" horiz-adv-x="1032" d="M57 0v70q65 10 108 69t65 153.5t30 233.5q9 191 10 222h-161v94h165q9 255 31 377q33 196 151 295.5t296 99.5h2q84 0 166 -23q0 -2 -13 -133h-10q-28 53 -152 53q-136 0 -218.5 -75t-104.5 -205q-24 -141 -33 -389h393v-94h-397q-2 -30 -5 -93t-5 -96 q-14 -167 -41.5 -274t-79.5 -176q-4 -5 -2 -8t8 -3h619q88 0 100 29h12q-2 -74 -2 -127h-932z" />
<glyph unicode="&#xa4;" horiz-adv-x="1202" d="M154 293l141 141q-105 123 -105 287q0 75 30 154.5t77 128.5l-143 143l63 59l137 -155q49 48 116 69t130 21q159 0 252 -88l137 155l60 -61l-142 -141q47 -49 76 -129t29 -156q0 -73 -31.5 -154t-79.5 -131l148 -143l-64 -62l-139 156q-104 -86 -248 -86q-152 0 -246 80 l-135 -150zM291 721q0 -152 89 -246t220 -94q129 0 221 95.5t92 244.5q0 142 -88 240t-227 98h-2q-127 0 -216 -94t-89 -244z" />
<glyph unicode="&#xa5;" horiz-adv-x="1075" d="M31 1587v10h168v-10q-16 -7 23.5 -94.5t213.5 -433.5q90 -176 105 -213h2q62 140 102 211q171 340 213 431t25 97v12h161v-12q-14 -6 -59.5 -91.5t-222.5 -436.5l-150 -297h295v-74h-307v-141h307v-74h-307v-219q0 -99 3.5 -151t8.5 -68.5t15 -22.5v-10h-170v10 q9 6 14 22t8.5 69.5t3.5 150.5v219h-309v74h309v141h-309v74h295l-156 301q-48 94 -121 235q-96 187 -123 236t-38 55z" />
<glyph unicode="&#xa6;" horiz-adv-x="542" d="M223 358h94v-716h-94v716zM223 666v716h94v-716h-94z" />
<glyph unicode="&#xa7;" horiz-adv-x="1122" d="M100 727q0 72 43.5 142t132.5 118q-41 33 -66.5 84.5t-25.5 104.5v2q0 100 58.5 173.5t151.5 108.5t206 35q108 0 187.5 -21t158.5 -61q-23 -71 -37 -123l-14 4q-11 28 -60.5 54t-97.5 36q-87 17 -137 17q-120 0 -206.5 -57.5t-86.5 -151.5q0 -91 76.5 -141t282.5 -113 q191 -59 277.5 -138t86.5 -212q0 -164 -147 -269q46 -35 69 -90t23 -104q0 -92 -41 -161t-108.5 -106.5t-142 -55t-153.5 -17.5q-110 0 -195 25t-175 73q34 86 47 123l10 -4q42 -43 77.5 -62.5t94.5 -35.5q68 -19 141 -19q145 0 232.5 65t87.5 159q0 98 -78 155t-272 117 q-106 33 -175 63t-123 70.5t-78 92t-24 120.5zM211 741q0 -44 22.5 -82t46 -60t77.5 -46.5t75 -31.5t82 -25q8 -3 12 -4q187 -58 281 -113q49 32 78.5 85.5t29.5 110.5q0 93 -62.5 150t-209.5 102q-189 60 -291 105q-141 -72 -141 -189v-2z" />
<glyph unicode="&#xa8;" horiz-adv-x="808" d="M182 1757v2q0 27 21.5 48.5t52.5 21.5q29 0 49.5 -22t20.5 -50q0 -30 -20.5 -53t-49.5 -23q-31 0 -52.5 23t-21.5 53zM471 1757v2q0 27 21.5 48.5t52.5 21.5q29 0 49 -22t20 -50q0 -30 -20 -53t-49 -23q-31 0 -52.5 23t-21.5 53z" />
<glyph unicode="&#xa9;" horiz-adv-x="1568" d="M84 817q0 141 56.5 271t151 224t223.5 150t267 56h2q144 0 273.5 -53.5t224 -145.5t149.5 -223t54 -279q0 -137 -54.5 -265t-148 -224t-226.5 -153.5t-280 -57.5q-144 0 -272.5 55.5t-220.5 149t-145.5 223t-53.5 272.5zM172 813q0 -127 49 -242.5t131 -198t194 -131 t234 -48.5h2q124 0 237 48.5t195.5 131.5t131.5 199t49 245q0 131 -51 248.5t-135.5 199.5t-196 129.5t-230.5 47.5q-96 1 -187.5 -29.5t-167.5 -88t-133.5 -134.5t-89.5 -174.5t-32 -202.5zM436 813q0 55 11 104.5t32 89.5t50.5 74t66 59t78.5 42.5t89 26t97 8.5h2 q70 0 156 -19q0 -13 -2.5 -46.5t-3.5 -47.5h-8q-47 35 -134 35q-146 0 -239.5 -85t-93.5 -233q0 -78 28.5 -142.5t75 -104t104 -61t117.5 -21.5q44 0 78 12q44 13 57 26h9q1 -13 3 -44.5t3 -45.5q-78 -26 -156 -26q-121 0 -216 49t-149.5 140t-54.5 210z" />
<glyph unicode="&#xaa;" horiz-adv-x="614" d="M53 1079q0 38 13 70.5t33 56t53 44.5t62.5 34.5t73.5 26.5t74.5 20t75.5 17q0 92 -45 135q-37 37 -110 37q-48 0 -93.5 -14.5t-70.5 -39.5h-8q-1 10 -2.5 32.5t-3 38.5t-1.5 19q84 41 201 41h2q96 0 156 -51q38 -34 53.5 -84.5t15.5 -130.5v-215q0 -134 35 -190v-6 q-41 -2 -106 -2q-13 46 -17 79h-6q-32 -43 -83 -67.5t-107 -24.5q-82 0 -138.5 45.5t-56.5 128.5zM150 1085q0 -46 31 -73t83 -27q42 0 80.5 16.5t62.5 45t27 61.5q6 47 6 164h-4q-117 -16 -196 -58q-38 -19 -64 -52.5t-26 -74.5v-2z" />
<glyph unicode="&#xab;" horiz-adv-x="860" d="M78 793q258 295 319 366l47 -37q-168 -262 -208 -321q49 -77 210 -338l-49 -35q-167 197 -319 365zM385 793q35 40 100.5 114t119.5 135.5t100 116.5l47 -37q-37 -58 -107.5 -167t-99.5 -154q17 -27 93 -148.5t118 -189.5l-51 -35q-116 139 -320 365z" />
<glyph unicode="&#xac;" horiz-adv-x="1089" d="M106 762v90h877v-410h-92v320h-785z" />
<glyph unicode="&#xad;" horiz-adv-x="569" d="M63 725v102h443v-102h-443z" />
<glyph unicode="&#xae;" horiz-adv-x="804" d="M59 1253q0 139 102.5 241.5t246.5 102.5q140 0 237.5 -101.5t97.5 -240.5v-2q0 -139 -102 -240.5t-248 -101.5q-142 0 -238 101.5t-96 240.5zM129 1253q0 -117 79 -199.5t193 -82.5q117 0 196 82t79 202v2q0 116 -81.5 198.5t-195.5 82.5q-112 0 -191 -83t-79 -202z M285 1075v4q4 1 5 26t1 138v62q0 102 -1 125t-5 24v6q8 2 26 2q16 2 58 2q50 0 75 -10q27 -9 49.5 -34t22.5 -62v-2q0 -77 -80 -109v-4q23 -29 99 -127q23 -30 32 -37v-4h-63q-10 0 -12 4q-14 18 -29.5 38.5t-42.5 55.5t-51 66h-17v-14q0 -101 1 -123t5 -23v-4h-73z M352 1288h17q40 0 62 14t22 50v2q0 55 -80 55h-21v-121z" />
<glyph unicode="&#xaf;" horiz-adv-x="808" d="M213 1716v76h385v-76h-385z" />
<glyph unicode="&#xb0;" horiz-adv-x="747" d="M82 1073q0 122 78.5 204.5t199.5 82.5h2q120 0 198.5 -83t78.5 -204q0 -130 -80 -207.5t-201 -77.5q-117 0 -196.5 77.5t-79.5 207.5zM166 1073q0 -95 54 -158t142 -63q90 0 142.5 59.5t52.5 159.5q0 98 -52.5 159.5t-150.5 61.5h-2q-83 0 -134.5 -59t-51.5 -160z" />
<glyph unicode="&#xb1;" horiz-adv-x="1089" d="M106 78v90h877v-90h-877zM106 659v91h392v383h94v-383h391v-91h-391v-421h-94v421h-392z" />
<glyph unicode="&#xb2;" horiz-adv-x="700" d="M82 850v61q135 101 237 195q72 64 119 129q43 65 43 137q0 69 -45.5 107.5t-116.5 38.5q-88 0 -153 -35q-38 -17 -55 -39l-7 -2v96q42 29 105.5 44t124.5 15q118 0 184 -57.5t66 -153.5q0 -79 -37.5 -146t-116.5 -144q-106 -103 -192 -162h237q92 0 100 12h9 q0 -9 -1 -45.5t-1 -50.5h-500z" />
<glyph unicode="&#xb3;" horiz-adv-x="677" d="M80 877q0 38 8 100h8q21 -32 77.5 -49t115.5 -17q29 0 56 6.5t53 20.5t41.5 41t15.5 63q0 45 -23.5 77t-63.5 46.5t-81.5 20.5t-89.5 4l-2 80q24 0 43.5 1t45 4t45 8.5t40 16t33.5 24t21.5 34.5t8.5 47q0 55 -41 83t-102 28q-110 0 -158 -48h-10q0 66 -2 95q67 34 182 34 q92 0 161.5 -47t69.5 -135q0 -72 -43 -118.5t-104 -61.5v-2q67 -8 118.5 -60t51.5 -133q0 -67 -40 -116.5t-98 -72t-122 -22.5q-122 0 -215 48z" />
<glyph unicode="&#xb4;" horiz-adv-x="808" d="M268 1722l248 213l57 -94l-272 -164z" />
<glyph unicode="&#xb5;" horiz-adv-x="1124" d="M150 -268q24 131 34.5 246t10.5 270v706h106v-436q0 -171 33 -266q26 -73 82.5 -122.5t134.5 -49.5q85 0 142.5 48t84.5 122q56 145 56 442v262h106v-262q0 -308 16 -456q14 -142 60 -236h-111q-26 51 -35.5 104.5t-9.5 143.5h-2q-84 -266 -317 -266q-62 0 -115.5 24 t-87.5 62q-26 32 -47 73h-4v-61q0 -85 -12 -188t-25 -160h-100z" />
<glyph unicode="&#xb6;" horiz-adv-x="1097" d="M123 1030q0 73 18 138.5t61 126t106.5 104.5t161.5 70t220 26q148 0 223 -16v-1629h-90v1561h-153v-1561h-90v775h-21q-80 0 -155 24.5t-139 72t-103 127.5t-39 181z" />
<glyph unicode="&#xb7;" horiz-adv-x="385" d="M94 793q0 41 29.5 70.5t69.5 29.5h2q41 0 68.5 -29t27.5 -71q0 -41 -28 -70t-70 -29q-40 0 -69.5 29.5t-29.5 69.5z" />
<glyph unicode="&#xb8;" horiz-adv-x="808" d="M227 -385l17 59q31 -8 67 -8q59 0 94 25t35 69q0 81 -123 90v5l86 145h78l-59 -98v-4q55 -12 85 -46.5t30 -84.5q0 -55 -37.5 -94t-86 -54.5t-98.5 -15.5q-61 0 -88 12z" />
<glyph unicode="&#xb9;" horiz-adv-x="464" d="M12 1487q113 47 228 102h61v-418q0 -207 3 -257.5t18 -53.5v-10h-140v10q15 3 18 53.5t3 257.5v299q0 12 -1 15t-7 2q-36 -12 -158 -62z" />
<glyph unicode="&#xba;" horiz-adv-x="804" d="M59 1255q0 132 98 237t244 105h2q149 0 244.5 -102.5t95.5 -237.5q0 -62 -22.5 -123t-63.5 -112.5t-108 -83t-148 -31.5q-103 0 -183 52.5t-119.5 131t-39.5 164.5zM160 1255q0 -103 67 -182.5t174 -79.5h2q110 0 176 79.5t66 184.5q0 103 -66.5 179.5t-177.5 76.5 q-109 0 -175 -77.5t-66 -180.5z" />
<glyph unicode="&#xbb;" horiz-adv-x="860" d="M106 467q21 33 96 148t111 173q-35 59 -107 175t-100 161l48 37q60 -72 168.5 -201t140.5 -167q-43 -52 -148 -174.5t-161 -190.5zM406 467q203 316 206 321q-82 137 -206 336l47 37q60 -72 168.5 -201t140.5 -167q-43 -52 -148 -174.5t-161 -190.5z" />
<glyph unicode="&#xbc;" horiz-adv-x="1429" d="M84 1487q131 55 227 102h64q-2 -84 -2 -303v-115q0 -211 3 -259.5t17 -51.5v-10h-137v10q13 3 15.5 51.5t2.5 259.5v299q0 12 -1 15t-7 2q-23 -7 -155 -62zM154 -43l901 1679h94l-901 -1679h-94zM633 184v33q21 24 188 221.5t260 304.5h72v-483h127v-76h-127 q0 -134 16 -176v-8h-129v8q15 48 15 176h-422zM766 260h289q0 306 2 348h-4q-30 -38 -153 -185t-134 -161v-2z" />
<glyph unicode="&#xbd;" horiz-adv-x="1429" d="M78 1487q104 44 227 102h62v-418q0 -211 3 -259.5t17 -51.5v-10h-139v10q14 3 17 51.5t3 259.5v299q0 12 -1 15t-7 2q-27 -9 -156 -62zM145 -43l902 1679h94l-901 -1679h-95zM795 0v61q132 99 237 193q74 68 119 131q43 65 43 137q0 69 -45.5 107.5t-116.5 38.5 q-135 0 -209 -74l-6 -2v96q44 28 108 44t122 16q118 0 183.5 -58t65.5 -155q0 -78 -37.5 -145.5t-115.5 -143.5q-103 -100 -193 -162h238q92 0 100 12h8q0 -11 -1 -47t-1 -49h-499z" />
<glyph unicode="&#xbe;" horiz-adv-x="1429" d="M109 877q0 38 8 100h8q22 -32 76.5 -49t113.5 -17q40 0 75 10.5t63 41.5t28 79q0 45 -23.5 77t-63.5 46.5t-81.5 20.5t-89.5 4v80q35 0 62 2t62 10t57.5 21.5t38.5 39.5t16 62q0 55 -41.5 83t-102.5 28q-67 0 -118 -21q-14 -7 -39 -27h-8q0 52 -3 95q67 34 183 34 q92 0 161.5 -47t69.5 -135q0 -72 -43.5 -118.5t-103.5 -61.5v-2q66 -8 118 -60t52 -133q0 -99 -79.5 -155t-182.5 -56q-122 0 -213 48zM246 -43l901 1679h94l-901 -1679h-94zM725 184v33q20 23 188 221t261 305h73v-483h125v-76h-125q0 -130 15 -176v-8h-129v8q16 49 16 176 h-424zM858 260h291q0 306 2 348h-6q-30 -38 -153 -185t-134 -161v-2z" />
<glyph unicode="&#xbf;" horiz-adv-x="921" d="M100 371q0 119 51 216t154 214q116 129 151 214t40 224h108q-3 -145 -40.5 -251.5t-153.5 -235.5q-95 -107 -141 -193t-46 -180q0 -133 89 -215t233 -82q106 0 203 53q67 40 94 82h12q2 -64 8 -141q-65 -42 -152.5 -70.5t-172.5 -28.5h-2q-149 0 -254 66 q-88 57 -134.5 144.5t-46.5 183.5zM451 1511q0 26 12.5 49t35 36.5t50.5 13.5q19 0 37.5 -8t31.5 -21.5t21 -31.5t8 -38q0 -41 -29 -70.5t-69 -29.5h-2q-27 0 -49 13.5t-34.5 36.5t-12.5 50z" />
<glyph unicode="&#xc0;" horiz-adv-x="1331" d="M-4 0v8q9 4 22.5 27t46.5 98t86.5 205.5t145.5 359.5l373 926h14l360 -930q173 -445 221.5 -561t63.5 -125v-8h-168v8q18 7 -13 96t-167 435h-633q-144 -356 -174 -439.5t-12 -91.5v-8h-166zM391 639h549l-2 8q-242 641 -264 709h-2q-16 -46 -279 -709zM422 1849l57 95 l246 -213l-31 -45z" />
<glyph unicode="&#xc1;" horiz-adv-x="1331" d="M-4 0v8q9 4 22.5 27t46.5 98t86.5 205.5t145.5 359.5l373 926h14l360 -930q173 -445 221.5 -561t63.5 -125v-8h-168v8q18 7 -13 96t-167 435h-633q-144 -356 -174 -439.5t-12 -91.5v-8h-166zM391 639h549l-2 8q-242 641 -264 709h-2q-16 -46 -279 -709zM623 1731l247 213 l58 -95l-273 -163z" />
<glyph unicode="&#xc2;" horiz-adv-x="1331" d="M-4 0v8q9 4 22.5 27t46.5 98t86.5 205.5t145.5 359.5l373 926h14l360 -930q173 -445 221.5 -561t63.5 -125v-8h-168v8q18 7 -13 96t-167 435h-633q-144 -356 -174 -439.5t-12 -91.5v-8h-166zM391 639h549l-2 8q-242 641 -264 709h-2q-16 -46 -279 -709zM469 1692l215 192 l205 -194l-37 -43l-170 116l-180 -116z" />
<glyph unicode="&#xc3;" horiz-adv-x="1331" d="M-4 0v8q9 4 22.5 27t46.5 98t86.5 205.5t145.5 359.5l373 926h14l360 -930q173 -445 221.5 -561t63.5 -125v-8h-168v8q18 7 -13 96t-167 435h-633q-144 -356 -174 -439.5t-12 -91.5v-8h-166zM391 639h549l-2 8q-242 641 -264 709h-2q-16 -46 -279 -709zM463 1706 q31 143 137 143q48 0 105 -41q43 -32 77 -32q57 0 76 65l51 -8q-7 -55 -43 -98t-88 -43q-46 0 -98 32q-53 39 -90 39q-53 0 -74 -63z" />
<glyph unicode="&#xc4;" horiz-adv-x="1331" d="M-4 0v8q9 4 22.5 27t46.5 98t86.5 205.5t145.5 359.5l373 926h14l360 -930q173 -445 221.5 -561t63.5 -125v-8h-168v8q18 7 -13 96t-167 435h-633q-144 -356 -174 -439.5t-12 -91.5v-8h-166zM391 639h549l-2 8q-242 641 -264 709h-2q-16 -46 -279 -709zM465 1757v2 q0 27 21.5 48.5t52.5 21.5q29 0 49 -22t20 -50q0 -30 -20 -53t-49 -23q-31 0 -52.5 23t-21.5 53zM754 1757v2q0 27 21 48.5t52 21.5q29 0 49.5 -22t20.5 -50q0 -30 -20.5 -53t-49.5 -23q-31 0 -52 23t-21 53z" />
<glyph unicode="&#xc5;" horiz-adv-x="1331" d="M-4 0v8q9 4 22.5 27t46.5 98t86.5 205.5t145.5 359.5l373 926h14l360 -930q173 -445 221.5 -561t63.5 -125v-8h-168v8q18 7 -13 96t-167 435h-633q-144 -356 -174 -439.5t-12 -91.5v-8h-166zM391 639h549l-2 8q-242 641 -264 709h-2q-16 -46 -279 -709zM547 1792v2 q0 52 40 87.5t97 35.5q51 0 90 -35.5t39 -87.5q0 -48 -39 -82.5t-94 -34.5q-58 0 -95.5 33.5t-37.5 81.5zM618 1794q0 -27 17.5 -45t44.5 -18q30 0 45.5 18t15.5 47v2q0 27 -16 46.5t-43 19.5q-30 0 -47 -20.5t-17 -49.5z" />
<glyph unicode="&#xc6;" horiz-adv-x="1597" d="M-16 0v8q64 94 304 588q26 54 40 82q41 86 122.5 253t144 296t79.5 164q8 20 29 60t34 73t13 61v12h725q-2 -39 -2 -135h-11q-12 18 -65 24.5t-180 6.5h-269v-623h266q198 0 213 17h11q0 -12 -1 -36t-1 -40q0 -15 1 -33.5t1 -29.5h-13q-15 20 -206 20h-271v-639 q0 -15 5 -19t22 -4h354q143 0 160 29h10v-135h-688v10q9 3 14 15.5t8 61.5t3 146v330h-443q-51 -106 -121 -250q-57 -119 -84 -183t-31 -88.5t3 -33.5v-8h-176zM442 662h398v843q-77 -164 -234 -493t-164 -344v-6z" />
<glyph unicode="&#xc7;" horiz-adv-x="1372" d="M82 807q0 155 43.5 287t122 228.5t185 164.5t233.5 101.5t268 33.5q102 0 180 -12q70 -6 152 -27q-2 -30 -3.5 -80.5t-2.5 -60.5h-11q-36 31 -108 51q-68 20 -191 20q-343 0 -542 -190t-199 -522q0 -157 56 -292t152.5 -227.5t228.5 -145t282 -52.5q219 0 309 80h6 q2 -55 2 -137q-154 -50 -334 -50q-44 0 -73 5l-47 -80v-4q55 -12 84.5 -46.5t29.5 -84.5q0 -55 -36.5 -94t-84.5 -54.5t-98 -15.5q-63 0 -90 12l16 59q31 -8 68 -8q59 0 94 25t35 69q0 81 -123 90v5l78 135q-113 17 -215 60.5t-187.5 115t-147.5 165t-97 215.5t-35 261z" />
<glyph unicode="&#xc8;" horiz-adv-x="985" d="M162 0v8q18 9 21 111t3 575v248q0 443 -3 540.5t-19 106.5v8h702q0 -26 -1 -75t-1 -60h-8q-10 19 -55 25t-144 6h-356v-623h348q95 0 128.5 3t43.5 14h8v-139h-8q-10 14 -41 17t-127 3h-352v-647q0 -11 2 -13t12 -2h420q72 0 105 5t43 24h10q-2 -14 -2 -135h-729z M305 1841l57 94l246 -213l-30 -45z" />
<glyph unicode="&#xc9;" horiz-adv-x="985" d="M162 0v8q18 9 21 111t3 575v248q0 443 -3 540.5t-19 106.5v8h702q0 -26 -1 -75t-1 -60h-8q-10 19 -55 25t-144 6h-356v-623h348q95 0 128.5 3t43.5 14h8v-139h-8q-10 14 -41 17t-127 3h-352v-647q0 -11 2 -13t12 -2h420q72 0 105 5t43 24h10q-2 -14 -2 -135h-729z M418 1722l248 213l57 -94l-272 -164z" />
<glyph unicode="&#xca;" horiz-adv-x="985" d="M162 0v8q18 9 21 111t3 575v248q0 443 -3 540.5t-19 106.5v8h702q0 -26 -1 -75t-1 -60h-8q-10 19 -55 25t-144 6h-356v-623h348q95 0 128.5 3t43.5 14h8v-139h-8q-10 14 -41 17t-127 3h-352v-647q0 -11 2 -13t12 -2h420q72 0 105 5t43 24h10q-2 -14 -2 -135h-729z M332 1712l213 193l205 -195l-37 -43l-170 117l-178 -117z" />
<glyph unicode="&#xcb;" horiz-adv-x="985" d="M162 0v8q18 9 21 111t3 575v248q0 443 -3 540.5t-19 106.5v8h702q0 -26 -1 -75t-1 -60h-8q-10 19 -55 25t-144 6h-356v-623h348q95 0 128.5 3t43.5 14h8v-139h-8q-10 14 -41 17t-127 3h-352v-647q0 -11 2 -13t12 -2h420q72 0 105 5t43 24h10q-2 -14 -2 -135h-729z M295 1757v2q0 27 21.5 48.5t52.5 21.5q29 0 49 -22t20 -50q0 -30 -20 -53t-49 -23q-31 0 -52.5 23t-21.5 53zM584 1757v2q0 27 21 48.5t52 21.5q29 0 49.5 -22t20.5 -50q0 -30 -20.5 -53t-49.5 -23q-31 0 -52 23t-21 53z" />
<glyph unicode="&#xcc;" horiz-adv-x="487" d="M16 1841l58 94l245 -213l-30 -45zM160 0v10q19 7 22.5 109.5t3.5 574.5v248q0 443 -3 540t-21 103v12h164v-10q-18 -7 -21.5 -108.5t-3.5 -536.5v-248q0 -464 3.5 -570.5t23.5 -115.5v-8h-168z" />
<glyph unicode="&#xcd;" horiz-adv-x="487" d="M160 0v10q19 7 22.5 109.5t3.5 574.5v248q0 443 -3 540t-21 103v12h164v-10q-18 -7 -21.5 -108.5t-3.5 -536.5v-248q0 -464 3.5 -570.5t23.5 -115.5v-8h-168zM168 1722l248 213l57 -94l-272 -164z" />
<glyph unicode="&#xce;" horiz-adv-x="487" d="M31 1712l213 193l205 -195l-37 -43l-170 117l-179 -117zM160 0v10q19 7 22.5 109.5t3.5 574.5v248q0 443 -3 540t-21 103v12h164v-10q-18 -7 -21.5 -108.5t-3.5 -536.5v-248q0 -464 3.5 -570.5t23.5 -115.5v-8h-168z" />
<glyph unicode="&#xcf;" horiz-adv-x="487" d="M23 1757v2q0 27 21 48.5t52 21.5q29 0 49.5 -22t20.5 -50q0 -30 -20.5 -53t-49.5 -23q-31 0 -52 23t-21 53zM160 0v10q19 7 22.5 109.5t3.5 574.5v248q0 443 -3 540t-21 103v12h164v-10q-18 -7 -21.5 -108.5t-3.5 -536.5v-248q0 -464 3.5 -570.5t23.5 -115.5v-8h-168z M311 1757v2q0 27 21.5 48.5t52.5 21.5q29 0 49.5 -22t20.5 -50q0 -30 -20.5 -53t-49.5 -23q-31 0 -52.5 23t-21.5 53z" />
<glyph unicode="&#xd0;" horiz-adv-x="1439" d="M31 774v90h182v78q0 435 -4 536t-23 105v10q30 1 96.5 5t120.5 6t97 2q310 0 520 -129q152 -94 244 -266.5t92 -379.5v-2q0 -211 -69.5 -367.5t-182.5 -258.5q-128 -118 -276 -163.5t-332 -45.5q-47 0 -156 4t-154 4v12q18 4 22.5 116t4.5 564v80h-182zM328 127 q0 -17 4 -19q3 -1 8 -2q46 -8 158 -8q159 0 297 47t235 146q205 208 205 536v2q0 100 -25 190t-67.5 158t-90 118.5t-102.5 88.5q-90 61 -213.5 88t-242.5 27q-109 0 -166 -6v-629h415q-2 -12 -2 -45t2 -45h-415v-647z" />
<glyph unicode="&#xd1;" horiz-adv-x="1540" d="M156 0v8q19 9 22.5 112t3.5 574v926h13q306 -386 839 -1065q155 -198 215 -283h4v670q0 442 -3.5 540t-22.5 107v8h153v-8q-16 -9 -19 -106.5t-3 -540.5v-962h-12q-251 314 -517 650.5t-307 387.5q-161 207 -231 307h-4v-631q0 -471 3.5 -574t22.5 -112v-8h-157z M590 1677q31 144 137 144q47 0 104 -41q45 -33 80 -33q55 0 74 63l51 -8q-7 -54 -43 -97.5t-88 -43.5q-40 0 -97.5 36t-90.5 36q-50 0 -74 -62z" />
<glyph unicode="&#xd2;" d="M84 788q0 174 63 328t172 264t263 174t329 64q165 0 311 -63t249.5 -170.5t163 -256.5t59.5 -317v-4q0 -168 -60.5 -320.5t-167 -265.5t-260 -179.5t-329.5 -66.5q-163 0 -310.5 64.5t-253 174t-167.5 259.5t-62 315zM211 799q0 -195 89.5 -359.5t245.5 -261t343 -96.5 q190 0 346 94.5t244 259.5t88 365v2q0 199 -89.5 361.5t-246 255.5t-348.5 93q-186 0 -340 -94t-243 -258.5t-89 -361.5zM662 1851l57 95l248 -213l-31 -45z" />
<glyph unicode="&#xd3;" d="M84 788q0 174 63 328t172 264t263 174t329 64q165 0 311 -63t249.5 -170.5t163 -256.5t59.5 -317v-4q0 -168 -60.5 -320.5t-167 -265.5t-260 -179.5t-329.5 -66.5q-163 0 -310.5 64.5t-253 174t-167.5 259.5t-62 315zM211 799q0 -195 89.5 -359.5t245.5 -261t343 -96.5 q190 0 346 94.5t244 259.5t88 365v2q0 199 -89.5 361.5t-246 255.5t-348.5 93q-186 0 -340 -94t-243 -258.5t-89 -361.5zM815 1733l248 213l57 -95l-272 -163z" />
<glyph unicode="&#xd4;" d="M84 788q0 174 63 328t172 264t263 174t329 64q165 0 311 -63t249.5 -170.5t163 -256.5t59.5 -317v-4q0 -168 -60.5 -320.5t-167 -265.5t-260 -179.5t-329.5 -66.5q-163 0 -310.5 64.5t-253 174t-167.5 259.5t-62 315zM211 799q0 -195 89.5 -359.5t245.5 -261t343 -96.5 q190 0 346 94.5t244 259.5t88 365v2q0 199 -89.5 361.5t-246 255.5t-348.5 93q-186 0 -340 -94t-243 -258.5t-89 -361.5zM684 1720l213 195l205 -195l-37 -43l-170 117l-178 -117z" />
<glyph unicode="&#xd5;" d="M84 788q0 174 63 328t172 264t263 174t329 64q165 0 311 -63t249.5 -170.5t163 -256.5t59.5 -317v-4q0 -168 -60.5 -320.5t-167 -265.5t-260 -179.5t-329.5 -66.5q-163 0 -310.5 64.5t-253 174t-167.5 259.5t-62 315zM211 799q0 -195 89.5 -359.5t245.5 -261t343 -96.5 q190 0 346 94.5t244 259.5t88 365v2q0 199 -89.5 361.5t-246 255.5t-348.5 93q-186 0 -340 -94t-243 -258.5t-89 -361.5zM678 1710q31 143 135 143q49 0 105 -43q48 -30 79 -30q55 0 76 63l49 -8q-7 -54 -43 -97.5t-88 -43.5q-48 0 -96 32q-56 39 -92 39q-51 0 -74 -61z" />
<glyph unicode="&#xd6;" d="M84 788q0 174 63 328t172 264t263 174t329 64q165 0 311 -63t249.5 -170.5t163 -256.5t59.5 -317v-4q0 -168 -60.5 -320.5t-167 -265.5t-260 -179.5t-329.5 -66.5q-163 0 -310.5 64.5t-253 174t-167.5 259.5t-62 315zM211 799q0 -195 89.5 -359.5t245.5 -261t343 -96.5 q190 0 346 94.5t244 259.5t88 365v2q0 199 -89.5 361.5t-246 255.5t-348.5 93q-186 0 -340 -94t-243 -258.5t-89 -361.5zM678 1757v2q0 27 21.5 48.5t52.5 21.5q29 0 49 -22t20 -50q0 -30 -20 -53t-49 -23q-31 0 -52.5 23t-21.5 53zM967 1757v2q0 27 21 48.5t52 21.5 q29 0 49.5 -22t20.5 -50q0 -30 -20.5 -53t-49.5 -23q-31 0 -52 23t-21 53z" />
<glyph unicode="&#xd7;" horiz-adv-x="1089" d="M156 379l323 323l-323 324l67 68l324 -324l323 322l64 -64l-324 -321l326 -326l-68 -68l-325 326l-322 -324z" />
<glyph unicode="&#xd8;" d="M72 -2q31 32 108.5 117.5t112.5 120.5q-100 109 -154.5 253.5t-54.5 301.5q0 174 63.5 327.5t172.5 263t262 173t325 63.5h2q143 0 272 -47t228 -131q6 6 67 69t85 90h135q-15 -16 -68.5 -71.5t-85.5 -90t-59 -67.5q103 -109 158 -262t55 -297q0 -171 -60.5 -324 t-167.5 -266t-262 -179.5t-334 -66.5q-144 0 -280 53t-232 140q-66 -69 -153 -170h-135zM211 795q0 -274 164 -478q118 128 962 1039q-174 157 -465 157h-2q-177 0 -328 -93t-241 -258.5t-90 -366.5zM438 250q91 -81 209 -125.5t236 -44.5h2q135 0 258 50.5t218 142 t151.5 231.5t56.5 307q0 274 -166 477q-437 -469 -965 -1038z" />
<glyph unicode="&#xd9;" horiz-adv-x="1490" d="M137 1589v8h168v-8q-21 -9 -25 -110.5t-4 -536.5v-283q0 -140 23 -236.5t74 -168.5q55 -81 153 -125.5t205 -44.5q247 0 369 154q112 144 112 442v262q0 443 -3.5 540.5t-22.5 106.5v8h160v-8q-17 -9 -20 -110.5t-3 -536.5v-272q0 -336 -152 -510q-75 -89 -190 -136 t-254 -47q-291 0 -440 201q-66 86 -95.5 194.5t-29.5 274.5v295q0 435 -3.5 536.5t-21.5 110.5zM516 1821l57 94l246 -213l-31 -45z" />
<glyph unicode="&#xda;" horiz-adv-x="1490" d="M137 1589v8h168v-8q-21 -9 -25 -110.5t-4 -536.5v-283q0 -140 23 -236.5t74 -168.5q55 -81 153 -125.5t205 -44.5q247 0 369 154q112 144 112 442v262q0 443 -3.5 540.5t-22.5 106.5v8h160v-8q-17 -9 -20 -110.5t-3 -536.5v-272q0 -336 -152 -510q-75 -89 -190 -136 t-254 -47q-291 0 -440 201q-66 86 -95.5 194.5t-29.5 274.5v295q0 435 -3.5 536.5t-21.5 110.5zM692 1702l248 213l57 -94l-272 -164z" />
<glyph unicode="&#xdb;" horiz-adv-x="1490" d="M137 1589v8h168v-8q-21 -9 -25 -110.5t-4 -536.5v-283q0 -140 23 -236.5t74 -168.5q55 -81 153 -125.5t205 -44.5q247 0 369 154q112 144 112 442v262q0 443 -3.5 540.5t-22.5 106.5v8h160v-8q-17 -9 -20 -110.5t-3 -536.5v-272q0 -336 -152 -510q-75 -89 -190 -136 t-254 -47q-291 0 -440 201q-66 86 -95.5 194.5t-29.5 274.5v295q0 435 -3.5 536.5t-21.5 110.5zM551 1712l213 193l205 -195l-37 -43l-170 117l-178 -117z" />
<glyph unicode="&#xdc;" horiz-adv-x="1490" d="M137 1589v8h168v-8q-21 -9 -25 -110.5t-4 -536.5v-283q0 -140 23 -236.5t74 -168.5q55 -81 153 -125.5t205 -44.5q247 0 369 154q112 144 112 442v262q0 443 -3.5 540.5t-22.5 106.5v8h160v-8q-17 -9 -20 -110.5t-3 -536.5v-272q0 -336 -152 -510q-75 -89 -190 -136 t-254 -47q-291 0 -440 201q-66 86 -95.5 194.5t-29.5 274.5v295q0 435 -3.5 536.5t-21.5 110.5zM537 1757v2q0 27 21 48.5t52 21.5q29 0 49.5 -22t20.5 -50q0 -30 -20.5 -53t-49.5 -23q-31 0 -52 23t-21 53zM825 1757v2q0 27 21.5 48.5t52.5 21.5q29 0 49.5 -22t20.5 -50 q0 -30 -20.5 -53t-49.5 -23q-31 0 -52.5 23t-21.5 53z" />
<glyph unicode="&#xdd;" horiz-adv-x="1142" d="M-8 1589v8h178v-8q-20 -9 19 -99t186 -374q32 -62 99.5 -193t94.5 -186h6q25 54 191 381q48 96 81.5 164t58.5 121.5t39 86.5t20.5 55t5.5 31.5t-8 12.5v8h170v-8q-10 -6 -36.5 -54t-107.5 -207q-125 -244 -227 -441l-137 -262v-35q0 -385 3.5 -479.5t22.5 -102.5v-8 h-170v10q19 7 23 104.5t4 473.5v33l-143 274q-98 186 -220 422q-94 180 -117.5 223t-35.5 49zM541 1692l245 213l58 -95l-273 -161z" />
<glyph unicode="&#xde;" horiz-adv-x="987" d="M160 0v12q19 6 22.5 108t3.5 574v248q0 443 -3 540.5t-21 104.5v10h164v-10q-17 -7 -21 -69t-4 -252q66 3 135 0q72 -2 154 -23t139 -61q70 -49 122 -135.5t52 -206.5v-2q0 -82 -28 -160.5t-74 -132.5q-42 -48 -107 -89t-131 -59q-97 -26 -262 -26q0 -212 4.5 -282.5 t22.5 -76.5v-12h-168zM301 471q11 0 34 -1t34 -1q106 0 191.5 34t139.5 95q82 92 82 238v2q0 88 -38.5 157.5t-104.5 110.5q-93 59 -248 59q-44 0 -90 -4v-690z" />
<glyph unicode="&#xdf;" horiz-adv-x="1806" d="M68 14q2 30 8 144h8q45 -74 227 -74q135 0 234.5 83t99.5 216q0 85 -33.5 152.5t-113.5 136.5q-34 30 -100.5 85t-106.5 91q-102 96 -143.5 176t-41.5 188q0 78 31 150t86.5 126.5t139.5 87t182 32.5q99 0 178 -23q-1 -19 -4 -65t-4 -72h-8q-33 55 -158 55 q-140 0 -232 -77t-92 -203q0 -74 25.5 -132t79.5 -112q29 -31 63 -60t80 -65.5t76 -62.5q53 -47 88 -85.5t66 -87.5t46 -105.5t15 -123.5v-2q0 -58 -17.5 -114.5t-55 -110t-91.5 -93.5t-133.5 -64.5t-173.5 -24.5q-55 0 -118.5 10t-106.5 24zM928 14q2 30 8 144h8 q45 -74 227 -74q87 0 162.5 35.5t123.5 105t48 158.5q0 43 -7.5 79t-25 71.5t-45.5 69.5t-69 69q-30 27 -67 57.5t-73 60t-67 58.5q-51 48 -85 89t-56.5 84.5t-32.5 89t-10 101.5q0 78 31 150t86.5 126.5t139 87t181.5 32.5q99 0 178 -23q-1 -19 -4 -65t-4 -72h-8 q-33 55 -158 55q-140 0 -232 -77t-92 -203q0 -50 12 -92.5t34.5 -79t58.5 -72.5q23 -24 50.5 -49t50.5 -43t57.5 -45.5t60.5 -50.5q53 -48 87.5 -86t66 -87t46.5 -105.5t15 -123.5v-2q0 -58 -17.5 -114.5t-55 -110t-91.5 -93.5t-133.5 -64.5t-173.5 -24.5q-55 0 -118.5 10 t-106.5 24z" />
<glyph unicode="&#xe0;" horiz-adv-x="1331" d="M-4 0v8q9 4 22.5 27t46.5 98t86.5 205.5t145.5 359.5l373 926h14l360 -930q173 -445 221.5 -561t63.5 -125v-8h-168v8q18 7 -13 96t-167 435h-633q-144 -356 -174 -439.5t-12 -91.5v-8h-166zM391 639h549l-2 8q-242 641 -264 709h-2q-16 -46 -279 -709zM422 1849l57 95 l246 -213l-31 -45z" />
<glyph unicode="&#xe1;" horiz-adv-x="1331" d="M-4 0v8q9 4 22.5 27t46.5 98t86.5 205.5t145.5 359.5l373 926h14l360 -930q173 -445 221.5 -561t63.5 -125v-8h-168v8q18 7 -13 96t-167 435h-633q-144 -356 -174 -439.5t-12 -91.5v-8h-166zM391 639h549l-2 8q-242 641 -264 709h-2q-16 -46 -279 -709zM623 1731l247 213 l58 -95l-273 -163z" />
<glyph unicode="&#xe2;" horiz-adv-x="1331" d="M-4 0v8q9 4 22.5 27t46.5 98t86.5 205.5t145.5 359.5l373 926h14l360 -930q173 -445 221.5 -561t63.5 -125v-8h-168v8q18 7 -13 96t-167 435h-633q-144 -356 -174 -439.5t-12 -91.5v-8h-166zM391 639h549l-2 8q-242 641 -264 709h-2q-16 -46 -279 -709zM469 1692l215 192 l205 -194l-37 -43l-170 116l-180 -116z" />
<glyph unicode="&#xe3;" horiz-adv-x="1331" d="M-4 0v8q9 4 22.5 27t46.5 98t86.5 205.5t145.5 359.5l373 926h14l360 -930q173 -445 221.5 -561t63.5 -125v-8h-168v8q18 7 -13 96t-167 435h-633q-144 -356 -174 -439.5t-12 -91.5v-8h-166zM391 639h549l-2 8q-242 641 -264 709h-2q-16 -46 -279 -709zM463 1706 q31 143 137 143q48 0 105 -41q43 -32 77 -32q57 0 76 65l51 -8q-7 -55 -43 -98t-88 -43q-46 0 -98 32q-53 39 -90 39q-53 0 -74 -63z" />
<glyph unicode="&#xe4;" horiz-adv-x="1331" d="M-4 0v8q9 4 22.5 27t46.5 98t86.5 205.5t145.5 359.5l373 926h14l360 -930q173 -445 221.5 -561t63.5 -125v-8h-168v8q18 7 -13 96t-167 435h-633q-144 -356 -174 -439.5t-12 -91.5v-8h-166zM391 639h549l-2 8q-242 641 -264 709h-2q-16 -46 -279 -709zM465 1757v2 q0 27 21.5 48.5t52.5 21.5q29 0 49 -22t20 -50q0 -30 -20 -53t-49 -23q-31 0 -52.5 23t-21.5 53zM754 1757v2q0 27 21 48.5t52 21.5q29 0 49.5 -22t20.5 -50q0 -30 -20.5 -53t-49.5 -23q-31 0 -52 23t-21 53z" />
<glyph unicode="&#xe5;" horiz-adv-x="1331" d="M-4 0v8q9 4 22.5 27t46.5 98t86.5 205.5t145.5 359.5l373 926h14l360 -930q173 -445 221.5 -561t63.5 -125v-8h-168v8q18 7 -13 96t-167 435h-633q-144 -356 -174 -439.5t-12 -91.5v-8h-166zM391 639h549l-2 8q-242 641 -264 709h-2q-16 -46 -279 -709zM547 1792v2 q0 52 40 87.5t97 35.5q51 0 90 -35.5t39 -87.5q0 -48 -39 -82.5t-94 -34.5q-58 0 -95.5 33.5t-37.5 81.5zM618 1794q0 -27 17.5 -45t44.5 -18q30 0 45.5 18t15.5 47v2q0 27 -16 46.5t-43 19.5q-30 0 -47 -20.5t-17 -49.5z" />
<glyph unicode="&#xe6;" horiz-adv-x="1597" d="M-16 0v8q64 94 304 588q26 54 40 82q41 86 122.5 253t144 296t79.5 164q8 20 29 60t34 73t13 61v12h725q-2 -39 -2 -135h-11q-12 18 -65 24.5t-180 6.5h-269v-623h266q198 0 213 17h11q0 -12 -1 -36t-1 -40q0 -15 1 -33.5t1 -29.5h-13q-15 20 -206 20h-271v-639 q0 -15 5 -19t22 -4h354q143 0 160 29h10v-135h-688v10q9 3 14 15.5t8 61.5t3 146v330h-443q-51 -106 -121 -250q-57 -119 -84 -183t-31 -88.5t3 -33.5v-8h-176zM442 662h398v843q-77 -164 -234 -493t-164 -344v-6z" />
<glyph unicode="&#xe7;" horiz-adv-x="1372" d="M82 807q0 155 43.5 287t122 228.5t185 164.5t233.5 101.5t268 33.5q102 0 180 -12q70 -6 152 -27q-2 -30 -3.5 -80.5t-2.5 -60.5h-11q-36 31 -108 51q-68 20 -191 20q-343 0 -542 -190t-199 -522q0 -157 56 -292t152.5 -227.5t228.5 -145t282 -52.5q219 0 309 80h6 q2 -55 2 -137q-154 -50 -334 -50q-44 0 -73 5l-47 -80v-4q55 -12 84.5 -46.5t29.5 -84.5q0 -55 -36.5 -94t-84.5 -54.5t-98 -15.5q-63 0 -90 12l16 59q31 -8 68 -8q59 0 94 25t35 69q0 81 -123 90v5l78 135q-113 17 -215 60.5t-187.5 115t-147.5 165t-97 215.5t-35 261z" />
<glyph unicode="&#xe8;" horiz-adv-x="985" d="M162 0v8q18 9 21 111t3 575v248q0 443 -3 540.5t-19 106.5v8h702q0 -26 -1 -75t-1 -60h-8q-10 19 -55 25t-144 6h-356v-623h348q95 0 128.5 3t43.5 14h8v-139h-8q-10 14 -41 17t-127 3h-352v-647q0 -11 2 -13t12 -2h420q72 0 105 5t43 24h10q-2 -14 -2 -135h-729z M305 1841l57 94l246 -213l-30 -45z" />
<glyph unicode="&#xe9;" horiz-adv-x="985" d="M162 0v8q18 9 21 111t3 575v248q0 443 -3 540.5t-19 106.5v8h702q0 -26 -1 -75t-1 -60h-8q-10 19 -55 25t-144 6h-356v-623h348q95 0 128.5 3t43.5 14h8v-139h-8q-10 14 -41 17t-127 3h-352v-647q0 -11 2 -13t12 -2h420q72 0 105 5t43 24h10q-2 -14 -2 -135h-729z M418 1722l248 213l57 -94l-272 -164z" />
<glyph unicode="&#xea;" horiz-adv-x="985" d="M162 0v8q18 9 21 111t3 575v248q0 443 -3 540.5t-19 106.5v8h702q0 -26 -1 -75t-1 -60h-8q-10 19 -55 25t-144 6h-356v-623h348q95 0 128.5 3t43.5 14h8v-139h-8q-10 14 -41 17t-127 3h-352v-647q0 -11 2 -13t12 -2h420q72 0 105 5t43 24h10q-2 -14 -2 -135h-729z M332 1712l213 193l205 -195l-37 -43l-170 117l-178 -117z" />
<glyph unicode="&#xeb;" horiz-adv-x="985" d="M162 0v8q18 9 21 111t3 575v248q0 443 -3 540.5t-19 106.5v8h702q0 -26 -1 -75t-1 -60h-8q-10 19 -55 25t-144 6h-356v-623h348q95 0 128.5 3t43.5 14h8v-139h-8q-10 14 -41 17t-127 3h-352v-647q0 -11 2 -13t12 -2h420q72 0 105 5t43 24h10q-2 -14 -2 -135h-729z M295 1757v2q0 27 21.5 48.5t52.5 21.5q29 0 49 -22t20 -50q0 -30 -20 -53t-49 -23q-31 0 -52.5 23t-21.5 53zM584 1757v2q0 27 21 48.5t52 21.5q29 0 49.5 -22t20.5 -50q0 -30 -20.5 -53t-49.5 -23q-31 0 -52 23t-21 53z" />
<glyph unicode="&#xec;" horiz-adv-x="487" d="M16 1841l58 94l245 -213l-30 -45zM160 0v10q19 7 22.5 109.5t3.5 574.5v248q0 443 -3 540t-21 103v12h164v-10q-18 -7 -21.5 -108.5t-3.5 -536.5v-248q0 -464 3.5 -570.5t23.5 -115.5v-8h-168z" />
<glyph unicode="&#xed;" horiz-adv-x="487" d="M160 0v10q19 7 22.5 109.5t3.5 574.5v248q0 443 -3 540t-21 103v12h164v-10q-18 -7 -21.5 -108.5t-3.5 -536.5v-248q0 -464 3.5 -570.5t23.5 -115.5v-8h-168zM168 1722l248 213l57 -94l-272 -164z" />
<glyph unicode="&#xee;" horiz-adv-x="487" d="M31 1712l213 193l205 -195l-37 -43l-170 117l-179 -117zM160 0v10q19 7 22.5 109.5t3.5 574.5v248q0 443 -3 540t-21 103v12h164v-10q-18 -7 -21.5 -108.5t-3.5 -536.5v-248q0 -464 3.5 -570.5t23.5 -115.5v-8h-168z" />
<glyph unicode="&#xef;" horiz-adv-x="487" d="M23 1757v2q0 27 21 48.5t52 21.5q29 0 49.5 -22t20.5 -50q0 -30 -20.5 -53t-49.5 -23q-31 0 -52 23t-21 53zM160 0v10q19 7 22.5 109.5t3.5 574.5v248q0 443 -3 540t-21 103v12h164v-10q-18 -7 -21.5 -108.5t-3.5 -536.5v-248q0 -464 3.5 -570.5t23.5 -115.5v-8h-168z M311 1757v2q0 27 21.5 48.5t52.5 21.5q29 0 49.5 -22t20.5 -50q0 -30 -20.5 -53t-49.5 -23q-31 0 -52.5 23t-21.5 53z" />
<glyph unicode="&#xf0;" horiz-adv-x="1439" d="M31 774v90h182v78q0 435 -4 536t-23 105v10q30 1 96.5 5t120.5 6t97 2q310 0 520 -129q152 -94 244 -266.5t92 -379.5v-2q0 -211 -69.5 -367.5t-182.5 -258.5q-128 -118 -276 -163.5t-332 -45.5q-47 0 -156 4t-154 4v12q18 4 22.5 116t4.5 564v80h-182zM328 127 q0 -17 4 -19q3 -1 8 -2q46 -8 158 -8q159 0 297 47t235 146q205 208 205 536v2q0 100 -25 190t-67.5 158t-90 118.5t-102.5 88.5q-90 61 -213.5 88t-242.5 27q-109 0 -166 -6v-629h415q-2 -12 -2 -45t2 -45h-415v-647z" />
<glyph unicode="&#xf1;" horiz-adv-x="1540" d="M156 0v8q19 9 22.5 112t3.5 574v926h13q306 -386 839 -1065q155 -198 215 -283h4v670q0 442 -3.5 540t-22.5 107v8h153v-8q-16 -9 -19 -106.5t-3 -540.5v-962h-12q-251 314 -517 650.5t-307 387.5q-161 207 -231 307h-4v-631q0 -471 3.5 -574t22.5 -112v-8h-157z M590 1677q31 144 137 144q47 0 104 -41q45 -33 80 -33q55 0 74 63l51 -8q-7 -54 -43 -97.5t-88 -43.5q-40 0 -97.5 36t-90.5 36q-50 0 -74 -62z" />
<glyph unicode="&#xf2;" d="M84 788q0 174 63 328t172 264t263 174t329 64q165 0 311 -63t249.5 -170.5t163 -256.5t59.5 -317v-4q0 -168 -60.5 -320.5t-167 -265.5t-260 -179.5t-329.5 -66.5q-163 0 -310.5 64.5t-253 174t-167.5 259.5t-62 315zM211 799q0 -195 89.5 -359.5t245.5 -261t343 -96.5 q190 0 346 94.5t244 259.5t88 365v2q0 199 -89.5 361.5t-246 255.5t-348.5 93q-186 0 -340 -94t-243 -258.5t-89 -361.5zM662 1851l57 95l248 -213l-31 -45z" />
<glyph unicode="&#xf3;" d="M84 788q0 174 63 328t172 264t263 174t329 64q165 0 311 -63t249.5 -170.5t163 -256.5t59.5 -317v-4q0 -168 -60.5 -320.5t-167 -265.5t-260 -179.5t-329.5 -66.5q-163 0 -310.5 64.5t-253 174t-167.5 259.5t-62 315zM211 799q0 -195 89.5 -359.5t245.5 -261t343 -96.5 q190 0 346 94.5t244 259.5t88 365v2q0 199 -89.5 361.5t-246 255.5t-348.5 93q-186 0 -340 -94t-243 -258.5t-89 -361.5zM815 1733l248 213l57 -95l-272 -163z" />
<glyph unicode="&#xf4;" d="M84 788q0 174 63 328t172 264t263 174t329 64q165 0 311 -63t249.5 -170.5t163 -256.5t59.5 -317v-4q0 -168 -60.5 -320.5t-167 -265.5t-260 -179.5t-329.5 -66.5q-163 0 -310.5 64.5t-253 174t-167.5 259.5t-62 315zM211 799q0 -195 89.5 -359.5t245.5 -261t343 -96.5 q190 0 346 94.5t244 259.5t88 365v2q0 199 -89.5 361.5t-246 255.5t-348.5 93q-186 0 -340 -94t-243 -258.5t-89 -361.5zM684 1720l213 195l205 -195l-37 -43l-170 117l-178 -117z" />
<glyph unicode="&#xf5;" d="M84 788q0 174 63 328t172 264t263 174t329 64q165 0 311 -63t249.5 -170.5t163 -256.5t59.5 -317v-4q0 -168 -60.5 -320.5t-167 -265.5t-260 -179.5t-329.5 -66.5q-163 0 -310.5 64.5t-253 174t-167.5 259.5t-62 315zM211 799q0 -195 89.5 -359.5t245.5 -261t343 -96.5 q190 0 346 94.5t244 259.5t88 365v2q0 199 -89.5 361.5t-246 255.5t-348.5 93q-186 0 -340 -94t-243 -258.5t-89 -361.5zM678 1710q31 143 135 143q49 0 105 -43q48 -30 79 -30q55 0 76 63l49 -8q-7 -54 -43 -97.5t-88 -43.5q-48 0 -96 32q-56 39 -92 39q-51 0 -74 -61z" />
<glyph unicode="&#xf6;" d="M84 788q0 174 63 328t172 264t263 174t329 64q165 0 311 -63t249.5 -170.5t163 -256.5t59.5 -317v-4q0 -168 -60.5 -320.5t-167 -265.5t-260 -179.5t-329.5 -66.5q-163 0 -310.5 64.5t-253 174t-167.5 259.5t-62 315zM211 799q0 -195 89.5 -359.5t245.5 -261t343 -96.5 q190 0 346 94.5t244 259.5t88 365v2q0 199 -89.5 361.5t-246 255.5t-348.5 93q-186 0 -340 -94t-243 -258.5t-89 -361.5zM678 1757v2q0 27 21.5 48.5t52.5 21.5q29 0 49 -22t20 -50q0 -30 -20 -53t-49 -23q-31 0 -52.5 23t-21.5 53zM967 1757v2q0 27 21 48.5t52 21.5 q29 0 49.5 -22t20.5 -50q0 -30 -20.5 -53t-49.5 -23q-31 0 -52 23t-21 53z" />
<glyph unicode="&#xf7;" horiz-adv-x="1089" d="M106 659v91h877v-91h-877zM469 371v2q0 32 24 56t58 24q32 0 56 -24t24 -58q0 -32 -24 -56t-56 -24q-34 0 -58 24t-24 56zM469 1042v2q0 32 24 55t58 23q33 0 56.5 -23.5t23.5 -56.5t-23.5 -56t-56.5 -23q-34 0 -58 23t-24 56z" />
<glyph unicode="&#xf8;" d="M72 -2q31 32 108.5 117.5t112.5 120.5q-100 109 -154.5 253.5t-54.5 301.5q0 174 63.5 327.5t172.5 263t262 173t325 63.5h2q143 0 272 -47t228 -131q6 6 67 69t85 90h135q-15 -16 -68.5 -71.5t-85.5 -90t-59 -67.5q103 -109 158 -262t55 -297q0 -171 -60.5 -324 t-167.5 -266t-262 -179.5t-334 -66.5q-144 0 -280 53t-232 140q-66 -69 -153 -170h-135zM211 795q0 -274 164 -478q118 128 962 1039q-174 157 -465 157h-2q-177 0 -328 -93t-241 -258.5t-90 -366.5zM438 250q91 -81 209 -125.5t236 -44.5h2q135 0 258 50.5t218 142 t151.5 231.5t56.5 307q0 274 -166 477q-437 -469 -965 -1038z" />
<glyph unicode="&#xf9;" horiz-adv-x="1490" d="M137 1589v8h168v-8q-21 -9 -25 -110.5t-4 -536.5v-283q0 -140 23 -236.5t74 -168.5q55 -81 153 -125.5t205 -44.5q247 0 369 154q112 144 112 442v262q0 443 -3.5 540.5t-22.5 106.5v8h160v-8q-17 -9 -20 -110.5t-3 -536.5v-272q0 -336 -152 -510q-75 -89 -190 -136 t-254 -47q-291 0 -440 201q-66 86 -95.5 194.5t-29.5 274.5v295q0 435 -3.5 536.5t-21.5 110.5zM516 1821l57 94l246 -213l-31 -45z" />
<glyph unicode="&#xfa;" horiz-adv-x="1490" d="M137 1589v8h168v-8q-21 -9 -25 -110.5t-4 -536.5v-283q0 -140 23 -236.5t74 -168.5q55 -81 153 -125.5t205 -44.5q247 0 369 154q112 144 112 442v262q0 443 -3.5 540.5t-22.5 106.5v8h160v-8q-17 -9 -20 -110.5t-3 -536.5v-272q0 -336 -152 -510q-75 -89 -190 -136 t-254 -47q-291 0 -440 201q-66 86 -95.5 194.5t-29.5 274.5v295q0 435 -3.5 536.5t-21.5 110.5zM692 1702l248 213l57 -94l-272 -164z" />
<glyph unicode="&#xfb;" horiz-adv-x="1490" d="M137 1589v8h168v-8q-21 -9 -25 -110.5t-4 -536.5v-283q0 -140 23 -236.5t74 -168.5q55 -81 153 -125.5t205 -44.5q247 0 369 154q112 144 112 442v262q0 443 -3.5 540.5t-22.5 106.5v8h160v-8q-17 -9 -20 -110.5t-3 -536.5v-272q0 -336 -152 -510q-75 -89 -190 -136 t-254 -47q-291 0 -440 201q-66 86 -95.5 194.5t-29.5 274.5v295q0 435 -3.5 536.5t-21.5 110.5zM551 1712l213 193l205 -195l-37 -43l-170 117l-178 -117z" />
<glyph unicode="&#xfc;" horiz-adv-x="1490" d="M137 1589v8h168v-8q-21 -9 -25 -110.5t-4 -536.5v-283q0 -140 23 -236.5t74 -168.5q55 -81 153 -125.5t205 -44.5q247 0 369 154q112 144 112 442v262q0 443 -3.5 540.5t-22.5 106.5v8h160v-8q-17 -9 -20 -110.5t-3 -536.5v-272q0 -336 -152 -510q-75 -89 -190 -136 t-254 -47q-291 0 -440 201q-66 86 -95.5 194.5t-29.5 274.5v295q0 435 -3.5 536.5t-21.5 110.5zM537 1757v2q0 27 21 48.5t52 21.5q29 0 49.5 -22t20.5 -50q0 -30 -20.5 -53t-49.5 -23q-31 0 -52 23t-21 53zM825 1757v2q0 27 21.5 48.5t52.5 21.5q29 0 49.5 -22t20.5 -50 q0 -30 -20.5 -53t-49.5 -23q-31 0 -52.5 23t-21.5 53z" />
<glyph unicode="&#xfd;" horiz-adv-x="1142" d="M-8 1589v8h178v-8q-20 -9 19 -99t186 -374q32 -62 99.5 -193t94.5 -186h6q25 54 191 381q48 96 81.5 164t58.5 121.5t39 86.5t20.5 55t5.5 31.5t-8 12.5v8h170v-8q-10 -6 -36.5 -54t-107.5 -207q-125 -244 -227 -441l-137 -262v-35q0 -385 3.5 -479.5t22.5 -102.5v-8 h-170v10q19 7 23 104.5t4 473.5v33l-143 274q-98 186 -220 422q-94 180 -117.5 223t-35.5 49zM541 1692l245 213l58 -95l-273 -161z" />
<glyph unicode="&#xfe;" horiz-adv-x="987" d="M160 0v12q19 6 22.5 108t3.5 574v248q0 443 -3 540.5t-21 104.5v10h164v-10q-17 -7 -21 -69t-4 -252q66 3 135 0q72 -2 154 -23t139 -61q70 -49 122 -135.5t52 -206.5v-2q0 -82 -28 -160.5t-74 -132.5q-42 -48 -107 -89t-131 -59q-97 -26 -262 -26q0 -212 4.5 -282.5 t22.5 -76.5v-12h-168zM301 471q11 0 34 -1t34 -1q106 0 191.5 34t139.5 95q82 92 82 238v2q0 88 -38.5 157.5t-104.5 110.5q-93 59 -248 59q-44 0 -90 -4v-690z" />
<glyph unicode="&#xff;" horiz-adv-x="1142" d="M-8 1589v8h178v-8q-20 -9 19 -99t186 -374q32 -62 99.5 -193t94.5 -186h6q25 54 191 381q48 96 81.5 164t58.5 121.5t39 86.5t20.5 55t5.5 31.5t-8 12.5v8h170v-8q-10 -6 -36.5 -54t-107.5 -207q-125 -244 -227 -441l-137 -262v-35q0 -385 3.5 -479.5t22.5 -102.5v-8 h-170v10q19 7 23 104.5t4 473.5v33l-143 274q-98 186 -220 422q-94 180 -117.5 223t-35.5 49zM371 1757v2q0 27 21 48.5t52 21.5q29 0 49.5 -22t20.5 -50q0 -30 -20.5 -53t-49.5 -23q-31 0 -52 23t-21 53zM659 1757v2q0 27 21.5 48.5t52.5 21.5q29 0 49.5 -22t20.5 -50 q0 -30 -20.5 -53t-49.5 -23q-31 0 -52.5 23t-21.5 53z" />
<glyph unicode="&#x152;" horiz-adv-x="1968" d="M84 784v2q0 192 66.5 348.5t184 260t276 159.5t343.5 56q41 0 71.5 -1.5t72.5 -5.5t69 -6q12 -1 85.5 -1t167 0.5t104.5 0.5h325q0 -22 -1 -66.5t-1 -68.5h-10q-13 19 -43.5 25t-103.5 6h-406v-623h342q154 0 178 17h8v-139h-10q-11 11 -43.5 15.5t-128.5 4.5h-346v-643 q0 -13 4.5 -16t18.5 -3h370q164 0 187 29h12q-2 -27 -2 -135h-285q-401 0 -415 -2q-101 -14 -263 -14q-163 0 -311.5 54t-263.5 153.5t-183.5 253.5t-68.5 339zM213 782q0 -162 58 -294.5t158.5 -218t233 -131.5t283.5 -46q87 0 223 19v1376q-103 14 -215 14 q-160 0 -296 -49.5t-235 -140t-154.5 -226.5t-55.5 -301v-2z" />
<glyph unicode="&#x153;" horiz-adv-x="1968" d="M84 784v2q0 192 66.5 348.5t184 260t276 159.5t343.5 56q41 0 71.5 -1.5t72.5 -5.5t69 -6q12 -1 85.5 -1t167 0.5t104.5 0.5h325q0 -22 -1 -66.5t-1 -68.5h-10q-13 19 -43.5 25t-103.5 6h-406v-623h342q154 0 178 17h8v-139h-10q-11 11 -43.5 15.5t-128.5 4.5h-346v-643 q0 -13 4.5 -16t18.5 -3h370q164 0 187 29h12q-2 -27 -2 -135h-285q-401 0 -415 -2q-101 -14 -263 -14q-163 0 -311.5 54t-263.5 153.5t-183.5 253.5t-68.5 339zM213 782q0 -162 58 -294.5t158.5 -218t233 -131.5t283.5 -46q87 0 223 19v1376q-103 14 -215 14 q-160 0 -296 -49.5t-235 -140t-154.5 -226.5t-55.5 -301v-2z" />
<glyph unicode="&#x178;" horiz-adv-x="1142" d="M-8 1589v8h178v-8q-20 -9 19 -99t186 -374q32 -62 99.5 -193t94.5 -186h6q25 54 191 381q48 96 81.5 164t58.5 121.5t39 86.5t20.5 55t5.5 31.5t-8 12.5v8h170v-8q-10 -6 -36.5 -54t-107.5 -207q-125 -244 -227 -441l-137 -262v-35q0 -385 3.5 -479.5t22.5 -102.5v-8 h-170v10q19 7 23 104.5t4 473.5v33l-143 274q-98 186 -220 422q-94 180 -117.5 223t-35.5 49zM371 1757v2q0 27 21 48.5t52 21.5q29 0 49.5 -22t20.5 -50q0 -30 -20.5 -53t-49.5 -23q-31 0 -52 23t-21 53zM659 1757v2q0 27 21.5 48.5t52.5 21.5q29 0 49.5 -22t20.5 -50 q0 -30 -20.5 -53t-49.5 -23q-31 0 -52.5 23t-21.5 53z" />
<glyph unicode="&#x2c6;" horiz-adv-x="808" d="M190 1712l213 193l205 -195l-37 -43l-170 117l-178 -117z" />
<glyph unicode="&#x2dc;" horiz-adv-x="808" d="M184 1700q31 143 135 143q49 0 105 -43q50 -31 80 -31q54 0 76 64l49 -8q-7 -54 -43 -98t-88 -44q-48 0 -97 33q-56 39 -92 39q-50 0 -73 -61z" />
<glyph unicode="&#x2000;" horiz-adv-x="973" />
<glyph unicode="&#x2001;" horiz-adv-x="1946" />
<glyph unicode="&#x2002;" horiz-adv-x="973" />
<glyph unicode="&#x2003;" horiz-adv-x="1946" />
<glyph unicode="&#x2004;" horiz-adv-x="648" />
<glyph unicode="&#x2005;" horiz-adv-x="486" />
<glyph unicode="&#x2006;" horiz-adv-x="324" />
<glyph unicode="&#x2007;" horiz-adv-x="324" />
<glyph unicode="&#x2008;" horiz-adv-x="243" />
<glyph unicode="&#x2009;" horiz-adv-x="389" />
<glyph unicode="&#x200a;" horiz-adv-x="108" />
<glyph unicode="&#x2010;" horiz-adv-x="569" d="M63 725v102h443v-102h-443z" />
<glyph unicode="&#x2011;" horiz-adv-x="569" d="M63 725v102h443v-102h-443z" />
<glyph unicode="&#x2012;" horiz-adv-x="569" d="M63 725v102h443v-102h-443z" />
<glyph unicode="&#x2013;" horiz-adv-x="1024" d="M61 725v102h902v-102h-902z" />
<glyph unicode="&#x2014;" horiz-adv-x="2048" d="M61 725v102h1926v-102h-1926z" />
<glyph unicode="&#x2018;" horiz-adv-x="350" d="M76 1325q0 88 69 186q49 70 103 99l24 -27q-19 -16 -49 -61q-39 -62 -39 -111q0 -20 21 -22q24 -3 44.5 -28t20.5 -56q0 -45 -28 -75t-66 -30h-2q-44 0 -71 34t-27 91z" />
<glyph unicode="&#x2019;" horiz-adv-x="350" d="M76 1223q19 16 49 61q39 62 39 111q0 20 -21 22q-24 3 -44.5 28t-20.5 56q0 45 28 75t66 30h2q44 0 71 -34t27 -91q0 -89 -69 -187q-48 -68 -103 -98z" />
<glyph unicode="&#x201a;" horiz-adv-x="350" d="M76 -207q17 14 49 62q39 62 39 110q0 21 -21 23q-24 3 -44.5 28t-20.5 56q0 45 28 74.5t66 29.5h2q44 0 71 -34t27 -91q0 -88 -69 -186q-48 -68 -103 -98z" />
<glyph unicode="&#x201c;" horiz-adv-x="645" d="M76 1325q0 88 69 186q49 70 103 99l24 -27q-19 -16 -49 -61q-39 -62 -39 -111q0 -20 21 -22q24 -3 44.5 -28t20.5 -56q0 -45 -28 -75t-66 -30h-2q-44 0 -71 34t-27 91zM373 1325q0 88 69 186q49 70 103 99l24 -27q-19 -16 -49 -61q-39 -62 -39 -111q0 -20 21 -22 q24 -3 44.5 -28t20.5 -56q0 -45 -28 -75t-66 -30h-2q-44 0 -71 34t-27 91z" />
<glyph unicode="&#x201d;" horiz-adv-x="645" d="M76 1223q19 16 49 61q39 62 39 111q0 20 -21 22q-24 3 -44.5 28t-20.5 56q0 45 28 75t66 30h2q44 0 71 -34t27 -91q0 -89 -69 -187q-48 -68 -103 -98zM373 1223q19 16 49 61q39 62 39 111q0 20 -21 22q-24 3 -44.5 28t-20.5 56q0 45 28 75t66 30h2q44 0 71 -34t27 -91 q0 -89 -69 -187q-48 -68 -103 -98z" />
<glyph unicode="&#x201e;" horiz-adv-x="645" d="M76 -207q17 14 49 62q39 62 39 110q0 21 -21 23q-24 3 -44.5 28t-20.5 56q0 45 28 74.5t66 29.5h2q44 0 71 -34t27 -91q0 -88 -69 -186q-48 -68 -103 -98zM373 -207q17 14 49 62q39 62 39 110q0 21 -21 23q-24 3 -44.5 28t-20.5 56q0 45 28 74.5t66 29.5h2q44 0 71 -34 t27 -91q0 -88 -69 -186q-48 -68 -103 -98z" />
<glyph unicode="&#x2022;" horiz-adv-x="479" d="M82 801q0 66 46.5 113t111.5 47h2q66 0 110.5 -47t44.5 -113q0 -65 -45 -111.5t-112 -46.5q-64 0 -111 46.5t-47 111.5z" />
<glyph unicode="&#x2026;" horiz-adv-x="2048" d="M244 76q0 41 29 70.5t69 29.5h2q41 0 68.5 -29t27.5 -71q0 -41 -28 -70t-70 -29q-40 0 -69 29.5t-29 69.5zM926 76q0 41 29 70.5t69 29.5h2q41 0 68.5 -29t27.5 -71q0 -41 -28 -70t-70 -29q-40 0 -69 29.5t-29 69.5zM1608 76q0 41 29 70.5t69 29.5h2q41 0 68.5 -29 t27.5 -71q0 -41 -28 -70t-70 -29q-40 0 -69 29.5t-29 69.5z" />
<glyph unicode="&#x202f;" horiz-adv-x="389" />
<glyph unicode="&#x2039;" horiz-adv-x="552" d="M78 793q258 295 319 366l47 -37q-168 -262 -208 -321q49 -77 210 -338l-49 -35q-167 197 -319 365z" />
<glyph unicode="&#x203a;" horiz-adv-x="552" d="M106 467q21 33 96 148t111 173q-35 59 -107 175t-100 161l48 37q60 -72 168.5 -201t140.5 -167q-43 -52 -148 -174.5t-161 -190.5z" />
<glyph unicode="&#x205f;" horiz-adv-x="486" />
<glyph unicode="&#x20ac;" horiz-adv-x="1114" d="M-31 649q0 3 2 9.5t5 17t4 16.5q6 28 10 39h129q-2 25 -2 74q0 51 2 76h-113q10 48 21 82h98q17 125 61.5 231t109.5 182.5t147 130.5t175.5 80.5t194.5 26.5q84 0 140.5 -8.5t127.5 -28.5q-1 -21 -1.5 -51.5t-1 -53t-1.5 -34.5h-8q-74 69 -250 69q-233 0 -386 -145 t-191 -399h659q-4 -9 -6.5 -20t-4 -19.5t-4 -20.5t-5.5 -22h-650q-2 -27 -2 -80q0 -47 2 -70h633q-5 -12 -8 -25t-6 -29t-6 -28h-602q25 -162 102 -288t197 -197.5t264 -71.5q95 0 156 16t94 60h10q1 -27 1 -71t1 -64q-146 -47 -274 -47q-121 0 -231.5 43.5t-201 125 t-153 209t-82.5 285.5h-156z" />
<glyph unicode="&#x2122;" horiz-adv-x="927" d="M27 1538v59h338v-59h-7q-8 10 -34 10h-95v-215q0 -161 7 -172v-6h-80v6q8 8 8 172v215h-94q-31 0 -35 -10h-8zM362 1155v6q4 2 7.5 13.5t8.5 49.5t13 115l31 265h14q161 -287 180 -338h5q47 109 172 338h14l35 -265q22 -168 30 -176v-8h-73v8q4 7 -2 60.5t-15.5 124.5 t-11.5 94h-4q-18 -45 -33 -72q-87 -166 -110 -205h-15q-46 80 -112 209q-2 5 -14 28t-19 40h-4q-1 -20 -10.5 -97t-13 -118t0.5 -66v-6h-74z" />
<glyph unicode="&#xe000;" horiz-adv-x="1597" d="M0 0v1597h1597v-1597h-1597z" />
<glyph unicode="&#xfb01;" horiz-adv-x="1538" d="M162 0v12q18 13 21 112.5t3 569.5v248q0 438 -3 530.5t-19 106.5v18h702q0 -41 -1 -83.5t-1 -51.5h-14q-7 19 -49 25t-139 6h-361v-639h348q97 0 126.5 2.5t39.5 13.5h12v-139h-12q-10 13 -39 16t-121 3h-354v-56q0 -460 3.5 -562t23.5 -120v-12h-166zM1118 0v10 q18 7 21.5 113.5t3.5 570.5v248q0 435 -3.5 536t-21.5 107v12h164v-10q-18 -7 -21.5 -108.5t-3.5 -536.5v-248q0 -464 3.5 -570.5t23.5 -115.5v-8h-166z" />
<glyph unicode="&#xfb02;" horiz-adv-x="1972" d="M162 0v12q18 13 21 112.5t3 569.5v248q0 438 -3 530.5t-19 106.5v18h702q0 -41 -1 -83.5t-1 -51.5h-14q-7 19 -49 25t-139 6h-361v-639h348q97 0 126.5 2.5t39.5 13.5h12v-139h-12q-10 13 -39 16t-121 3h-354v-56q0 -460 3.5 -562t23.5 -120v-12h-166zM1116 0v14 q20 13 23.5 117.5t3.5 562.5v248q0 431 -3.5 528t-21.5 115v12h164v-12q-18 -18 -21.5 -115t-3.5 -528v-817q0 -19 15 -19h424q128 0 143 31h10q0 -5 -1 -44t-1 -93h-731z" />
</font>
</defs>
</svg>
