<?xml version="1.0" standalone="no"?>
<!DOCTYPE svg PUBLIC "-//W3C//DTD SVG 1.1//EN" "http://www.w3.org/Graphics/SVG/1.1/DTD/svg11.dtd" >
<svg xmlns="http://www.w3.org/2000/svg">
<metadata></metadata>
<defs>
<font id="PenumbraHalfSerifStdBoldRg" horiz-adv-x="1886" >
<font-face units-per-em="2048" ascent="1604" descent="-444" />
<missing-glyph horiz-adv-x="600" />
<glyph horiz-adv-x="0" />
<glyph horiz-adv-x="2048" />
<glyph unicode=" "  horiz-adv-x="600" />
<glyph unicode="&#x09;" horiz-adv-x="600" />
<glyph unicode="&#xa0;" horiz-adv-x="600" />
<glyph unicode="!" horiz-adv-x="667" d="M150 1597h368q-25 -415 -51 -1089h-266q-38 793 -51 1089zM160 150q0 72 53 123t127 51h2q73 0 124.5 -51t51.5 -123t-51.5 -121t-126.5 -49q-74 0 -127 49.5t-53 120.5z" />
<glyph unicode="&#x22;" horiz-adv-x="903" d="M76 1575l323 35l-80 -551l-141 -33zM504 1575l323 35l-79 -551l-142 -33z" />
<glyph unicode="#" horiz-adv-x="1327" d="M88 492l43 186h260l74 256h-221l37 188h247l95 303h129l-99 -303h246l94 303h123l-92 -303h215l-43 -188h-233l-78 -256h202l-43 -186h-223l-106 -351h-121l104 351h-243l-111 -351h-127l109 351h-238zM516 678h246l78 256h-246z" />
<glyph unicode="$" horiz-adv-x="1050" d="M100 125q2 48 8 192.5t7 174.5h35q26 -70 90 -105t155 -35q72 0 122 31.5t50 95.5q0 49 -28.5 85.5t-85.5 78.5l-40 28t-45.5 32.5t-39 29t-40.5 32.5t-30 28q-68 67 -99.5 132.5t-31.5 159.5q0 174 112 288t283 138q3 31 13.5 124.5t11.5 105.5v8h194v-6 q-1 -10 -16 -105.5t-18 -117.5q124 -13 190 -37q-12 -180 -12 -367h-35q-10 59 -59 86q-60 33 -134 33q-73 0 -118 -36t-45 -97q0 -71 102 -144q130 -99 203 -165q71 -59 106 -140t35 -159v-2q0 -168 -109.5 -282t-306.5 -138q-15 -170 -24 -230v-4h-197v6q3 17 18 108.5 t19 115.5q-134 12 -240 57z" />
<glyph unicode="%" horiz-adv-x="1712" d="M66 1231q0 155 110.5 261.5t278.5 106.5h2q171 0 279 -103.5t108 -264.5q0 -154 -109.5 -266.5t-273.5 -112.5q-169 0 -282 111t-113 268zM217 -37q196 299 535 842t505 821h238q-217 -337 -549.5 -866.5t-490.5 -796.5h-238zM301 1233q0 -82 41 -142.5t121 -60.5h2 q68 0 106.5 61t38.5 138q0 91 -43.5 146t-107.5 55q-71 0 -114.5 -56t-43.5 -141zM872 367q0 153 111.5 261.5t280.5 108.5h2q168 0 274.5 -106t106.5 -264q0 -156 -104.5 -267.5t-276.5 -111.5q-85 0 -159.5 31t-125.5 83t-80 121t-29 144zM1108 367q0 -87 42.5 -146 t117.5 -59h2q67 0 107 60.5t40 144.5q0 87 -41 140.5t-110 53.5q-73 0 -115.5 -54.5t-42.5 -139.5z" />
<glyph unicode="&#x26;" horiz-adv-x="1581" d="M68 424q0 138 84 250t217 188v2q-61 82 -97 166t-36 187q0 170 130.5 285.5t319.5 115.5t309.5 -104t120.5 -273q0 -158 -135 -293q-32 -32 -86.5 -74t-93.5 -63v-2q85 -110 231 -264l4 2q87 113 115 258q37 0 99.5 -1t74.5 -1q33 0 111.5 1t101.5 1v-33 q-35 -17 -58 -52.5t-53 -101.5q-75 -163 -184 -288q141 -141 199 -193q95 -88 145 -100v-39q-17 0 -103.5 2t-117.5 2q-30 0 -95 -2t-93 -2q-12 0 -22 4t-14.5 7.5t-15.5 13.5q-71 66 -98 96h-6q-183 -144 -432 -144h-2q-228 0 -374 122.5t-146 326.5zM420 442 q0 -40 14.5 -73.5t40 -55.5t61 -34.5t76.5 -12.5h2q117 0 199 60q-151 147 -274 305q-119 -79 -119 -189zM567 1219q0 -33 12 -70.5t23 -57.5t33 -57h4q63 47 92 78q57 53 57 117q0 49 -30.5 78.5t-77.5 29.5h-2q-44 0 -77.5 -32.5t-33.5 -85.5z" />
<glyph unicode="'" horiz-adv-x="475" d="M76 1575l323 35l-80 -551l-141 -33z" />
<glyph unicode="(" horiz-adv-x="755" d="M147 774q0 291 117 567q43 106 117.5 217t150.5 181h193q-283 -446 -283 -965q0 -282 76 -528q31 -104 87.5 -225.5t115.5 -217.5h-191q-76 73 -151.5 186t-118.5 218q-59 137 -86 270t-27 297z" />
<glyph unicode=")" horiz-adv-x="755" d="M31 1739h196q76 -74 145.5 -179.5t116.5 -213.5q119 -278 119 -562q0 -160 -24 -292.5t-80 -266.5q-49 -116 -123 -229t-152 -193h-196q60 97 120 228t89 233q69 245 69 522q0 500 -280 953z" />
<glyph unicode="*" horiz-adv-x="798" d="M53 1374l94 160q57 -38 187 -150l4 2q-25 172 -31 240h189q-8 -75 -37 -240l4 -2q128 108 190 150l95 -160q-55 -29 -222 -90v-4q18 -7 68.5 -25.5t85 -32t68.5 -30.5l-95 -160q-87 57 -188 144l-2 -2q3 -20 16.5 -101.5t16.5 -128.5h-191q8 78 33 232l-2 2 q-93 -75 -189 -146l-92 158q74 35 215 90v4q-115 42 -217 90z" />
<glyph unicode="+" horiz-adv-x="1142" d="M61 616v234h392v383h237v-383h391v-234h-391v-421h-237v421h-392z" />
<glyph unicode="," horiz-adv-x="559" d="M106 143q0 76 53.5 126t121.5 50h2q69 0 120.5 -51t51.5 -153q0 -67 -25.5 -137t-64.5 -123q-83 -115 -195 -179l-49 52q47 50 84 116t37 121q0 10 -23 19q-49 14 -81 56t-32 103z" />
<glyph unicode="-" horiz-adv-x="753" d="M59 643q2 18 2 127q0 113 -2 129h635v-256h-635z" />
<glyph unicode="." horiz-adv-x="559" d="M100 150q0 72 53.5 123t127.5 51h2q73 0 124.5 -51t51.5 -123t-51.5 -121t-126.5 -49q-74 0 -127.5 49.5t-53.5 120.5z" />
<glyph unicode="/" horiz-adv-x="1048" d="M-20 -41q315 593 461 874.5t401 792.5h219q-287 -542 -433.5 -826.5t-426.5 -840.5h-221z" />
<glyph unicode="0" horiz-adv-x="1460" d="M84 803q0 232 79.5 416.5t230 291.5t345.5 107h2q184 0 330.5 -107.5t226.5 -291.5t80 -408q0 -136 -28 -260.5t-82.5 -228t-131 -180t-179 -119.5t-220.5 -43q-152 0 -277.5 67t-206.5 180.5t-125 262t-44 313.5zM479 803q0 -66 6 -129t23 -132.5t44.5 -120.5 t74.5 -84.5t108 -33.5h2q57 0 101.5 33t71 84.5t44 121t23.5 135t6 134.5q0 65 -7 129t-25.5 130.5t-46 116.5t-72 81.5t-99.5 31.5q-70 0 -122 -45t-79.5 -121t-40 -158t-12.5 -173z" />
<glyph unicode="1" horiz-adv-x="989" d="M-2 1325q197 72 575 272h154q-6 -147 -6 -540v-361q0 -406 11 -501q11 -108 51 -136q24 -16 69 -20v-41q-92 2 -315 2q-254 0 -344 -2v39q71 6 98 41q36 47 44 214q5 99 5 404v430q0 99 -6 118t-33 16q-38 -5 -258 -70z" />
<glyph unicode="2" horiz-adv-x="1275" d="M70 0v219q183 159 323 307q121 130 213 265q103 150 103 286q0 101 -67.5 160t-172.5 59q-148 0 -246 -73q-62 -51 -80 -97h-32q0 238 -9 408q209 92 461 92h2q131 0 237 -38t173 -103.5t103 -150t36 -179.5q0 -92 -20 -176.5t-60 -162t-82.5 -140t-103.5 -137.5 q-43 -53 -106.5 -117t-116.5 -109h315q148 0 205 84h41q-8 -288 -8 -399q-156 2 -549 2h-559z" />
<glyph unicode="3" horiz-adv-x="1173" d="M59 78q6 113 15 397h32q21 -56 76 -104q103 -72 254 -72q112 0 185 47t73 141q0 76 -65 120t-158 55q-81 8 -205 8v274q222 0 316 60q32 19 51.5 53.5t19.5 75.5q0 86 -63.5 129t-161.5 43q-218 0 -289 -152h-33q0 181 -4 393q168 76 381 76q225 0 365 -88 q196 -129 196 -344q0 -87 -36.5 -160t-96.5 -121q-86 -65 -168 -86v-4q101 -20 168 -59q86 -49 136.5 -135t50.5 -183q0 -107 -44 -195t-120 -145q-159 -122 -434 -122q-238 0 -441 98z" />
<glyph unicode="4" horiz-adv-x="1396" d="M23 305v225q289 418 778 1067h299q-3 -149 -4 -404t0 -435v-180h247v-273h-241q0 -164 14 -212.5t82 -55.5v-39q-68 2 -285 2q-233 0 -303 -2v39q70 23 85 36q26 22 30 89q2 32 2 143h-704zM418 578h315q0 332 6 471h-4q-51 -76 -171.5 -253.5t-145.5 -213.5v-4z" />
<glyph unicode="5" horiz-adv-x="1224" d="M59 55q19 141 43 391h35q25 -77 105.5 -112t189.5 -35q76 0 140.5 23t107.5 74.5t43 123.5t-39.5 122t-103.5 77q-93 37 -258 37q-102 0 -191 -13q94 818 98 854h224q365 0 653 5q-3 -82 -19 -412h-34q-18 49 -60 68.5t-139 19.5h-324l-30 -231q205 0 352 -70 q122 -58 198 -165t76 -265v-2q0 -119 -55 -229.5t-135 -178.5q-99 -81 -225 -117t-293 -36q-74 0 -180.5 20.5t-178.5 50.5z" />
<glyph unicode="6" horiz-adv-x="1341" d="M82 547q0 148 59 299q56 145 178 325q154 230 332 426h428q-179 -187 -352 -407q-97 -130 -135 -186l2 -5q55 35 176 35q221 0 355.5 -135.5t134.5 -347.5v-2q0 -126 -46 -231t-124 -177q-81 -74 -193 -117.5t-231 -43.5q-259 0 -421.5 153.5t-162.5 413.5zM457 547 q0 -120 62 -182t159 -62h2q86 0 148.5 66.5t62.5 175.5q0 99 -71 166.5t-183 52.5q-68 -9 -115 -53q-30 -28 -47.5 -74t-17.5 -90z" />
<glyph unicode="7" horiz-adv-x="1259" d="M74 1599q123 -2 553 -2h575v-127q-516 -1131 -663 -1470h-394q370 761 611 1274h-414q-95 0 -149.5 -21t-75.5 -75h-37q0 252 -6 421z" />
<glyph unicode="8" horiz-adv-x="1302" d="M90 426q3 143 82 243.5t197 145.5q-105 39 -174.5 131.5t-69.5 218.5q0 89 37.5 170.5t105 144.5t171 100.5t227.5 37.5q115 0 212 -34.5t161 -93t99.5 -135t35.5 -161.5q0 -126 -70.5 -222t-179.5 -138q127 -35 206.5 -138t81.5 -231q0 -215 -157 -343t-414 -130h-2 q-151 0 -273.5 48t-199 148t-76.5 238zM463 463q0 -71 51 -123.5t135 -52.5q80 0 129 53t49 131q0 83 -52.5 133.5t-127.5 50.5h-2q-75 0 -128.5 -51.5t-53.5 -140.5zM481 1147q0 -82 50.5 -125t117.5 -43q66 0 115 44.5t49 131.5q0 68 -45 119t-119 51h-2 q-79 0 -122.5 -51.5t-43.5 -126.5z" />
<glyph unicode="9" horiz-adv-x="1341" d="M82 1057q0 232 164 393q86 83 199.5 125.5t232.5 42.5q169 0 299 -65.5t206.5 -197.5t76.5 -313v-2q0 -158 -80 -335q-70 -158 -248 -404q-99 -135 -244 -301h-430q205 214 358 412q87 115 132 182l-3 4q-61 -35 -170 -35q-217 0 -355 134.5t-138 359.5zM449 1059 q0 -97 60.5 -162.5t156.5 -65.5t161 68q56 60 56 166q0 97 -58 162t-161 65h-2q-95 0 -154 -69.5t-59 -163.5z" />
<glyph unicode=":" horiz-adv-x="559" d="M100 150q0 72 53.5 123t127.5 51h2q73 0 124.5 -51t51.5 -123t-51.5 -121t-126.5 -49q-74 0 -127.5 49.5t-53.5 120.5zM100 750q0 70 53.5 121t127.5 51h2q73 0 124.5 -50.5t51.5 -121.5q0 -73 -51.5 -121.5t-126.5 -48.5t-128 49t-53 121z" />
<glyph unicode=";" horiz-adv-x="559" d="M104 748q0 72 53.5 123t127.5 51h2q73 0 124.5 -51t51.5 -123q0 -73 -51.5 -121.5t-126.5 -48.5t-128 49t-53 121zM106 145q0 78 53.5 127.5t121.5 49.5h2q69 0 121.5 -51.5t52.5 -153.5q0 -65 -25.5 -134.5t-64.5 -125.5q-85 -113 -195 -176l-51 51q47 50 84 116t37 121 q0 10 -23 19q-49 14 -81 56t-32 101z" />
<glyph unicode="&#x3c;" horiz-adv-x="1142" d="M92 614v215l959 408v-229l-719 -283v-6l721 -285v-229z" />
<glyph unicode="=" horiz-adv-x="1142" d="M61 412v233h1020v-233h-1020zM61 821v234h1020v-234h-1020z" />
<glyph unicode="&#x3e;" horiz-adv-x="1142" d="M92 205v229l721 285v4l-719 285v229l959 -408v-215z" />
<glyph unicode="?" horiz-adv-x="1030" d="M96 1552q60 30 152 52q101 22 213 22h2q173 0 293 -70q190 -116 190 -352q0 -88 -31.5 -166t-77 -134t-116.5 -120q-55 -51 -87 -91t-52 -95.5t-19 -122.5h-299q0 139 34.5 220.5t123.5 181.5q36 41 52.5 60.5t43.5 57.5t39 72t12 68q0 81 -62 128.5t-151 47.5 q-106 0 -170 -56q-35 -41 -49 -92h-31q0 124 -10 389zM227 154q0 72 55.5 124t131.5 52h2q73 0 124.5 -52t51.5 -124q0 -75 -51.5 -124.5t-126.5 -49.5q-77 0 -132 50t-55 124z" />
<glyph unicode="@" horiz-adv-x="1865" d="M82 557q0 171 67 323.5t184.5 263.5t287 175.5t366.5 64.5q168 0 311.5 -50t241.5 -136.5t153.5 -205.5t55.5 -255q0 -112 -42 -208.5t-109.5 -158.5t-151.5 -97t-170 -35q-83 0 -143.5 40.5t-73.5 114.5h-4q-110 -155 -293 -155q-121 0 -202 78t-81 214q0 96 40 186 t110.5 158.5t174.5 110t224 41.5q79 0 169 -16.5t130 -38.5l-63 -400q-13 -82 -1 -123t54 -42q37 -1 77.5 19.5t76 58t58.5 99t23 134.5q0 103 -42 195.5t-117.5 161t-186.5 109t-241 40.5q-91 0 -186 -28t-183.5 -84t-158 -131.5t-111 -178.5t-41.5 -217q0 -252 170 -404.5 t456 -152.5q87 0 176.5 17t153.5 46l39 -151q-102 -43 -187.5 -58.5t-213.5 -15.5q-120 0 -225 22t-184.5 60.5t-145 91.5t-110 114t-75 130t-44 137t-13.5 137zM727 578q0 -68 31 -106t90 -38q62 0 121.5 66.5t77.5 165.5l26 147q-69 6 -74 6q-118 0 -195 -73.5t-77 -167.5 z" />
<glyph unicode="A" horiz-adv-x="1546" d="M-18 -2v37q48 4 103 108t253 555l405 926h62l399 -926q192 -443 248.5 -551t103.5 -112v-37q-57 2 -264 2t-311 -2v37q28 2 39.5 15.5t6 45t-15 59.5t-32.5 85h-455q-15 -36 -23.5 -58t-16.5 -48t-8.5 -41t3 -29t15 -21t30.5 -8v-37q-88 2 -280 2q-211 0 -262 -2z M631 530h246l-3 7q-102 277 -116 340h-4q-6 -28 -123 -340v-7z" />
<glyph unicode="B" horiz-adv-x="1347" d="M119 2v35q64 3 76 105.5t12 553.5v246q0 422 -11 517t-69 102v34q79 0 231 4.5t244 4.5q177 0 295 -37q51 -15 99 -44t93 -74.5t72 -116.5t27 -156q0 -121 -71.5 -215.5t-178.5 -122.5v-4q128 -24 220.5 -129t92.5 -248v-2q0 -116 -54.5 -208.5t-141.5 -148.5 q-81 -53 -197.5 -78.5t-306.5 -25.5q-46 0 -131 3t-107 3t-87 1t-107 1zM561 358q0 -34 17 -41q20 -4 75 -4q78 0 131 35q80 49 80 144v2q0 63 -35.5 104.5t-85.5 56.5q-49 17 -106 17q-30 0 -76 -4v-310zM561 967q27 -2 60 -2q83 0 139.5 42t56.5 126v2q0 74 -48 119.5 t-130 45.5q-24 0 -78 -6v-327z" />
<glyph unicode="C" horiz-adv-x="1486" d="M82 797v2q0 181 69 333t193.5 259t304 167t393.5 60q154 0 310 -29q-7 -147 -15 -434h-32q-27 76 -95 104.5t-186 28.5q-227 0 -376.5 -133t-149.5 -350q0 -226 136 -361t359 -135q124 0 203 28.5t115 102.5h32q0 -142 11 -417q-75 -21 -179 -34.5t-200 -13.5 q-191 0 -355.5 58t-283.5 163.5t-186.5 260t-67.5 340.5z" />
<glyph unicode="D" horiz-adv-x="1646" d="M111 4v33q47 6 65 41q25 51 29 261q2 89 2 357v246q0 420 -12.5 511.5t-79.5 98.5v39q434 17 567 17q332 0 539 -115q175 -99 260.5 -275.5t85.5 -383.5v-3q0 -438 -332 -679q-217 -158 -619 -158q-30 0 -276 6q-111 0 -229 4zM588 373q0 -32 18 -37q33 -8 90 -8 q211 0 338 134t127 351v2q0 116 -42 216t-115 159q-117 90 -302 90q-48 0 -114 -8v-899z" />
<glyph unicode="E" horiz-adv-x="1251" d="M119 -2v35q64 6 76 107.5t12 555.5v246q0 424 -11.5 521.5t-72.5 101.5v34q17 0 181.5 -1t287.5 -1q95 0 270 1t242 1q0 -17 -3.5 -156t-4.5 -247h-35q-9 54 -67 76t-169 22h-237v-333h200q111 0 149 8.5t48 38.5h35q-4 -144 -4 -193q0 -53 4 -213h-33q-11 32 -50.5 43.5 t-143.5 11.5h-205v-278q0 -35 7 -47.5t34 -18.5h284q81 3 125 22t54 64h34q-8 -260 -8 -401q-154 2 -469 2q-464 0 -530 -2z" />
<glyph unicode="F" horiz-adv-x="1220" d="M119 -2v39q64 7 76 107t12 552v246q0 421 -11.5 515.5t-72.5 103.5v38q8 0 175 -1t292 -1q94 0 270 1t244 1q0 -17 -3.5 -156t-4.5 -247h-39q-10 55 -67 76.5t-167 21.5h-235v-387h198q108 0 145 8.5t52 40.5h37q-4 -144 -4 -190q0 -55 4 -215h-37q-14 32 -51 42.5 t-141 10.5h-203v-155q0 -267 12.5 -337.5t75.5 -76.5v-37q-47 2 -275 2q-219 0 -282 -2z" />
<glyph unicode="G" horiz-adv-x="1611" d="M82 795v2q0 242 120.5 429t341.5 290.5t509 103.5q194 0 366 -35q-10 -206 -14 -434h-35q-20 70 -100 102q-90 41 -234 41q-235 0 -385.5 -133.5t-150.5 -349.5q0 -114 37 -209t100.5 -158t148 -98t179.5 -35q45 0 92 6q0 27 1 81t1 71q0 135 -16.5 201t-69.5 73v37 q180 -4 274 -4q122 0 258 4v-35q-52 -6 -62.5 -60.5t-10.5 -244.5v-168q0 -188 4 -237q-182 -60 -457 -60q-257 0 -459 97t-320 285t-118 438z" />
<glyph unicode="H" horiz-adv-x="1777" d="M111 -2v35q70 6 83 107.5t13 555.5v246q0 424 -13 521.5t-79 101.5v34q16 0 118.5 -1t167.5 -1q66 0 163 1t112 1v-34q-63 -4 -75.5 -90t-12.5 -437v-71h604v73q0 350 -12 435.5t-74 89.5v34q17 0 120 -1t165 -1q59 0 154 1t110 1v-34q-59 -4 -70.5 -101.5t-11.5 -521.5 v-246q0 -431 10 -526q11 -102 47 -125q16 -10 43 -12v-35q-53 2 -280 2q-240 0 -299 -2v35q70 6 84 90t14 430v96h-604v-96q0 -346 14 -430t84 -90v-35q-59 2 -293 2q-231 0 -282 -2z" />
<glyph unicode="I" horiz-adv-x="794" d="M111 -2v37q47 8 64 43q26 51 30 258q2 89 2 358v248q0 421 -12.5 516t-79.5 105v36q14 0 113 -1t169 -1q58 0 155 1t126 1v-34q-64 -12 -77 -108t-13 -513v-246q0 -452 13.5 -552t84.5 -113v-35q-74 2 -287 2q-239 0 -288 -2z" />
<glyph unicode="J" horiz-adv-x="1136" d="M49 29v422h33q49 -150 237 -150q93 0 152 45q56 36 82 115q27 83 27 264v217q0 421 -13.5 519t-83.5 104v34q38 0 133 -1t144 -1q54 0 148 1t128 1v-34q-58 -6 -69 -103t-11 -520v-217q0 -180 -12.5 -279.5t-52.5 -185.5q-24 -56 -70 -109.5t-96 -87.5 q-74 -53 -159.5 -72.5t-194.5 -19.5q-100 0 -197 23q-69 11 -125 35z" />
<glyph unicode="K" horiz-adv-x="1617" d="M111 -2v37q70 10 83 109.5t13 551.5v246q0 421 -12.5 516t-79.5 105v36q20 0 115 -1t165 -1q55 0 151 1t128 1v-34q-61 -9 -73.5 -91.5t-12.5 -410.5v-111h6l199 250q208 249 228 317q3 9 3 17q0 25 -31 29v34q45 0 144 -1t147 -1q51 0 153 1t142 1v-34q-12 -1 -22.5 -5 t-23.5 -13t-25 -18.5t-31 -29t-36 -38t-46 -51t-54.5 -62t-68 -77.5t-80.5 -91l-281 -320l377 -454q192 -232 256 -298t113 -73v-37q-82 2 -303 2q-203 0 -316 -2v35q26 3 26 24q0 18 -18 48q-40 66 -194 268l-260 338l-4 -2v-154q0 -343 14 -427.5t82 -94.5v-35 q-80 2 -281 2q-249 0 -292 -2z" />
<glyph unicode="L" horiz-adv-x="1173" d="M113 1563v36q13 0 115.5 -1t172.5 -1q66 0 163 1t112 1v-36q-64 -9 -77 -106t-13 -515v-588q0 -24 8.5 -32.5t34.5 -8.5h276q75 0 121 27q20 8 36.5 25t20.5 38h37q-7 -198 -10 -405q-125 2 -467 2q-465 0 -524 -2v39q64 7 76 101.5t12 520.5v12.5v11.5v13v246 q0 422 -13 518t-81 103z" />
<glyph unicode="M" horiz-adv-x="1974" d="M10 -2v37q30 2 47.5 21t38.5 97.5t39.5 192t52.5 350.5l134 914h55q319 -503 432.5 -690.5t169.5 -296.5h4q49 100 161 281t451 706h56l131 -914q63 -447 89 -553t79 -110v-35q-51 2 -262 2q-221 0 -287 -2v35q59 4 64 80q1 11 1 24q0 77 -25 226q-1 5 -1 8 q-27 184 -35 334h-2q-63 -135 -154 -285q-66 -114 -256 -397h-55q-170 252 -262 407q-83 137 -150 277h-2q-6 -127 -32 -338q-20 -173 -20 -236q0 -11 1 -18q6 -68 51 -80q7 -1 15 -2v-35q-63 2 -283 2q-199 0 -246 -2z" />
<glyph unicode="N" horiz-adv-x="1755" d="M100 -2v35q67 6 80 108.5t13 554.5v914h57q488 -423 661 -586q138 -127 303 -303h7q-4 196 -4 242q0 406 -14 502t-83 100v34q36 0 133 -1t140 -1q65 0 150 1t102 1v-34q-61 -4 -72.5 -101.5t-11.5 -521.5v-962h-56q-493 420 -661 573q-150 133 -305 299h-7 q5 -103 5 -180q0 -435 12.5 -533t77.5 -104v-37q-72 2 -273 2q-203 0 -254 -2z" />
<glyph unicode="O" d="M84 786q0 241 116 433t316 297.5t445 105.5q237 0 428.5 -102t302 -288t110.5 -421v-2q0 -178 -66.5 -334t-181 -267t-274.5 -175t-342 -64q-235 0 -431 107t-309.5 294.5t-113.5 415.5zM492 793q0 -134 55.5 -244t160 -175t238.5 -65q133 0 237 65.5t159 175.5t55 243v2 q0 131 -56.5 243t-159 179t-229.5 67q-138 0 -244 -66t-161 -177t-55 -248z" />
<glyph unicode="P" horiz-adv-x="1341" d="M123 -2v35q61 9 72.5 104t11.5 520v39v246q0 416 -12 511.5t-72 107.5v34q252 7 276 7q195 0 265 -3q222 -10 356 -92q110 -65 175 -177.5t65 -264.5q0 -153 -64.5 -268t-171.5 -185q-90 -61 -215 -88q-92 -18 -242 -22v-68q0 -251 14.5 -322.5t77.5 -78.5v-35 q-86 2 -278 2q-201 0 -258 -2zM567 811q57 0 80 4q53 4 96 21.5t74.5 47t48.5 73.5t17 100v2q0 103 -67.5 165t-176.5 62q-47 0 -72 -2v-473z" />
<glyph unicode="Q" d="M82 784q0 183 68 340t186 265.5t281 170.5t348 62q177 0 332 -60t267 -166.5t177 -260t65 -332.5v-2q0 -118 -33.5 -226.5t-76.5 -175.5q-44 -71 -116.5 -143.5t-154.5 -114.5v-6q238 -119 410 -158q13 -3 32 -3t42 3l20 -20q-48 -57 -121.5 -127.5t-119.5 -105.5 q-20 -8 -32 -9h-4q-12 0 -32 6q-240 91 -510 263q-98 -17 -164 -17q-180 0 -340 63.5t-275 172.5t-182 260.5t-67 320.5zM489 793q0 -98 33.5 -187t92 -155.5t145.5 -106t188 -39.5q80 0 151 25.5t125.5 70.5t94 106t60 134t20.5 152v2q0 98 -33.5 188t-92 157.5 t-143.5 107.5t-182 40q-100 0 -186 -39t-145.5 -106t-93.5 -158t-34 -192z" />
<glyph unicode="R" horiz-adv-x="1437" d="M123 -2v35q61 6 72.5 107.5t11.5 555.5v246q0 423 -11.5 520t-72.5 101v32q102 4 237 4q231 7 254 7q177 0 314 -45q62 -21 115 -57t97.5 -90.5t69.5 -134t25 -175.5q0 -119 -45.5 -210.5t-108.5 -143.5q-58 -52 -112 -78v-4q101 -134 354 -486q109 -139 160 -149v-33 h-400q-75 0 -104 25q-191 294 -363 565h-49v-88q0 -301 12.5 -382t67.5 -87v-35q-49 2 -256 2q-213 0 -268 -2zM567 868q23 -2 62 -2q82 0 139 41q88 63 88 180v3q0 93 -55.5 147.5t-151.5 54.5q-21 0 -49 -2t-33 -2v-420z" />
<glyph unicode="S" horiz-adv-x="1099" d="M92 41q13 367 14 418h35q22 -76 86 -119q69 -39 183 -39q85 0 134.5 36t49.5 105q0 78 -105 160q-16 12 -157 121q-228 172 -228 410q0 99 36.5 185t104.5 151t173.5 102t236.5 37q65 0 143 -11t124 -26q-8 -187 -11 -414h-34q-13 55 -72 96q-51 33 -127 33 q-81 0 -129.5 -37.5t-48.5 -99.5q0 -39 18.5 -69.5t56.5 -63.5q19 -17 47.5 -39.5t74 -57.5t77.5 -61q112 -90 168.5 -189.5t56.5 -222.5v-2q0 -207 -153 -335.5t-402 -128.5q-101 0 -197.5 17t-154.5 44z" />
<glyph unicode="T" horiz-adv-x="1374" d="M37 1599q86 0 262.5 -1t257.5 -1h262q93 0 268.5 1t249.5 1v-411h-34q-17 58 -56 82t-112 24h-256v-598q0 -434 12 -534q11 -101 49 -121q15 -8 41 -8v-35q-78 2 -289 2q-225 0 -291 -2v35q47 6 65 43q26 54 30 272q2 92 2 348v598h-254q-144 0 -170 -106h-35 q0 89 -1 226t-1 185z" />
<glyph unicode="U" horiz-adv-x="1701" d="M76 1565v34q20 0 115 -1t165 -1q60 0 156 1t127 1v-34q-64 -4 -76 -101.5t-12 -521.5v-203q0 -190 61 -284q37 -57 103.5 -88t150.5 -31q70 0 131.5 30t102.5 85q35 47 50 114t15 174v203q0 424 -13.5 521.5t-82.5 101.5v34q38 0 135 -1t148 -1q71 0 163.5 1t106.5 1v-34 q-58 -4 -70 -103.5t-12 -519.5v-194q0 -188 -33.5 -307t-103.5 -212q-67 -106 -209.5 -182t-327.5 -76q-215 0 -374.5 83t-241.5 235q-50 86 -69 187t-19 261v205q0 424 -12 521.5t-74 101.5z" />
<glyph unicode="V" horiz-adv-x="1599" d="M-39 1565v34q8 0 107.5 -1t179.5 -1q72 0 179.5 1t129.5 1v-34q-55 -3 -60 -39q-1 -4 -1 -9q0 -50 65 -198q22 -51 82 -182q98 -212 170 -416h6q66 195 162 409q119 273 137 340q7 26 7 44q0 34 -23 45q-12 5 -29 6v34q29 0 140 -1t169 -1q68 0 153 1t93 1v-34 q-48 -4 -104.5 -105t-247.5 -518l-442 -973h-58l-457 973q-193 414 -251 516.5t-107 106.5z" />
<glyph unicode="W" horiz-adv-x="2078" d="M-51 1565v34q23 0 112 -1t152 -1q52 0 150 1t157 1v-34q-36 -3 -51 -19q-12 -12 -12 -44q-1 -10 1 -22q4 -50 19.5 -106t52.5 -180q84 -288 105 -371h6q72 167 170 355q26 51 215 393h53q166 -294 219 -391q105 -204 166 -346h6q20 95 101 350q70 237 74 298q1 7 1 14 q0 51 -35 63q-11 4 -26 6v34q29 0 122.5 -1t156.5 -1q61 0 139.5 1t107.5 1v-34q-16 -3 -27 -11.5t-24 -28.5t-27.5 -55t-33.5 -89.5t-44.5 -134t-59.5 -187.5q-20 -63 -31 -98l-310 -981h-57q-265 510 -344.5 670.5t-112.5 244.5h-2q-32 -83 -114.5 -244.5t-356.5 -670.5 h-57l-307 981q-134 421 -162 491q-35 89 -68 106q-11 5 -24 7z" />
<glyph unicode="X" horiz-adv-x="1566" d="M-6 -2v35q47 7 108.5 87.5t285.5 421.5q56 85 87 132l84 129l-108 164q-278 416 -317 470q-72 99 -112 119q-13 7 -28 9v34q3 0 109.5 -1t187.5 -1q64 0 172 1t141 1v-34q-44 -4 -44 -40q0 -19 12 -46q14 -30 67 -113q68 -108 141 -236h4q24 42 148 240q27 43 42.5 71 t26.5 57.5t4 46t-32 20.5v34q31 0 137.5 -1t169.5 -1q69 0 151 1t89 1v-34q-50 -8 -103.5 -79.5t-244.5 -376.5q-60 -96 -95 -151l-82 -131l111 -172q47 -73 125 -195q181 -283 233.5 -352.5t94.5 -74.5v-35q-37 2 -299 2q-253 0 -312 -2v35q36 2 48 17.5t-1.5 52t-30 66.5 t-55.5 93q-110 184 -143 250h-4q-29 -57 -141 -248q-23 -37 -38.5 -63t-29.5 -53.5t-18.5 -45.5t-3.5 -33.5t12 -23.5t32 -10v-37q-74 2 -313 2q-227 0 -268 -2z" />
<glyph unicode="Y" horiz-adv-x="1474" d="M-37 1565v34q12 0 101 -1t165 -1q60 0 168 1t154 1v-34q-49 -4 -49 -41q0 -38 66 -165q6 -12 20 -38q12 -23 18 -35q95 -172 137 -268h5q44 93 137 258l1 1v1l1 1v1l1 1v1l1 1v1l1 1l1 1v1l1 1v1l1 1q94 171 106 214q5 15 5 26q0 28 -29 34q-5 1 -10 1v34q44 0 141 -1 t158 -1q70 0 146 1t95 1v-34q-22 -3 -40 -18.5t-56 -71.5t-89 -142t-150 -255q-72 -124 -115 -197l-127 -219v-97q0 -354 13.5 -438.5t84.5 -93.5v-35q-76 2 -285 2q-243 0 -290 -2v37q69 7 82.5 91t13.5 435v74l-135 239q-275 488 -304 537q-72 118 -109 142q-16 9 -36 12z " />
<glyph unicode="Z" horiz-adv-x="1415" d="M27 0v31q42 74 395 696l106 191q29 52 220 374v6h-398q-98 0 -152 -21.5t-67 -74.5h-35q0 291 -2 397q124 0 395.5 -1t421.5 -1h416v-30q-184 -343 -360 -643l-117 -205q-143 -242 -242 -402v-6h492q170 0 196 90h33q-7 -190 -7 -322q0 -44 1 -81q-66 0 -357 1t-448 1 h-491z" />
<glyph unicode="[" horiz-adv-x="739" d="M195 -170q0 31 1 114.5t2 248t1 391.5v360q0 147 -0.5 275.5t-1 209t-1 139t-1 90t-0.5 36.5v45q38 0 125 -1t114 -1q21 0 114 1t159 1v-105h-183q-39 0 -43 -41q-10 -127 -10 -649v-358q0 -501 6 -639q3 -53 53 -53h170v-109q-56 0 -148.5 1t-117.5 1q-28 0 -115.5 -1 t-123.5 -1v45z" />
<glyph unicode="\" horiz-adv-x="1040" d="M-27 1626h220q259 -524 406 -808.5t456 -858.5h-219q-275 555 -422.5 839.5t-440.5 827.5z" />
<glyph unicode="]" horiz-adv-x="739" d="M33 1634v105q72 0 173 -1t103 -1q9 0 96.5 1t139.5 1v-47q0 -5 -0.5 -36.5t-1 -90t-1 -139t-1 -209t-0.5 -275.5v-358q0 -227 1 -391.5t2 -248t1 -114.5v-45q-48 0 -137 1t-99 1q-159 0 -274 -2v106h180q44 0 47 60q6 210 6 635v356q0 539 -8 645q-3 24 -14 35.5 t-35 11.5h-178z" />
<glyph unicode="^" horiz-adv-x="1142" d="M20 737l443 860h219l442 -862h-272l-283 578l-282 -576h-267z" />
<glyph unicode="_" horiz-adv-x="1024" d="M0 -154h1024v-102h-1024v102z" />
<glyph unicode="`" horiz-adv-x="1122" d="M322 1935l96 142l375 -310l-56 -77z" />
<glyph unicode="a" horiz-adv-x="1546" d="M-18 -2v37q48 4 103 108t253 555l405 926h62l399 -926q192 -443 248.5 -551t103.5 -112v-37q-57 2 -264 2t-311 -2v37q28 2 39.5 15.5t6 45t-15 59.5t-32.5 85h-455q-15 -36 -23.5 -58t-16.5 -48t-8.5 -41t3 -29t15 -21t30.5 -8v-37q-88 2 -280 2q-211 0 -262 -2z M631 530h246l-3 7q-102 277 -116 340h-4q-6 -28 -123 -340v-7z" />
<glyph unicode="b" horiz-adv-x="1347" d="M119 2v35q64 3 76 105.5t12 553.5v246q0 422 -11 517t-69 102v34q79 0 231 4.5t244 4.5q177 0 295 -37q51 -15 99 -44t93 -74.5t72 -116.5t27 -156q0 -121 -71.5 -215.5t-178.5 -122.5v-4q128 -24 220.5 -129t92.5 -248v-2q0 -116 -54.5 -208.5t-141.5 -148.5 q-81 -53 -197.5 -78.5t-306.5 -25.5q-46 0 -131 3t-107 3t-87 1t-107 1zM561 358q0 -34 17 -41q20 -4 75 -4q78 0 131 35q80 49 80 144v2q0 63 -35.5 104.5t-85.5 56.5q-49 17 -106 17q-30 0 -76 -4v-310zM561 967q27 -2 60 -2q83 0 139.5 42t56.5 126v2q0 74 -48 119.5 t-130 45.5q-24 0 -78 -6v-327z" />
<glyph unicode="c" horiz-adv-x="1486" d="M82 797v2q0 181 69 333t193.5 259t304 167t393.5 60q154 0 310 -29q-7 -147 -15 -434h-32q-27 76 -95 104.5t-186 28.5q-227 0 -376.5 -133t-149.5 -350q0 -226 136 -361t359 -135q124 0 203 28.5t115 102.5h32q0 -142 11 -417q-75 -21 -179 -34.5t-200 -13.5 q-191 0 -355.5 58t-283.5 163.5t-186.5 260t-67.5 340.5z" />
<glyph unicode="d" horiz-adv-x="1646" d="M111 4v33q47 6 65 41q25 51 29 261q2 89 2 357v246q0 420 -12.5 511.5t-79.5 98.5v39q434 17 567 17q332 0 539 -115q175 -99 260.5 -275.5t85.5 -383.5v-3q0 -438 -332 -679q-217 -158 -619 -158q-30 0 -276 6q-111 0 -229 4zM588 373q0 -32 18 -37q33 -8 90 -8 q211 0 338 134t127 351v2q0 116 -42 216t-115 159q-117 90 -302 90q-48 0 -114 -8v-899z" />
<glyph unicode="e" horiz-adv-x="1251" d="M119 -2v35q64 6 76 107.5t12 555.5v246q0 424 -11.5 521.5t-72.5 101.5v34q17 0 181.5 -1t287.5 -1q95 0 270 1t242 1q0 -17 -3.5 -156t-4.5 -247h-35q-9 54 -67 76t-169 22h-237v-333h200q111 0 149 8.5t48 38.5h35q-4 -144 -4 -193q0 -53 4 -213h-33q-11 32 -50.5 43.5 t-143.5 11.5h-205v-278q0 -35 7 -47.5t34 -18.5h284q81 3 125 22t54 64h34q-8 -260 -8 -401q-154 2 -469 2q-464 0 -530 -2z" />
<glyph unicode="f" horiz-adv-x="1220" d="M119 -2v39q64 7 76 107t12 552v246q0 421 -11.5 515.5t-72.5 103.5v38q8 0 175 -1t292 -1q94 0 270 1t244 1q0 -17 -3.5 -156t-4.5 -247h-39q-10 55 -67 76.5t-167 21.5h-235v-387h198q108 0 145 8.5t52 40.5h37q-4 -144 -4 -190q0 -55 4 -215h-37q-14 32 -51 42.5 t-141 10.5h-203v-155q0 -267 12.5 -337.5t75.5 -76.5v-37q-47 2 -275 2q-219 0 -282 -2z" />
<glyph unicode="g" horiz-adv-x="1611" d="M82 795v2q0 242 120.5 429t341.5 290.5t509 103.5q194 0 366 -35q-10 -206 -14 -434h-35q-20 70 -100 102q-90 41 -234 41q-235 0 -385.5 -133.5t-150.5 -349.5q0 -114 37 -209t100.5 -158t148 -98t179.5 -35q45 0 92 6q0 27 1 81t1 71q0 135 -16.5 201t-69.5 73v37 q180 -4 274 -4q122 0 258 4v-35q-52 -6 -62.5 -60.5t-10.5 -244.5v-168q0 -188 4 -237q-182 -60 -457 -60q-257 0 -459 97t-320 285t-118 438z" />
<glyph unicode="h" horiz-adv-x="1777" d="M111 -2v35q70 6 83 107.5t13 555.5v246q0 424 -13 521.5t-79 101.5v34q16 0 118.5 -1t167.5 -1q66 0 163 1t112 1v-34q-63 -4 -75.5 -90t-12.5 -437v-71h604v73q0 350 -12 435.5t-74 89.5v34q17 0 120 -1t165 -1q59 0 154 1t110 1v-34q-59 -4 -70.5 -101.5t-11.5 -521.5 v-246q0 -431 10 -526q11 -102 47 -125q16 -10 43 -12v-35q-53 2 -280 2q-240 0 -299 -2v35q70 6 84 90t14 430v96h-604v-96q0 -346 14 -430t84 -90v-35q-59 2 -293 2q-231 0 -282 -2z" />
<glyph unicode="i" horiz-adv-x="794" d="M111 -2v37q47 8 64 43q26 51 30 258q2 89 2 358v248q0 421 -12.5 516t-79.5 105v36q14 0 113 -1t169 -1q58 0 155 1t126 1v-34q-64 -12 -77 -108t-13 -513v-246q0 -452 13.5 -552t84.5 -113v-35q-74 2 -287 2q-239 0 -288 -2z" />
<glyph unicode="j" horiz-adv-x="1136" d="M49 29v422h33q49 -150 237 -150q93 0 152 45q56 36 82 115q27 83 27 264v217q0 421 -13.5 519t-83.5 104v34q38 0 133 -1t144 -1q54 0 148 1t128 1v-34q-58 -6 -69 -103t-11 -520v-217q0 -180 -12.5 -279.5t-52.5 -185.5q-24 -56 -70 -109.5t-96 -87.5 q-74 -53 -159.5 -72.5t-194.5 -19.5q-100 0 -197 23q-69 11 -125 35z" />
<glyph unicode="k" horiz-adv-x="1617" d="M111 -2v37q70 10 83 109.5t13 551.5v246q0 421 -12.5 516t-79.5 105v36q20 0 115 -1t165 -1q55 0 151 1t128 1v-34q-61 -9 -73.5 -91.5t-12.5 -410.5v-111h6l199 250q208 249 228 317q3 9 3 17q0 25 -31 29v34q45 0 144 -1t147 -1q51 0 153 1t142 1v-34q-12 -1 -22.5 -5 t-23.5 -13t-25 -18.5t-31 -29t-36 -38t-46 -51t-54.5 -62t-68 -77.5t-80.5 -91l-281 -320l377 -454q192 -232 256 -298t113 -73v-37q-82 2 -303 2q-203 0 -316 -2v35q26 3 26 24q0 18 -18 48q-40 66 -194 268l-260 338l-4 -2v-154q0 -343 14 -427.5t82 -94.5v-35 q-80 2 -281 2q-249 0 -292 -2z" />
<glyph unicode="l" horiz-adv-x="1173" d="M113 1563v36q13 0 115.5 -1t172.5 -1q66 0 163 1t112 1v-36q-64 -9 -77 -106t-13 -515v-588q0 -24 8.5 -32.5t34.5 -8.5h276q75 0 121 27q20 8 36.5 25t20.5 38h37q-7 -198 -10 -405q-125 2 -467 2q-465 0 -524 -2v39q64 7 76 101.5t12 520.5v12.5v11.5v13v246 q0 422 -13 518t-81 103z" />
<glyph unicode="m" horiz-adv-x="1974" d="M10 -2v37q30 2 47.5 21t38.5 97.5t39.5 192t52.5 350.5l134 914h55q319 -503 432.5 -690.5t169.5 -296.5h4q49 100 161 281t451 706h56l131 -914q63 -447 89 -553t79 -110v-35q-51 2 -262 2q-221 0 -287 -2v35q59 4 64 80q1 11 1 24q0 77 -25 226q-1 5 -1 8 q-27 184 -35 334h-2q-63 -135 -154 -285q-66 -114 -256 -397h-55q-170 252 -262 407q-83 137 -150 277h-2q-6 -127 -32 -338q-20 -173 -20 -236q0 -11 1 -18q6 -68 51 -80q7 -1 15 -2v-35q-63 2 -283 2q-199 0 -246 -2z" />
<glyph unicode="n" horiz-adv-x="1755" d="M100 -2v35q67 6 80 108.5t13 554.5v914h57q488 -423 661 -586q138 -127 303 -303h7q-4 196 -4 242q0 406 -14 502t-83 100v34q36 0 133 -1t140 -1q65 0 150 1t102 1v-34q-61 -4 -72.5 -101.5t-11.5 -521.5v-962h-56q-493 420 -661 573q-150 133 -305 299h-7 q5 -103 5 -180q0 -435 12.5 -533t77.5 -104v-37q-72 2 -273 2q-203 0 -254 -2z" />
<glyph unicode="o" d="M84 786q0 241 116 433t316 297.5t445 105.5q237 0 428.5 -102t302 -288t110.5 -421v-2q0 -178 -66.5 -334t-181 -267t-274.5 -175t-342 -64q-235 0 -431 107t-309.5 294.5t-113.5 415.5zM492 793q0 -134 55.5 -244t160 -175t238.5 -65q133 0 237 65.5t159 175.5t55 243v2 q0 131 -56.5 243t-159 179t-229.5 67q-138 0 -244 -66t-161 -177t-55 -248z" />
<glyph unicode="p" horiz-adv-x="1341" d="M123 -2v35q61 9 72.5 104t11.5 520v39v246q0 416 -12 511.5t-72 107.5v34q252 7 276 7q195 0 265 -3q222 -10 356 -92q110 -65 175 -177.5t65 -264.5q0 -153 -64.5 -268t-171.5 -185q-90 -61 -215 -88q-92 -18 -242 -22v-68q0 -251 14.5 -322.5t77.5 -78.5v-35 q-86 2 -278 2q-201 0 -258 -2zM567 811q57 0 80 4q53 4 96 21.5t74.5 47t48.5 73.5t17 100v2q0 103 -67.5 165t-176.5 62q-47 0 -72 -2v-473z" />
<glyph unicode="q" d="M82 784q0 183 68 340t186 265.5t281 170.5t348 62q177 0 332 -60t267 -166.5t177 -260t65 -332.5v-2q0 -118 -33.5 -226.5t-76.5 -175.5q-44 -71 -116.5 -143.5t-154.5 -114.5v-6q238 -119 410 -158q13 -3 32 -3t42 3l20 -20q-48 -57 -121.5 -127.5t-119.5 -105.5 q-20 -8 -32 -9h-4q-12 0 -32 6q-240 91 -510 263q-98 -17 -164 -17q-180 0 -340 63.5t-275 172.5t-182 260.5t-67 320.5zM489 793q0 -98 33.5 -187t92 -155.5t145.5 -106t188 -39.5q80 0 151 25.5t125.5 70.5t94 106t60 134t20.5 152v2q0 98 -33.5 188t-92 157.5 t-143.5 107.5t-182 40q-100 0 -186 -39t-145.5 -106t-93.5 -158t-34 -192z" />
<glyph unicode="r" horiz-adv-x="1437" d="M123 -2v35q61 6 72.5 107.5t11.5 555.5v246q0 423 -11.5 520t-72.5 101v32q102 4 237 4q231 7 254 7q177 0 314 -45q62 -21 115 -57t97.5 -90.5t69.5 -134t25 -175.5q0 -119 -45.5 -210.5t-108.5 -143.5q-58 -52 -112 -78v-4q101 -134 354 -486q109 -139 160 -149v-33 h-400q-75 0 -104 25q-191 294 -363 565h-49v-88q0 -301 12.5 -382t67.5 -87v-35q-49 2 -256 2q-213 0 -268 -2zM567 868q23 -2 62 -2q82 0 139 41q88 63 88 180v3q0 93 -55.5 147.5t-151.5 54.5q-21 0 -49 -2t-33 -2v-420z" />
<glyph unicode="s" horiz-adv-x="1099" d="M92 41q13 367 14 418h35q22 -76 86 -119q69 -39 183 -39q85 0 134.5 36t49.5 105q0 78 -105 160q-16 12 -157 121q-228 172 -228 410q0 99 36.5 185t104.5 151t173.5 102t236.5 37q65 0 143 -11t124 -26q-8 -187 -11 -414h-34q-13 55 -72 96q-51 33 -127 33 q-81 0 -129.5 -37.5t-48.5 -99.5q0 -39 18.5 -69.5t56.5 -63.5q19 -17 47.5 -39.5t74 -57.5t77.5 -61q112 -90 168.5 -189.5t56.5 -222.5v-2q0 -207 -153 -335.5t-402 -128.5q-101 0 -197.5 17t-154.5 44z" />
<glyph unicode="t" horiz-adv-x="1374" d="M37 1599q86 0 262.5 -1t257.5 -1h262q93 0 268.5 1t249.5 1v-411h-34q-17 58 -56 82t-112 24h-256v-598q0 -434 12 -534q11 -101 49 -121q15 -8 41 -8v-35q-78 2 -289 2q-225 0 -291 -2v35q47 6 65 43q26 54 30 272q2 92 2 348v598h-254q-144 0 -170 -106h-35 q0 89 -1 226t-1 185z" />
<glyph unicode="u" horiz-adv-x="1701" d="M76 1565v34q20 0 115 -1t165 -1q60 0 156 1t127 1v-34q-64 -4 -76 -101.5t-12 -521.5v-203q0 -190 61 -284q37 -57 103.5 -88t150.5 -31q70 0 131.5 30t102.5 85q35 47 50 114t15 174v203q0 424 -13.5 521.5t-82.5 101.5v34q38 0 135 -1t148 -1q71 0 163.5 1t106.5 1v-34 q-58 -4 -70 -103.5t-12 -519.5v-194q0 -188 -33.5 -307t-103.5 -212q-67 -106 -209.5 -182t-327.5 -76q-215 0 -374.5 83t-241.5 235q-50 86 -69 187t-19 261v205q0 424 -12 521.5t-74 101.5z" />
<glyph unicode="v" horiz-adv-x="1599" d="M-39 1565v34q8 0 107.5 -1t179.5 -1q72 0 179.5 1t129.5 1v-34q-55 -3 -60 -39q-1 -4 -1 -9q0 -50 65 -198q22 -51 82 -182q98 -212 170 -416h6q66 195 162 409q119 273 137 340q7 26 7 44q0 34 -23 45q-12 5 -29 6v34q29 0 140 -1t169 -1q68 0 153 1t93 1v-34 q-48 -4 -104.5 -105t-247.5 -518l-442 -973h-58l-457 973q-193 414 -251 516.5t-107 106.5z" />
<glyph unicode="w" horiz-adv-x="2078" d="M-51 1565v34q23 0 112 -1t152 -1q52 0 150 1t157 1v-34q-36 -3 -51 -19q-12 -12 -12 -44q-1 -10 1 -22q4 -50 19.5 -106t52.5 -180q84 -288 105 -371h6q72 167 170 355q26 51 215 393h53q166 -294 219 -391q105 -204 166 -346h6q20 95 101 350q70 237 74 298q1 7 1 14 q0 51 -35 63q-11 4 -26 6v34q29 0 122.5 -1t156.5 -1q61 0 139.5 1t107.5 1v-34q-16 -3 -27 -11.5t-24 -28.5t-27.5 -55t-33.5 -89.5t-44.5 -134t-59.5 -187.5q-20 -63 -31 -98l-310 -981h-57q-265 510 -344.5 670.5t-112.5 244.5h-2q-32 -83 -114.5 -244.5t-356.5 -670.5 h-57l-307 981q-134 421 -162 491q-35 89 -68 106q-11 5 -24 7z" />
<glyph unicode="x" horiz-adv-x="1566" d="M-6 -2v35q47 7 108.5 87.5t285.5 421.5q56 85 87 132l84 129l-108 164q-278 416 -317 470q-72 99 -112 119q-13 7 -28 9v34q3 0 109.5 -1t187.5 -1q64 0 172 1t141 1v-34q-44 -4 -44 -40q0 -19 12 -46q14 -30 67 -113q68 -108 141 -236h4q24 42 148 240q27 43 42.5 71 t26.5 57.5t4 46t-32 20.5v34q31 0 137.5 -1t169.5 -1q69 0 151 1t89 1v-34q-50 -8 -103.5 -79.5t-244.5 -376.5q-60 -96 -95 -151l-82 -131l111 -172q47 -73 125 -195q181 -283 233.5 -352.5t94.5 -74.5v-35q-37 2 -299 2q-253 0 -312 -2v35q36 2 48 17.5t-1.5 52t-30 66.5 t-55.5 93q-110 184 -143 250h-4q-29 -57 -141 -248q-23 -37 -38.5 -63t-29.5 -53.5t-18.5 -45.5t-3.5 -33.5t12 -23.5t32 -10v-37q-74 2 -313 2q-227 0 -268 -2z" />
<glyph unicode="y" horiz-adv-x="1474" d="M-37 1565v34q12 0 101 -1t165 -1q60 0 168 1t154 1v-34q-49 -4 -49 -41q0 -38 66 -165q6 -12 20 -38q12 -23 18 -35q95 -172 137 -268h5q44 93 137 258l1 1v1l1 1v1l1 1v1l1 1v1l1 1l1 1v1l1 1v1l1 1q94 171 106 214q5 15 5 26q0 28 -29 34q-5 1 -10 1v34q44 0 141 -1 t158 -1q70 0 146 1t95 1v-34q-22 -3 -40 -18.5t-56 -71.5t-89 -142t-150 -255q-72 -124 -115 -197l-127 -219v-97q0 -354 13.5 -438.5t84.5 -93.5v-35q-76 2 -285 2q-243 0 -290 -2v37q69 7 82.5 91t13.5 435v74l-135 239q-275 488 -304 537q-72 118 -109 142q-16 9 -36 12z " />
<glyph unicode="z" horiz-adv-x="1415" d="M27 0v31q42 74 395 696l106 191q29 52 220 374v6h-398q-98 0 -152 -21.5t-67 -74.5h-35q0 291 -2 397q124 0 395.5 -1t421.5 -1h416v-30q-184 -343 -360 -643l-117 -205q-143 -242 -242 -402v-6h492q170 0 196 90h33q-7 -190 -7 -322q0 -44 1 -81q-66 0 -357 1t-448 1 h-491z" />
<glyph unicode="{" horiz-adv-x="776" d="M33 731v74q89 2 139 37.5t70 115.5q19 53 6.5 248t-4.5 248q11 78 47.5 137t86.5 90t99.5 45.5t97.5 14.5q89 0 150 -4v-86q-95 0 -139 -13q-82 -24 -97 -182q-5 -37 7.5 -214.5t3.5 -219.5q-21 -104 -82.5 -166t-173.5 -86v-6q111 -21 173 -83.5t83 -166.5 q9 -42 -3.5 -220.5t-7.5 -215.5q16 -156 97 -180q44 -13 139 -13v-88q-132 -4 -150 -4q-38 0 -77 8.5t-82 29.5t-77.5 52.5t-61 83t-35.5 115.5q-7 51 6 249.5t-6 243.5q-21 82 -71 118t-138 38z" />
<glyph unicode="|" horiz-adv-x="679" d="M229 -512v2048h222v-2048h-222z" />
<glyph unicode="}" horiz-adv-x="776" d="M51 -115q95 0 139 13q82 24 97 180q5 37 -7.5 215t-3.5 221q21 104 82.5 165.5t173.5 84.5v6q-112 23 -173.5 85t-82.5 167q-9 42 3.5 220t7.5 214q-16 158 -97 182q-44 13 -139 13v86q66 4 150 4q48 0 98 -14.5t100.5 -45.5t87.5 -90t48 -137q7 -52 -6 -251t6 -245 q23 -81 72 -117t136 -36v-74q-89 -3 -138.5 -38.5t-69.5 -114.5q-19 -54 -7 -249t4 -247q-9 -63 -35.5 -114.5t-61 -83t-76.5 -53t-81.5 -30t-76.5 -8.5q-28 0 -150 4v88z" />
<glyph unicode="~" horiz-adv-x="1142" d="M59 694q50 82 143 142.5t183 60.5q63 0 110.5 -17.5t100.5 -50.5q72 -45 105 -59t77 -14q55 0 99 34t84 107l124 -147q-69 -106 -146.5 -155.5t-152.5 -49.5h-2q-43 0 -84.5 12.5t-64.5 24t-80 43.5q-100 59 -174 59q-104 0 -193 -139z" />
<glyph unicode="&#xa1;" horiz-adv-x="667" d="M150 0q12 204 29.5 570.5t21.5 519.5h268q12 -244 49 -1090h-368zM150 1448q0 72 51.5 121t126.5 49q74 0 127 -49.5t53 -120.5q0 -72 -53 -123t-127 -51h-2q-73 0 -124.5 51t-51.5 123z" />
<glyph unicode="&#xa2;" horiz-adv-x="1024" d="M70 799v2q0 205 131 337t358 165q3 39 14.5 153t14.5 154v6h205v-6q-19 -133 -39 -297q78 0 164 -19q-13 -138 -15 -311h-31q-15 40 -60.5 60t-104.5 20q-125 0 -211 -67t-86 -191q0 -122 77 -192t195 -70q66 0 119 19t67 59h31q1 -82 12 -297q-67 -21 -98 -25 q-78 -10 -164 -10q-3 -31 -10.5 -103.5t-12.5 -126t-5 -73.5v-4h-207v6q24 189 45 327q-182 44 -285.5 174t-103.5 310z" />
<glyph unicode="&#xa3;" horiz-adv-x="1253" d="M45 -2v166q61 7 103.5 40t68 96.5t38.5 144t19 196.5q5 63 5 88q-41 0 -99 -1t-71 -1v152q108 0 174 -2q4 187 28 303q19 87 58.5 160t102.5 135t159 97.5t215 35.5h2q67 0 144 -11t120 -26q-11 -128 -22 -406h-37q-16 59 -62 88q-44 35 -110 35q-79 0 -131 -47.5 t-72 -124.5q-20 -71 -27 -239q238 0 277 2v-152q-10 0 -114 1t-169 1q0 -12 -6 -72q-13 -114 -41.5 -194t-77.5 -152q-5 -8 8 -8q48 1 218.5 2t214.5 2q89 1 127 19.5t47 64.5h34q-8 -287 -8 -393q-176 2 -497 2q-506 0 -619 -2z" />
<glyph unicode="&#xa4;" horiz-adv-x="1320" d="M102 240l152 168q-92 123 -92 276q0 169 92 274l-150 144l154 151l143 -168q43 38 114.5 60t141.5 22q167 0 261 -82l145 166l154 -149l-152 -141q94 -100 94 -277q0 -158 -96 -276l156 -168l-158 -150l-143 191q-52 -40 -122 -59t-137 -19q-156 0 -258 76l-141 -189z M414 684q0 -123 69.5 -203t175.5 -80t177 80.5t71 202.5q0 118 -71.5 200.5t-176.5 82.5h-2q-110 0 -176.5 -84.5t-66.5 -198.5z" />
<glyph unicode="&#xa5;" horiz-adv-x="1370" d="M10 1565v34q19 0 100 -1t138 -1q52 0 149 1t123 1v-34q-15 -7 -23 -16t-9.5 -26t3.5 -38t19.5 -57.5t34 -78t51.5 -106.5q75 -146 111 -235h4q12 29 54.5 120t47.5 103q32 66 52 108.5t37 82t23 62.5t6.5 41.5t-7.5 27t-23 12.5v34q36 0 121.5 -1t134.5 -1q46 0 117.5 1 t91.5 1v-34q-46 -21 -106.5 -123t-303.5 -565l-49 -97q69 0 177 1t116 1v-129q-11 0 -129.5 1t-191.5 1v-135q50 1 126 1.5t126.5 1t68.5 1.5v-127q-192 0 -319 2v-168q0 -84 8 -122.5t27 -53.5t63 -20v-37q-55 2 -285 2q-236 0 -291 -2v37q44 5 62.5 20t26.5 53.5t8 124.5 v164q-125 -2 -328 -2q2 12 2 74q0 43 -2 55q19 -1 73 -1.5t131.5 -1t127.5 -1.5v135q-73 0 -197.5 -1t-134.5 -1q2 12 2 74q0 43 -2 55q10 0 127 -1t180 -1l-45 84q-291 532 -311 566q-58 100 -90 122q-9 7 -23 13z" />
<glyph unicode="&#xa6;" horiz-adv-x="679" d="M229 358h222v-716h-222v716zM229 666v716h222v-716h-222z" />
<glyph unicode="&#xa7;" horiz-adv-x="1253" d="M84 729q0 75 39.5 142.5t114.5 113.5q-76 76 -76 189v2q0 152 142 246t374 94q112 0 229 -30.5t205 -72.5q-25 -90 -70 -297l-34 2q-32 54 -72 82q-55 34 -127.5 57t-128.5 23q-117 0 -172 -30.5t-53 -73.5q0 -47 67 -82t240 -90q229 -70 322.5 -163t93.5 -220 q0 -164 -131 -244q86 -80 86 -195q0 -172 -146.5 -274.5t-380.5 -102.5q-261 0 -477 117q13 38 42.5 153t41.5 154l31 -2q37 -79 140 -129.5t214 -50.5q104 0 167.5 35t63.5 92q0 88 -247 160q-97 28 -165 52.5t-135 59t-107.5 73.5t-65.5 92t-25 118zM352 760 q0 -51 55.5 -85t208.5 -83q103 -32 230 -78q61 35 61 88q0 43 -48 80.5t-177 77.5q-186 59 -266 88q-29 -17 -46.5 -41t-17.5 -45v-2z" />
<glyph unicode="&#xa8;" horiz-adv-x="1122" d="M242 1823v2q0 43 34.5 74.5t83.5 31.5q50 0 83.5 -31.5t33.5 -76.5q0 -47 -33.5 -80t-83.5 -33q-49 0 -83.5 33.5t-34.5 79.5zM639 1823v2q0 43 35 74.5t84 31.5q51 0 86 -31.5t35 -76.5q0 -46 -35 -79.5t-86 -33.5q-49 0 -84 33.5t-35 79.5z" />
<glyph unicode="&#xa9;" horiz-adv-x="1667" d="M84 797q0 155 60 294.5t161.5 239t242.5 157.5t298 58h2q149 0 284.5 -57t234.5 -155t157.5 -237t58.5 -296q0 -124 -36.5 -238.5t-105 -207.5t-160.5 -162.5t-210 -107.5t-248 -38q-154 0 -291.5 59.5t-235.5 160.5t-155 239.5t-57 290.5zM242 799q0 -123 44.5 -234 t121.5 -193t188 -130.5t238 -48.5h2q125 0 235 48t187.5 130t122 193t44.5 233q0 124 -44.5 235.5t-122 193t-188 129.5t-236.5 48q-124 0 -234 -48t-188.5 -129t-124 -192.5t-45.5 -234.5zM467 801q0 96 37 175.5t100.5 130.5t146 79t175.5 28h2q101 0 159 -14 q-6 -189 -6 -217h-22q-20 68 -129 68q-107 0 -179.5 -64t-72.5 -174q0 -117 64 -183.5t163 -66.5q119 0 152 66h20q0 -107 6 -209q-77 -23 -184 -23q-121 0 -219 48.5t-155.5 141.5t-57.5 214z" />
<glyph unicode="&#xaa;" horiz-adv-x="741" d="M55 1034q0 150 162 226q72 36 203 65q0 57 -34.5 90t-96.5 33q-54 0 -96 -22.5t-56 -63.5h-33q-4 164 -4 190q39 18 101.5 31.5t117.5 13.5h3q150 0 226.5 -68.5t76.5 -219.5v-207q0 -94 19 -138t48 -67v-33q-99 0 -231 -6q-19 58 -23 78h-6q-66 -88 -188 -88 q-84 0 -136.5 52t-52.5 134zM248 1065q0 -24 17.5 -39.5t41.5 -15.5q66 0 91.5 47t25.5 131l-6 2q-28 -8 -43.5 -12.5t-43.5 -16t-43 -23t-27.5 -30.5t-12.5 -41v-2z" />
<glyph unicode="&#xab;" horiz-adv-x="1064" d="M53 811q289 279 430 434l82 -61q-102 -183 -217 -361q128 -213 213 -383l-78 -63q-161 178 -430 434zM496 811q289 279 430 434l82 -61q-102 -183 -217 -361q128 -213 213 -383l-78 -63q-161 178 -430 434z" />
<glyph unicode="&#xac;" horiz-adv-x="1142" d="M61 616v234h1020v-655h-237v421h-783z" />
<glyph unicode="&#xad;" horiz-adv-x="753" d="M59 643q2 18 2 127q0 113 -2 129h635v-256h-635z" />
<glyph unicode="&#xae;" horiz-adv-x="856" d="M61 1225q0 156 107.5 264t267.5 108q150 0 254.5 -103.5t104.5 -256.5v-2q0 -155 -107 -262t-266 -107q-151 0 -256 104t-105 255zM156 1231q0 -117 77.5 -199t194.5 -82q118 0 195 82.5t77 198.5v2q0 119 -77 201t-195 82t-195 -82.5t-77 -202.5zM287 1051v12 q13 4 15.5 29.5t2.5 128.5v59q0 92 -2.5 115.5t-11.5 29.5v15h43q7 0 31.5 1t44.5 1q49 0 79 -12q34 -12 57 -41t23 -72v-2q0 -36 -21.5 -64.5t-49.5 -42.5v-4q5 -11 77 -108q20 -30 29 -33v-12h-104q-7 0 -13 6l-44 71.5t-35 57.5h-11v-19q0 -70 3 -85.5t18 -18.5v-12h-131 zM397 1260h15q61 0 61 53v2q0 20 -14 32.5t-37 12.5h-25v-100z" />
<glyph unicode="&#xaf;" horiz-adv-x="1122" d="M293 1739q2 14 2 73q0 46 -2 58q29 0 137 -1t135 -1q29 0 135.5 1t133.5 1q-3 -18 -3 -55v-3q0 -52 3 -73q-28 0 -135 1t-134 1q-30 0 -137 -1t-135 -1z" />
<glyph unicode="&#xb0;" horiz-adv-x="821" d="M84 1321q0 135 95.5 216t232.5 81h2q132 0 224.5 -82t92.5 -215q0 -137 -92 -217t-229 -80q-139 0 -232.5 80t-93.5 217zM254 1321q0 -73 44.5 -122.5t111.5 -49.5q68 0 110.5 48t42.5 118q0 75 -41 125.5t-114 50.5h-2q-65 0 -108.5 -48t-43.5 -122z" />
<glyph unicode="&#xb1;" horiz-adv-x="1142" d="M61 33v233h1020v-233h-1020zM61 713v233h392v363h237v-363h391v-233h-391v-402h-237v402h-392z" />
<glyph unicode="&#xb2;" horiz-adv-x="839" d="M96 788v119q55 40 183 154q52 49 104 115q59 70 59 137q0 50 -32.5 79t-87.5 29q-120 0 -168 -86h-27q0 107 -4 217q105 45 250 45q147 0 227 -68t80 -169q0 -156 -145 -305q-62 -62 -109 -97h152q53 0 77 9.5t31 33.5h33q0 -5 -2 -92.5t-2 -120.5h-619z" />
<glyph unicode="&#xb3;" horiz-adv-x="768" d="M86 817q2 30 4.5 112t3.5 93h25q52 -78 176 -78q129 0 129 80q0 29 -17.5 48t-52 27.5t-69 11t-84.5 1.5v148q39 0 69 3t63 11t51.5 27.5t18.5 48.5q0 41 -33.5 60.5t-78.5 19.5q-49 0 -93 -19t-61 -53h-24q0 97 -4 203q101 36 223 36q51 0 100 -11.5t95 -35t74 -67 t28 -101.5q0 -72 -47 -122t-119 -66v-2q84 -10 140 -58.5t56 -127.5q0 -65 -30 -113t-80 -73.5t-104.5 -37.5t-114.5 -12q-138 0 -244 47z" />
<glyph unicode="&#xb4;" horiz-adv-x="1122" d="M315 1772l373 309l98 -142l-417 -245z" />
<glyph unicode="&#xb5;" horiz-adv-x="1308" d="M61 -268q16 60 34.5 203.5t23.5 226.5q5 79 11.5 255.5t6.5 248.5v315h291v-287q0 -140 11 -213t40 -127q54 -102 158 -102q52 0 94 33t64 77q53 103 53 330v289h282v-289q0 -74 3.5 -147t9 -140.5t6.5 -89.5q3 -18 12.5 -78.5t14.5 -89t17.5 -72.5t27.5 -75h-246 q-22 55 -33 137q-1 8 -3 24.5t-3.5 34t-1.5 35.5h-10q-18 -76 -78 -151q-36 -45 -96 -74t-132 -29q-128 0 -208 80q-48 55 -62 101h-12l-2 -88q-3 -77 -15.5 -187t-23.5 -151h-234z" />
<glyph unicode="&#xb6;" horiz-adv-x="1200" d="M92 1032q0 89 21 160.5t71 133t128.5 102.5t197.5 64.5t274 23.5t252 -17v-1628h-127v1548h-133v-1548h-127v756h-24q-112 0 -206.5 24.5t-168.5 72.5t-116 127t-42 181z" />
<glyph unicode="&#xb7;" horiz-adv-x="559" d="M100 805q0 72 53.5 123t127.5 51h2q73 0 124.5 -51t51.5 -123t-51.5 -121t-126.5 -49q-74 0 -127.5 49.5t-53.5 120.5z" />
<glyph unicode="&#xb8;" horiz-adv-x="1122" d="M375 -432l20 86q37 -6 80 -6t75 24t32 64q0 38 -34 59t-93 21v4l100 184h107l-66 -115v-4q141 -30 141 -143q0 -49 -25.5 -86t-67.5 -57.5t-88.5 -30.5t-94.5 -10q-41 0 -86 10z" />
<glyph unicode="&#xb9;" horiz-adv-x="659" d="M45 1448q145 56 320 137h96q-2 -76 -2 -270v-180v-11q0 -210 9.5 -254t61.5 -47v-37q-41 2 -184 2t-196 -2v35q60 3 71.5 48t11.5 256v10v192q0 47 -4 56.5t-18 7.5q-5 -1 -139 -35z" />
<glyph unicode="&#xba;" horiz-adv-x="862" d="M47 1221q0 159 112.5 267.5t282.5 108.5h2q164 0 268.5 -102.5t104.5 -259.5q0 -158 -110 -271.5t-275 -113.5q-168 0 -276.5 107.5t-108.5 263.5zM272 1229q0 -85 41.5 -147t122.5 -62h2q74 0 114 63.5t40 145.5q0 90 -45.5 146.5t-110.5 56.5q-73 0 -118.5 -58 t-45.5 -145z" />
<glyph unicode="&#xbb;" horiz-adv-x="1064" d="M59 438q105 202 211 363q-131 219 -211 387l76 59q179 -195 430 -434q-6 -6 -93.5 -91.5t-122 -120t-100 -102t-114.5 -120.5zM502 438q105 202 211 363q-121 203 -209 387l76 59q161 -178 430 -434q-289 -279 -430 -434z" />
<glyph unicode="&#xbc;" horiz-adv-x="1695" d="M82 1448q138 54 319 137h97q-2 -76 -2 -270v-180v-7q0 -56 0.5 -82t2 -65t6 -58t12.5 -42t20 -36t30 -22v-37q-41 2 -184 2q-144 0 -197 -2v35q57 28 70.5 93t13.5 221v192q0 47 -4 56.5t-18 7.5q-5 -1 -139 -35zM207 -43l1050 1679h134l-1051 -1679h-133zM809 150v120 q63 86 416 529h176l-2 -508h129v-141h-127q0 -31 1 -45t5.5 -31.5t16 -26.5t30.5 -14v-33h-328v33q19 4 31 11.5t18.5 15.5t10 24t4 28.5t0.5 37.5h-381zM1016 291h176q0 165 4 235h-6q-21 -29 -52.5 -71.5t-69 -92t-52.5 -69.5v-2z" />
<glyph unicode="&#xbd;" horiz-adv-x="1695" d="M70 1448q138 54 319 137h98q-4 -152 -4 -270v-180q0 -215 10 -262t62 -50v-37q-39 2 -182 2q-144 0 -197 -2v35q60 3 71 49.5t11 264.5v192q0 33 -2 46.5t-5.5 16t-12.5 1.5q-13 -2 -142 -35zM195 -43l1050 1679h133l-1050 -1679h-133zM936 0v119q56 41 182 153 q56 53 105 115q59 70 59 137q0 50 -33 79.5t-88 29.5q-120 0 -168 -86h-26q0 107 -4 217q105 45 249 45q147 0 227.5 -68.5t80.5 -169.5q0 -155 -146 -305q-61 -61 -108 -96h151q53 0 77.5 9.5t31.5 33.5h33q0 -5 -2.5 -92.5t-2.5 -120.5h-618z" />
<glyph unicode="&#xbe;" horiz-adv-x="1695" d="M111 817q2 30 4.5 112t3.5 93h24q52 -78 176 -78q130 0 130 80q0 29 -17.5 48t-52.5 27.5t-69.5 11t-84.5 1.5v148q39 0 69 3t63.5 11t52 27.5t18.5 48.5q0 41 -34 60.5t-79 19.5q-47 0 -92 -19.5t-61 -52.5h-25q0 97 -4 203q101 36 223 36q51 0 100 -11.5t95 -35t74 -67 t28 -101.5q0 -72 -47 -122t-119 -66v-2q84 -10 140.5 -58.5t56.5 -127.5q0 -65 -30 -113t-80.5 -73.5t-105 -37.5t-114.5 -12q-137 0 -243 47zM268 -43l1051 1679h133l-1051 -1679h-133zM854 150v120q111 149 418 529h174l-2 -508h129v-141h-125q0 -30 0.5 -43t3 -30.5 t7.5 -24.5t15 -12.5t25 -6.5v-33h-328v33q23 6 36.5 15.5t19 26.5t7 31.5t1.5 43.5h-381zM1063 291h176q0 165 2 235h-6q-38 -54 -172 -233v-2z" />
<glyph unicode="&#xbf;" horiz-adv-x="1030" d="M86 401q0 128 57 224t166 196q84 77 122 145.5t38 166.5h297q1 -96 -16.5 -165.5t-48.5 -119.5t-91 -117q-36 -41 -52.5 -60.5t-43.5 -57.5t-39 -72t-12 -68q0 -47 22 -86t60 -61q55 -31 129 -31q107 0 170 55q34 36 49 94h31q0 -73 12 -391q-82 -35 -154 -49 q-94 -24 -211 -24h-2q-76 0 -155.5 17t-137.5 52q-190 114 -190 352zM438 1454q0 73 52.5 123.5t127.5 50.5q77 0 131 -50.5t54 -123.5t-54 -124.5t-131 -51.5h-2q-74 0 -126 51.5t-52 124.5z" />
<glyph unicode="&#xc0;" horiz-adv-x="1546" d="M-18 -2v37q48 4 103 108t253 555l405 926h62l399 -926q192 -443 248.5 -551t103.5 -112v-37q-57 2 -264 2t-311 -2v37q28 2 39.5 15.5t6 45t-15 59.5t-32.5 85h-455q-15 -36 -23.5 -58t-16.5 -48t-8.5 -41t3 -29t15 -21t30.5 -8v-37q-88 2 -280 2q-211 0 -262 -2z M430 1935l98 142l373 -310l-53 -77zM631 530h246l-3 7q-102 277 -116 340h-4q-6 -28 -123 -340v-7z" />
<glyph unicode="&#xc1;" horiz-adv-x="1546" d="M-18 -2v37q48 4 103 108t253 555l405 926h62l399 -926q192 -443 248.5 -551t103.5 -112v-37q-57 2 -264 2t-311 -2v37q28 2 39.5 15.5t6 45t-15 59.5t-32.5 85h-455q-15 -36 -23.5 -58t-16.5 -48t-8.5 -41t3 -29t15 -21t30.5 -8v-37q-88 2 -280 2q-211 0 -262 -2z M631 530h246l-3 7q-102 277 -116 340h-4q-6 -28 -123 -340v-7zM639 1772l375 309l96 -142l-416 -245z" />
<glyph unicode="&#xc2;" horiz-adv-x="1546" d="M-18 -2v37q48 4 103 108t253 555l405 926h62l399 -926q192 -443 248.5 -551t103.5 -112v-37q-57 2 -264 2t-311 -2v37q28 2 39.5 15.5t6 45t-15 59.5t-32.5 85h-455q-15 -36 -23.5 -58t-16.5 -48t-8.5 -41t3 -29t15 -21t30.5 -8v-37q-88 2 -280 2q-211 0 -262 -2z M457 1714l327 309l312 -313l-68 -72l-254 174l-256 -172zM631 530h246l-3 7q-102 277 -116 340h-4q-6 -28 -123 -340v-7z" />
<glyph unicode="&#xc3;" horiz-adv-x="1546" d="M-18 -2v37q48 4 103 108t253 555l405 926h62l399 -926q192 -443 248.5 -551t103.5 -112v-37q-57 2 -264 2t-311 -2v37q28 2 39.5 15.5t6 45t-15 59.5t-32.5 85h-455q-15 -36 -23.5 -58t-16.5 -48t-8.5 -41t3 -29t15 -21t30.5 -8v-37q-88 2 -280 2q-211 0 -262 -2z M434 1718q22 94 82.5 164t142.5 70q41 0 74.5 -14.5t77.5 -47.5q37 -30 62.5 -44t56.5 -15q35 0 65.5 27t44.5 77l88 -14q-28 -105 -83.5 -171.5t-131.5 -66.5q-72 0 -147 56q-33 25 -48 35.5t-38.5 20t-46.5 9.5q-73 0 -109 -104zM631 530h246l-3 7q-102 277 -116 340h-4 q-6 -28 -123 -340v-7z" />
<glyph unicode="&#xc4;" horiz-adv-x="1546" d="M-18 -2v37q48 4 103 108t253 555l405 926h62l399 -926q192 -443 248.5 -551t103.5 -112v-37q-57 2 -264 2t-311 -2v37q28 2 39.5 15.5t6 45t-15 59.5t-32.5 85h-455q-15 -36 -23.5 -58t-16.5 -48t-8.5 -41t3 -29t15 -21t30.5 -8v-37q-88 2 -280 2q-211 0 -262 -2z M465 1788v2q0 43 35 74.5t84 31.5q50 0 83 -31.5t33 -76.5q0 -47 -33 -80t-83 -33q-49 0 -84 33.5t-35 79.5zM631 530h246l-3 7q-102 277 -116 340h-4q-6 -28 -123 -340v-7zM862 1788v2q0 43 35 74.5t84 31.5q51 0 86 -31.5t35 -76.5q0 -46 -35 -79.5t-86 -33.5 q-49 0 -84 33.5t-35 79.5z" />
<glyph unicode="&#xc5;" horiz-adv-x="1546" d="M-18 -2v37q48 4 103 108t253 555l405 926h62l399 -926q192 -443 248.5 -551t103.5 -112v-37q-57 2 -264 2t-311 -2v37q28 2 39.5 15.5t6 45t-15 59.5t-32.5 85h-455q-15 -36 -23.5 -58t-16.5 -48t-8.5 -41t3 -29t15 -21t30.5 -8v-37q-88 2 -280 2q-211 0 -262 -2z M584 1843v2q0 75 58.5 125.5t141.5 50.5q73 0 131 -49.5t58 -120.5q0 -82 -56 -132t-143 -50q-77 0 -133.5 49.5t-56.5 124.5zM631 530h246l-3 7q-102 277 -116 340h-4q-6 -28 -123 -340v-7zM690 1845q0 -38 25.5 -64t62.5 -26q39 0 62.5 25.5t23.5 64.5v2q0 37 -24.5 63.5 t-59.5 26.5q-40 0 -65 -27t-25 -65z" />
<glyph unicode="&#xc6;" horiz-adv-x="2011" d="M-45 -2v37q62 21 164 192t250 469q323 645 360 717q44 93 34 127q-5 18 -24 25v34q50 0 248.5 -1t321.5 -1q111 0 290 1t265 1q-2 -117 -6 -403h-37q-9 55 -66 76.5t-170 21.5h-227v-333h123q135 0 194 9t70 38h35q-2 -51 -2 -191q0 -158 2 -215h-33q-12 31 -72.5 43 t-189.5 12h-127v-290q0 -35 8 -43.5t41 -10.5h248q92 3 135.5 21.5t60.5 64.5h35q-2 -89 -4 -171t-3 -130.5t-1 -99.5q-182 2 -479 2q-387 0 -500 -2v35q44 8 62.5 38t21.5 111q1 26 2 79t2 77h-416q-10 -22 -31.5 -67t-31.5 -68q-33 -75 -32 -111t34 -57v-37q-74 2 -328 2 q-161 0 -227 -2zM707 637h288v663q-135 -345 -286 -657z" />
<glyph unicode="&#xc7;" horiz-adv-x="1486" d="M80 797q0 182 69 334.5t193.5 259.5t304 167t393.5 60q154 0 310 -29q-7 -147 -15 -434h-32q-28 72 -105 107q-66 26 -176 26q-227 0 -376.5 -133t-149.5 -350q0 -226 136 -361t359 -135q109 0 197 29q82 29 121 102h32q0 -142 11 -417q-75 -21 -179 -34.5t-200 -13.5 q-27 0 -37 2l-49 -88v-4q139 -30 139 -143q0 -50 -25.5 -87t-68 -57.5t-89.5 -30t-98 -9.5q-34 0 -79 10l20 86q25 -6 80 -6q43 0 74.5 24t31.5 64q0 38 -34.5 59t-94.5 21v4l91 166q-164 19 -302.5 84.5t-239 168.5t-156.5 246.5t-56 311.5z" />
<glyph unicode="&#xc8;" horiz-adv-x="1251" d="M119 -2v35q64 6 76 107.5t12 555.5v246q0 424 -11.5 521.5t-72.5 101.5v34q17 0 181.5 -1t287.5 -1q95 0 270 1t242 1q0 -17 -3.5 -156t-4.5 -247h-35q-9 54 -67 76t-169 22h-237v-333h200q111 0 149 8.5t48 38.5h35q-4 -144 -4 -193q0 -53 4 -213h-33q-11 32 -50.5 43.5 t-143.5 11.5h-205v-278q0 -35 7 -47.5t34 -18.5h284q81 3 125 22t54 64h34q-8 -260 -8 -401q-154 2 -469 2q-464 0 -530 -2zM344 1935l96 142l375 -310l-55 -77z" />
<glyph unicode="&#xc9;" horiz-adv-x="1251" d="M119 -2v35q64 6 76 107.5t12 555.5v246q0 424 -11.5 521.5t-72.5 101.5v34q17 0 181.5 -1t287.5 -1q95 0 270 1t242 1q0 -17 -3.5 -156t-4.5 -247h-35q-9 54 -67 76t-169 22h-237v-333h200q111 0 149 8.5t48 38.5h35q-4 -144 -4 -193q0 -53 4 -213h-33q-11 32 -50.5 43.5 t-143.5 11.5h-205v-278q0 -35 7 -47.5t34 -18.5h284q81 3 125 22t54 64h34q-8 -260 -8 -401q-154 2 -469 2q-464 0 -530 -2zM463 1772l375 309l96 -142l-416 -245z" />
<glyph unicode="&#xca;" horiz-adv-x="1251" d="M119 -2v35q64 6 76 107.5t12 555.5v246q0 424 -11.5 521.5t-72.5 101.5v34q17 0 181.5 -1t287.5 -1q95 0 270 1t242 1q0 -17 -3.5 -156t-4.5 -247h-35q-9 54 -67 76t-169 22h-237v-333h200q111 0 149 8.5t48 38.5h35q-4 -144 -4 -193q0 -53 4 -213h-33q-11 32 -50.5 43.5 t-143.5 11.5h-205v-278q0 -35 7 -47.5t34 -18.5h284q81 3 125 22t54 64h34q-8 -260 -8 -401q-154 2 -469 2q-464 0 -530 -2zM342 1755l328 309l311 -313l-68 -72l-254 174l-256 -172z" />
<glyph unicode="&#xcb;" horiz-adv-x="1251" d="M119 -2v35q64 6 76 107.5t12 555.5v246q0 424 -11.5 521.5t-72.5 101.5v34q17 0 181.5 -1t287.5 -1q95 0 270 1t242 1q0 -17 -3.5 -156t-4.5 -247h-35q-9 54 -67 76t-169 22h-237v-333h200q111 0 149 8.5t48 38.5h35q-4 -144 -4 -193q0 -53 4 -213h-33q-11 32 -50.5 43.5 t-143.5 11.5h-205v-278q0 -35 7 -47.5t34 -18.5h284q81 3 125 22t54 64h34q-8 -260 -8 -401q-154 2 -469 2q-464 0 -530 -2zM319 1823v2q0 43 35 74.5t84 31.5q50 0 83.5 -31.5t33.5 -76.5q0 -47 -33.5 -80t-83.5 -33q-49 0 -84 33.5t-35 79.5zM717 1823v2q0 43 35 74.5 t84 31.5q51 0 85.5 -31.5t34.5 -76.5q0 -46 -35 -79.5t-85 -33.5q-49 0 -84 33.5t-35 79.5z" />
<glyph unicode="&#xcc;" horiz-adv-x="794" d="M53 1935l99 142l372 -310l-53 -77zM111 -2v37q47 8 64 43q26 51 30 258q2 89 2 358v248q0 421 -12.5 516t-79.5 105v36q14 0 113 -1t169 -1q58 0 155 1t126 1v-34q-64 -12 -77 -108t-13 -513v-246q0 -452 13.5 -552t84.5 -113v-35q-74 2 -287 2q-239 0 -288 -2z" />
<glyph unicode="&#xcd;" horiz-adv-x="794" d="M111 -2v37q47 8 64 43q26 51 30 258q2 89 2 358v248q0 421 -12.5 516t-79.5 105v36q14 0 113 -1t169 -1q58 0 155 1t126 1v-34q-64 -12 -77 -108t-13 -513v-246q0 -452 13.5 -552t84.5 -113v-35q-74 2 -287 2q-239 0 -288 -2zM258 1772l373 309l98 -142l-418 -245z" />
<glyph unicode="&#xce;" horiz-adv-x="794" d="M72 1755l327 309l312 -313l-68 -72l-254 174l-256 -172zM111 -2v37q47 8 64 43q26 51 30 258q2 89 2 358v248q0 421 -12.5 516t-79.5 105v36q14 0 113 -1t169 -1q58 0 155 1t126 1v-34q-64 -12 -77 -108t-13 -513v-246q0 -452 13.5 -552t84.5 -113v-35q-74 2 -287 2 q-239 0 -288 -2z" />
<glyph unicode="&#xcf;" horiz-adv-x="794" d="M78 1823v2q0 43 35 74.5t84 31.5q50 0 83 -31.5t33 -76.5q0 -47 -33 -80t-83 -33q-49 0 -84 33.5t-35 79.5zM111 -2v37q47 8 64 43q26 51 30 258q2 89 2 358v248q0 421 -12.5 516t-79.5 105v36q14 0 113 -1t169 -1q58 0 155 1t126 1v-34q-64 -12 -77 -108t-13 -513v-246 q0 -452 13.5 -552t84.5 -113v-35q-74 2 -287 2q-239 0 -288 -2zM475 1823v2q0 43 35 74.5t84 31.5q51 0 86 -31.5t35 -76.5q0 -46 -35 -79.5t-86 -33.5q-49 0 -84 33.5t-35 79.5z" />
<glyph unicode="&#xd0;" horiz-adv-x="1671" d="M57 727q2 12 2 80q0 72 -2 84q104 0 172 -2v65q0 398 -10 480q-9 84 -43 107q-13 9 -39 15v35q82 0 264 9.5t287 9.5q209 0 356 -39t261 -127q135 -91 209.5 -251t74.5 -357v-2q0 -403 -272 -635q-129 -113 -288.5 -159t-381.5 -46q-22 0 -280 6q-120 0 -234 4v35 q46 11 63 40q26 45 31 227q2 90 2 380v43q-38 0 -98.5 -1t-73.5 -1zM610 375q0 -21 5.5 -29t25.5 -12q35 -6 90 -6q87 0 168.5 31t138.5 85q146 133 146 367v2q0 117 -40 210.5t-100 147.5q-115 109 -317 109q-59 0 -117 -8v-383q70 0 176 1t117 1v-162q-174 0 -293 2v-356z " />
<glyph unicode="&#xd1;" horiz-adv-x="1755" d="M100 -2v35q67 6 80 108.5t13 554.5v914h57q488 -423 661 -586q138 -127 303 -303h7q-4 196 -4 242q0 406 -14 502t-83 100v34q36 0 133 -1t140 -1q65 0 150 1t102 1v-34q-61 -4 -72.5 -101.5t-11.5 -521.5v-962h-56q-493 420 -661 573q-150 133 -305 299h-7 q5 -103 5 -180q0 -435 12.5 -533t77.5 -104v-37q-72 2 -273 2q-203 0 -254 -2zM532 1712q23 95 83 164.5t143 69.5q40 0 72 -14t77 -48q37 -30 62.5 -44t56.5 -15q37 0 66.5 26.5t44.5 77.5l90 -14q-28 -105 -84.5 -171.5t-132.5 -66.5q-73 0 -148 56q-33 25 -48 35.5 t-38.5 20t-46.5 9.5q-72 0 -108 -104z" />
<glyph unicode="&#xd2;" d="M84 786q0 241 116 433t316 297.5t445 105.5q237 0 428.5 -102t302 -288t110.5 -421v-2q0 -178 -66.5 -334t-181 -267t-274.5 -175t-342 -64q-235 0 -431 107t-309.5 294.5t-113.5 415.5zM492 793q0 -134 55.5 -244t160 -175t238.5 -65q133 0 237 65.5t159 175.5t55 243v2 q0 131 -56.5 243t-159 179t-229.5 67q-138 0 -244 -66t-161 -177t-55 -248zM621 1946l98 141l373 -309l-54 -78z" />
<glyph unicode="&#xd3;" d="M84 786q0 241 116 433t316 297.5t445 105.5q237 0 428.5 -102t302 -288t110.5 -421v-2q0 -178 -66.5 -334t-181 -267t-274.5 -175t-342 -64q-235 0 -431 107t-309.5 294.5t-113.5 415.5zM492 793q0 -134 55.5 -244t160 -175t238.5 -65q133 0 237 65.5t159 175.5t55 243v2 q0 131 -56.5 243t-159 179t-229.5 67q-138 0 -244 -66t-161 -177t-55 -248zM784 1782l373 309l98 -141l-417 -246z" />
<glyph unicode="&#xd4;" d="M84 786q0 241 116 433t316 297.5t445 105.5q237 0 428.5 -102t302 -288t110.5 -421v-2q0 -178 -66.5 -334t-181 -267t-274.5 -175t-342 -64q-235 0 -431 107t-309.5 294.5t-113.5 415.5zM492 793q0 -134 55.5 -244t160 -175t238.5 -65q133 0 237 65.5t159 175.5t55 243v2 q0 131 -56.5 243t-159 179t-229.5 67q-138 0 -244 -66t-161 -177t-55 -248zM637 1755l328 309l311 -313l-68 -72l-254 174l-256 -172z" />
<glyph unicode="&#xd5;" d="M84 786q0 241 116 433t316 297.5t445 105.5q237 0 428.5 -102t302 -288t110.5 -421v-2q0 -178 -66.5 -334t-181 -267t-274.5 -175t-342 -64q-235 0 -431 107t-309.5 294.5t-113.5 415.5zM492 793q0 -134 55.5 -244t160 -175t238.5 -65q133 0 237 65.5t159 175.5t55 243v2 q0 131 -56.5 243t-159 179t-229.5 67q-138 0 -244 -66t-161 -177t-55 -248zM600 1739q23 95 82.5 164t142.5 69q41 0 73.5 -14t76.5 -47q38 -31 63 -45t56 -15q36 0 65.5 27t44.5 78l90 -14q-28 -105 -84.5 -171.5t-132.5 -66.5q-73 0 -147 55q-34 26 -48 36t-38 20t-47 10 q-73 0 -109 -105z" />
<glyph unicode="&#xd6;" d="M84 786q0 241 116 433t316 297.5t445 105.5q237 0 428.5 -102t302 -288t110.5 -421v-2q0 -178 -66.5 -334t-181 -267t-274.5 -175t-342 -64q-235 0 -431 107t-309.5 294.5t-113.5 415.5zM492 793q0 -134 55.5 -244t160 -175t238.5 -65q133 0 237 65.5t159 175.5t55 243v2 q0 131 -56.5 243t-159 179t-229.5 67q-138 0 -244 -66t-161 -177t-55 -248zM641 1823v2q0 43 35 74.5t84 31.5q50 0 83.5 -31.5t33.5 -76.5q0 -47 -33.5 -80t-83.5 -33q-49 0 -84 33.5t-35 79.5zM1038 1823v2q0 43 35 74.5t84 31.5q51 0 86 -31.5t35 -76.5q0 -46 -35 -79.5 t-86 -33.5q-49 0 -84 33.5t-35 79.5z" />
<glyph unicode="&#xd7;" horiz-adv-x="1142" d="M76 391l342 342l-342 342l153 154l342 -342l342 342l154 -154l-342 -342l342 -342l-154 -153l-342 342l-342 -342z" />
<glyph unicode="&#xd8;" d="M70 -2q95 100 231 240q-98 98 -158.5 244.5t-60.5 308.5q0 236 114 426.5t313 297.5t443 107h2q142 0 274 -41.5t234 -116.5q21 25 66.5 72.5t58.5 62.5h230q-84 -91 -232 -239q97 -97 156 -240t59 -315q0 -175 -66 -330.5t-180 -266t-274 -175t-342 -64.5 q-281 0 -514 160q-41 -41 -123 -131h-231zM489 788q0 -148 74 -276q93 98 301.5 320t345.5 366q-104 86 -260 86h-2q-137 0 -242.5 -66t-161 -178t-55.5 -252zM672 395q107 -86 268 -86h2q133 0 238 66t160 175t55 238q0 157 -74 289q-441 -467 -649 -682z" />
<glyph unicode="&#xd9;" horiz-adv-x="1701" d="M76 1565v34q20 0 115 -1t165 -1q60 0 156 1t127 1v-34q-64 -4 -76 -101.5t-12 -521.5v-203q0 -190 61 -284q37 -57 103.5 -88t150.5 -31q70 0 131.5 30t102.5 85q35 47 50 114t15 174v203q0 424 -13.5 521.5t-82.5 101.5v34q38 0 135 -1t148 -1q71 0 163.5 1t106.5 1v-34 q-58 -4 -70 -103.5t-12 -519.5v-194q0 -188 -33.5 -307t-103.5 -212q-67 -106 -209.5 -182t-327.5 -76q-215 0 -374.5 83t-241.5 235q-50 86 -69 187t-19 261v205q0 424 -12 521.5t-74 101.5zM508 1915l98 141l373 -309l-53 -78z" />
<glyph unicode="&#xda;" horiz-adv-x="1701" d="M76 1565v34q20 0 115 -1t165 -1q60 0 156 1t127 1v-34q-64 -4 -76 -101.5t-12 -521.5v-203q0 -190 61 -284q37 -57 103.5 -88t150.5 -31q70 0 131.5 30t102.5 85q35 47 50 114t15 174v203q0 424 -13.5 521.5t-82.5 101.5v34q38 0 135 -1t148 -1q71 0 163.5 1t106.5 1v-34 q-58 -4 -70 -103.5t-12 -519.5v-194q0 -188 -33.5 -307t-103.5 -212q-67 -106 -209.5 -182t-327.5 -76q-215 0 -374.5 83t-241.5 235q-50 86 -69 187t-19 261v205q0 424 -12 521.5t-74 101.5zM748 1751l374 309l97 -141l-416 -246z" />
<glyph unicode="&#xdb;" horiz-adv-x="1701" d="M76 1565v34q20 0 115 -1t165 -1q60 0 156 1t127 1v-34q-64 -4 -76 -101.5t-12 -521.5v-203q0 -190 61 -284q37 -57 103.5 -88t150.5 -31q70 0 131.5 30t102.5 85q35 47 50 114t15 174v203q0 424 -13.5 521.5t-82.5 101.5v34q38 0 135 -1t148 -1q71 0 163.5 1t106.5 1v-34 q-58 -4 -70 -103.5t-12 -519.5v-194q0 -188 -33.5 -307t-103.5 -212q-67 -106 -209.5 -182t-327.5 -76q-215 0 -374.5 83t-241.5 235q-50 86 -69 187t-19 261v205q0 424 -12 521.5t-74 101.5zM543 1755l327 309l312 -313l-66 -72l-256 174l-254 -172z" />
<glyph unicode="&#xdc;" horiz-adv-x="1701" d="M76 1565v34q20 0 115 -1t165 -1q60 0 156 1t127 1v-34q-64 -4 -76 -101.5t-12 -521.5v-203q0 -190 61 -284q37 -57 103.5 -88t150.5 -31q70 0 131.5 30t102.5 85q35 47 50 114t15 174v203q0 424 -13.5 521.5t-82.5 101.5v34q38 0 135 -1t148 -1q71 0 163.5 1t106.5 1v-34 q-58 -4 -70 -103.5t-12 -519.5v-194q0 -188 -33.5 -307t-103.5 -212q-67 -106 -209.5 -182t-327.5 -76q-215 0 -374.5 83t-241.5 235q-50 86 -69 187t-19 261v205q0 424 -12 521.5t-74 101.5zM543 1823v2q0 43 35 74.5t84 31.5q50 0 83 -31.5t33 -76.5q0 -47 -33 -80 t-83 -33q-49 0 -84 33.5t-35 79.5zM940 1823v2q0 43 35 74.5t84 31.5q51 0 86 -31.5t35 -76.5q0 -46 -35 -79.5t-86 -33.5q-49 0 -84 33.5t-35 79.5z" />
<glyph unicode="&#xdd;" horiz-adv-x="1474" d="M-37 1565v34q12 0 101 -1t165 -1q60 0 168 1t154 1v-34q-50 -4 -49 -42q0 -37 66 -164q6 -12 20 -38q12 -23 18 -35q95 -172 137 -268h5q44 93 137 258l1 1v1l1 1v1l1 1v1l1 1v1l1 1l1 1v1l1 1v1l1 1q94 171 106 214q16 52 -24 60q-5 1 -10 1v34q44 0 141 -1t158 -1 q70 0 146 1t95 1v-34q-22 -3 -40 -18.5t-56 -71.5t-89 -142t-150 -255q-72 -124 -115 -197l-127 -219v-97q0 -354 13.5 -438.5t84.5 -93.5v-35q-76 2 -285 2q-243 0 -290 -2v37q69 7 82.5 91t13.5 435v74l-135 239q-275 488 -304 537q-72 118 -109 142q-16 9 -36 12z M655 1751l373 309l98 -141l-417 -246z" />
<glyph unicode="&#xde;" horiz-adv-x="1343" d="M111 -2v39q47 12 64 45q26 50 30 248q2 89 2 364v248q0 403 -10 489q-10 90 -45 115q-13 10 -37 17v36q21 0 123.5 -1t158.5 -1q58 0 161 1t120 1v-36q-20 -7 -34 -18t-23 -29t-14.5 -36.5t-8.5 -48t-3.5 -54.5t-0.5 -66q344 18 508 -121q158 -132 158 -363v-2 q0 -92 -32.5 -176t-78.5 -135q-48 -56 -119.5 -100.5t-152.5 -65.5q-135 -32 -285 -29q3 -156 20.5 -210t75.5 -72v-39q-55 2 -293 2q-229 0 -284 -2zM590 592q10 0 28.5 -1t30.5 -1q56 0 109 23.5t80 60.5q43 58 43 137v2q0 47 -19 89.5t-53 70.5q-25 21 -66.5 32t-85.5 11 q-27 0 -67 -4v-420z" />
<glyph unicode="&#xdf;" horiz-adv-x="2232" d="M92 41q13 367 14 418h35q22 -76 86 -119q69 -39 183 -39q85 0 134.5 36t49.5 105q0 78 -105 160q-16 12 -157 121q-228 172 -228 410q0 99 36.5 185t104.5 151t173.5 102t236.5 37q65 0 143 -11t124 -26q-8 -187 -11 -414h-34q-13 55 -72 96q-51 33 -127 33 q-81 0 -129.5 -37.5t-48.5 -99.5q0 -39 18.5 -69.5t56.5 -63.5q19 -17 47.5 -39.5t74 -57.5t77.5 -61q112 -90 168.5 -189.5t56.5 -222.5v-2q0 -207 -153 -335.5t-402 -128.5q-101 0 -197.5 17t-154.5 44zM1192 41q13 367 14 418h35q22 -76 86 -119q69 -39 182 -39 q86 0 135.5 36t49.5 105q0 78 -105 160q-16 12 -157 121q-228 172 -228 410q0 99 36.5 185t104.5 151t173.5 102t236.5 37q65 0 142.5 -11t123.5 -26q-7 -156 -10 -414h-35q-13 56 -71 96q-51 33 -127 33q-81 0 -130 -37.5t-49 -99.5q0 -39 18.5 -69t57.5 -64 q19 -17 47.5 -39.5t74 -57.5t77.5 -61q112 -90 168.5 -189.5t56.5 -222.5v-2q0 -207 -153 -335.5t-402 -128.5q-101 0 -197.5 17t-154.5 44z" />
<glyph unicode="&#xe0;" horiz-adv-x="1546" d="M-18 -2v37q48 4 103 108t253 555l405 926h62l399 -926q192 -443 248.5 -551t103.5 -112v-37q-57 2 -264 2t-311 -2v37q28 2 39.5 15.5t6 45t-15 59.5t-32.5 85h-455q-15 -36 -23.5 -58t-16.5 -48t-8.5 -41t3 -29t15 -21t30.5 -8v-37q-88 2 -280 2q-211 0 -262 -2z M430 1935l98 142l373 -310l-53 -77zM631 530h246l-3 7q-102 277 -116 340h-4q-6 -28 -123 -340v-7z" />
<glyph unicode="&#xe1;" horiz-adv-x="1546" d="M-18 -2v37q48 4 103 108t253 555l405 926h62l399 -926q192 -443 248.5 -551t103.5 -112v-37q-57 2 -264 2t-311 -2v37q28 2 39.5 15.5t6 45t-15 59.5t-32.5 85h-455q-15 -36 -23.5 -58t-16.5 -48t-8.5 -41t3 -29t15 -21t30.5 -8v-37q-88 2 -280 2q-211 0 -262 -2z M631 530h246l-3 7q-102 277 -116 340h-4q-6 -28 -123 -340v-7zM639 1772l375 309l96 -142l-416 -245z" />
<glyph unicode="&#xe2;" horiz-adv-x="1546" d="M-18 -2v37q48 4 103 108t253 555l405 926h62l399 -926q192 -443 248.5 -551t103.5 -112v-37q-57 2 -264 2t-311 -2v37q28 2 39.5 15.5t6 45t-15 59.5t-32.5 85h-455q-15 -36 -23.5 -58t-16.5 -48t-8.5 -41t3 -29t15 -21t30.5 -8v-37q-88 2 -280 2q-211 0 -262 -2z M457 1714l327 309l312 -313l-68 -72l-254 174l-256 -172zM631 530h246l-3 7q-102 277 -116 340h-4q-6 -28 -123 -340v-7z" />
<glyph unicode="&#xe3;" horiz-adv-x="1546" d="M-18 -2v37q48 4 103 108t253 555l405 926h62l399 -926q192 -443 248.5 -551t103.5 -112v-37q-57 2 -264 2t-311 -2v37q28 2 39.5 15.5t6 45t-15 59.5t-32.5 85h-455q-15 -36 -23.5 -58t-16.5 -48t-8.5 -41t3 -29t15 -21t30.5 -8v-37q-88 2 -280 2q-211 0 -262 -2z M434 1718q22 94 82.5 164t142.5 70q41 0 74.5 -14.5t77.5 -47.5q37 -30 62.5 -44t56.5 -15q35 0 65.5 27t44.5 77l88 -14q-28 -105 -83.5 -171.5t-131.5 -66.5q-72 0 -147 56q-33 25 -48 35.5t-38.5 20t-46.5 9.5q-73 0 -109 -104zM631 530h246l-3 7q-102 277 -116 340h-4 q-6 -28 -123 -340v-7z" />
<glyph unicode="&#xe4;" horiz-adv-x="1546" d="M-18 -2v37q48 4 103 108t253 555l405 926h62l399 -926q192 -443 248.5 -551t103.5 -112v-37q-57 2 -264 2t-311 -2v37q28 2 39.5 15.5t6 45t-15 59.5t-32.5 85h-455q-15 -36 -23.5 -58t-16.5 -48t-8.5 -41t3 -29t15 -21t30.5 -8v-37q-88 2 -280 2q-211 0 -262 -2z M465 1788v2q0 43 35 74.5t84 31.5q50 0 83 -31.5t33 -76.5q0 -47 -33 -80t-83 -33q-49 0 -84 33.5t-35 79.5zM631 530h246l-3 7q-102 277 -116 340h-4q-6 -28 -123 -340v-7zM862 1788v2q0 43 35 74.5t84 31.5q51 0 86 -31.5t35 -76.5q0 -46 -35 -79.5t-86 -33.5 q-49 0 -84 33.5t-35 79.5z" />
<glyph unicode="&#xe5;" horiz-adv-x="1546" d="M-18 -2v37q48 4 103 108t253 555l405 926h62l399 -926q192 -443 248.5 -551t103.5 -112v-37q-57 2 -264 2t-311 -2v37q28 2 39.5 15.5t6 45t-15 59.5t-32.5 85h-455q-15 -36 -23.5 -58t-16.5 -48t-8.5 -41t3 -29t15 -21t30.5 -8v-37q-88 2 -280 2q-211 0 -262 -2z M584 1843v2q0 75 58.5 125.5t141.5 50.5q73 0 131 -49.5t58 -120.5q0 -82 -56 -132t-143 -50q-77 0 -133.5 49.5t-56.5 124.5zM631 530h246l-3 7q-102 277 -116 340h-4q-6 -28 -123 -340v-7zM690 1845q0 -38 25.5 -64t62.5 -26q39 0 62.5 25.5t23.5 64.5v2q0 37 -24.5 63.5 t-59.5 26.5q-40 0 -65 -27t-25 -65z" />
<glyph unicode="&#xe6;" horiz-adv-x="2011" d="M-45 -2v37q62 21 164 192t250 469q323 645 360 717q44 93 34 127q-5 18 -24 25v34q50 0 248.5 -1t321.5 -1q111 0 290 1t265 1q-2 -117 -6 -403h-37q-9 55 -66 76.5t-170 21.5h-227v-333h123q135 0 194 9t70 38h35q-2 -51 -2 -191q0 -158 2 -215h-33q-12 31 -72.5 43 t-189.5 12h-127v-290q0 -35 8 -43.5t41 -10.5h248q92 3 135.5 21.5t60.5 64.5h35q-2 -89 -4 -171t-3 -130.5t-1 -99.5q-182 2 -479 2q-387 0 -500 -2v35q44 8 62.5 38t21.5 111q1 26 2 79t2 77h-416q-10 -22 -31.5 -67t-31.5 -68q-33 -75 -32 -111t34 -57v-37q-74 2 -328 2 q-161 0 -227 -2zM707 637h288v663q-135 -345 -286 -657z" />
<glyph unicode="&#xe7;" horiz-adv-x="1486" d="M80 797q0 182 69 334.5t193.5 259.5t304 167t393.5 60q154 0 310 -29q-7 -147 -15 -434h-32q-28 72 -105 107q-66 26 -176 26q-227 0 -376.5 -133t-149.5 -350q0 -226 136 -361t359 -135q109 0 197 29q82 29 121 102h32q0 -142 11 -417q-75 -21 -179 -34.5t-200 -13.5 q-27 0 -37 2l-49 -88v-4q139 -30 139 -143q0 -50 -25.5 -87t-68 -57.5t-89.5 -30t-98 -9.5q-34 0 -79 10l20 86q25 -6 80 -6q43 0 74.5 24t31.5 64q0 38 -34.5 59t-94.5 21v4l91 166q-164 19 -302.5 84.5t-239 168.5t-156.5 246.5t-56 311.5z" />
<glyph unicode="&#xe8;" horiz-adv-x="1251" d="M119 -2v35q64 6 76 107.5t12 555.5v246q0 424 -11.5 521.5t-72.5 101.5v34q17 0 181.5 -1t287.5 -1q95 0 270 1t242 1q0 -17 -3.5 -156t-4.5 -247h-35q-9 54 -67 76t-169 22h-237v-333h200q111 0 149 8.5t48 38.5h35q-4 -144 -4 -193q0 -53 4 -213h-33q-11 32 -50.5 43.5 t-143.5 11.5h-205v-278q0 -35 7 -47.5t34 -18.5h284q81 3 125 22t54 64h34q-8 -260 -8 -401q-154 2 -469 2q-464 0 -530 -2zM344 1935l96 142l375 -310l-55 -77z" />
<glyph unicode="&#xe9;" horiz-adv-x="1251" d="M119 -2v35q64 6 76 107.5t12 555.5v246q0 424 -11.5 521.5t-72.5 101.5v34q17 0 181.5 -1t287.5 -1q95 0 270 1t242 1q0 -17 -3.5 -156t-4.5 -247h-35q-9 54 -67 76t-169 22h-237v-333h200q111 0 149 8.5t48 38.5h35q-4 -144 -4 -193q0 -53 4 -213h-33q-11 32 -50.5 43.5 t-143.5 11.5h-205v-278q0 -35 7 -47.5t34 -18.5h284q81 3 125 22t54 64h34q-8 -260 -8 -401q-154 2 -469 2q-464 0 -530 -2zM463 1772l375 309l96 -142l-416 -245z" />
<glyph unicode="&#xea;" horiz-adv-x="1251" d="M119 -2v35q64 6 76 107.5t12 555.5v246q0 424 -11.5 521.5t-72.5 101.5v34q17 0 181.5 -1t287.5 -1q95 0 270 1t242 1q0 -17 -3.5 -156t-4.5 -247h-35q-9 54 -67 76t-169 22h-237v-333h200q111 0 149 8.5t48 38.5h35q-4 -144 -4 -193q0 -53 4 -213h-33q-11 32 -50.5 43.5 t-143.5 11.5h-205v-278q0 -35 7 -47.5t34 -18.5h284q81 3 125 22t54 64h34q-8 -260 -8 -401q-154 2 -469 2q-464 0 -530 -2zM342 1755l328 309l311 -313l-68 -72l-254 174l-256 -172z" />
<glyph unicode="&#xeb;" horiz-adv-x="1251" d="M119 -2v35q64 6 76 107.5t12 555.5v246q0 424 -11.5 521.5t-72.5 101.5v34q17 0 181.5 -1t287.5 -1q95 0 270 1t242 1q0 -17 -3.5 -156t-4.5 -247h-35q-9 54 -67 76t-169 22h-237v-333h200q111 0 149 8.5t48 38.5h35q-4 -144 -4 -193q0 -53 4 -213h-33q-11 32 -50.5 43.5 t-143.5 11.5h-205v-278q0 -35 7 -47.5t34 -18.5h284q81 3 125 22t54 64h34q-8 -260 -8 -401q-154 2 -469 2q-464 0 -530 -2zM319 1823v2q0 43 35 74.5t84 31.5q50 0 83.5 -31.5t33.5 -76.5q0 -47 -33.5 -80t-83.5 -33q-49 0 -84 33.5t-35 79.5zM717 1823v2q0 43 35 74.5 t84 31.5q51 0 85.5 -31.5t34.5 -76.5q0 -46 -35 -79.5t-85 -33.5q-49 0 -84 33.5t-35 79.5z" />
<glyph unicode="&#xec;" horiz-adv-x="794" d="M53 1935l99 142l372 -310l-53 -77zM111 -2v37q47 8 64 43q26 51 30 258q2 89 2 358v248q0 421 -12.5 516t-79.5 105v36q14 0 113 -1t169 -1q58 0 155 1t126 1v-34q-64 -12 -77 -108t-13 -513v-246q0 -452 13.5 -552t84.5 -113v-35q-74 2 -287 2q-239 0 -288 -2z" />
<glyph unicode="&#xed;" horiz-adv-x="794" d="M111 -2v37q47 8 64 43q26 51 30 258q2 89 2 358v248q0 421 -12.5 516t-79.5 105v36q14 0 113 -1t169 -1q58 0 155 1t126 1v-34q-64 -12 -77 -108t-13 -513v-246q0 -452 13.5 -552t84.5 -113v-35q-74 2 -287 2q-239 0 -288 -2zM258 1772l373 309l98 -142l-418 -245z" />
<glyph unicode="&#xee;" horiz-adv-x="794" d="M72 1755l327 309l312 -313l-68 -72l-254 174l-256 -172zM111 -2v37q47 8 64 43q26 51 30 258q2 89 2 358v248q0 421 -12.5 516t-79.5 105v36q14 0 113 -1t169 -1q58 0 155 1t126 1v-34q-64 -12 -77 -108t-13 -513v-246q0 -452 13.5 -552t84.5 -113v-35q-74 2 -287 2 q-239 0 -288 -2z" />
<glyph unicode="&#xef;" horiz-adv-x="794" d="M78 1823v2q0 43 35 74.5t84 31.5q50 0 83 -31.5t33 -76.5q0 -47 -33 -80t-83 -33q-49 0 -84 33.5t-35 79.5zM111 -2v37q47 8 64 43q26 51 30 258q2 89 2 358v248q0 421 -12.5 516t-79.5 105v36q14 0 113 -1t169 -1q58 0 155 1t126 1v-34q-64 -12 -77 -108t-13 -513v-246 q0 -452 13.5 -552t84.5 -113v-35q-74 2 -287 2q-239 0 -288 -2zM475 1823v2q0 43 35 74.5t84 31.5q51 0 86 -31.5t35 -76.5q0 -46 -35 -79.5t-86 -33.5q-49 0 -84 33.5t-35 79.5z" />
<glyph unicode="&#xf0;" horiz-adv-x="1671" d="M57 727q2 12 2 80q0 72 -2 84q104 0 172 -2v65q0 398 -10 480q-9 84 -43 107q-13 9 -39 15v35q82 0 264 9.5t287 9.5q209 0 356 -39t261 -127q135 -91 209.5 -251t74.5 -357v-2q0 -403 -272 -635q-129 -113 -288.5 -159t-381.5 -46q-22 0 -280 6q-120 0 -234 4v35 q46 11 63 40q26 45 31 227q2 90 2 380v43q-38 0 -98.5 -1t-73.5 -1zM610 375q0 -21 5.5 -29t25.5 -12q35 -6 90 -6q87 0 168.5 31t138.5 85q146 133 146 367v2q0 117 -40 210.5t-100 147.5q-115 109 -317 109q-59 0 -117 -8v-383q70 0 176 1t117 1v-162q-174 0 -293 2v-356z " />
<glyph unicode="&#xf1;" horiz-adv-x="1755" d="M100 -2v35q67 6 80 108.5t13 554.5v914h57q488 -423 661 -586q138 -127 303 -303h7q-4 196 -4 242q0 406 -14 502t-83 100v34q36 0 133 -1t140 -1q65 0 150 1t102 1v-34q-61 -4 -72.5 -101.5t-11.5 -521.5v-962h-56q-493 420 -661 573q-150 133 -305 299h-7 q5 -103 5 -180q0 -435 12.5 -533t77.5 -104v-37q-72 2 -273 2q-203 0 -254 -2zM532 1712q23 95 83 164.5t143 69.5q40 0 72 -14t77 -48q37 -30 62.5 -44t56.5 -15q37 0 66.5 26.5t44.5 77.5l90 -14q-28 -105 -84.5 -171.5t-132.5 -66.5q-73 0 -148 56q-33 25 -48 35.5 t-38.5 20t-46.5 9.5q-72 0 -108 -104z" />
<glyph unicode="&#xf2;" d="M84 786q0 241 116 433t316 297.5t445 105.5q237 0 428.5 -102t302 -288t110.5 -421v-2q0 -178 -66.5 -334t-181 -267t-274.5 -175t-342 -64q-235 0 -431 107t-309.5 294.5t-113.5 415.5zM492 793q0 -134 55.5 -244t160 -175t238.5 -65q133 0 237 65.5t159 175.5t55 243v2 q0 131 -56.5 243t-159 179t-229.5 67q-138 0 -244 -66t-161 -177t-55 -248zM621 1946l98 141l373 -309l-54 -78z" />
<glyph unicode="&#xf3;" d="M84 786q0 241 116 433t316 297.5t445 105.5q237 0 428.5 -102t302 -288t110.5 -421v-2q0 -178 -66.5 -334t-181 -267t-274.5 -175t-342 -64q-235 0 -431 107t-309.5 294.5t-113.5 415.5zM492 793q0 -134 55.5 -244t160 -175t238.5 -65q133 0 237 65.5t159 175.5t55 243v2 q0 131 -56.5 243t-159 179t-229.5 67q-138 0 -244 -66t-161 -177t-55 -248zM784 1782l373 309l98 -141l-417 -246z" />
<glyph unicode="&#xf4;" d="M84 786q0 241 116 433t316 297.5t445 105.5q237 0 428.5 -102t302 -288t110.5 -421v-2q0 -178 -66.5 -334t-181 -267t-274.5 -175t-342 -64q-235 0 -431 107t-309.5 294.5t-113.5 415.5zM492 793q0 -134 55.5 -244t160 -175t238.5 -65q133 0 237 65.5t159 175.5t55 243v2 q0 131 -56.5 243t-159 179t-229.5 67q-138 0 -244 -66t-161 -177t-55 -248zM637 1755l328 309l311 -313l-68 -72l-254 174l-256 -172z" />
<glyph unicode="&#xf5;" d="M84 786q0 241 116 433t316 297.5t445 105.5q237 0 428.5 -102t302 -288t110.5 -421v-2q0 -178 -66.5 -334t-181 -267t-274.5 -175t-342 -64q-235 0 -431 107t-309.5 294.5t-113.5 415.5zM492 793q0 -134 55.5 -244t160 -175t238.5 -65q133 0 237 65.5t159 175.5t55 243v2 q0 131 -56.5 243t-159 179t-229.5 67q-138 0 -244 -66t-161 -177t-55 -248zM600 1739q23 95 82.5 164t142.5 69q41 0 73.5 -14t76.5 -47q38 -31 63 -45t56 -15q36 0 65.5 27t44.5 78l90 -14q-28 -105 -84.5 -171.5t-132.5 -66.5q-73 0 -147 55q-34 26 -48 36t-38 20t-47 10 q-73 0 -109 -105z" />
<glyph unicode="&#xf6;" d="M84 786q0 241 116 433t316 297.5t445 105.5q237 0 428.5 -102t302 -288t110.5 -421v-2q0 -178 -66.5 -334t-181 -267t-274.5 -175t-342 -64q-235 0 -431 107t-309.5 294.5t-113.5 415.5zM492 793q0 -134 55.5 -244t160 -175t238.5 -65q133 0 237 65.5t159 175.5t55 243v2 q0 131 -56.5 243t-159 179t-229.5 67q-138 0 -244 -66t-161 -177t-55 -248zM637 1823v2q0 43 35 74.5t84 31.5q50 0 83 -31.5t33 -76.5q0 -47 -33 -80t-83 -33q-49 0 -84 33.5t-35 79.5zM1034 1823v2q0 43 35 74.5t84 31.5q51 0 86 -31.5t35 -76.5q0 -46 -35 -79.5 t-86 -33.5q-49 0 -84 33.5t-35 79.5z" />
<glyph unicode="&#xf7;" horiz-adv-x="1142" d="M61 616v234h1020v-234h-1020zM428 348v2q0 58 45 103t102 45q61 0 105.5 -45t44.5 -105q0 -61 -46 -101t-108 -40q-55 0 -99 42.5t-44 98.5zM428 1124v2q0 58 45 103t102 45q61 0 105.5 -45t44.5 -105q0 -61 -46 -101t-108 -40q-55 0 -99 42.5t-44 98.5z" />
<glyph unicode="&#xf8;" d="M70 -2q95 100 231 240q-98 98 -158.5 244.5t-60.5 308.5q0 236 114 426.5t313 297.5t443 107h2q142 0 274 -41.5t234 -116.5q21 25 66.5 72.5t58.5 62.5h230q-84 -91 -232 -239q97 -97 156 -240t59 -315q0 -175 -66 -330.5t-180 -266t-274 -175t-342 -64.5 q-281 0 -514 160q-41 -41 -123 -131h-231zM489 788q0 -148 74 -276q93 98 301.5 320t345.5 366q-104 86 -260 86h-2q-137 0 -242.5 -66t-161 -178t-55.5 -252zM672 395q107 -86 268 -86h2q133 0 238 66t160 175t55 238q0 157 -74 289q-441 -467 -649 -682z" />
<glyph unicode="&#xf9;" horiz-adv-x="1701" d="M76 1565v34q20 0 115 -1t165 -1q60 0 156 1t127 1v-34q-64 -4 -76 -101.5t-12 -521.5v-203q0 -190 61 -284q37 -57 103.5 -88t150.5 -31q70 0 131.5 30t102.5 85q35 47 50 114t15 174v203q0 424 -13.5 521.5t-82.5 101.5v34q38 0 135 -1t148 -1q71 0 163.5 1t106.5 1v-34 q-58 -4 -70 -103.5t-12 -519.5v-194q0 -188 -33.5 -307t-103.5 -212q-67 -106 -209.5 -182t-327.5 -76q-215 0 -374.5 83t-241.5 235q-50 86 -69 187t-19 261v205q0 424 -12 521.5t-74 101.5zM508 1915l98 141l373 -309l-53 -78z" />
<glyph unicode="&#xfa;" horiz-adv-x="1701" d="M76 1565v34q20 0 115 -1t165 -1q60 0 156 1t127 1v-34q-64 -4 -76 -101.5t-12 -521.5v-203q0 -190 61 -284q37 -57 103.5 -88t150.5 -31q70 0 131.5 30t102.5 85q35 47 50 114t15 174v203q0 424 -13.5 521.5t-82.5 101.5v34q38 0 135 -1t148 -1q71 0 163.5 1t106.5 1v-34 q-58 -4 -70 -103.5t-12 -519.5v-194q0 -188 -33.5 -307t-103.5 -212q-67 -106 -209.5 -182t-327.5 -76q-215 0 -374.5 83t-241.5 235q-50 86 -69 187t-19 261v205q0 424 -12 521.5t-74 101.5zM748 1751l374 309l97 -141l-416 -246z" />
<glyph unicode="&#xfb;" horiz-adv-x="1701" d="M76 1565v34q20 0 115 -1t165 -1q60 0 156 1t127 1v-34q-64 -4 -76 -101.5t-12 -521.5v-203q0 -190 61 -284q37 -57 103.5 -88t150.5 -31q70 0 131.5 30t102.5 85q35 47 50 114t15 174v203q0 424 -13.5 521.5t-82.5 101.5v34q38 0 135 -1t148 -1q71 0 163.5 1t106.5 1v-34 q-58 -4 -70 -103.5t-12 -519.5v-194q0 -188 -33.5 -307t-103.5 -212q-67 -106 -209.5 -182t-327.5 -76q-215 0 -374.5 83t-241.5 235q-50 86 -69 187t-19 261v205q0 424 -12 521.5t-74 101.5zM543 1755l327 309l312 -313l-66 -72l-256 174l-254 -172z" />
<glyph unicode="&#xfc;" horiz-adv-x="1701" d="M76 1565v34q20 0 115 -1t165 -1q60 0 156 1t127 1v-34q-64 -4 -76 -101.5t-12 -521.5v-203q0 -190 61 -284q37 -57 103.5 -88t150.5 -31q70 0 131.5 30t102.5 85q35 47 50 114t15 174v203q0 424 -13.5 521.5t-82.5 101.5v34q38 0 135 -1t148 -1q71 0 163.5 1t106.5 1v-34 q-58 -4 -70 -103.5t-12 -519.5v-194q0 -188 -33.5 -307t-103.5 -212q-67 -106 -209.5 -182t-327.5 -76q-215 0 -374.5 83t-241.5 235q-50 86 -69 187t-19 261v205q0 424 -12 521.5t-74 101.5zM543 1823v2q0 43 35 74.5t84 31.5q50 0 83 -31.5t33 -76.5q0 -47 -33 -80 t-83 -33q-49 0 -84 33.5t-35 79.5zM940 1823v2q0 43 35 74.5t84 31.5q51 0 86 -31.5t35 -76.5q0 -46 -35 -79.5t-86 -33.5q-49 0 -84 33.5t-35 79.5z" />
<glyph unicode="&#xfd;" horiz-adv-x="1474" d="M-37 1565v34q12 0 101 -1t165 -1q60 0 168 1t154 1v-34q-50 -4 -49 -42q0 -37 66 -164q6 -12 20 -38q12 -23 18 -35q95 -172 137 -268h5q44 93 137 258l1 1v1l1 1v1l1 1v1l1 1v1l1 1l1 1v1l1 1v1l1 1q94 171 106 214q16 52 -24 60q-5 1 -10 1v34q44 0 141 -1t158 -1 q70 0 146 1t95 1v-34q-22 -3 -40 -18.5t-56 -71.5t-89 -142t-150 -255q-72 -124 -115 -197l-127 -219v-97q0 -354 13.5 -438.5t84.5 -93.5v-35q-76 2 -285 2q-243 0 -290 -2v37q69 7 82.5 91t13.5 435v74l-135 239q-275 488 -304 537q-72 118 -109 142q-16 9 -36 12z M655 1751l373 309l98 -141l-417 -246z" />
<glyph unicode="&#xfe;" horiz-adv-x="1343" d="M111 -2v39q47 12 64 45q26 50 30 248q2 89 2 364v248q0 403 -10 489q-10 90 -45 115q-13 10 -37 17v36q21 0 123.5 -1t158.5 -1q58 0 161 1t120 1v-36q-20 -7 -34 -18t-23 -29t-14.5 -36.5t-8.5 -48t-3.5 -54.5t-0.5 -66q344 18 508 -121q158 -132 158 -363v-2 q0 -92 -32.5 -176t-78.5 -135q-48 -56 -119.5 -100.5t-152.5 -65.5q-135 -32 -285 -29q3 -156 20.5 -210t75.5 -72v-39q-55 2 -293 2q-229 0 -284 -2zM590 592q10 0 28.5 -1t30.5 -1q56 0 109 23.5t80 60.5q43 58 43 137v2q0 47 -19 89.5t-53 70.5q-25 21 -66.5 32t-85.5 11 q-27 0 -67 -4v-420z" />
<glyph unicode="&#xff;" horiz-adv-x="1474" d="M-37 1565v34q12 0 101 -1t165 -1q60 0 168 1t154 1v-34q-50 -4 -49 -42q0 -37 66 -164q6 -12 20 -38q12 -23 18 -35q95 -172 137 -268h5q44 93 137 258l1 1v1l1 1v1l1 1v1l1 1v1l1 1l1 1v1l1 1v1l1 1q94 171 106 214q16 52 -24 60q-5 1 -10 1v34q44 0 141 -1t158 -1 q70 0 146 1t95 1v-34q-22 -3 -40 -18.5t-56 -71.5t-89 -142t-150 -255q-72 -124 -115 -197l-127 -219v-97q0 -354 13.5 -438.5t84.5 -93.5v-35q-76 2 -285 2q-243 0 -290 -2v37q69 7 82.5 91t13.5 435v74l-135 239q-275 488 -304 537q-72 118 -109 142q-16 9 -36 12z M434 1823v2q0 43 35 74.5t84 31.5q50 0 83.5 -31.5t33.5 -76.5q0 -47 -33.5 -80t-83.5 -33q-49 0 -84 33.5t-35 79.5zM831 1823v2q0 43 35 74.5t84 31.5q51 0 86 -31.5t35 -76.5q0 -46 -35 -79.5t-86 -33.5q-49 0 -84 33.5t-35 79.5z" />
<glyph unicode="&#x152;" horiz-adv-x="2230" d="M82 797v2q0 195 71.5 351t197.5 256.5t293.5 154t363.5 53.5q53 0 178 -6.5t182 -8.5q31 0 128 -1t124 -1q140 0 463 5q-1 -43 -4 -187.5t-4 -218.5h-35q-10 56 -63 77t-173 21h-207v-333h123q132 0 183 9t61 38h35q-4 -126 -4 -191q0 -97 4 -215h-35q-9 32 -61.5 43.5 t-178.5 11.5h-127v-292q0 -33 8.5 -41.5t41.5 -10.5q9 0 114 -0.5t113 0.5q93 3 137.5 21.5t56.5 64.5h37q-8 -300 -8 -401q-40 0 -170.5 1t-204.5 1q-41 0 -121.5 1t-143 1t-107.5 -2q-308 -16 -375 -16q-151 0 -285 33.5t-245.5 100.5t-192 163t-125.5 228t-45 288z M500 797q0 -115 39 -209t105 -154.5t150.5 -93.5t178.5 -33q164 0 241 27q0 47 1.5 160t1.5 182v592q-86 22 -207 22q-233 0 -371.5 -132t-138.5 -359v-2z" />
<glyph unicode="&#x153;" horiz-adv-x="2230" d="M82 797v2q0 195 71.5 351t197.5 256.5t293.5 154t363.5 53.5q53 0 178 -6.5t182 -8.5q31 0 128 -1t124 -1q140 0 463 5q-1 -43 -4 -187.5t-4 -218.5h-35q-10 56 -63 77t-173 21h-207v-333h123q132 0 183 9t61 38h35q-4 -126 -4 -191q0 -97 4 -215h-35q-9 32 -61.5 43.5 t-178.5 11.5h-127v-292q0 -33 8.5 -41.5t41.5 -10.5q9 0 114 -0.5t113 0.5q93 3 137.5 21.5t56.5 64.5h37q-8 -300 -8 -401q-40 0 -170.5 1t-204.5 1q-41 0 -121.5 1t-143 1t-107.5 -2q-308 -16 -375 -16q-151 0 -285 33.5t-245.5 100.5t-192 163t-125.5 228t-45 288z M500 797q0 -115 39 -209t105 -154.5t150.5 -93.5t178.5 -33q164 0 241 27q0 47 1.5 160t1.5 182v592q-86 22 -207 22q-233 0 -371.5 -132t-138.5 -359v-2z" />
<glyph unicode="&#x178;" horiz-adv-x="1474" d="M-37 1565v34q12 0 101 -1t165 -1q60 0 168 1t154 1v-34q-50 -4 -49 -42q0 -37 66 -164q6 -12 20 -38q12 -23 18 -35q95 -172 137 -268h5q44 93 137 258l1 1v1l1 1v1l1 1v1l1 1v1l1 1l1 1v1l1 1v1l1 1q94 171 106 214q16 52 -24 60q-5 1 -10 1v34q44 0 141 -1t158 -1 q70 0 146 1t95 1v-34q-22 -3 -40 -18.5t-56 -71.5t-89 -142t-150 -255q-72 -124 -115 -197l-127 -219v-97q0 -354 13.5 -438.5t84.5 -93.5v-35q-76 2 -285 2q-243 0 -290 -2v37q69 7 82.5 91t13.5 435v74l-135 239q-275 488 -304 537q-72 118 -109 142q-16 9 -36 12z M434 1823v2q0 43 35 74.5t84 31.5q50 0 83.5 -31.5t33.5 -76.5q0 -47 -33.5 -80t-83.5 -33q-49 0 -84 33.5t-35 79.5zM831 1823v2q0 43 35 74.5t84 31.5q51 0 86 -31.5t35 -76.5q0 -46 -35 -79.5t-86 -33.5q-49 0 -84 33.5t-35 79.5z" />
<glyph unicode="&#x2c6;" horiz-adv-x="1124" d="M236 1755l327 309l311 -313l-65 -72l-256 174l-254 -172z" />
<glyph unicode="&#x2dc;" horiz-adv-x="1122" d="M213 1729q23 95 82.5 164t142.5 69q41 0 73.5 -14t76.5 -47q38 -31 63 -45t56 -15q36 0 65.5 27t44.5 78l90 -15q-28 -104 -84.5 -170.5t-132.5 -66.5q-73 0 -147 55q-34 26 -48 36t-38 20t-47 10q-73 0 -109 -105z" />
<glyph unicode="&#x2000;" horiz-adv-x="1045" />
<glyph unicode="&#x2001;" horiz-adv-x="2091" />
<glyph unicode="&#x2002;" horiz-adv-x="1045" />
<glyph unicode="&#x2003;" horiz-adv-x="2091" />
<glyph unicode="&#x2004;" horiz-adv-x="697" />
<glyph unicode="&#x2005;" horiz-adv-x="522" />
<glyph unicode="&#x2006;" horiz-adv-x="348" />
<glyph unicode="&#x2007;" horiz-adv-x="348" />
<glyph unicode="&#x2008;" horiz-adv-x="261" />
<glyph unicode="&#x2009;" horiz-adv-x="418" />
<glyph unicode="&#x200a;" horiz-adv-x="116" />
<glyph unicode="&#x2010;" horiz-adv-x="753" d="M59 643q2 18 2 127q0 113 -2 129h635v-256h-635z" />
<glyph unicode="&#x2011;" horiz-adv-x="753" d="M59 643q2 18 2 127q0 113 -2 129h635v-256h-635z" />
<glyph unicode="&#x2012;" horiz-adv-x="753" d="M59 643q2 18 2 127q0 113 -2 129h635v-256h-635z" />
<glyph unicode="&#x2013;" horiz-adv-x="1019" d="M59 641q2 18 2 131t-2 129q72 -2 465 -2q367 0 437 2v-260q-70 2 -435 2q-395 0 -467 -2z" />
<glyph unicode="&#x2014;" horiz-adv-x="2043" d="M59 643q2 18 2 127q0 113 -2 129q35 0 484.5 -1t488.5 -1q40 0 479.5 1t473.5 1v-256q-34 0 -471 1t-476 1q-41 0 -492.5 -1t-486.5 -1z" />
<glyph unicode="&#x2018;" horiz-adv-x="548" d="M102 1180q0 66 26.5 136.5t64.5 121.5q37 51 88.5 99t101.5 77l45 -47q-48 -51 -84.5 -116.5t-36.5 -121.5q0 -3 1.5 -6t4 -4.5t5 -2.5t6.5 -2.5t6 -2.5q47 -14 77.5 -56t30.5 -100q0 -74 -50.5 -123t-117.5 -49h-2q-66 0 -116 51t-50 146z" />
<glyph unicode="&#x2019;" horiz-adv-x="548" d="M111 1436q0 74 50.5 123t117.5 49h2q66 0 115.5 -51t49.5 -146q0 -67 -26 -137t-64 -121q-37 -51 -88.5 -99t-101.5 -77l-45 47q47 50 84 116.5t37 121.5q0 3 -1.5 6t-4 4.5t-5 2.5t-6.5 2.5t-6 2.5q-47 14 -77.5 56t-30.5 100z" />
<glyph unicode="&#x201a;" horiz-adv-x="548" d="M111 147q0 74 50.5 123t117.5 49h2q66 0 115.5 -50.5t49.5 -145.5q0 -67 -26 -137t-64 -121q-37 -51 -88.5 -99t-101.5 -77l-45 47q47 50 84 116t37 121q0 10 -23 19q-47 14 -77.5 55.5t-30.5 99.5z" />
<glyph unicode="&#x201c;" horiz-adv-x="972" d="M102 1180q0 66 26.5 136.5t64.5 121.5q37 51 88.5 99t101.5 77l45 -47q-48 -51 -84.5 -116.5t-36.5 -121.5q0 -3 1.5 -6t4 -4.5t5 -2.5t6.5 -2.5t6 -2.5q47 -14 77.5 -56t30.5 -100q0 -74 -50.5 -123t-117.5 -49h-2q-66 0 -116 51t-50 146zM526 1180q0 67 26.5 137.5 t65.5 120.5q82 113 191 176l45 -47q-48 -51 -84.5 -116.5t-36.5 -121.5q0 -3 1.5 -6t4 -4.5t5 -2.5t6.5 -2.5t6 -2.5q46 -14 77 -56t31 -100q0 -74 -51 -123t-119 -49h-2q-66 0 -116 51t-50 146z" />
<glyph unicode="&#x201d;" horiz-adv-x="972" d="M111 1436q0 74 50.5 123t117.5 49h2q66 0 115.5 -51t49.5 -146q0 -67 -26 -137t-64 -121q-37 -51 -88.5 -99t-101.5 -77l-45 47q47 50 84 116.5t37 121.5q0 3 -1.5 6t-4 4.5t-5 2.5t-6.5 2.5t-6 2.5q-47 14 -77.5 56t-30.5 100zM535 1436q0 74 51 123t119 49h2 q66 0 115.5 -51t49.5 -146q0 -67 -26.5 -137.5t-65.5 -120.5q-37 -52 -88.5 -99.5t-101.5 -76.5l-45 47q47 50 84 116.5t37 121.5q0 3 -1.5 6t-4 4.5t-5 2.5t-6.5 2.5t-6 2.5q-46 14 -77 56t-31 100z" />
<glyph unicode="&#x201e;" horiz-adv-x="972" d="M111 147q0 74 50.5 123t117.5 49h2q66 0 115.5 -50.5t49.5 -145.5q0 -67 -26 -137t-64 -121q-37 -51 -88.5 -99t-101.5 -77l-45 47q47 50 84 116t37 121q0 10 -23 19q-47 14 -77.5 55.5t-30.5 99.5zM535 147q0 74 51 123t119 49h2q66 0 115.5 -50.5t49.5 -145.5 q0 -67 -26.5 -137.5t-65.5 -120.5q-37 -52 -88.5 -99.5t-101.5 -76.5l-45 47q47 50 84 116t37 121q0 10 -23 19q-46 14 -77 55.5t-31 99.5z" />
<glyph unicode="&#x2022;" horiz-adv-x="755" d="M96 784q0 119 84 201t205 82h2q113 0 192.5 -79t79.5 -185q0 -123 -81 -204t-201 -81q-118 0 -199.5 76.5t-81.5 189.5z" />
<glyph unicode="&#x2026;" horiz-adv-x="2048" d="M162 150q0 72 53 123t127 51h2q73 0 124.5 -51t51.5 -123t-51.5 -121t-126.5 -49q-74 0 -127 49.5t-53 120.5zM846 150q0 72 53 123t127 51h2q73 0 124.5 -51t51.5 -123t-51.5 -121t-126.5 -49q-74 0 -127 49.5t-53 120.5zM1530 150q0 72 53 123t127 51h2q73 0 124.5 -51 t51.5 -123t-51.5 -121t-126.5 -49q-74 0 -127 49.5t-53 120.5z" />
<glyph unicode="&#x202f;" horiz-adv-x="418" />
<glyph unicode="&#x2039;" horiz-adv-x="622" d="M53 811q289 279 430 434l82 -61q-102 -183 -217 -361q128 -213 213 -383l-78 -63q-161 178 -430 434z" />
<glyph unicode="&#x203a;" horiz-adv-x="622" d="M59 438q105 202 211 363q-131 219 -211 387l76 59q179 -195 430 -434q-6 -6 -93.5 -91.5t-122 -120t-100 -102t-114.5 -120.5z" />
<glyph unicode="&#x205f;" horiz-adv-x="522" />
<glyph unicode="&#x20ac;" horiz-adv-x="1466" d="M20 600q9 20 23 71t18 77l138 -3q0 8 -1 26t-1 26q0 45 2 65l-125 -2q3 8 43 148h104q44 184 161 321.5t294 213t391 75.5q146 0 287 -29q-8 -173 -13 -428h-38q-23 75 -84 106t-166 31q-151 0 -262.5 -78t-161.5 -216l618 4q-18 -36 -43 -148l-604 4q-2 -18 -2 -59 q0 -42 2 -62l588 5q-11 -22 -24.5 -71.5t-16.5 -76.5l-522 4q43 -142 146.5 -221.5t252.5 -79.5q109 0 181 30.5t104 102.5h37q0 -166 10 -411q-158 -48 -348 -48q-195 0 -359.5 74t-278.5 216.5t-153 334.5z" />
<glyph unicode="&#x2122;" horiz-adv-x="1005" d="M39 1477v120q22 0 75 -1t72 -1h76q20 0 76 1t78 1q0 -15 -1 -60t-1 -60h-17q-6 28 -41 28h-69v-151q0 -126 4 -154t24 -29v-18q-7 0 -40.5 1t-47.5 1q-13 0 -47 -1t-39 -1v18q20 1 23.5 28.5t3.5 154.5v151h-72q-35 0 -41 -28h-16zM393 1153v18q18 1 24.5 26.5 t26.5 156.5l39 248h25q143 -218 166 -263h6q24 45 166 263h24l37 -248q18 -131 24 -156.5t23 -26.5v-18l-33 1q-33 1 -49 1q-10 0 -28 -0.5t-32 -1t-15 -0.5v18q17 0 17.5 19.5t-7.5 71.5q-7 36 -10 77h-4q-28 -57 -46 -85.5t-67 -92.5h-14q-53 76 -76 117q-26 43 -35 65h-6 q0 -15 -4 -46t-4 -35q-8 -52 -6.5 -71t18.5 -20v-18q-1 0 -38 1t-48 1q-12 0 -39.5 -1t-34.5 -1z" />
<glyph unicode="&#xe000;" horiz-adv-x="1597" d="M0 0v1597h1597v-1597h-1597z" />
<glyph unicode="&#xfb01;" horiz-adv-x="2076" d="M119 -2v39q64 7 76 107t12 552v246q0 421 -11.5 515.5t-72.5 103.5v38q8 0 175 -1t292 -1q94 0 270 1t244 1q0 -17 -3.5 -156t-4.5 -247h-39q-10 55 -67 76.5t-167 21.5h-235v-387h198q108 0 145 8.5t52 40.5h37q-4 -144 -4 -190q0 -55 4 -215h-37q-14 32 -51 42.5 t-141 10.5h-203v-155q0 -267 12.5 -337.5t75.5 -76.5v-37q-47 2 -275 2q-219 0 -282 -2zM1329 -2v37q47 8 64 43q26 51 30 258q2 89 2 358v248q0 421 -12.5 516t-79.5 105v36q16 0 115.5 -1t167.5 -1q58 0 155 1t125 1v-34q-64 -12 -76 -106t-12 -515v-246q0 -430 11 -526 q11 -99 47 -124q15 -10 41 -15v-35q-74 2 -287 2q-242 0 -291 -2z" />
<glyph unicode="&#xfb02;" horiz-adv-x="2428" d="M119 -2v39q64 7 76 107t12 552v246q0 421 -11.5 515.5t-72.5 103.5v38q8 0 175 -1t292 -1q94 0 270 1t244 1q0 -17 -3.5 -156t-4.5 -247h-39q-10 55 -67 76.5t-167 21.5h-235v-387h198q108 0 145 8.5t52 40.5h37q-4 -144 -4 -190q0 -55 4 -215h-37q-14 32 -51 42.5 t-141 10.5h-203v-155q0 -267 12.5 -337.5t75.5 -76.5v-37q-47 2 -275 2q-219 0 -282 -2zM1331 1563v36q15 0 118 -1t171 -1q66 0 163 1t113 1v-36q-64 -9 -77 -106t-13 -515v-588q0 -24 8 -32.5t35 -8.5h277q72 0 121 27q45 20 57 63h35q-5 -231 -8 -405q-125 2 -469 2 q-466 0 -525 -2v39q64 7 76 101.5t12 520.5v12.5v11.5v13v246q0 422 -13 518t-81 103z" />
</font>
</defs>
</svg>
